<svg width="222" height="157" viewBox="0 0 222 157" fill="none" xmlns="http://www.w3.org/2000/svg">
<path d="M61.2776 122.435L65.6157 126.593V111.2L61.2776 122.435ZM45.2423 122.435L49.6119 126.593H65.6157L45.2423 122.435ZM4.84806 107.012L9.29688 111.2H49.6119L4.84806 107.012ZM61.2776 95.1385L65.6157 99.3497V41.4427L61.2776 95.1385ZM71.5598 107.012L75.8778 111.2V99.3497L71.5598 107.012ZM61.2776 107.012L65.6157 111.2H75.8778L61.2776 107.012ZM32.7568 79.96L37.1509 84.201L50.8947 50.1776L32.7568 79.96ZM25.7796 95.1385L30.1874 99.3497L37.1509 84.201L25.7796 95.1385ZM105.189 124.307L109.441 128.461L111.924 128.709L105.189 124.307ZM102.817 123.893L107.074 128.047L109.441 128.461L102.817 123.893ZM100.563 123.312L104.824 127.468L107.074 128.047L100.563 123.312ZM98.4244 122.567L102.69 126.724L104.824 127.468L98.4244 122.567ZM96.4026 121.655L100.672 125.814L102.69 126.724L96.4026 121.655ZM94.4972 120.577L98.7702 124.739L100.672 125.814L94.4972 120.577ZM92.7083 119.334L96.9848 123.498L98.7702 124.739L92.7083 119.334ZM91.0358 117.925L95.3156 122.092L96.9848 123.498L91.0358 117.925ZM131.969 44.448L136.169 48.7587L134.689 47.1285L131.969 44.448ZM133.354 46.237L137.551 50.5441L136.169 48.7587L133.354 46.237ZM134.635 48.1823L138.829 52.4856L137.551 50.5441L134.635 48.1823ZM135.804 50.2849L139.996 54.5841L138.829 52.4856L135.804 50.2849ZM136.862 52.5447L141.052 56.8395L139.996 54.5841L136.862 52.5447ZM137.808 54.9619L141.996 59.2519L141.052 56.8395L137.808 54.9619ZM138.644 57.5362L142.83 61.8212L141.996 59.2519L138.644 57.5362ZM139.367 60.2678L143.552 64.5475L142.83 61.8212L139.367 60.2678ZM139.98 63.1567L144.164 67.4307L143.552 64.5475L139.98 63.1567ZM140.481 66.2029L144.664 70.4709L144.164 67.4307L140.481 66.2029ZM140.871 69.4063L145.053 73.668L144.664 70.4709L140.871 69.4063ZM141.149 72.7669L145.331 77.0221L145.053 73.668L141.149 72.7669ZM141.316 76.2849L145.497 80.5331L145.331 77.0221L141.316 76.2849ZM141.372 79.96L145.553 84.201L145.497 80.5331L141.372 79.96ZM141.319 83.3666L145.5 87.6009L145.553 84.201L141.319 83.3666ZM141.161 86.6499L145.342 90.8778L145.5 87.6009L141.161 86.6499ZM140.897 89.81L145.079 94.0316L145.342 90.8778L140.897 89.81ZM140.529 92.8468L144.711 97.0625L145.079 94.0316L140.529 92.8468ZM140.054 95.7603L144.238 99.9703L144.711 97.0625L140.054 95.7603ZM139.474 98.5506L143.659 102.755L144.238 99.9703L139.474 98.5506ZM138.789 101.218L142.975 105.417L143.659 102.755L138.789 101.218ZM137.999 103.761L142.186 107.956L142.975 105.417L137.999 103.761ZM137.103 106.182L141.292 110.371L142.186 107.956L137.103 106.182ZM136.102 108.479L140.293 112.664L141.292 110.371L136.102 108.479ZM134.995 110.653L139.188 114.834L140.293 112.664L134.995 110.653ZM133.783 112.704L137.979 116.881L139.188 114.834L133.783 112.704ZM132.469 114.61L136.668 118.783L137.979 116.881L132.469 114.61ZM131.039 116.351L135.24 120.52L136.668 118.783L131.039 116.351ZM129.491 117.925L133.695 122.092L135.24 120.52L129.491 117.925ZM127.825 119.334L132.033 123.498L133.695 122.092L127.825 119.334ZM126.043 120.577L130.254 124.739L132.033 123.498L126.043 120.577ZM124.143 121.655L128.358 125.814L130.254 124.739L124.143 121.655ZM122.126 122.567L126.345 126.724L128.358 125.814L122.126 122.567ZM119.991 123.312L124.214 127.468L126.345 126.724L119.991 123.312ZM117.74 123.893L121.967 128.047L124.214 127.468L117.74 123.893ZM115.371 124.307L119.603 128.461L121.967 128.047L115.371 124.307ZM112.884 124.556L117.121 128.709L119.603 128.461L112.884 124.556ZM110.28 124.639L114.523 128.792L117.121 128.709L110.28 124.639ZM107.676 124.556L111.924 128.709L114.523 128.792L107.676 124.556ZM116.454 49.8862L120.684 54.1862L122.314 55.7362L116.454 49.8862ZM114.629 48.7769L118.863 53.0791L120.684 54.1862L114.629 48.7769ZM112.612 48.1113L116.85 52.4148L118.863 53.0791L112.612 48.1113ZM110.403 47.8895L114.645 52.1934L116.85 52.4148L110.403 47.8895ZM108.155 48.1113L112.401 52.4148L114.645 52.1934L108.155 48.1113ZM106.102 48.7769L110.352 53.0791L112.401 52.4148L106.102 48.7769ZM104.244 49.8862L108.498 54.1862L110.352 53.0791L104.244 49.8862ZM102.582 51.4393L106.84 55.7362L108.498 54.1862L102.582 51.4393ZM101.116 53.436L105.376 57.729L106.84 55.7362L101.116 53.436ZM99.8453 55.8765L104.108 60.1647L105.376 57.729L99.8453 55.8765ZM98.77 58.7607L103.035 63.0433L104.108 60.1647L98.77 58.7607ZM97.8902 62.0886L102.157 66.3647L103.035 63.0433L97.8902 62.0886ZM97.2059 65.8603L101.474 70.129L102.157 66.3647L97.2059 65.8603ZM96.7171 70.0757L100.986 74.3361L101.474 70.129L96.7171 70.0757ZM96.4238 74.7348L100.693 78.9861L100.986 74.3361L96.4238 74.7348ZM96.3261 79.8376L100.596 84.0789L100.693 78.9861L96.3261 79.8376ZM96.349 82.2237L100.618 86.4603L100.596 84.0789L96.349 82.2237ZM96.4179 84.5265L100.687 88.7585L100.618 86.4603L96.4179 84.5265ZM96.5327 86.746L100.802 90.9737L100.687 88.7585L96.5327 86.746ZM96.6933 88.8821L100.962 93.1056L100.802 90.9737L96.6933 88.8821ZM96.8999 90.935L101.168 95.1545L100.962 93.1056L96.8999 90.935ZM97.1523 92.9046L101.42 97.1202L101.168 95.1545L97.1523 92.9046ZM97.4507 94.7908L101.718 99.0027L101.42 97.1202L97.4507 94.7908ZM97.795 96.5938L102.062 100.802L101.718 99.0027L97.795 96.5938ZM98.1851 98.3134L102.451 102.518L102.062 100.802L98.1851 98.3134ZM98.6212 99.9497L102.886 104.152L102.451 102.518L98.6212 99.9497ZM99.1032 101.503L103.367 105.702L102.886 104.152L99.1032 101.503ZM99.6311 102.973L103.894 107.168L103.367 105.702L99.6311 102.973ZM100.211 104.341L104.473 108.534L103.894 107.168L100.211 104.341ZM100.848 105.591L105.109 109.781L104.473 108.534L100.848 105.591ZM101.544 106.721L105.803 110.91L105.109 109.781L101.544 106.721ZM102.297 107.733L106.555 111.919L105.803 110.91L102.297 107.733ZM103.108 108.625L107.364 112.81L106.555 111.919L103.108 108.625ZM207.114 122.435L211.166 126.593V111.2L207.114 122.435ZM191.079 122.435L195.162 126.593H211.166L191.079 122.435ZM150.684 107.012L154.847 111.2H195.162L150.684 107.012ZM207.114 95.1385L211.166 99.3497V41.4427L207.114 95.1385ZM217.396 107.012L221.428 111.2V99.3497L217.396 107.012ZM207.114 107.012L211.166 111.2H221.428L207.114 107.012ZM178.593 79.96L182.701 84.201L196.445 50.1776L178.593 79.96ZM171.616 95.1385L175.738 99.3497L182.701 84.201L171.616 95.1385ZM61.2776 107.012V122.435L65.6157 111.2L61.2776 107.012ZM61.2776 122.435H45.2423L65.6157 126.593L61.2776 122.435ZM45.2423 107.012H4.84806L49.6119 111.2L45.2423 107.012ZM61.2776 37.1177V95.1385L65.6157 41.4427L61.2776 37.1177ZM71.5598 95.1385V107.012L75.8778 99.3497L71.5598 95.1385ZM71.5598 107.012H61.2776L75.8778 111.2L71.5598 107.012ZM46.5276 45.8697L32.7568 79.96L50.8947 50.1776L46.5276 45.8697ZM32.7568 79.96L25.7796 95.1385L37.1509 84.201L32.7568 79.96ZM107.676 124.556L105.189 124.307L111.924 128.709L107.676 124.556ZM105.189 124.307L102.817 123.893L109.441 128.461L105.189 124.307ZM102.817 123.893L100.563 123.312L107.074 128.047L102.817 123.893ZM100.563 123.312L98.4244 122.567L104.824 127.468L100.563 123.312ZM98.4244 122.567L96.4026 121.655L102.69 126.724L98.4244 122.567ZM96.4026 121.655L94.4972 120.577L100.672 125.814L96.4026 121.655ZM94.4972 120.577L92.7083 119.334L98.7702 124.739L94.4972 120.577ZM92.7083 119.334L91.0358 117.925L96.9848 123.498L92.7083 119.334ZM130.486 42.8147L131.969 44.448L134.689 47.1285L130.486 42.8147ZM131.969 44.448L133.354 46.237L136.169 48.7587L131.969 44.448ZM133.354 46.237L134.635 48.1823L137.551 50.5441L133.354 46.237ZM134.635 48.1823L135.804 50.2849L138.829 52.4856L134.635 48.1823ZM135.804 50.2849L136.862 52.5447L139.996 54.5841L135.804 50.2849ZM136.862 52.5447L137.808 54.9619L141.052 56.8395L136.862 52.5447ZM137.808 54.9619L138.644 57.5362L141.996 59.2519L137.808 54.9619ZM138.644 57.5362L139.367 60.2678L142.83 61.8212L138.644 57.5362ZM139.367 60.2678L139.98 63.1567L143.552 64.5475L139.367 60.2678ZM139.98 63.1567L140.481 66.2029L144.164 67.4307L139.98 63.1567ZM140.481 66.2029L140.871 69.4063L144.664 70.4709L140.481 66.2029ZM140.871 69.4063L141.149 72.7669L145.053 73.668L140.871 69.4063ZM141.149 72.7669L141.316 76.2849L145.331 77.0221L141.149 72.7669ZM141.316 76.2849L141.372 79.96L145.497 80.5331L141.316 76.2849ZM141.372 79.96L141.319 83.3666L145.553 84.201L141.372 79.96ZM141.319 83.3666L141.161 86.6499L145.5 87.6009L141.319 83.3666ZM141.161 86.6499L140.897 89.81L145.342 90.8778L141.161 86.6499ZM140.897 89.81L140.529 92.8468L145.079 94.0316L140.897 89.81ZM140.529 92.8468L140.054 95.7603L144.711 97.0625L140.529 92.8468ZM140.054 95.7603L139.474 98.5506L144.238 99.9703L140.054 95.7603ZM139.474 98.5506L138.789 101.218L143.659 102.755L139.474 98.5506ZM138.789 101.218L137.999 103.761L142.975 105.417L138.789 101.218ZM137.999 103.761L137.103 106.182L142.186 107.956L137.999 103.761ZM137.103 106.182L136.102 108.479L141.292 110.371L137.103 106.182ZM136.102 108.479L134.995 110.653L140.293 112.664L136.102 108.479ZM134.995 110.653L133.783 112.704L139.188 114.834L134.995 110.653ZM133.783 112.704L132.469 114.61L137.979 116.881L133.783 112.704ZM132.469 114.61L131.039 116.351L136.668 118.783L132.469 114.61ZM131.039 116.351L129.491 117.925L135.24 120.52L131.039 116.351ZM129.491 117.925L127.825 119.334L133.695 122.092L129.491 117.925ZM127.825 119.334L126.043 120.577L132.033 123.498L127.825 119.334ZM126.043 120.577L124.143 121.655L130.254 124.739L126.043 120.577ZM124.143 121.655L122.126 122.567L128.358 125.814L124.143 121.655ZM122.126 122.567L119.991 123.312L126.345 126.724L122.126 122.567ZM119.991 123.312L117.74 123.893L124.214 127.468L119.991 123.312ZM117.74 123.893L115.371 124.307L121.967 128.047L117.74 123.893ZM115.371 124.307L112.884 124.556L119.603 128.461L115.371 124.307ZM112.884 124.556L110.28 124.639L117.121 128.709L112.884 124.556ZM110.28 124.639L107.676 124.556L114.523 128.792L110.28 124.639ZM118.087 51.4393L116.454 49.8862L122.314 55.7362L118.087 51.4393ZM116.454 49.8862L114.629 48.7769L120.684 54.1862L116.454 49.8862ZM114.629 48.7769L112.612 48.1113L118.863 53.0791L114.629 48.7769ZM112.612 48.1113L110.403 47.8895L116.85 52.4148L112.612 48.1113ZM110.403 47.8895L108.155 48.1113L114.645 52.1934L110.403 47.8895ZM108.155 48.1113L106.102 48.7769L112.401 52.4148L108.155 48.1113ZM106.102 48.7769L104.244 49.8862L110.352 53.0791L106.102 48.7769ZM104.244 49.8862L102.582 51.4393L108.498 54.1862L104.244 49.8862ZM102.582 51.4393L101.116 53.436L106.84 55.7362L102.582 51.4393ZM101.116 53.436L99.8453 55.8765L105.376 57.729L101.116 53.436ZM99.8453 55.8765L98.77 58.7607L104.108 60.1647L99.8453 55.8765ZM98.77 58.7607L97.8902 62.0886L103.035 63.0433L98.77 58.7607ZM97.8902 62.0886L97.2059 65.8603L102.157 66.3647L97.8902 62.0886ZM97.2059 65.8603L96.7171 70.0757L101.474 70.129L97.2059 65.8603ZM96.7171 70.0757L96.4238 74.7348L100.986 74.3361L96.7171 70.0757ZM96.4238 74.7348L96.3261 79.8376L100.693 78.9861L96.4238 74.7348ZM96.3261 79.8376L96.349 82.2237L100.596 84.0789L96.3261 79.8376ZM96.349 82.2237L96.4179 84.5265L100.618 86.4603L96.349 82.2237ZM96.4179 84.5265L96.5327 86.746L100.687 88.7585L96.4179 84.5265ZM96.5327 86.746L96.6933 88.8821L100.802 90.9737L96.5327 86.746ZM96.6933 88.8821L96.8999 90.935L100.962 93.1056L96.6933 88.8821ZM96.8999 90.935L97.1523 92.9046L101.168 95.1545L96.8999 90.935ZM97.1523 92.9046L97.4507 94.7908L101.42 97.1202L97.1523 92.9046ZM97.4507 94.7908L97.795 96.5938L101.718 99.0027L97.4507 94.7908ZM97.795 96.5938L98.1851 98.3134L102.062 100.802L97.795 96.5938ZM98.1851 98.3134L98.6212 99.9497L102.451 102.518L98.1851 98.3134ZM98.6212 99.9497L99.1032 101.503L102.886 104.152L98.6212 99.9497ZM99.1032 101.503L99.6311 102.973L103.367 105.702L99.1032 101.503ZM99.6311 102.973L100.211 104.341L103.894 107.168L99.6311 102.973ZM100.211 104.341L100.848 105.591L104.473 108.534L100.211 104.341ZM100.848 105.591L101.544 106.721L105.109 109.781L100.848 105.591ZM101.544 106.721L102.297 107.733L105.803 110.91L101.544 106.721ZM102.297 107.733L103.108 108.625L106.555 111.919L102.297 107.733ZM207.114 107.012V122.435L211.166 111.2L207.114 107.012ZM207.114 122.435H191.079L211.166 126.593L207.114 122.435ZM191.079 107.012H150.684L195.162 111.2L191.079 107.012ZM207.114 37.1177V95.1385L211.166 41.4427L207.114 37.1177ZM217.396 95.1385V107.012L221.428 99.3497L217.396 95.1385ZM217.396 107.012H207.114L221.428 111.2L217.396 107.012ZM192.364 45.8697L178.593 79.96L196.445 50.1776L192.364 45.8697ZM178.593 79.96L171.616 95.1385L182.701 84.201L178.593 79.96ZM45.2423 122.435H61.2776V107.012L45.2423 122.435ZM3.99121 105.665L4.84806 107.012H45.2423L3.99121 105.665ZM45.9767 95.1385H25.7796L3.99121 105.665L45.9767 95.1385ZM25.7796 95.1385L32.7568 79.96L46.5276 45.8697L25.7796 95.1385ZM35.4498 37.1177L3.99121 105.665L25.7796 95.1385L35.4498 37.1177ZM71.5598 107.012V95.1385H61.2776L71.5598 107.012ZM45.2423 107.012V122.435L61.2776 107.012H45.2423ZM45.9767 95.1385L3.99121 105.665L45.2423 107.012L45.9767 95.1385ZM35.4498 37.1177L25.7796 95.1385L46.5276 45.8697L35.4498 37.1177ZM61.2776 107.012H71.5598L61.2776 95.1385V107.012ZM45.9767 95.1385L45.2423 107.012H61.2776L45.9767 95.1385ZM61.2776 37.1177H35.4498L46.5276 45.8697L61.2776 37.1177ZM45.9767 95.1385L61.2776 107.012V95.1385H45.9767ZM61.2776 37.1177L46.5276 45.8697L45.9767 95.1385L61.2776 37.1177ZM45.9767 95.1385H61.2776V37.1177L45.9767 95.1385ZM105.189 124.307L107.676 124.556L110.28 124.639L105.189 124.307ZM100.563 123.312L102.817 123.893L105.189 124.307L100.563 123.312ZM96.4026 121.655L98.4244 122.567L100.563 123.312L96.4026 121.655ZM92.7083 119.334L94.4972 120.577L96.4026 121.655L92.7083 119.334ZM89.4798 116.351L91.0358 117.925L92.7083 119.334L89.4798 116.351ZM86.7172 112.704L88.0403 114.61L89.4798 116.351L86.7172 112.704ZM84.4169 108.479L85.5148 110.653L86.7172 112.704L84.4169 108.479ZM82.5349 103.761L83.4236 106.182L84.4169 108.479L82.5349 103.761ZM81.0711 98.5506L81.7508 101.218L82.5349 103.761L81.0711 98.5506ZM80.0256 92.8468L80.4961 95.7603L81.0711 98.5506L80.0256 92.8468ZM79.3983 86.6499L79.6596 89.81L80.0256 92.8468L79.3983 86.6499ZM79.1891 79.96L79.2414 83.3666L79.3983 86.6499L79.1891 79.96ZM96.349 82.2237L96.3261 79.8376L79.1891 79.96L96.349 82.2237ZM79.1891 79.96L96.3261 79.8376L96.4238 74.7348L79.1891 79.96ZM79.4119 72.7669L79.2448 76.2849L79.1891 79.96L79.4119 72.7669ZM80.08 66.2029L79.6902 69.4063L79.4119 72.7669L80.08 66.2029ZM81.1936 60.2678L80.5811 63.1567L80.08 66.2029L81.1936 60.2678ZM82.7525 54.9619L81.9174 57.5362L81.1936 60.2678L82.7525 54.9619ZM84.757 50.2849L83.6991 52.5447L82.7525 54.9619L84.757 50.2849ZM87.2068 46.237L85.9262 48.1823L84.757 50.2849L87.2068 46.237ZM90.0748 42.8147L88.5919 44.448L87.2068 46.237L90.0748 42.8147ZM93.3339 40.0146L91.6555 41.3369L90.0748 42.8147L93.3339 40.0146ZM96.984 37.8368L95.1101 38.8479L93.3339 40.0146L96.984 37.8368ZM101.025 36.2812L98.9557 36.9812L96.984 37.8368L101.025 36.2812ZM105.457 35.3479L103.192 35.7368L101.025 36.2812L105.457 35.3479ZM110.28 35.0367L107.82 35.1145L105.457 35.3479L110.28 35.0367ZM115.104 35.3479L112.741 35.1145L110.28 35.0367L115.104 35.3479ZM119.536 36.2812L117.369 35.7368L115.104 35.3479L119.536 36.2812ZM123.577 37.8368L121.605 36.9812L119.536 36.2812L123.577 37.8368ZM127.227 40.0146L125.451 38.8479L123.577 37.8368L127.227 40.0146ZM130.486 42.8147L128.905 41.3369L127.227 40.0146L130.486 42.8147ZM133.354 46.237L131.969 44.448L130.486 42.8147L133.354 46.237ZM135.804 50.2849L134.635 48.1823L133.354 46.237L135.804 50.2849ZM137.808 54.9619L136.862 52.5447L135.804 50.2849L137.808 54.9619ZM139.367 60.2678L138.644 57.5362L137.808 54.9619L139.367 60.2678ZM140.481 66.2029L139.98 63.1567L139.367 60.2678L140.481 66.2029ZM141.149 72.7669L140.871 69.4063L140.481 66.2029L141.149 72.7669ZM141.372 79.96L141.316 76.2849L141.149 72.7669L141.372 79.96ZM141.161 86.6499L141.319 83.3666L141.372 79.96L141.161 86.6499ZM140.529 92.8468L140.897 89.81L141.161 86.6499L140.529 92.8468ZM139.474 98.5506L140.054 95.7603L140.529 92.8468L139.474 98.5506ZM137.999 103.761L138.789 101.218L139.474 98.5506L137.999 103.761ZM136.102 108.479L137.103 106.182L137.999 103.761L136.102 108.479ZM133.783 112.704L134.995 110.653L136.102 108.479L133.783 112.704ZM131.039 116.351L132.469 114.61L133.783 112.704L131.039 116.351ZM127.825 119.334L129.491 117.925L131.039 116.351L127.825 119.334ZM124.143 121.655L126.043 120.577L127.825 119.334L124.143 121.655ZM119.991 123.312L122.126 122.567L124.143 121.655L119.991 123.312ZM115.371 124.307L117.74 123.893L119.991 123.312L115.371 124.307ZM110.28 124.639L112.884 124.556L115.371 124.307L110.28 124.639ZM100.563 123.312L105.189 124.307L110.28 124.639L100.563 123.312ZM92.7083 119.334L96.4026 121.655L100.563 123.312L92.7083 119.334ZM86.7172 112.704L89.4798 116.351L92.7083 119.334L86.7172 112.704ZM82.5349 103.761L84.4169 108.479L86.7172 112.704L82.5349 103.761ZM80.0256 92.8468L81.0711 98.5506L82.5349 103.761L80.0256 92.8468ZM79.1891 79.96L79.3983 86.6499L80.0256 92.8468L79.1891 79.96ZM96.4179 84.5265L96.349 82.2237L79.1891 79.96L96.4179 84.5265ZM79.1891 79.96L96.4238 74.7348L96.7171 70.0757L79.1891 79.96ZM80.08 66.2029L79.4119 72.7669L79.1891 79.96L80.08 66.2029ZM82.7525 54.9619L81.1936 60.2678L80.08 66.2029L82.7525 54.9619ZM87.2068 46.237L84.757 50.2849L82.7525 54.9619L87.2068 46.237ZM93.3339 40.0146L90.0748 42.8147L87.2068 46.237L93.3339 40.0146ZM101.025 36.2812L96.984 37.8368L93.3339 40.0146L101.025 36.2812ZM110.28 35.0367L105.457 35.3479L101.025 36.2812L110.28 35.0367ZM119.536 36.2812L115.104 35.3479L110.28 35.0367L119.536 36.2812ZM127.227 40.0146L123.577 37.8368L119.536 36.2812L127.227 40.0146ZM133.354 46.237L130.486 42.8147L127.227 40.0146L133.354 46.237ZM137.808 54.9619L135.804 50.2849L133.354 46.237L137.808 54.9619ZM140.481 66.2029L139.367 60.2678L137.808 54.9619L140.481 66.2029ZM141.372 79.96L141.149 72.7669L140.481 66.2029L141.372 79.96ZM140.529 92.8468L141.161 86.6499L141.372 79.96L140.529 92.8468ZM137.999 103.761L139.474 98.5506L140.529 92.8468L137.999 103.761ZM133.783 112.704L136.102 108.479L137.999 103.761L133.783 112.704ZM127.825 119.334L131.039 116.351L133.783 112.704L127.825 119.334ZM119.991 123.312L124.143 121.655L127.825 119.334L119.991 123.312ZM110.28 124.639L115.371 124.307L119.991 123.312L110.28 124.639ZM92.7083 119.334L100.563 123.312L110.28 124.639L92.7083 119.334ZM82.5349 103.761L86.7172 112.704L92.7083 119.334L82.5349 103.761ZM79.1891 79.96L80.0256 92.8468L82.5349 103.761L79.1891 79.96ZM96.5327 86.746L96.4179 84.5265L79.1891 79.96L96.5327 86.746ZM79.1891 79.96L96.7171 70.0757L97.2059 65.8603L79.1891 79.96ZM82.7525 54.9619L80.08 66.2029L79.1891 79.96L82.7525 54.9619ZM93.3339 40.0146L87.2068 46.237L82.7525 54.9619L93.3339 40.0146ZM110.28 35.0367L101.025 36.2812L93.3339 40.0146L110.28 35.0367ZM127.227 40.0146L119.536 36.2812L110.28 35.0367L127.227 40.0146ZM137.808 54.9619L133.354 46.237L127.227 40.0146L137.808 54.9619ZM141.372 79.96L140.481 66.2029L137.808 54.9619L141.372 79.96ZM137.999 103.761L140.529 92.8468L141.372 79.96L137.999 103.761ZM127.825 119.334L133.783 112.704L137.999 103.761L127.825 119.334ZM110.28 124.639L119.991 123.312L127.825 119.334L110.28 124.639ZM82.5349 103.761L92.7083 119.334L110.28 124.639L82.5349 103.761ZM96.5327 86.746L79.1891 79.96L82.5349 103.761L96.5327 86.746ZM79.1891 79.96L97.2059 65.8603L97.8902 62.0886L79.1891 79.96ZM93.3339 40.0146L82.7525 54.9619L79.1891 79.96L93.3339 40.0146ZM127.227 40.0146L110.28 35.0367L93.3339 40.0146H127.227ZM141.372 79.96L137.808 54.9619L127.227 40.0146L141.372 79.96ZM127.825 119.334L137.999 103.761L141.372 79.96L127.825 119.334ZM82.5349 103.761L110.28 124.639L127.825 119.334L82.5349 103.761ZM96.6933 88.8821L96.5327 86.746L82.5349 103.761L96.6933 88.8821ZM79.1891 79.96L97.8902 62.0886L98.77 58.7607L79.1891 79.96ZM127.825 119.334L141.372 79.96L127.227 40.0146L127.825 119.334ZM96.8999 90.935L96.6933 88.8821L82.5349 103.761L96.8999 90.935ZM79.1891 79.96L98.77 58.7607L99.8453 55.8765L79.1891 79.96ZM97.1523 92.9046L96.8999 90.935L82.5349 103.761L97.1523 92.9046ZM79.1891 79.96L99.8453 55.8765L101.116 53.436L79.1891 79.96ZM97.4507 94.7908L97.1523 92.9046L82.5349 103.761L97.4507 94.7908ZM79.1891 79.96L101.116 53.436L102.582 51.4393L79.1891 79.96ZM97.795 96.5938L97.4507 94.7908L82.5349 103.761L97.795 96.5938ZM93.3339 40.0146L79.1891 79.96L102.582 51.4393L93.3339 40.0146ZM98.1851 98.3134L97.795 96.5938L82.5349 103.761L98.1851 98.3134ZM93.3339 40.0146L102.582 51.4393L104.244 49.8862L93.3339 40.0146ZM98.6212 99.9497L98.1851 98.3134L82.5349 103.761L98.6212 99.9497ZM93.3339 40.0146L104.244 49.8862L106.102 48.7769L93.3339 40.0146ZM99.1032 101.503L98.6212 99.9497L82.5349 103.761L99.1032 101.503ZM93.3339 40.0146L106.102 48.7769L108.155 48.1113L93.3339 40.0146ZM99.6311 102.973L99.1032 101.503L82.5349 103.761L99.6311 102.973ZM93.3339 40.0146L108.155 48.1113L110.403 47.8895L93.3339 40.0146ZM100.211 104.341L99.6311 102.973L82.5349 103.761L100.211 104.341ZM93.3339 40.0146L110.403 47.8895L112.612 48.1113L93.3339 40.0146ZM100.848 105.591L100.211 104.341L82.5349 103.761L100.848 105.591ZM93.3339 40.0146L112.612 48.1113L114.629 48.7769L93.3339 40.0146ZM101.544 106.721L100.848 105.591L82.5349 103.761L101.544 106.721ZM127.227 40.0146H93.3339L114.629 48.7769L127.227 40.0146ZM102.297 107.733L101.544 106.721L82.5349 103.761L102.297 107.733ZM127.227 40.0146L114.629 48.7769L116.454 49.8862L127.227 40.0146ZM103.108 108.625L102.297 107.733L82.5349 103.761L103.108 108.625ZM127.227 40.0146L116.454 49.8862L118.087 51.4393L127.227 40.0146ZM103.977 109.399L103.108 108.625L82.5349 103.761L103.977 109.399ZM127.227 40.0146L118.087 51.4393L119.528 53.436L127.227 40.0146ZM104.903 110.053L103.977 109.399L82.5349 103.761L104.903 110.053ZM127.227 40.0146L119.528 53.436L120.777 55.8765L127.227 40.0146ZM105.887 110.589L104.903 110.053L82.5349 103.761L105.887 110.589ZM127.227 40.0146L120.777 55.8765L121.833 58.7607L127.227 40.0146ZM106.93 111.005L105.887 110.589L82.5349 103.761L106.93 111.005ZM127.227 40.0146L121.833 58.7607L122.698 62.0886L127.227 40.0146ZM106.93 111.005L82.5349 103.761L127.825 119.334L106.93 111.005ZM127.227 40.0146L122.698 62.0886L123.37 65.8603L127.227 40.0146ZM108.03 111.303L106.93 111.005L127.825 119.334L108.03 111.303ZM127.227 40.0146L123.37 65.8603L123.851 70.0757L127.227 40.0146ZM109.187 111.481L108.03 111.303L127.825 119.334L109.187 111.481ZM127.227 40.0146L123.851 70.0757L124.139 74.7348L127.227 40.0146ZM110.403 111.541L109.187 111.481L127.825 119.334L110.403 111.541ZM127.227 40.0146L124.139 74.7348L124.235 79.8376L127.227 40.0146ZM112.612 111.321L110.403 111.541L127.825 119.334L112.612 111.321ZM127.227 40.0146L124.235 79.8376L124.139 84.9014L127.227 40.0146ZM114.629 110.66L112.612 111.321L127.825 119.334L114.629 110.66ZM127.227 40.0146L124.139 84.9014L123.851 89.5248L127.227 40.0146ZM116.454 109.56L114.629 110.66L127.825 119.334L116.454 109.56ZM127.825 119.334L127.227 40.0146L123.851 89.5248L127.825 119.334ZM118.087 108.018L116.454 109.56L127.825 119.334L118.087 108.018ZM127.825 119.334L123.851 89.5248L123.37 93.7078L127.825 119.334ZM119.528 106.037L118.087 108.018L127.825 119.334L119.528 106.037ZM127.825 119.334L123.37 93.7078L122.698 97.4506L127.825 119.334ZM120.777 103.615L119.528 106.037L127.825 119.334L120.777 103.615ZM127.825 119.334L122.698 97.4506L121.833 100.753L127.825 119.334ZM121.833 100.753L120.777 103.615L127.825 119.334L121.833 100.753ZM191.079 122.435H207.114V107.012L191.079 122.435ZM149.827 105.665L150.684 107.012H191.079L149.827 105.665ZM191.813 95.1385H171.616L149.827 105.665L191.813 95.1385ZM171.616 95.1385L178.593 79.96L192.364 45.8697L171.616 95.1385ZM181.286 37.1177L149.827 105.665L171.616 95.1385L181.286 37.1177ZM217.396 107.012V95.1385H207.114L217.396 107.012ZM191.079 107.012V122.435L207.114 107.012H191.079ZM191.813 95.1385L149.827 105.665L191.079 107.012L191.813 95.1385ZM181.286 37.1177L171.616 95.1385L192.364 45.8697L181.286 37.1177ZM207.114 107.012H217.396L207.114 95.1385V107.012ZM191.813 95.1385L191.079 107.012H207.114L191.813 95.1385ZM207.114 37.1177H181.286L192.364 45.8697L207.114 37.1177ZM191.813 95.1385L207.114 107.012V95.1385H191.813ZM207.114 37.1177L192.364 45.8697L191.813 95.1385L207.114 37.1177ZM191.813 95.1385H207.114V37.1177L191.813 95.1385Z" fill="#0C4E96"/>
<path d="M72.4681 104.88H62.3881V120H46.6681V104.88H7.06814L6.22814 103.56L37.0681 36.36H62.3881V93.24H72.4681V104.88ZM27.5881 93.24H47.3881L47.9281 44.94L34.4281 78.36L27.5881 93.24ZM110.428 122.16C99.9875 122.16 92.2875 118.26 87.3275 110.46C82.4075 102.66 79.9475 91.96 79.9475 78.36C79.9475 63.64 82.5675 52.62 87.8075 45.3C93.0475 37.98 100.588 34.32 110.428 34.32C120.268 34.32 127.808 37.98 133.048 45.3C138.288 52.62 140.908 63.64 140.908 78.36C140.908 91.96 138.428 102.66 133.468 110.46C128.548 118.26 120.868 122.16 110.428 122.16ZM110.548 109.32C119.588 109.32 124.108 98.96 124.108 78.24C124.108 57.36 119.588 46.92 110.548 46.92C101.348 46.92 96.7475 57.36 96.7475 78.24C96.7475 87.76 97.8275 95.32 99.9875 100.92C102.148 106.52 105.668 109.32 110.548 109.32ZM215.437 104.88H205.357V120H189.637V104.88H150.037L149.197 103.56L180.037 36.36H205.357V93.24H215.437V104.88ZM170.557 93.24H190.357L190.897 44.94L177.397 78.36L170.557 93.24Z" fill="#E7F3FF"/>
<path d="M72.4681 104.88V105.88H73.4681V104.88H72.4681ZM62.3881 104.88V103.88H61.3881V104.88H62.3881ZM62.3881 120V121H63.3881V120H62.3881ZM46.6681 120H45.6681V121H46.6681V120ZM46.6681 104.88H47.6681V103.88H46.6681V104.88ZM7.06814 104.88L6.22448 105.417L6.5192 105.88H7.06814V104.88ZM6.22814 103.56L5.31928 103.143L5.09224 103.638L5.38448 104.097L6.22814 103.56ZM37.0681 36.36V35.36H36.4268L36.1593 35.9429L37.0681 36.36ZM62.3881 36.36H63.3881V35.36H62.3881V36.36ZM62.3881 93.24H61.3881V94.24H62.3881V93.24ZM72.4681 93.24H73.4681V92.24H72.4681V93.24ZM27.5881 93.24L26.6795 92.8223L26.0279 94.24H27.5881V93.24ZM47.3881 93.24V94.24H48.377L48.3881 93.2512L47.3881 93.24ZM47.9281 44.94L48.9281 44.9512L47.0009 44.5655L47.9281 44.94ZM34.4281 78.36L35.3367 78.7777L35.3466 78.7563L35.3554 78.7345L34.4281 78.36ZM72.4681 103.88H62.3881V105.88H72.4681V103.88ZM61.3881 104.88V120H63.3881V104.88H61.3881ZM62.3881 119H46.6681V121H62.3881V119ZM47.6681 120V104.88H45.6681V120H47.6681ZM46.6681 103.88H7.06814V105.88H46.6681V103.88ZM7.9118 104.343L7.0718 103.023L5.38448 104.097L6.22448 105.417L7.9118 104.343ZM7.137 103.977L37.977 36.7771L36.1593 35.9429L5.31928 103.143L7.137 103.977ZM37.0681 37.36H62.3881V35.36H37.0681V37.36ZM61.3881 36.36V93.24H63.3881V36.36H61.3881ZM62.3881 94.24H72.4681V92.24H62.3881V94.24ZM71.4681 93.24V104.88H73.4681V93.24H71.4681ZM27.5881 94.24H47.3881V92.24H27.5881V94.24ZM48.3881 93.2512L48.9281 44.9512L46.9282 44.9288L46.3882 93.2288L48.3881 93.2512ZM47.0009 44.5655L33.5009 77.9855L35.3554 78.7345L48.8554 45.3145L47.0009 44.5655ZM33.5195 77.9423L26.6795 92.8223L28.4967 93.6577L35.3367 78.7777L33.5195 77.9423ZM87.3275 110.46L86.4817 110.994L86.4837 110.997L87.3275 110.46ZM87.8075 45.3L88.6207 45.8821L88.6207 45.8821L87.8075 45.3ZM133.048 45.3L132.234 45.8821L132.234 45.8821L133.048 45.3ZM133.468 110.46L132.624 109.923L132.622 109.926L133.468 110.46ZM110.428 121.16C100.277 121.16 92.9214 117.393 88.1714 109.923L86.4837 110.997C91.6536 119.127 99.6978 123.16 110.428 123.16V121.16ZM88.1733 109.926C83.3911 102.345 80.9475 91.8554 80.9475 78.36H78.9475C78.9475 92.0646 81.4239 102.975 86.4817 110.994L88.1733 109.926ZM80.9475 78.36C80.9475 63.7277 83.5575 52.955 88.6207 45.8821L86.9944 44.7179C81.5775 52.285 78.9475 63.5523 78.9475 78.36H80.9475ZM88.6207 45.8821C93.6534 38.8516 100.875 35.32 110.428 35.32V33.32C100.3 33.32 92.4416 37.1084 86.9944 44.7179L88.6207 45.8821ZM110.428 35.32C119.98 35.32 127.202 38.8516 132.234 45.8821L133.861 44.7179C128.413 37.1084 120.555 33.32 110.428 33.32V35.32ZM132.234 45.8821C137.298 52.955 139.908 63.7277 139.908 78.36H141.908C141.908 63.5523 139.277 52.285 133.861 44.7179L132.234 45.8821ZM139.908 78.36C139.908 91.8542 137.444 102.343 132.624 109.923L134.311 110.997C139.411 102.977 141.908 92.0658 141.908 78.36H139.908ZM132.622 109.926C127.912 117.394 120.578 121.16 110.428 121.16V123.16C121.157 123.16 129.183 119.126 134.313 110.994L132.622 109.926ZM110.548 110.32C113.013 110.32 115.207 109.609 117.087 108.172C118.954 106.746 120.457 104.647 121.634 101.95C123.978 96.5785 125.108 88.6419 125.108 78.24H123.108C123.108 88.558 121.977 96.1615 119.801 101.15C118.718 103.633 117.396 105.419 115.873 106.583C114.363 107.736 112.602 108.32 110.548 108.32V110.32ZM125.108 78.24C125.108 67.7585 123.978 59.763 121.635 54.3527C120.459 51.6365 118.957 49.5221 117.09 48.0851C115.21 46.6376 113.015 45.92 110.548 45.92V47.92C112.6 47.92 114.36 48.5074 115.87 49.6699C117.394 50.8429 118.716 52.6435 119.8 55.1473C121.977 60.177 123.108 67.8415 123.108 78.24H125.108ZM110.548 45.92C108.044 45.92 105.817 46.635 103.907 48.08C102.009 49.5153 100.48 51.629 99.2824 54.3468C96.8975 59.7594 95.7475 67.7575 95.7475 78.24H97.7475C97.7475 67.8425 98.8975 60.1806 101.113 55.1532C102.215 52.651 103.561 50.8497 105.113 49.675C106.653 48.51 108.451 47.92 110.548 47.92V45.92ZM95.7475 78.24C95.7475 87.8194 96.832 95.5178 99.0545 101.28L100.921 100.56C98.8231 95.1222 97.7475 87.7006 97.7475 78.24H95.7475ZM99.0545 101.28C100.178 104.192 101.687 106.461 103.625 108.003C105.577 109.556 107.902 110.32 110.548 110.32V108.32C108.313 108.32 106.438 107.684 104.87 106.437C103.288 105.179 101.957 103.248 100.921 100.56L99.0545 101.28ZM215.437 104.88V105.88H216.437V104.88H215.437ZM205.357 104.88V103.88H204.357V104.88H205.357ZM205.357 120V121H206.357V120H205.357ZM189.637 120H188.637V121H189.637V120ZM189.637 104.88H190.637V103.88H189.637V104.88ZM150.037 104.88L149.193 105.417L149.488 105.88H150.037V104.88ZM149.197 103.56L148.288 103.143L148.061 103.638L148.353 104.097L149.197 103.56ZM180.037 36.36V35.36H179.396L179.128 35.9429L180.037 36.36ZM205.357 36.36H206.357V35.36H205.357V36.36ZM205.357 93.24H204.357V94.24H205.357V93.24ZM215.437 93.24H216.437V92.24H215.437V93.24ZM170.557 93.24L169.648 92.8223L168.997 94.24H170.557V93.24ZM190.357 93.24V94.24H191.346L191.357 93.2512L190.357 93.24ZM190.897 44.94L191.897 44.9512L189.97 44.5655L190.897 44.94ZM177.397 78.36L178.305 78.7777L178.315 78.7563L178.324 78.7345L177.397 78.36ZM215.437 103.88H205.357V105.88H215.437V103.88ZM204.357 104.88V120H206.357V104.88H204.357ZM205.357 119H189.637V121H205.357V119ZM190.637 120V104.88H188.637V120H190.637ZM189.637 103.88H150.037V105.88H189.637V103.88ZM150.881 104.343L150.041 103.023L148.353 104.097L149.193 105.417L150.881 104.343ZM150.106 103.977L180.946 36.7771L179.128 35.9429L148.288 103.143L150.106 103.977ZM180.037 37.36H205.357V35.36H180.037V37.36ZM204.357 36.36V93.24H206.357V36.36H204.357ZM205.357 94.24H215.437V92.24H205.357V94.24ZM214.437 93.24V104.88H216.437V93.24H214.437ZM170.557 94.24H190.357V92.24H170.557V94.24ZM191.357 93.2512L191.897 44.9512L189.897 44.9288L189.357 93.2288L191.357 93.2512ZM189.97 44.5655L176.47 77.9855L178.324 78.7345L191.824 45.3145L189.97 44.5655ZM176.488 77.9423L169.648 92.8223L171.465 93.6577L178.305 78.7777L176.488 77.9423Z" fill="#0C4E96"/>
</svg>
