<svg width="240" height="177" viewBox="0 0 240 177" fill="none" xmlns="http://www.w3.org/2000/svg">
<path d="M69.584 138.532L73.572 142.391V125.025L69.584 138.532ZM51.506 138.532L55.5178 142.391H73.572L51.506 138.532ZM5.966 121.144L10.0377 125.025H55.5178L5.966 121.144ZM69.584 107.758L73.572 111.657V46.3312L69.584 107.758ZM81.176 121.144L85.1487 125.025V111.657L81.176 121.144ZM69.584 121.144L73.572 125.025H85.1487L69.584 121.144ZM37.43 90.646L41.4603 94.5676L56.9649 56.1852L37.43 90.646ZM29.564 107.758L33.6047 111.657L41.4603 94.5676L29.564 107.758ZM119.089 140.642L123.012 144.498L125.813 144.778L119.089 140.642ZM116.416 140.175L120.342 144.032L123.012 144.498L116.416 140.175ZM113.874 139.521L117.803 143.378L120.342 144.032L113.874 139.521ZM111.463 138.68L115.396 142.538L117.803 143.378L111.463 138.68ZM109.184 137.652L113.119 141.512L115.396 142.538L109.184 137.652ZM107.035 136.438L110.974 140.299L113.119 141.512L107.035 136.438ZM105.019 135.036L108.96 138.899L110.974 140.299L105.019 135.036ZM103.133 133.448L107.077 137.313L108.96 138.899L103.133 133.448ZM149.281 50.6102L153.164 54.5845L151.494 52.7455L149.281 50.6102ZM150.842 52.627L154.723 56.5987L153.164 54.5845L150.842 52.627ZM152.286 54.8202L156.165 58.7889L154.723 56.5987L152.286 54.8202ZM153.604 57.1906L157.482 61.1563L156.165 58.7889L153.604 57.1906ZM154.797 59.7383L158.673 63.7006L157.482 61.1563L154.797 59.7383ZM155.864 62.4633L159.738 66.4221L158.673 63.7006L155.864 62.4633ZM156.806 65.3657L160.679 69.3206L159.738 66.4221L156.806 65.3657ZM157.622 68.4453L161.494 72.3961L160.679 69.3206L157.622 68.4453ZM158.312 71.7022L162.183 75.6487L161.494 72.3961L158.312 71.7022ZM158.877 75.1363L162.747 79.0784L162.183 75.6487L158.877 75.1363ZM159.316 78.7478L163.186 82.6851L162.747 79.0784L159.316 78.7478ZM159.63 82.5366L163.5 86.4689L163.186 82.6851L159.63 82.5366ZM159.819 86.5027L163.688 90.4297L163.5 86.4689L159.819 86.5027ZM159.881 90.646L163.75 94.5676L163.688 90.4297L159.881 90.646ZM159.822 94.4865L163.691 98.4031L163.75 94.5676L159.822 94.4865ZM159.644 98.1881L163.513 102.1L163.691 98.4031L159.644 98.1881ZM159.347 101.751L163.216 105.658L163.513 102.1L159.347 101.751ZM158.931 105.174L162.801 109.077L163.216 105.658L158.931 105.174ZM158.396 108.459L162.267 112.357L162.801 109.077L158.396 108.459ZM157.742 111.605L161.614 115.499L162.267 112.357L157.742 111.605ZM156.97 114.612L160.843 118.502L161.614 115.499L156.97 114.612ZM156.079 117.479L159.953 121.366L160.843 118.502L156.079 117.479ZM155.069 120.208L158.944 124.091L159.953 121.366L155.069 120.208ZM153.94 122.798L157.817 126.677L158.944 124.091L153.94 122.798ZM152.692 125.249L156.57 129.125L157.817 126.677L152.692 125.249ZM151.325 127.561L155.206 131.434L156.57 129.125L151.325 127.561ZM149.845 129.71L153.727 133.58L155.206 131.434L149.845 129.71ZM148.232 131.672L152.116 135.54L153.727 133.58L148.232 131.672ZM146.487 133.448L150.373 137.313L152.116 135.54L146.487 133.448ZM144.609 135.036L148.499 138.899L150.373 137.313L144.609 135.036ZM142.6 136.438L146.492 140.299L148.499 138.899L142.6 136.438ZM140.458 137.652L144.352 141.512L146.492 140.299L140.458 137.652ZM138.184 138.68L142.081 142.538L144.352 141.512L138.184 138.68ZM135.777 139.521L139.678 143.378L142.081 142.538L135.777 139.521ZM133.239 140.175L137.143 144.032L139.678 143.378L133.239 140.175ZM130.568 140.642L134.475 144.498L137.143 144.032L130.568 140.642ZM127.765 140.923L131.676 144.778L134.475 144.498L127.765 140.923ZM124.829 141.016L128.745 144.871L131.676 144.778L124.829 141.016ZM121.893 140.923L125.813 144.778L128.745 144.871L121.893 140.923ZM131.79 56.7411L135.696 60.7074L137.534 62.456L131.79 56.7411ZM129.732 55.4905L133.641 59.4584L135.696 60.7074L129.732 55.4905ZM127.458 54.7401L131.37 58.709L133.641 59.4584L127.458 54.7401ZM124.967 54.49L128.882 58.4592L131.37 58.709L124.967 54.49ZM122.432 54.7401L126.351 58.709L128.882 58.4592L122.432 54.7401ZM120.118 55.4905L124.04 59.4584L126.351 58.709L120.118 55.4905ZM118.024 56.7411L121.948 60.7074L124.04 59.4584L118.024 56.7411ZM116.151 58.492L120.077 62.456L121.948 60.7074L116.151 58.492ZM114.497 60.7431L118.426 64.7041L120.077 62.456L114.497 60.7431ZM113.065 63.4945L116.996 67.4519L118.426 64.7041L113.065 63.4945ZM111.852 66.7461L115.785 70.6992L116.996 67.4519L111.852 66.7461ZM110.861 70.498L114.794 74.4462L115.785 70.6992L110.861 70.498ZM110.089 74.7501L114.024 78.6927L114.794 74.4462L110.089 74.7501ZM109.538 79.5025L113.474 83.4388L114.024 78.6927L109.538 79.5025ZM109.207 84.7551L113.143 88.6845L113.474 83.4388L109.207 84.7551ZM109.097 90.508L113.033 94.4298L113.143 88.6845L109.097 90.508ZM109.123 93.198L113.059 97.1163L113.033 94.4298L109.123 93.198ZM109.201 95.7942L113.137 99.709L113.059 97.1163L109.201 95.7942ZM109.33 98.2964L113.266 102.208L113.137 99.709L109.33 98.2964ZM109.511 100.705L113.447 104.613L113.266 102.208L109.511 100.705ZM109.744 103.019L113.679 106.924L113.447 104.613L109.744 103.019ZM110.029 105.24L113.964 109.142L113.679 106.924L110.029 105.24ZM110.365 107.366L114.299 111.266L113.964 109.142L110.365 107.366ZM110.753 109.399L114.687 113.296L114.299 111.266L110.753 109.399ZM111.193 111.337L115.126 115.232L114.687 113.296L111.193 111.337ZM111.685 113.182L115.617 117.074L115.126 115.232L111.685 113.182ZM112.228 114.933L116.16 118.823L115.617 117.074L112.228 114.933ZM112.823 116.59L116.754 120.477L116.16 118.823L112.823 116.59ZM113.477 118.133L117.407 122.018L116.754 120.477L113.477 118.133ZM114.196 119.542L118.125 123.425L117.407 122.018L114.196 119.542ZM114.98 120.816L118.908 124.698L118.125 123.425L114.98 120.816ZM115.829 121.957L119.756 125.837L118.908 124.698L115.829 121.957ZM116.743 122.963L120.669 126.842L119.756 125.837L116.743 122.963ZM196.257 140.546L200.078 144.402L201.415 144.444L196.257 140.546ZM194.931 140.477L198.754 144.333L200.078 144.402L194.931 140.477ZM193.618 140.38L197.442 144.236L198.754 144.333L193.618 140.38ZM192.317 140.255L196.143 144.111L197.442 144.236L192.317 140.255ZM191.028 140.102L194.856 143.958L196.143 144.111L191.028 140.102ZM189.752 139.921L193.582 143.778L194.856 143.958L189.752 139.921ZM188.489 139.713L192.32 143.57L193.582 143.778L188.489 139.713ZM187.238 139.476L191.071 143.334L192.32 143.57L187.238 139.476ZM185.999 139.212L189.834 143.07L191.071 143.334L185.999 139.212ZM184.773 138.921L188.609 142.779L189.834 143.07L184.773 138.921ZM183.559 138.601L187.397 142.46L188.609 142.779L183.559 138.601ZM182.363 138.254L186.202 142.113L187.397 142.46L182.363 138.254ZM181.188 137.878L185.029 141.738L186.202 142.113L181.188 137.878ZM180.036 137.475L183.878 141.335L185.029 141.738L180.036 137.475ZM178.905 137.045L182.749 140.905L183.878 141.335L178.905 137.045ZM177.797 136.586L181.643 140.447L182.749 140.905L177.797 136.586ZM176.711 136.1L180.558 139.962L181.643 140.447L176.711 136.1ZM175.647 135.586L179.495 139.448L180.558 139.962L175.647 135.586ZM174.604 135.044L178.454 138.907L179.495 139.448L174.604 135.044ZM173.584 134.474L177.435 138.338L178.454 138.907L173.584 134.474ZM172.586 133.876L176.439 137.741L177.435 138.338L172.586 133.876ZM171.61 133.251L175.464 137.117L176.439 137.741L171.61 133.251ZM170.656 132.598L174.511 136.464L175.464 137.117L170.656 132.598ZM211.54 99.8403L215.342 103.75L216.042 104.409L211.54 99.8403ZM210.766 99.2466L214.568 103.157L215.342 103.75L210.766 99.2466ZM209.917 98.719L213.72 102.63L214.568 103.157L209.917 98.719ZM209.019 98.2451L212.823 102.157L213.72 102.63L209.019 98.2451ZM208.071 97.8124L211.877 101.725L212.823 102.157L208.071 97.8124ZM207.075 97.4209L210.882 101.334L211.877 101.725L207.075 97.4209ZM206.03 97.0707L209.838 100.984L210.882 101.334L206.03 97.0707ZM204.936 96.7616L208.746 100.675L209.838 100.984L204.936 96.7616ZM203.793 96.4938L207.605 100.408L208.746 100.675L203.793 96.4938ZM202.602 96.2671L206.415 100.181L207.605 100.408L202.602 96.2671ZM201.361 96.0817L205.176 99.9962L206.415 100.181L201.361 96.0817ZM200.072 95.9374L203.888 99.8521L205.176 99.9962L200.072 95.9374ZM198.733 95.8344L202.551 99.7492L203.888 99.8521L198.733 95.8344ZM197.346 95.7726L201.166 99.6875L202.551 99.7492L197.346 95.7726ZM195.91 95.752L199.732 99.6669L201.166 99.6875L195.91 95.752ZM188.596 95.752L192.427 99.6669H199.732L188.596 95.752ZM209.499 58.8073L213.303 62.7708L213.866 63.279L209.499 58.8073ZM208.882 58.354L212.687 62.3181L213.303 62.7708L208.882 58.354ZM208.21 57.9352L212.016 61.8999L212.687 62.3181L208.21 57.9352ZM207.483 57.5528L211.289 61.518L212.016 61.8999L207.483 57.5528ZM206.7 57.2069L210.507 61.1725L211.289 61.518L206.7 57.2069ZM205.861 56.8973L209.67 60.8634L210.507 61.1725L205.861 56.8973ZM204.967 56.6242L208.777 60.5906L209.67 60.8634L204.967 56.6242ZM204.018 56.3875L207.829 60.3542L208.777 60.5906L204.018 56.3875ZM203.012 56.1872L206.825 60.1542L207.829 60.3542L203.012 56.1872ZM201.951 56.0233L205.765 59.9906L206.825 60.1542L201.951 56.0233ZM200.835 55.8959L204.65 59.8633L205.765 59.9906L200.835 55.8959ZM199.663 55.8048L203.48 59.7723L204.65 59.8633L199.663 55.8048ZM198.435 55.7502L202.254 59.7178L203.48 59.7723L198.435 55.7502ZM197.152 55.732L200.972 59.6996L202.254 59.7178L197.152 55.732ZM196.673 55.7392L200.494 59.7068L200.972 59.6996L196.673 55.7392ZM196.18 55.7608L200.002 59.7283L200.494 59.7068L196.18 55.7608ZM195.673 55.7967L199.495 59.7642L200.002 59.7283L195.673 55.7967ZM195.151 55.847L198.974 59.8144L199.495 59.7642L195.151 55.847ZM194.615 55.9117L198.438 59.8791L198.974 59.8144L194.615 55.9117ZM194.064 55.9908L197.888 59.958L198.438 59.8791L194.064 55.9908ZM193.499 56.0842L197.324 60.0513L197.888 59.958L193.499 56.0842ZM192.92 56.192L196.746 60.159L197.324 60.0513L192.92 56.192ZM192.326 56.3142L196.153 60.281L196.746 60.159L192.326 56.3142ZM191.718 56.4508L195.546 60.4174L196.153 60.281L191.718 56.4508ZM191.096 56.6017L194.924 60.5681L195.546 60.4174L191.096 56.6017ZM190.459 56.767L194.288 60.7332L194.924 60.5681L190.459 56.767ZM189.828 56.9347L193.657 60.9007L194.288 60.7332L189.828 56.9347ZM189.198 57.1158L193.028 61.0816L193.657 60.9007L189.198 57.1158ZM188.57 57.3104L192.402 61.2759L193.028 61.0816L188.57 57.3104ZM187.944 57.5183L191.777 61.4836L192.402 61.2759L187.944 57.5183ZM187.321 57.7397L191.154 61.7047L191.777 61.4836L187.321 57.7397ZM186.699 57.9745L190.532 61.9392L191.154 61.7047L186.699 57.9745ZM186.079 58.2227L189.913 62.187L190.532 61.9392L186.079 58.2227ZM185.46 58.4843L189.296 62.4483L189.913 62.187L185.46 58.4843ZM184.844 58.7594L188.68 62.723L189.296 62.4483L184.844 58.7594ZM184.23 59.0478L188.067 63.0111L188.68 62.723L184.23 59.0478ZM183.618 59.3497L187.455 63.3125L188.067 63.0111L183.618 59.3497ZM183.007 59.665L186.846 63.6274L187.455 63.3125L183.007 59.665ZM182.407 59.9808L186.246 63.9428L186.846 63.6274L182.407 59.9808ZM181.824 60.3071L185.665 64.2687L186.246 63.9428L181.824 60.3071ZM181.26 60.6439L185.101 64.6051L185.665 64.2687L181.26 60.6439ZM180.715 60.9913L184.556 64.952L185.101 64.6051L180.715 60.9913ZM180.187 61.3493L184.03 65.3095L184.556 64.952L180.187 61.3493ZM179.678 61.7178L183.521 65.6775L184.03 65.3095L179.678 61.7178ZM179.187 62.0968L183.03 66.056L183.521 65.6775L179.187 62.0968ZM178.714 62.4863L182.558 66.445L183.03 66.056L178.714 62.4863ZM178.259 62.8864L182.104 66.8446L182.558 66.445L178.259 62.8864ZM177.822 63.2971L181.668 67.2547L182.104 66.8446L177.822 63.2971ZM177.404 63.7183L181.25 67.6754L181.668 67.2547L177.404 63.7183ZM177.004 64.15L180.851 68.1065L181.25 67.6754L177.004 64.15ZM226.916 49.5968L230.697 53.5724L229.953 52.7355L226.916 49.5968ZM227.616 50.4722L231.396 54.4467L230.697 53.5724L227.616 50.4722ZM228.271 51.385L232.05 55.3583L231.396 54.4467L228.271 51.385ZM228.877 52.3208L232.656 56.2929L232.05 55.3583L228.877 52.3208ZM229.431 53.2883L233.208 57.2591L232.656 56.2929L229.431 53.2883ZM229.931 54.2873L233.708 58.2568L233.208 57.2591L229.931 54.2873ZM230.379 55.318L234.156 59.2861L233.708 58.2568L230.379 55.318ZM230.775 56.3803L234.551 60.3471L234.156 59.2861L230.775 56.3803ZM231.117 57.4743L234.893 61.4396L234.551 60.3471L231.117 57.4743ZM231.407 58.5998L235.182 62.5636L234.893 61.4396L231.407 58.5998ZM231.644 59.757L235.419 63.7193L235.182 62.5636L231.644 59.757ZM231.829 60.9458L235.603 64.9065L235.419 63.7193L231.829 60.9458ZM231.961 62.1663L235.735 66.1254L235.603 64.9065L231.961 62.1663ZM232.04 63.4183L235.814 67.3758L235.735 66.1254L232.04 63.4183ZM232.066 64.702L235.84 68.6578L235.814 67.3758L232.066 64.702ZM232.053 65.5861L235.827 69.5407L235.84 68.6578L232.053 65.5861ZM232.012 66.4673L235.787 70.4207L235.827 69.5407L232.012 66.4673ZM231.945 67.3456L235.72 71.2979L235.787 70.4207L231.945 67.3456ZM231.851 68.221L235.626 72.1722L235.72 71.2979L231.851 68.221ZM231.731 69.0936L235.505 73.0436L235.626 72.1722L231.731 69.0936ZM231.583 69.9633L235.358 73.9121L235.505 73.0436L231.583 69.9633ZM231.409 70.8301L235.184 74.7778L235.358 73.9121L231.409 70.8301ZM231.207 71.694L234.983 75.6406L235.184 74.7778L231.207 71.694ZM230.979 72.5551L234.755 76.5005L234.983 75.6406L230.979 72.5551ZM230.724 73.4133L234.5 77.3576L234.755 76.5005L230.724 73.4133ZM230.443 74.2686L234.219 78.2118L234.5 77.3576L230.443 74.2686ZM230.134 75.121L233.911 79.0631L234.219 78.2118L230.134 75.121ZM229.811 75.9624L233.588 79.9034L233.911 79.0631L229.811 75.9624ZM229.463 76.7847L233.241 80.7246L233.588 79.9034L229.463 76.7847ZM229.09 77.5878L232.868 81.5266L233.241 80.7246L229.09 77.5878ZM228.693 78.3717L232.471 82.3095L232.868 81.5266L228.693 78.3717ZM228.27 79.1364L232.049 83.0732L232.471 82.3095L228.27 79.1364ZM227.823 79.882L231.602 83.8178L232.049 83.0732L227.823 79.882ZM227.35 80.6084L231.13 84.5433L231.602 83.8178L227.35 80.6084ZM226.853 81.3157L230.634 85.2496L231.13 84.5433L226.853 81.3157ZM226.33 82.0038L230.112 85.9368L230.634 85.2496L226.33 82.0038ZM225.783 82.6727L229.566 86.6048L230.112 85.9368L225.783 82.6727ZM225.211 83.3224L228.994 87.2537L229.566 86.6048L225.211 83.3224ZM224.614 83.953L228.398 87.8835L228.994 87.2537L224.614 83.953ZM223.996 84.5457L227.781 88.4754L228.398 87.8835L223.996 84.5457ZM223.361 85.1049L227.146 89.0339L227.781 88.4754L223.361 85.1049ZM222.708 85.6306L226.494 89.5588L227.146 89.0339L222.708 85.6306ZM222.038 86.1227L225.825 90.0503L226.494 89.5588L222.038 86.1227ZM221.351 86.5812L225.139 90.5082L225.825 90.0503L221.351 86.5812ZM220.647 87.0063L224.436 90.9327L225.139 90.5082L220.647 87.0063ZM219.925 87.3977L223.715 91.3237L224.436 90.9327L219.925 87.3977ZM219.186 87.7557L222.977 91.6811L223.715 91.3237L219.186 87.7557ZM218.43 88.0801L222.222 92.0051L222.977 91.6811L218.43 88.0801ZM217.657 88.3709L221.45 92.2956L222.222 92.0051L217.657 88.3709ZM216.866 88.6282L220.66 92.5525L221.45 92.2956L216.866 88.6282ZM216.058 88.852L219.853 92.776L220.66 92.5525L216.058 88.852ZM229.131 95.0184L232.909 98.9343L232.326 98.2811L229.131 95.0184ZM229.686 95.7003L233.463 99.6152L232.909 98.9343L229.686 95.7003ZM230.212 96.4099L233.988 100.324L233.463 99.6152L230.212 96.4099ZM230.709 97.1473L234.485 101.06L233.988 100.324L230.709 97.1473ZM231.178 97.9126L234.953 101.825L234.485 101.06L231.178 97.9126ZM231.618 98.7056L235.392 102.617L234.953 101.825L231.618 98.7056ZM232.029 99.5264L235.803 103.436L235.392 102.617L232.029 99.5264ZM232.411 100.375L236.185 104.284L235.803 103.436L232.411 100.375ZM232.775 101.243L236.548 105.15L236.185 104.284L232.775 101.243ZM233.107 102.121L236.88 106.028L236.548 105.15L233.107 102.121ZM233.407 103.01L237.18 106.915L236.88 106.028L233.407 103.01ZM233.676 103.909L237.448 107.814L237.18 106.915L233.676 103.909ZM233.913 104.819L237.685 108.722L237.448 107.814L233.913 104.819ZM234.119 105.74L237.89 109.642L237.685 108.722L234.119 105.74ZM234.293 106.671L238.064 110.571L237.89 109.642L234.293 106.671ZM234.435 107.612L238.206 111.512L238.064 110.571L234.435 107.612ZM234.546 108.564L238.317 112.463L238.206 111.512L234.546 108.564ZM234.625 109.527L238.396 113.424L238.317 112.463L234.625 109.527ZM234.672 110.5L238.443 114.396L238.396 113.424L234.672 110.5ZM234.688 111.484L238.459 115.378L238.443 114.396L234.688 111.484ZM234.655 112.941L238.426 116.833L238.459 115.378L234.655 112.941ZM234.556 114.367L238.327 118.257L238.426 116.833L234.556 114.367ZM234.391 115.762L238.162 119.651L238.327 118.257L234.391 115.762ZM234.159 117.127L237.93 121.013L238.162 119.651L234.159 117.127ZM233.861 118.461L237.633 122.346L237.93 121.013L233.861 118.461ZM233.498 119.764L237.27 123.647L237.633 122.346L233.498 119.764ZM233.068 121.037L236.841 124.918L237.27 123.647L233.068 121.037ZM232.572 122.279L236.346 126.159L236.841 124.918L232.572 122.279ZM232.01 123.49L235.784 127.368L236.346 126.159L232.01 123.49ZM231.382 124.671L235.157 128.548L235.784 127.368L231.382 124.671ZM230.688 125.821L234.463 129.696L235.157 128.548L230.688 125.821ZM229.927 126.94L233.704 130.814L234.463 129.696L229.927 126.94ZM229.11 128.022L232.888 131.895L233.704 130.814L229.11 128.022ZM228.246 129.062L232.025 132.933L232.888 131.895L228.246 129.062ZM227.335 130.058L231.116 133.928L232.025 132.933L227.335 130.058ZM226.377 131.011L230.159 134.88L231.116 133.928L226.377 131.011ZM225.373 131.921L229.156 135.788L230.159 134.88L225.373 131.921ZM224.321 132.788L228.105 136.654L229.156 135.788L224.321 132.788ZM223.222 133.611L227.008 137.477L228.105 136.654L223.222 133.611ZM222.076 134.392L225.864 138.256L227.008 137.477L222.076 134.392ZM220.884 135.129L224.673 138.993L225.864 138.256L220.884 135.129ZM219.644 135.824L223.435 139.686L224.673 138.993L219.644 135.824ZM218.358 136.475L222.15 140.336L223.435 139.686L218.358 136.475ZM217.024 137.083L220.818 140.944L222.15 140.336L217.024 137.083ZM215.655 137.645L219.45 141.505L220.818 140.944L215.655 137.645ZM214.26 138.158L218.058 142.017L219.45 141.505L214.26 138.158ZM212.841 138.623L216.64 142.481L218.058 142.017L212.841 138.623ZM211.397 139.038L215.198 142.896L216.64 142.481L211.397 139.038ZM209.928 139.405L213.731 143.262L215.198 142.896L209.928 139.405ZM208.434 139.722L212.239 143.579L213.731 143.262L208.434 139.722ZM206.915 139.991L210.722 143.848L212.239 143.579L206.915 139.991ZM205.371 140.211L209.18 144.067L210.722 143.848L205.371 140.211ZM203.802 140.382L207.613 144.238L209.18 144.067L203.802 140.382ZM202.208 140.504L206.022 144.36L207.613 144.238L202.208 140.504ZM200.59 140.578L204.405 144.433L206.022 144.36L200.59 140.578ZM198.946 140.602L202.764 144.458L204.405 144.433L198.946 140.602ZM197.595 140.588L201.415 144.444L202.764 144.458L197.595 140.588ZM69.584 121.144V138.532L73.572 125.025L69.584 121.144ZM69.584 138.532H51.506L73.572 142.391L69.584 138.532ZM51.506 121.144H5.966L55.5178 125.025L51.506 121.144ZM69.584 42.346V107.758L73.572 46.3312L69.584 42.346ZM81.176 107.758V121.144L85.1487 111.657L81.176 107.758ZM81.176 121.144H69.584L85.1487 125.025L81.176 121.144ZM52.955 52.213L37.43 90.646L56.9649 56.1852L52.955 52.213ZM37.43 90.646L29.564 107.758L41.4603 94.5676L37.43 90.646ZM121.893 140.923L119.089 140.642L125.813 144.778L121.893 140.923ZM119.089 140.642L116.416 140.175L123.012 144.498L119.089 140.642ZM116.416 140.175L113.874 139.521L120.342 144.032L116.416 140.175ZM113.874 139.521L111.463 138.68L117.803 143.378L113.874 139.521ZM111.463 138.68L109.184 137.652L115.396 142.538L111.463 138.68ZM109.184 137.652L107.035 136.438L113.119 141.512L109.184 137.652ZM107.035 136.438L105.019 135.036L110.974 140.299L107.035 136.438ZM105.019 135.036L103.133 133.448L108.96 138.899L105.019 135.036ZM147.609 48.7688L149.281 50.6102L151.494 52.7455L147.609 48.7688ZM149.281 50.6102L150.842 52.627L153.164 54.5845L149.281 50.6102ZM150.842 52.627L152.286 54.8202L154.723 56.5987L150.842 52.627ZM152.286 54.8202L153.604 57.1906L156.165 58.7889L152.286 54.8202ZM153.604 57.1906L154.797 59.7383L157.482 61.1563L153.604 57.1906ZM154.797 59.7383L155.864 62.4633L158.673 63.7006L154.797 59.7383ZM155.864 62.4633L156.806 65.3657L159.738 66.4221L155.864 62.4633ZM156.806 65.3657L157.622 68.4453L160.679 69.3206L156.806 65.3657ZM157.622 68.4453L158.312 71.7022L161.494 72.3961L157.622 68.4453ZM158.312 71.7022L158.877 75.1363L162.183 75.6487L158.312 71.7022ZM158.877 75.1363L159.316 78.7478L162.747 79.0784L158.877 75.1363ZM159.316 78.7478L159.63 82.5366L163.186 82.6851L159.316 78.7478ZM159.63 82.5366L159.819 86.5027L163.5 86.4689L159.63 82.5366ZM159.819 86.5027L159.881 90.646L163.688 90.4297L159.819 86.5027ZM159.881 90.646L159.822 94.4865L163.75 94.5676L159.881 90.646ZM159.822 94.4865L159.644 98.1881L163.691 98.4031L159.822 94.4865ZM159.644 98.1881L159.347 101.751L163.513 102.1L159.644 98.1881ZM159.347 101.751L158.931 105.174L163.216 105.658L159.347 101.751ZM158.931 105.174L158.396 108.459L162.801 109.077L158.931 105.174ZM158.396 108.459L157.742 111.605L162.267 112.357L158.396 108.459ZM157.742 111.605L156.97 114.612L161.614 115.499L157.742 111.605ZM156.97 114.612L156.079 117.479L160.843 118.502L156.97 114.612ZM156.079 117.479L155.069 120.208L159.953 121.366L156.079 117.479ZM155.069 120.208L153.94 122.798L158.944 124.091L155.069 120.208ZM153.94 122.798L152.692 125.249L157.817 126.677L153.94 122.798ZM152.692 125.249L151.325 127.561L156.57 129.125L152.692 125.249ZM151.325 127.561L149.845 129.71L155.206 131.434L151.325 127.561ZM149.845 129.71L148.232 131.672L153.727 133.58L149.845 129.71ZM148.232 131.672L146.487 133.448L152.116 135.54L148.232 131.672ZM146.487 133.448L144.609 135.036L150.373 137.313L146.487 133.448ZM144.609 135.036L142.6 136.438L148.499 138.899L144.609 135.036ZM142.6 136.438L140.458 137.652L146.492 140.299L142.6 136.438ZM140.458 137.652L138.184 138.68L144.352 141.512L140.458 137.652ZM138.184 138.68L135.777 139.521L142.081 142.538L138.184 138.68ZM135.777 139.521L133.239 140.175L139.678 143.378L135.777 139.521ZM133.239 140.175L130.568 140.642L137.143 144.032L133.239 140.175ZM130.568 140.642L127.765 140.923L134.475 144.498L130.568 140.642ZM127.765 140.923L124.829 141.016L131.676 144.778L127.765 140.923ZM124.829 141.016L121.893 140.923L128.745 144.871L124.829 141.016ZM133.631 58.492L131.79 56.7411L137.534 62.456L133.631 58.492ZM131.79 56.7411L129.732 55.4905L135.696 60.7074L131.79 56.7411ZM129.732 55.4905L127.458 54.7401L133.641 59.4584L129.732 55.4905ZM127.458 54.7401L124.967 54.49L131.37 58.709L127.458 54.7401ZM124.967 54.49L122.432 54.7401L128.882 58.4592L124.967 54.49ZM122.432 54.7401L120.118 55.4905L126.351 58.709L122.432 54.7401ZM120.118 55.4905L118.024 56.7411L124.04 59.4584L120.118 55.4905ZM118.024 56.7411L116.151 58.492L121.948 60.7074L118.024 56.7411ZM116.151 58.492L114.497 60.7431L120.077 62.456L116.151 58.492ZM114.497 60.7431L113.065 63.4945L118.426 64.7041L114.497 60.7431ZM113.065 63.4945L111.852 66.7461L116.996 67.4519L113.065 63.4945ZM111.852 66.7461L110.861 70.498L115.785 70.6992L111.852 66.7461ZM110.861 70.498L110.089 74.7501L114.794 74.4462L110.861 70.498ZM110.089 74.7501L109.538 79.5025L114.024 78.6927L110.089 74.7501ZM109.538 79.5025L109.207 84.7551L113.474 83.4388L109.538 79.5025ZM109.207 84.7551L109.097 90.508L113.143 88.6845L109.207 84.7551ZM109.097 90.508L109.123 93.198L113.033 94.4298L109.097 90.508ZM109.123 93.198L109.201 95.7942L113.059 97.1163L109.123 93.198ZM109.201 95.7942L109.33 98.2964L113.137 99.709L109.201 95.7942ZM109.33 98.2964L109.511 100.705L113.266 102.208L109.33 98.2964ZM109.511 100.705L109.744 103.019L113.447 104.613L109.511 100.705ZM109.744 103.019L110.029 105.24L113.679 106.924L109.744 103.019ZM110.029 105.24L110.365 107.366L113.964 109.142L110.029 105.24ZM110.365 107.366L110.753 109.399L114.299 111.266L110.365 107.366ZM110.753 109.399L111.193 111.337L114.687 113.296L110.753 109.399ZM111.193 111.337L111.685 113.182L115.126 115.232L111.193 111.337ZM111.685 113.182L112.228 114.933L115.617 117.074L111.685 113.182ZM112.228 114.933L112.823 116.59L116.16 118.823L112.228 114.933ZM112.823 116.59L113.477 118.133L116.754 120.477L112.823 116.59ZM113.477 118.133L114.196 119.542L117.407 122.018L113.477 118.133ZM114.196 119.542L114.98 120.816L118.125 123.425L114.196 119.542ZM114.98 120.816L115.829 121.957L118.908 124.698L114.98 120.816ZM115.829 121.957L116.743 122.963L119.756 125.837L115.829 121.957ZM197.595 140.588L196.257 140.546L201.415 144.444L197.595 140.588ZM196.257 140.546L194.931 140.477L200.078 144.402L196.257 140.546ZM194.931 140.477L193.618 140.38L198.754 144.333L194.931 140.477ZM193.618 140.38L192.317 140.255L197.442 144.236L193.618 140.38ZM192.317 140.255L191.028 140.102L196.143 144.111L192.317 140.255ZM191.028 140.102L189.752 139.921L194.856 143.958L191.028 140.102ZM189.752 139.921L188.489 139.713L193.582 143.778L189.752 139.921ZM188.489 139.713L187.238 139.476L192.32 143.57L188.489 139.713ZM187.238 139.476L185.999 139.212L191.071 143.334L187.238 139.476ZM185.999 139.212L184.773 138.921L189.834 143.07L185.999 139.212ZM184.773 138.921L183.559 138.601L188.609 142.779L184.773 138.921ZM183.559 138.601L182.363 138.254L187.397 142.46L183.559 138.601ZM182.363 138.254L181.188 137.878L186.202 142.113L182.363 138.254ZM181.188 137.878L180.036 137.475L185.029 141.738L181.188 137.878ZM180.036 137.475L178.905 137.045L183.878 141.335L180.036 137.475ZM178.905 137.045L177.797 136.586L182.749 140.905L178.905 137.045ZM177.797 136.586L176.711 136.1L181.643 140.447L177.797 136.586ZM176.711 136.1L175.647 135.586L180.558 139.962L176.711 136.1ZM175.647 135.586L174.604 135.044L179.495 139.448L175.647 135.586ZM174.604 135.044L173.584 134.474L178.454 138.907L174.604 135.044ZM173.584 134.474L172.586 133.876L177.435 138.338L173.584 134.474ZM172.586 133.876L171.61 133.251L176.439 137.741L172.586 133.876ZM171.61 133.251L170.656 132.598L175.464 137.117L171.61 133.251ZM212.242 100.5L211.54 99.8403L216.042 104.409L212.242 100.5ZM211.54 99.8403L210.766 99.2466L215.342 103.75L211.54 99.8403ZM210.766 99.2466L209.917 98.719L214.568 103.157L210.766 99.2466ZM209.917 98.719L209.019 98.2451L213.72 102.63L209.917 98.719ZM209.019 98.2451L208.071 97.8124L212.823 102.157L209.019 98.2451ZM208.071 97.8124L207.075 97.4209L211.877 101.725L208.071 97.8124ZM207.075 97.4209L206.03 97.0707L210.882 101.334L207.075 97.4209ZM206.03 97.0707L204.936 96.7616L209.838 100.984L206.03 97.0707ZM204.936 96.7616L203.793 96.4938L208.746 100.675L204.936 96.7616ZM203.793 96.4938L202.602 96.2671L207.605 100.408L203.793 96.4938ZM202.602 96.2671L201.361 96.0817L206.415 100.181L202.602 96.2671ZM201.361 96.0817L200.072 95.9374L205.176 99.9962L201.361 96.0817ZM200.072 95.9374L198.733 95.8344L203.888 99.8521L200.072 95.9374ZM198.733 95.8344L197.346 95.7726L202.551 99.7492L198.733 95.8344ZM197.346 95.7726L195.91 95.752L201.166 99.6875L197.346 95.7726ZM195.91 95.752H188.596L199.732 99.6669L195.91 95.752ZM210.063 59.3162L209.499 58.8073L213.866 63.279L210.063 59.3162ZM209.499 58.8073L208.882 58.354L213.303 62.7708L209.499 58.8073ZM208.882 58.354L208.21 57.9352L212.687 62.3181L208.882 58.354ZM208.21 57.9352L207.483 57.5528L212.016 61.8999L208.21 57.9352ZM207.483 57.5528L206.7 57.2069L211.289 61.518L207.483 57.5528ZM206.7 57.2069L205.861 56.8973L210.507 61.1725L206.7 57.2069ZM205.861 56.8973L204.967 56.6242L209.67 60.8634L205.861 56.8973ZM204.967 56.6242L204.018 56.3875L208.777 60.5906L204.967 56.6242ZM204.018 56.3875L203.012 56.1872L207.829 60.3542L204.018 56.3875ZM203.012 56.1872L201.951 56.0233L206.825 60.1542L203.012 56.1872ZM201.951 56.0233L200.835 55.8959L205.765 59.9906L201.951 56.0233ZM200.835 55.8959L199.663 55.8048L204.65 59.8633L200.835 55.8959ZM199.663 55.8048L198.435 55.7502L203.48 59.7723L199.663 55.8048ZM198.435 55.7502L197.152 55.732L202.254 59.7178L198.435 55.7502ZM197.152 55.732L196.673 55.7392L200.972 59.6996L197.152 55.732ZM196.673 55.7392L196.18 55.7608L200.494 59.7068L196.673 55.7392ZM196.18 55.7608L195.673 55.7967L200.002 59.7283L196.18 55.7608ZM195.673 55.7967L195.151 55.847L199.495 59.7642L195.673 55.7967ZM195.151 55.847L194.615 55.9117L198.974 59.8144L195.151 55.847ZM194.615 55.9117L194.064 55.9908L198.438 59.8791L194.615 55.9117ZM194.064 55.9908L193.499 56.0842L197.888 59.958L194.064 55.9908ZM193.499 56.0842L192.92 56.192L197.324 60.0513L193.499 56.0842ZM192.92 56.192L192.326 56.3142L196.746 60.159L192.92 56.192ZM192.326 56.3142L191.718 56.4508L196.153 60.281L192.326 56.3142ZM191.718 56.4508L191.096 56.6017L195.546 60.4174L191.718 56.4508ZM191.096 56.6017L190.459 56.767L194.924 60.5681L191.096 56.6017ZM190.459 56.767L189.828 56.9347L194.288 60.7332L190.459 56.767ZM189.828 56.9347L189.198 57.1158L193.657 60.9007L189.828 56.9347ZM189.198 57.1158L188.57 57.3104L193.028 61.0816L189.198 57.1158ZM188.57 57.3104L187.944 57.5183L192.402 61.2759L188.57 57.3104ZM187.944 57.5183L187.321 57.7397L191.777 61.4836L187.944 57.5183ZM187.321 57.7397L186.699 57.9745L191.154 61.7047L187.321 57.7397ZM186.699 57.9745L186.079 58.2227L190.532 61.9392L186.699 57.9745ZM186.079 58.2227L185.46 58.4843L189.913 62.187L186.079 58.2227ZM185.46 58.4843L184.844 58.7594L189.296 62.4483L185.46 58.4843ZM184.844 58.7594L184.23 59.0478L188.68 62.723L184.844 58.7594ZM184.23 59.0478L183.618 59.3497L188.067 63.0111L184.23 59.0478ZM183.618 59.3497L183.007 59.665L187.455 63.3125L183.618 59.3497ZM183.007 59.665L182.407 59.9808L186.846 63.6274L183.007 59.665ZM182.407 59.9808L181.824 60.3071L186.246 63.9428L182.407 59.9808ZM181.824 60.3071L181.26 60.6439L185.665 64.2687L181.824 60.3071ZM181.26 60.6439L180.715 60.9913L185.101 64.6051L181.26 60.6439ZM180.715 60.9913L180.187 61.3493L184.556 64.952L180.715 60.9913ZM180.187 61.3493L179.678 61.7178L184.03 65.3095L180.187 61.3493ZM179.678 61.7178L179.187 62.0968L183.521 65.6775L179.678 61.7178ZM179.187 62.0968L178.714 62.4863L183.03 66.056L179.187 62.0968ZM178.714 62.4863L178.259 62.8864L182.558 66.445L178.714 62.4863ZM178.259 62.8864L177.822 63.2971L182.104 66.8446L178.259 62.8864ZM177.822 63.2971L177.404 63.7183L181.668 67.2547L177.822 63.2971ZM177.404 63.7183L177.004 64.15L181.25 67.6754L177.404 63.7183ZM226.171 48.7587L226.916 49.5968L229.953 52.7355L226.171 48.7587ZM226.916 49.5968L227.616 50.4722L230.697 53.5724L226.916 49.5968ZM227.616 50.4722L228.271 51.385L231.396 54.4467L227.616 50.4722ZM228.271 51.385L228.877 52.3208L232.05 55.3583L228.271 51.385ZM228.877 52.3208L229.431 53.2883L232.656 56.2929L228.877 52.3208ZM229.431 53.2883L229.931 54.2873L233.208 57.2591L229.431 53.2883ZM229.931 54.2873L230.379 55.318L233.708 58.2568L229.931 54.2873ZM230.379 55.318L230.775 56.3803L234.156 59.2861L230.379 55.318ZM230.775 56.3803L231.117 57.4743L234.551 60.3471L230.775 56.3803ZM231.117 57.4743L231.407 58.5998L234.893 61.4396L231.117 57.4743ZM231.407 58.5998L231.644 59.757L235.182 62.5636L231.407 58.5998ZM231.644 59.757L231.829 60.9458L235.419 63.7193L231.644 59.757ZM231.829 60.9458L231.961 62.1663L235.603 64.9065L231.829 60.9458ZM231.961 62.1663L232.04 63.4183L235.735 66.1254L231.961 62.1663ZM232.04 63.4183L232.066 64.702L235.814 67.3758L232.04 63.4183ZM232.066 64.702L232.053 65.5861L235.84 68.6578L232.066 64.702ZM232.053 65.5861L232.012 66.4673L235.827 69.5407L232.053 65.5861ZM232.012 66.4673L231.945 67.3456L235.787 70.4207L232.012 66.4673ZM231.945 67.3456L231.851 68.221L235.72 71.2979L231.945 67.3456ZM231.851 68.221L231.731 69.0936L235.626 72.1722L231.851 68.221ZM231.731 69.0936L231.583 69.9633L235.505 73.0436L231.731 69.0936ZM231.583 69.9633L231.409 70.8301L235.358 73.9121L231.583 69.9633ZM231.409 70.8301L231.207 71.694L235.184 74.7778L231.409 70.8301ZM231.207 71.694L230.979 72.5551L234.983 75.6406L231.207 71.694ZM230.979 72.5551L230.724 73.4133L234.755 76.5005L230.979 72.5551ZM230.724 73.4133L230.443 74.2686L234.5 77.3576L230.724 73.4133ZM230.443 74.2686L230.134 75.121L234.219 78.2118L230.443 74.2686ZM230.134 75.121L229.811 75.9624L233.911 79.0631L230.134 75.121ZM229.811 75.9624L229.463 76.7847L233.588 79.9034L229.811 75.9624ZM229.463 76.7847L229.09 77.5878L233.241 80.7246L229.463 76.7847ZM229.09 77.5878L228.693 78.3717L232.868 81.5266L229.09 77.5878ZM228.693 78.3717L228.27 79.1364L232.471 82.3095L228.693 78.3717ZM228.27 79.1364L227.823 79.882L232.049 83.0732L228.27 79.1364ZM227.823 79.882L227.35 80.6084L231.602 83.8178L227.823 79.882ZM227.35 80.6084L226.853 81.3157L231.13 84.5433L227.35 80.6084ZM226.853 81.3157L226.33 82.0038L230.634 85.2496L226.853 81.3157ZM226.33 82.0038L225.783 82.6727L230.112 85.9368L226.33 82.0038ZM225.783 82.6727L225.211 83.3224L229.566 86.6048L225.783 82.6727ZM225.211 83.3224L224.614 83.953L228.994 87.2537L225.211 83.3224ZM224.614 83.953L223.996 84.5457L228.398 87.8835L224.614 83.953ZM223.996 84.5457L223.361 85.1049L227.781 88.4754L223.996 84.5457ZM223.361 85.1049L222.708 85.6306L227.146 89.0339L223.361 85.1049ZM222.708 85.6306L222.038 86.1227L226.494 89.5588L222.708 85.6306ZM222.038 86.1227L221.351 86.5812L225.825 90.0503L222.038 86.1227ZM221.351 86.5812L220.647 87.0063L225.139 90.5082L221.351 86.5812ZM220.647 87.0063L219.925 87.3977L224.436 90.9327L220.647 87.0063ZM219.925 87.3977L219.186 87.7557L223.715 91.3237L219.925 87.3977ZM219.186 87.7557L218.43 88.0801L222.977 91.6811L219.186 87.7557ZM218.43 88.0801L217.657 88.3709L222.222 92.0051L218.43 88.0801ZM217.657 88.3709L216.866 88.6282L221.45 92.2956L217.657 88.3709ZM216.866 88.6282L216.058 88.852L220.66 92.5525L216.866 88.6282ZM228.547 94.3643L229.131 95.0184L232.326 98.2811L228.547 94.3643ZM229.131 95.0184L229.686 95.7003L232.909 98.9343L229.131 95.0184ZM229.686 95.7003L230.212 96.4099L233.463 99.6152L229.686 95.7003ZM230.212 96.4099L230.709 97.1473L233.988 100.324L230.212 96.4099ZM230.709 97.1473L231.178 97.9126L234.485 101.06L230.709 97.1473ZM231.178 97.9126L231.618 98.7056L234.953 101.825L231.178 97.9126ZM231.618 98.7056L232.029 99.5264L235.392 102.617L231.618 98.7056ZM232.029 99.5264L232.411 100.375L235.803 103.436L232.029 99.5264ZM232.411 100.375L232.775 101.243L236.185 104.284L232.411 100.375ZM232.775 101.243L233.107 102.121L236.548 105.15L232.775 101.243ZM233.107 102.121L233.407 103.01L236.88 106.028L233.107 102.121ZM233.407 103.01L233.676 103.909L237.18 106.915L233.407 103.01ZM233.676 103.909L233.913 104.819L237.448 107.814L233.676 103.909ZM233.913 104.819L234.119 105.74L237.685 108.722L233.913 104.819ZM234.119 105.74L234.293 106.671L237.89 109.642L234.119 105.74ZM234.293 106.671L234.435 107.612L238.064 110.571L234.293 106.671ZM234.435 107.612L234.546 108.564L238.206 111.512L234.435 107.612ZM234.546 108.564L234.625 109.527L238.317 112.463L234.546 108.564ZM234.625 109.527L234.672 110.5L238.396 113.424L234.625 109.527ZM234.672 110.5L234.688 111.484L238.443 114.396L234.672 110.5ZM234.688 111.484L234.655 112.941L238.459 115.378L234.688 111.484ZM234.655 112.941L234.556 114.367L238.426 116.833L234.655 112.941ZM234.556 114.367L234.391 115.762L238.327 118.257L234.556 114.367ZM234.391 115.762L234.159 117.127L238.162 119.651L234.391 115.762ZM234.159 117.127L233.861 118.461L237.93 121.013L234.159 117.127ZM233.861 118.461L233.498 119.764L237.633 122.346L233.861 118.461ZM233.498 119.764L233.068 121.037L237.27 123.647L233.498 119.764ZM233.068 121.037L232.572 122.279L236.841 124.918L233.068 121.037ZM232.572 122.279L232.01 123.49L236.346 126.159L232.572 122.279ZM232.01 123.49L231.382 124.671L235.784 127.368L232.01 123.49ZM231.382 124.671L230.688 125.821L235.157 128.548L231.382 124.671ZM230.688 125.821L229.927 126.94L234.463 129.696L230.688 125.821ZM229.927 126.94L229.11 128.022L233.704 130.814L229.927 126.94ZM229.11 128.022L228.246 129.062L232.888 131.895L229.11 128.022ZM228.246 129.062L227.335 130.058L232.025 132.933L228.246 129.062ZM227.335 130.058L226.377 131.011L231.116 133.928L227.335 130.058ZM226.377 131.011L225.373 131.921L230.159 134.88L226.377 131.011ZM225.373 131.921L224.321 132.788L229.156 135.788L225.373 131.921ZM224.321 132.788L223.222 133.611L228.105 136.654L224.321 132.788ZM223.222 133.611L222.076 134.392L227.008 137.477L223.222 133.611ZM222.076 134.392L220.884 135.129L225.864 138.256L222.076 134.392ZM220.884 135.129L219.644 135.824L224.673 138.993L220.884 135.129ZM219.644 135.824L218.358 136.475L223.435 139.686L219.644 135.824ZM218.358 136.475L217.024 137.083L222.15 140.336L218.358 136.475ZM217.024 137.083L215.655 137.645L220.818 140.944L217.024 137.083ZM215.655 137.645L214.26 138.158L219.45 141.505L215.655 137.645ZM214.26 138.158L212.841 138.623L218.058 142.017L214.26 138.158ZM212.841 138.623L211.397 139.038L216.64 142.481L212.841 138.623ZM211.397 139.038L209.928 139.405L215.198 142.896L211.397 139.038ZM209.928 139.405L208.434 139.722L213.731 143.262L209.928 139.405ZM208.434 139.722L206.915 139.991L212.239 143.579L208.434 139.722ZM206.915 139.991L205.371 140.211L210.722 143.848L206.915 139.991ZM205.371 140.211L203.802 140.382L209.18 144.067L205.371 140.211ZM203.802 140.382L202.208 140.504L207.613 144.238L203.802 140.382ZM202.208 140.504L200.59 140.578L206.022 144.36L202.208 140.504ZM200.59 140.578L198.946 140.602L204.405 144.433L200.59 140.578ZM198.946 140.602L197.595 140.588L202.764 144.458L198.946 140.602ZM51.506 138.532H69.584V121.144L51.506 138.532ZM5 119.626L5.966 121.144H51.506L5 119.626ZM52.334 107.758H29.564L5 119.626L52.334 107.758ZM29.564 107.758L37.43 90.646L52.955 52.213L29.564 107.758ZM40.466 42.346L5 119.626L29.564 107.758L40.466 42.346ZM81.176 121.144V107.758H69.584L81.176 121.144ZM51.506 121.144V138.532L69.584 121.144H51.506ZM52.334 107.758L5 119.626L51.506 121.144L52.334 107.758ZM40.466 42.346L29.564 107.758L52.955 52.213L40.466 42.346ZM69.584 121.144H81.176L69.584 107.758V121.144ZM52.334 107.758L51.506 121.144H69.584L52.334 107.758ZM69.584 42.346H40.466L52.955 52.213L69.584 42.346ZM52.334 107.758L69.584 121.144V107.758H52.334ZM69.584 42.346L52.955 52.213L52.334 107.758L69.584 42.346ZM52.334 107.758H69.584V42.346L52.334 107.758ZM119.089 140.642L121.893 140.923L124.829 141.016L119.089 140.642ZM113.874 139.521L116.416 140.175L119.089 140.642L113.874 139.521ZM109.184 137.652L111.463 138.68L113.874 139.521L109.184 137.652ZM105.019 135.036L107.035 136.438L109.184 137.652L105.019 135.036ZM101.379 131.672L103.133 133.448L105.019 135.036L101.379 131.672ZM98.2643 127.561L99.7559 129.71L101.379 131.672L98.2643 127.561ZM95.671 122.798L96.9087 125.249L98.2643 127.561L95.671 122.798ZM93.5493 117.479L94.5512 120.208L95.671 122.798L93.5493 117.479ZM91.899 111.605L92.6652 114.612L93.5493 117.479L91.899 111.605ZM90.7203 105.174L91.2507 108.459L91.899 111.605L90.7203 105.174ZM90.013 98.1881L90.3077 101.751L90.7203 105.174L90.013 98.1881ZM89.7773 90.646L89.8362 94.4865L90.013 98.1881L89.7773 90.646ZM109.123 93.198L109.097 90.508L89.7773 90.646L109.123 93.198ZM89.7773 90.646L109.097 90.508L109.207 84.7551L89.7773 90.646ZM90.0284 82.5366L89.8401 86.5027L89.7773 90.646L90.0284 82.5366ZM90.7816 75.1363L90.3422 78.7478L90.0284 82.5366L90.7816 75.1363ZM92.037 68.4453L91.3466 71.7022L90.7816 75.1363L92.037 68.4453ZM93.7946 62.4633L92.8531 65.3657L92.037 68.4453L93.7946 62.4633ZM96.0544 57.1906L94.8617 59.7383L93.7946 62.4633L96.0544 57.1906ZM98.8163 52.627L97.3726 54.8202L96.0544 57.1906L98.8163 52.627ZM102.05 48.7688L100.378 50.6102L98.8163 52.627L102.05 48.7688ZM105.724 45.612L103.832 47.1027L102.05 48.7688L105.724 45.612ZM109.839 43.1568L107.726 44.2967L105.724 45.612L109.839 43.1568ZM114.395 41.403L112.062 42.1922L109.839 43.1568L114.395 41.403ZM119.392 40.3507L116.838 40.7892L114.395 41.403L119.392 40.3507ZM124.829 40L122.055 40.0877L119.392 40.3507L124.829 40ZM130.267 40.3507L127.603 40.0877L124.829 40L130.267 40.3507ZM135.264 41.403L132.82 40.7892L130.267 40.3507L135.264 41.403ZM139.82 43.1568L137.597 42.1922L135.264 41.403L139.82 43.1568ZM143.935 45.612L141.932 44.2967L139.82 43.1568L143.935 45.612ZM147.609 48.7688L145.827 47.1027L143.935 45.612L147.609 48.7688ZM150.842 52.627L149.281 50.6102L147.609 48.7688L150.842 52.627ZM153.604 57.1906L152.286 54.8202L150.842 52.627L153.604 57.1906ZM155.864 62.4633L154.797 59.7383L153.604 57.1906L155.864 62.4633ZM157.622 68.4453L156.806 65.3657L155.864 62.4633L157.622 68.4453ZM158.877 75.1363L158.312 71.7022L157.622 68.4453L158.877 75.1363ZM159.63 82.5366L159.316 78.7478L158.877 75.1363L159.63 82.5366ZM159.881 90.646L159.819 86.5027L159.63 82.5366L159.881 90.646ZM159.644 98.1881L159.822 94.4865L159.881 90.646L159.644 98.1881ZM158.931 105.174L159.347 101.751L159.644 98.1881L158.931 105.174ZM157.742 111.605L158.396 108.459L158.931 105.174L157.742 111.605ZM156.079 117.479L156.97 114.612L157.742 111.605L156.079 117.479ZM153.94 122.798L155.069 120.208L156.079 117.479L153.94 122.798ZM151.325 127.561L152.692 125.249L153.94 122.798L151.325 127.561ZM148.232 131.672L149.845 129.71L151.325 127.561L148.232 131.672ZM144.609 135.036L146.487 133.448L148.232 131.672L144.609 135.036ZM140.458 137.652L142.6 136.438L144.609 135.036L140.458 137.652ZM135.777 139.521L138.184 138.68L140.458 137.652L135.777 139.521ZM130.568 140.642L133.239 140.175L135.777 139.521L130.568 140.642ZM124.829 141.016L127.765 140.923L130.568 140.642L124.829 141.016ZM113.874 139.521L119.089 140.642L124.829 141.016L113.874 139.521ZM105.019 135.036L109.184 137.652L113.874 139.521L105.019 135.036ZM98.2643 127.561L101.379 131.672L105.019 135.036L98.2643 127.561ZM93.5493 117.479L95.671 122.798L98.2643 127.561L93.5493 117.479ZM90.7203 105.174L91.899 111.605L93.5493 117.479L90.7203 105.174ZM89.7773 90.646L90.013 98.1881L90.7203 105.174L89.7773 90.646ZM109.201 95.7942L109.123 93.198L89.7773 90.646L109.201 95.7942ZM89.7773 90.646L109.207 84.7551L109.538 79.5025L89.7773 90.646ZM90.7816 75.1363L90.0284 82.5366L89.7773 90.646L90.7816 75.1363ZM93.7946 62.4633L92.037 68.4453L90.7816 75.1363L93.7946 62.4633ZM98.8163 52.627L96.0544 57.1906L93.7946 62.4633L98.8163 52.627ZM105.724 45.612L102.05 48.7688L98.8163 52.627L105.724 45.612ZM114.395 41.403L109.839 43.1568L105.724 45.612L114.395 41.403ZM124.829 40L119.392 40.3507L114.395 41.403L124.829 40ZM135.264 41.403L130.267 40.3507L124.829 40L135.264 41.403ZM143.935 45.612L139.82 43.1568L135.264 41.403L143.935 45.612ZM150.842 52.627L147.609 48.7688L143.935 45.612L150.842 52.627ZM155.864 62.4633L153.604 57.1906L150.842 52.627L155.864 62.4633ZM158.877 75.1363L157.622 68.4453L155.864 62.4633L158.877 75.1363ZM159.881 90.646L159.63 82.5366L158.877 75.1363L159.881 90.646ZM158.931 105.174L159.644 98.1881L159.881 90.646L158.931 105.174ZM156.079 117.479L157.742 111.605L158.931 105.174L156.079 117.479ZM151.325 127.561L153.94 122.798L156.079 117.479L151.325 127.561ZM144.609 135.036L148.232 131.672L151.325 127.561L144.609 135.036ZM135.777 139.521L140.458 137.652L144.609 135.036L135.777 139.521ZM124.829 141.016L130.568 140.642L135.777 139.521L124.829 141.016ZM105.019 135.036L113.874 139.521L124.829 141.016L105.019 135.036ZM93.5493 117.479L98.2643 127.561L105.019 135.036L93.5493 117.479ZM89.7773 90.646L90.7203 105.174L93.5493 117.479L89.7773 90.646ZM109.33 98.2964L109.201 95.7942L89.7773 90.646L109.33 98.2964ZM89.7773 90.646L109.538 79.5025L110.089 74.7501L89.7773 90.646ZM93.7946 62.4633L90.7816 75.1363L89.7773 90.646L93.7946 62.4633ZM105.724 45.612L98.8163 52.627L93.7946 62.4633L105.724 45.612ZM124.829 40L114.395 41.403L105.724 45.612L124.829 40ZM143.935 45.612L135.264 41.403L124.829 40L143.935 45.612ZM155.864 62.4633L150.842 52.627L143.935 45.612L155.864 62.4633ZM159.881 90.646L158.877 75.1363L155.864 62.4633L159.881 90.646ZM156.079 117.479L158.931 105.174L159.881 90.646L156.079 117.479ZM144.609 135.036L151.325 127.561L156.079 117.479L144.609 135.036ZM124.829 141.016L135.777 139.521L144.609 135.036L124.829 141.016ZM93.5493 117.479L105.019 135.036L124.829 141.016L93.5493 117.479ZM109.33 98.2964L89.7773 90.646L93.5493 117.479L109.33 98.2964ZM89.7773 90.646L110.089 74.7501L110.861 70.498L89.7773 90.646ZM105.724 45.612L93.7946 62.4633L89.7773 90.646L105.724 45.612ZM143.935 45.612L124.829 40L105.724 45.612H143.935ZM159.881 90.646L155.864 62.4633L143.935 45.612L159.881 90.646ZM144.609 135.036L156.079 117.479L159.881 90.646L144.609 135.036ZM93.5493 117.479L124.829 141.016L144.609 135.036L93.5493 117.479ZM109.511 100.705L109.33 98.2964L93.5493 117.479L109.511 100.705ZM89.7773 90.646L110.861 70.498L111.852 66.7461L89.7773 90.646ZM144.609 135.036L159.881 90.646L143.935 45.612L144.609 135.036ZM109.744 103.019L109.511 100.705L93.5493 117.479L109.744 103.019ZM89.7773 90.646L111.852 66.7461L113.065 63.4945L89.7773 90.646ZM110.029 105.24L109.744 103.019L93.5493 117.479L110.029 105.24ZM89.7773 90.646L113.065 63.4945L114.497 60.7431L89.7773 90.646ZM110.365 107.366L110.029 105.24L93.5493 117.479L110.365 107.366ZM89.7773 90.646L114.497 60.7431L116.151 58.492L89.7773 90.646ZM110.753 109.399L110.365 107.366L93.5493 117.479L110.753 109.399ZM105.724 45.612L89.7773 90.646L116.151 58.492L105.724 45.612ZM111.193 111.337L110.753 109.399L93.5493 117.479L111.193 111.337ZM105.724 45.612L116.151 58.492L118.024 56.7411L105.724 45.612ZM111.685 113.182L111.193 111.337L93.5493 117.479L111.685 113.182ZM105.724 45.612L118.024 56.7411L120.118 55.4905L105.724 45.612ZM112.228 114.933L111.685 113.182L93.5493 117.479L112.228 114.933ZM105.724 45.612L120.118 55.4905L122.432 54.7401L105.724 45.612ZM112.823 116.59L112.228 114.933L93.5493 117.479L112.823 116.59ZM105.724 45.612L122.432 54.7401L124.967 54.49L105.724 45.612ZM113.477 118.133L112.823 116.59L93.5493 117.479L113.477 118.133ZM105.724 45.612L124.967 54.49L127.458 54.7401L105.724 45.612ZM114.196 119.542L113.477 118.133L93.5493 117.479L114.196 119.542ZM105.724 45.612L127.458 54.7401L129.732 55.4905L105.724 45.612ZM114.98 120.816L114.196 119.542L93.5493 117.479L114.98 120.816ZM143.935 45.612H105.724L129.732 55.4905L143.935 45.612ZM115.829 121.957L114.98 120.816L93.5493 117.479L115.829 121.957ZM143.935 45.612L129.732 55.4905L131.79 56.7411L143.935 45.612ZM116.743 122.963L115.829 121.957L93.5493 117.479L116.743 122.963ZM143.935 45.612L131.79 56.7411L133.631 58.492L143.935 45.612ZM117.722 123.835L116.743 122.963L93.5493 117.479L117.722 123.835ZM143.935 45.612L133.631 58.492L135.255 60.7431L143.935 45.612ZM118.767 124.573L117.722 123.835L93.5493 117.479L118.767 124.573ZM143.935 45.612L135.255 60.7431L136.663 63.4945L143.935 45.612ZM119.877 125.177L118.767 124.573L93.5493 117.479L119.877 125.177ZM143.935 45.612L136.663 63.4945L137.854 66.7461L143.935 45.612ZM121.052 125.646L119.877 125.177L93.5493 117.479L121.052 125.646ZM143.935 45.612L137.854 66.7461L138.829 70.498L143.935 45.612ZM121.052 125.646L93.5493 117.479L144.609 135.036L121.052 125.646ZM143.935 45.612L138.829 70.498L139.587 74.7501L143.935 45.612ZM122.292 125.982L121.052 125.646L144.609 135.036L122.292 125.982ZM143.935 45.612L139.587 74.7501L140.128 79.5025L143.935 45.612ZM123.597 126.183L122.292 125.982L144.609 135.036L123.597 126.183ZM143.935 45.612L140.128 79.5025L140.453 84.7551L143.935 45.612ZM124.967 126.25L123.597 126.183L144.609 135.036L124.967 126.25ZM143.935 45.612L140.453 84.7551L140.561 90.508L143.935 45.612ZM127.458 126.002L124.967 126.25L144.609 135.036L127.458 126.002ZM143.935 45.612L140.561 90.508L140.453 96.2168L143.935 45.612ZM129.732 125.257L127.458 126.002L144.609 135.036L129.732 125.257ZM143.935 45.612L140.453 96.2168L140.128 101.429L143.935 45.612ZM131.79 124.016L129.732 125.257L144.609 135.036L131.79 124.016ZM144.609 135.036L143.935 45.612L140.128 101.429L144.609 135.036ZM133.631 122.279L131.79 124.016L144.609 135.036L133.631 122.279ZM144.609 135.036L140.128 101.429L139.587 106.145L144.609 135.036ZM135.255 120.045L133.631 122.279L144.609 135.036L135.255 120.045ZM144.609 135.036L139.587 106.145L138.829 110.365L144.609 135.036ZM136.663 117.315L135.255 120.045L144.609 135.036L136.663 117.315ZM144.609 135.036L138.829 110.365L137.854 114.088L144.609 135.036ZM137.854 114.088L136.663 117.315L144.609 135.036L137.854 114.088ZM197.595 140.588L198.946 140.602L200.59 140.578L197.595 140.588ZM194.931 140.477L196.257 140.546L197.595 140.588L194.931 140.477ZM192.317 140.255L193.618 140.38L194.931 140.477L192.317 140.255ZM189.752 139.921L191.028 140.102L192.317 140.255L189.752 139.921ZM187.238 139.476L188.489 139.713L189.752 139.921L187.238 139.476ZM184.773 138.921L185.999 139.212L187.238 139.476L184.773 138.921ZM182.363 138.254L183.559 138.601L184.773 138.921L182.363 138.254ZM180.036 137.475L181.188 137.878L182.363 138.254L180.036 137.475ZM177.797 136.586L178.905 137.045L180.036 137.475L177.797 136.586ZM175.647 135.586L176.711 136.1L177.797 136.586L175.647 135.586ZM173.584 134.474L174.604 135.044L175.647 135.586L173.584 134.474ZM171.61 133.251L172.586 133.876L173.584 134.474L171.61 133.251ZM176.452 116.866L170.656 132.598L171.61 133.251L176.452 116.866ZM188.596 82.09V95.752H195.91L188.596 82.09ZM170.104 49.522L177.004 64.15L177.404 63.7183L170.104 49.522ZM171.758 48.1823L170.909 48.8421L170.104 49.522L171.758 48.1823ZM173.592 46.923L172.653 47.5426L171.758 48.1823L173.592 46.923ZM175.607 45.7443L174.577 46.3236L173.592 46.923L175.607 45.7443ZM177.801 44.646L176.682 45.1851L175.607 45.7443L177.801 44.646ZM180.176 43.6283L178.966 44.1271L177.801 44.646L180.176 43.6283ZM182.731 42.691L181.431 43.1496L180.176 43.6283L182.731 42.691ZM185.458 41.8688L184.08 42.2612L182.731 42.691L185.458 41.8688ZM188.305 41.196L186.867 41.5137L185.458 41.8688L188.305 41.196ZM191.27 40.6728L189.772 40.9157L188.305 41.196L191.27 40.6728ZM194.354 40.299L192.797 40.4672L191.27 40.6728L194.354 40.299ZM197.556 40.0747L195.94 40.1682L194.354 40.299L197.556 40.0747ZM200.878 40L199.202 40.0187L197.556 40.0747L200.878 40ZM203.983 40.0805L202.448 40.0201L200.878 40L203.983 40.0805ZM206.95 40.322L205.484 40.1811L203.983 40.0805L206.95 40.322ZM209.779 40.7245L208.382 40.5031L206.95 40.322L209.779 40.7245ZM212.47 41.288L211.142 40.9861L209.779 40.7245L212.47 41.288ZM215.023 42.0125L213.764 41.6301L212.47 41.288L215.023 42.0125ZM217.438 42.898L216.248 42.4351L215.023 42.0125L217.438 42.898ZM219.694 43.9388L218.589 43.3997L217.438 42.898L219.694 43.9388ZM221.77 45.129L220.754 44.5152L219.694 43.9388L221.77 45.129ZM223.665 46.4688L222.74 45.7802L221.77 45.129L223.665 46.4688ZM225.381 47.958L224.546 47.1947L223.665 46.4688L225.381 47.958ZM226.916 49.5968L226.171 48.7587L225.381 47.958L226.916 49.5968ZM228.271 51.385L227.616 50.4722L226.916 49.5968L228.271 51.385ZM229.431 53.2883L228.877 52.3208L228.271 51.385L229.431 53.2883ZM230.379 55.318L229.931 54.2873L229.431 53.2883L230.379 55.318ZM231.117 57.4743L230.775 56.3803L230.379 55.318L231.117 57.4743ZM231.644 59.757L231.407 58.5998L231.117 57.4743L231.644 59.757ZM231.961 62.1663L231.829 60.9458L231.644 59.757L231.961 62.1663ZM232.066 64.702L232.04 63.4183L231.961 62.1663L232.066 64.702ZM232.012 66.4673L232.053 65.5861L232.066 64.702L232.012 66.4673ZM231.851 68.221L231.945 67.3456L232.012 66.4673L231.851 68.221ZM231.583 69.9633L231.731 69.0936L231.851 68.221L231.583 69.9633ZM231.207 71.694L231.409 70.8301L231.583 69.9633L231.207 71.694ZM230.724 73.4133L230.979 72.5551L231.207 71.694L230.724 73.4133ZM230.134 75.121L230.443 74.2686L230.724 73.4133L230.134 75.121ZM229.463 76.7847L229.811 75.9624L230.134 75.121L229.463 76.7847ZM228.693 78.3717L229.09 77.5878L229.463 76.7847L228.693 78.3717ZM227.823 79.882L228.27 79.1364L228.693 78.3717L227.823 79.882ZM226.853 81.3157L227.35 80.6084L227.823 79.882L226.853 81.3157ZM225.783 82.6727L226.33 82.0038L226.853 81.3157L225.783 82.6727ZM224.614 83.953L225.211 83.3224L225.783 82.6727L224.614 83.953ZM223.361 85.1049L223.996 84.5457L224.614 83.953L223.361 85.1049ZM222.038 86.1227L222.708 85.6306L223.361 85.1049L222.038 86.1227ZM220.647 87.0063L221.351 86.5812L222.038 86.1227L220.647 87.0063ZM219.186 87.7557L219.925 87.3977L220.647 87.0063L219.186 87.7557ZM217.657 88.3709L218.43 88.0801L219.186 87.7557L217.657 88.3709ZM216.058 88.852L216.866 88.6282L217.657 88.3709L216.058 88.852ZM217.904 88.9402L216.991 88.874L216.058 88.852L217.904 88.9402ZM219.669 89.2047L218.796 89.0504L217.904 88.9402L219.669 89.2047ZM221.354 89.6455L220.521 89.403L219.669 89.2047L221.354 89.6455ZM222.958 90.2627L222.166 89.932L221.354 89.6455L222.958 90.2627ZM224.482 91.0562L223.73 90.6374L222.958 90.2627L224.482 91.0562ZM225.925 92.026L225.214 91.519L224.482 91.0562L225.925 92.026ZM227.294 93.1396L226.624 92.5689L225.925 92.026L227.294 93.1396ZM228.547 94.3643L227.935 93.7381L227.294 93.1396L228.547 94.3643ZM229.686 95.7003L229.131 95.0184L228.547 94.3643L229.686 95.7003ZM230.709 97.1473L230.212 96.4099L229.686 95.7003L230.709 97.1473ZM231.618 98.7056L231.178 97.9126L230.709 97.1473L231.618 98.7056ZM232.411 100.375L232.029 99.5264L231.618 98.7056L232.411 100.375ZM233.107 102.121L232.775 101.243L232.411 100.375L233.107 102.121ZM233.676 103.909L233.407 103.01L233.107 102.121L233.676 103.909ZM234.119 105.74L233.913 104.819L233.676 103.909L234.119 105.74ZM234.435 107.612L234.293 106.671L234.119 105.74L234.435 107.612ZM234.625 109.527L234.546 108.564L234.435 107.612L234.625 109.527ZM234.688 111.484L234.672 110.5L234.625 109.527L234.688 111.484ZM234.556 114.367L234.655 112.941L234.688 111.484L234.556 114.367ZM234.159 117.127L234.391 115.762L234.556 114.367L234.159 117.127ZM233.498 119.764L233.861 118.461L234.159 117.127L233.498 119.764ZM232.572 122.279L233.068 121.037L233.498 119.764L232.572 122.279ZM231.382 124.671L232.01 123.49L232.572 122.279L231.382 124.671ZM229.927 126.94L230.688 125.821L231.382 124.671L229.927 126.94ZM228.246 129.062L229.11 128.022L229.927 126.94L228.246 129.062ZM226.377 131.011L227.335 130.058L228.246 129.062L226.377 131.011ZM224.321 132.788L225.373 131.921L226.377 131.011L224.321 132.788ZM222.076 134.392L223.222 133.611L224.321 132.788L222.076 134.392ZM219.644 135.824L220.884 135.129L222.076 134.392L219.644 135.824ZM217.024 137.083L218.358 136.475L219.644 135.824L217.024 137.083ZM214.26 138.158L215.655 137.645L217.024 137.083L214.26 138.158ZM211.397 139.038L212.841 138.623L214.26 138.158L211.397 139.038ZM208.434 139.722L209.928 139.405L211.397 139.038L208.434 139.722ZM205.371 140.211L206.915 139.991L208.434 139.722L205.371 140.211ZM202.208 140.504L203.802 140.382L205.371 140.211L202.208 140.504ZM197.595 140.588L200.59 140.578L202.208 140.504L197.595 140.588ZM192.317 140.255L194.931 140.477L197.595 140.588L192.317 140.255ZM187.238 139.476L189.752 139.921L192.317 140.255L187.238 139.476ZM182.363 138.254L184.773 138.921L187.238 139.476L182.363 138.254ZM177.797 136.586L180.036 137.475L182.363 138.254L177.797 136.586ZM173.584 134.474L175.647 135.586L177.797 136.586L173.584 134.474ZM176.452 116.866L171.61 133.251L173.584 134.474L176.452 116.866ZM188.596 82.09L195.91 95.752L197.346 95.7726L188.596 82.09ZM170.104 49.522L177.404 63.7183L177.822 63.2971L170.104 49.522ZM173.592 46.923L171.758 48.1823L170.104 49.522L173.592 46.923ZM177.801 44.646L175.607 45.7443L173.592 46.923L177.801 44.646ZM182.731 42.691L180.176 43.6283L177.801 44.646L182.731 42.691ZM188.305 41.196L185.458 41.8688L182.731 42.691L188.305 41.196ZM194.354 40.299L191.27 40.6728L188.305 41.196L194.354 40.299ZM200.878 40L197.556 40.0747L194.354 40.299L200.878 40ZM206.95 40.322L203.983 40.0805L200.878 40L206.95 40.322ZM212.47 41.288L209.779 40.7245L206.95 40.322L212.47 41.288ZM217.438 42.898L215.023 42.0125L212.47 41.288L217.438 42.898ZM221.77 45.129L219.694 43.9388L217.438 42.898L221.77 45.129ZM225.381 47.958L223.665 46.4688L221.77 45.129L225.381 47.958ZM228.271 51.385L226.916 49.5968L225.381 47.958L228.271 51.385ZM230.379 55.318L229.431 53.2883L228.271 51.385L230.379 55.318ZM231.644 59.757L231.117 57.4743L230.379 55.318L231.644 59.757ZM232.066 64.702L231.961 62.1663L231.644 59.757L232.066 64.702ZM231.851 68.221L232.012 66.4673L232.066 64.702L231.851 68.221ZM231.207 71.694L231.583 69.9633L231.851 68.221L231.207 71.694ZM230.134 75.121L230.724 73.4133L231.207 71.694L230.134 75.121ZM228.693 78.3717L229.463 76.7847L230.134 75.121L228.693 78.3717ZM226.853 81.3157L227.823 79.882L228.693 78.3717L226.853 81.3157ZM224.614 83.953L225.783 82.6727L226.853 81.3157L224.614 83.953ZM222.038 86.1227L223.361 85.1049L224.614 83.953L222.038 86.1227ZM219.186 87.7557L220.647 87.0063L222.038 86.1227L219.186 87.7557ZM216.058 88.852L217.657 88.3709L219.186 87.7557L216.058 88.852ZM219.669 89.2047L217.904 88.9402L216.058 88.852L219.669 89.2047ZM222.958 90.2627L221.354 89.6455L219.669 89.2047L222.958 90.2627ZM225.925 92.026L224.482 91.0562L222.958 90.2627L225.925 92.026ZM228.547 94.3643L227.294 93.1396L225.925 92.026L228.547 94.3643ZM230.709 97.1473L229.686 95.7003L228.547 94.3643L230.709 97.1473ZM232.411 100.375L231.618 98.7056L230.709 97.1473L232.411 100.375ZM233.676 103.909L233.107 102.121L232.411 100.375L233.676 103.909ZM234.435 107.612L234.119 105.74L233.676 103.909L234.435 107.612ZM234.688 111.484L234.625 109.527L234.435 107.612L234.688 111.484ZM234.159 117.127L234.556 114.367L234.688 111.484L234.159 117.127ZM232.572 122.279L233.498 119.764L234.159 117.127L232.572 122.279ZM229.927 126.94L231.382 124.671L232.572 122.279L229.927 126.94ZM226.377 131.011L228.246 129.062L229.927 126.94L226.377 131.011ZM222.076 134.392L224.321 132.788L226.377 131.011L222.076 134.392ZM217.024 137.083L219.644 135.824L222.076 134.392L217.024 137.083ZM211.397 139.038L214.26 138.158L217.024 137.083L211.397 139.038ZM205.371 140.211L208.434 139.722L211.397 139.038L205.371 140.211ZM197.595 140.588L202.208 140.504L205.371 140.211L197.595 140.588ZM187.238 139.476L192.317 140.255L197.595 140.588L187.238 139.476ZM177.797 136.586L182.363 138.254L187.238 139.476L177.797 136.586ZM176.452 116.866L173.584 134.474L177.797 136.586L176.452 116.866ZM188.596 82.09L197.346 95.7726L198.733 95.8344L188.596 82.09ZM170.104 49.522L177.822 63.2971L178.259 62.8864L170.104 49.522ZM177.801 44.646L173.592 46.923L170.104 49.522L177.801 44.646ZM188.305 41.196L182.731 42.691L177.801 44.646L188.305 41.196ZM200.878 40L194.354 40.299L188.305 41.196L200.878 40ZM212.47 41.288L206.95 40.322L200.878 40L212.47 41.288ZM221.77 45.129L217.438 42.898L212.47 41.288L221.77 45.129ZM228.271 51.385L225.381 47.958L221.77 45.129L228.271 51.385ZM231.644 59.757L230.379 55.318L228.271 51.385L231.644 59.757ZM231.851 68.221L232.066 64.702L231.644 59.757L231.851 68.221ZM230.134 75.121L231.207 71.694L231.851 68.221L230.134 75.121ZM226.853 81.3157L228.693 78.3717L230.134 75.121L226.853 81.3157ZM222.038 86.1227L224.614 83.953L226.853 81.3157L222.038 86.1227ZM216.058 88.852L219.186 87.7557L222.038 86.1227L216.058 88.852ZM222.958 90.2627L219.669 89.2047L216.058 88.852L222.958 90.2627ZM228.547 94.3643L225.925 92.026L222.958 90.2627L228.547 94.3643ZM232.411 100.375L230.709 97.1473L228.547 94.3643L232.411 100.375ZM234.435 107.612L233.676 103.909L232.411 100.375L234.435 107.612ZM234.159 117.127L234.688 111.484L234.435 107.612L234.159 117.127ZM229.927 126.94L232.572 122.279L234.159 117.127L229.927 126.94ZM222.076 134.392L226.377 131.011L229.927 126.94L222.076 134.392ZM211.397 139.038L217.024 137.083L222.076 134.392L211.397 139.038ZM197.595 140.588L205.371 140.211L211.397 139.038L197.595 140.588ZM177.797 136.586L187.238 139.476L197.595 140.588L177.797 136.586ZM177.108 117.476L176.452 116.866L177.797 136.586L177.108 117.476ZM188.596 82.09L198.733 95.8344L200.072 95.9374L188.596 82.09ZM170.104 49.522L178.259 62.8864L178.714 62.4863L170.104 49.522ZM188.305 41.196L177.801 44.646L170.104 49.522L188.305 41.196ZM212.47 41.288L200.878 40L188.305 41.196L212.47 41.288ZM228.271 51.385L221.77 45.129L212.47 41.288L228.271 51.385ZM231.851 68.221L231.644 59.757L228.271 51.385L231.851 68.221ZM226.853 81.3157L230.134 75.121L231.851 68.221L226.853 81.3157ZM216.058 88.852L222.038 86.1227L226.853 81.3157L216.058 88.852ZM228.547 94.3643L222.958 90.2627L216.058 88.852L228.547 94.3643ZM234.435 107.612L232.411 100.375L228.547 94.3643L234.435 107.612ZM229.927 126.94L234.159 117.127L234.435 107.612L229.927 126.94ZM211.397 139.038L222.076 134.392L229.927 126.94L211.397 139.038ZM177.797 136.586L197.595 140.588L211.397 139.038L177.797 136.586ZM177.788 118.064L177.108 117.476L177.797 136.586L177.788 118.064ZM188.596 82.09L200.072 95.9374L201.361 96.0817L188.596 82.09ZM170.104 49.522L178.714 62.4863L179.187 62.0968L170.104 49.522ZM212.47 41.288L188.305 41.196L170.104 49.522L212.47 41.288ZM231.851 68.221L228.271 51.385L212.47 41.288L231.851 68.221ZM216.058 88.852L226.853 81.3157L231.851 68.221L216.058 88.852ZM234.435 107.612L228.547 94.3643L216.058 88.852L234.435 107.612ZM211.397 139.038L229.927 126.94L234.435 107.612L211.397 139.038ZM178.492 118.63L177.788 118.064L177.797 136.586L178.492 118.63ZM188.596 82.09L201.361 96.0817L202.602 96.2671L188.596 82.09ZM170.104 49.522L179.187 62.0968L179.678 61.7178L170.104 49.522ZM216.058 88.852L231.851 68.221L212.47 41.288L216.058 88.852ZM179.22 119.174L178.492 118.63L177.797 136.586L179.22 119.174ZM188.596 82.09L202.602 96.2671L203.793 96.4938L188.596 82.09ZM170.104 49.522L179.678 61.7178L180.187 61.3493L170.104 49.522ZM179.972 119.695L179.22 119.174L177.797 136.586L179.972 119.695ZM188.596 82.09L203.793 96.4938L204.936 96.7616L188.596 82.09ZM170.104 49.522L180.187 61.3493L180.715 60.9913L170.104 49.522ZM180.747 120.195L179.972 119.695L177.797 136.586L180.747 120.195ZM188.596 82.09L204.936 96.7616L206.03 97.0707L188.596 82.09ZM170.104 49.522L180.715 60.9913L181.26 60.6439L170.104 49.522ZM180.747 120.195L177.797 136.586L211.397 139.038L180.747 120.195ZM188.596 82.09L206.03 97.0707L207.075 97.4209L188.596 82.09ZM170.104 49.522L181.26 60.6439L181.824 60.3071L170.104 49.522ZM181.547 120.673L180.747 120.195L211.397 139.038L181.547 120.673ZM188.596 82.09L207.075 97.4209L208.071 97.8124L188.596 82.09ZM170.104 49.522L181.824 60.3071L182.407 59.9808L170.104 49.522ZM182.371 121.129L181.547 120.673L211.397 139.038L182.371 121.129ZM188.596 82.09L208.071 97.8124L209.019 98.2451L188.596 82.09ZM170.104 49.522L182.407 59.9808L183.007 59.665L170.104 49.522ZM183.218 121.562L182.371 121.129L211.397 139.038L183.218 121.562ZM188.596 82.09L209.019 98.2451L209.917 98.719L188.596 82.09ZM170.104 49.522L183.007 59.665L183.618 59.3497L170.104 49.522ZM184.09 121.974L183.218 121.562L211.397 139.038L184.09 121.974ZM188.596 82.09L209.917 98.719L210.766 99.2466L188.596 82.09ZM170.104 49.522L183.618 59.3497L184.23 59.0478L170.104 49.522ZM184.986 122.363L184.09 121.974L211.397 139.038L184.986 122.363ZM188.596 82.09L210.766 99.2466L211.54 99.8403L188.596 82.09ZM170.104 49.522L184.23 59.0478L184.844 58.7594L170.104 49.522ZM185.905 122.731L184.986 122.363L211.397 139.038L185.905 122.731ZM196.048 82.09H188.596L211.54 99.8403L196.048 82.09ZM170.104 49.522L184.844 58.7594L185.46 58.4843L170.104 49.522ZM186.848 123.073L185.905 122.731L211.397 139.038L186.848 123.073ZM196.048 82.09L211.54 99.8403L212.242 100.5L196.048 82.09ZM170.104 49.522L185.46 58.4843L186.079 58.2227L170.104 49.522ZM187.789 123.385L186.848 123.073L211.397 139.038L187.789 123.385ZM197.389 82.0622L196.048 82.09L212.242 100.5L197.389 82.0622ZM170.104 49.522L186.079 58.2227L186.699 57.9745L170.104 49.522ZM188.73 123.667L187.789 123.385L211.397 139.038L188.73 123.667ZM197.389 82.0622L212.242 100.5L212.869 101.226L197.389 82.0622ZM170.104 49.522L186.699 57.9745L187.321 57.7397L170.104 49.522ZM189.669 123.919L188.73 123.667L211.397 139.038L189.669 123.919ZM198.674 81.9788L197.389 82.0622L212.869 101.226L198.674 81.9788ZM170.104 49.522L187.321 57.7397L187.944 57.5183L170.104 49.522ZM190.608 124.142L189.669 123.919L211.397 139.038L190.608 124.142ZM199.903 81.8399L198.674 81.9788L212.869 101.226L199.903 81.8399ZM170.104 49.522L187.944 57.5183L188.57 57.3104L170.104 49.522ZM191.546 124.335L190.608 124.142L211.397 139.038L191.546 124.335ZM199.903 81.8399L212.869 101.226L213.422 102.018L199.903 81.8399ZM170.104 49.522L188.57 57.3104L189.198 57.1158L170.104 49.522ZM192.483 124.499L191.546 124.335L211.397 139.038L192.483 124.499ZM201.077 81.6453L199.903 81.8399L213.422 102.018L201.077 81.6453ZM170.104 49.522L189.198 57.1158L189.828 56.9347L170.104 49.522ZM193.418 124.632L192.483 124.499L211.397 139.038L193.418 124.632ZM202.196 81.3952L201.077 81.6453L213.422 102.018L202.196 81.3952ZM170.104 49.522L189.828 56.9347L190.459 56.767L170.104 49.522ZM194.353 124.736L193.418 124.632L211.397 139.038L194.353 124.736ZM202.196 81.3952L213.422 102.018L213.902 102.876L202.196 81.3952ZM170.104 49.522L190.459 56.767L191.096 56.6017L170.104 49.522ZM195.287 124.811L194.353 124.736L211.397 139.038L195.287 124.811ZM203.259 81.0895L202.196 81.3952L213.902 102.876L203.259 81.0895ZM170.104 49.522L191.096 56.6017L191.718 56.4508L170.104 49.522ZM196.22 124.855L195.287 124.811L211.397 139.038L196.22 124.855ZM204.266 80.7282L203.259 81.0895L213.902 102.876L204.266 80.7282ZM170.104 49.522L191.718 56.4508L192.326 56.3142L170.104 49.522ZM197.152 124.87L196.22 124.855L211.397 139.038L197.152 124.87ZM204.266 80.7282L213.902 102.876L214.308 103.801L204.266 80.7282ZM170.104 49.522L192.326 56.3142L192.92 56.192L170.104 49.522ZM198.616 124.841L197.152 124.87L211.397 139.038L198.616 124.841ZM205.217 80.3113L204.266 80.7282L214.308 103.801L205.217 80.3113ZM170.104 49.522L192.92 56.192L193.499 56.0842L170.104 49.522ZM200.019 124.753L198.616 124.841L211.397 139.038L200.019 124.753ZM206.113 79.8389L205.217 80.3113L214.308 103.801L206.113 79.8389ZM170.104 49.522L193.499 56.0842L194.064 55.9908L170.104 49.522ZM201.361 124.607L200.019 124.753L211.397 139.038L201.361 124.607ZM206.954 79.3108L206.113 79.8389L214.308 103.801L206.954 79.3108ZM170.104 49.522L194.064 55.9908L194.615 55.9117L170.104 49.522ZM202.641 124.402L201.361 124.607L211.397 139.038L202.641 124.402ZM206.954 79.3108L214.308 103.801L214.64 104.791L206.954 79.3108ZM170.104 49.522L194.615 55.9117L195.151 55.847L170.104 49.522ZM203.86 124.139L202.641 124.402L211.397 139.038L203.86 124.139ZM207.739 78.7272L206.954 79.3108L214.64 104.791L207.739 78.7272ZM170.104 49.522L195.151 55.847L195.673 55.7967L170.104 49.522ZM205.018 123.818L203.86 124.139L211.397 139.038L205.018 123.818ZM208.468 78.088L207.739 78.7272L214.64 104.791L208.468 78.088ZM170.104 49.522L195.673 55.7967L196.18 55.7608L170.104 49.522ZM206.114 123.438L205.018 123.818L211.397 139.038L206.114 123.438ZM208.468 78.088L214.64 104.791L214.898 105.848L208.468 78.088ZM170.104 49.522L196.18 55.7608L196.673 55.7392L170.104 49.522ZM207.149 122.999L206.114 123.438L211.397 139.038L207.149 122.999ZM209.151 77.4028L208.468 78.088L214.898 105.848L209.151 77.4028ZM170.104 49.522L196.673 55.7392L197.152 55.732L170.104 49.522ZM208.123 122.502L207.149 122.999L211.397 139.038L208.123 122.502ZM209.775 76.6812L209.151 77.4028L214.898 105.848L209.775 76.6812ZM170.104 49.522L197.152 55.732L198.435 55.7502L170.104 49.522ZM208.123 122.502L211.397 139.038L234.435 107.612L208.123 122.502ZM210.34 75.9231L209.775 76.6812L214.898 105.848L210.34 75.9231ZM170.104 49.522L198.435 55.7502L199.663 55.8048L170.104 49.522ZM209.035 121.947L208.123 122.502L234.435 107.612L209.035 121.947ZM210.34 75.9231L214.898 105.848L215.082 106.97L210.34 75.9231ZM170.104 49.522L199.663 55.8048L200.835 55.8959L170.104 49.522ZM209.886 121.333L209.035 121.947L234.435 107.612L209.886 121.333ZM210.845 75.1287L210.34 75.9231L215.082 106.97L210.845 75.1287ZM170.104 49.522L200.835 55.8959L201.951 56.0233L170.104 49.522ZM210.676 120.661L209.886 121.333L234.435 107.612L210.676 120.661ZM211.29 74.2978L210.845 75.1287L215.082 106.97L211.29 74.2978ZM170.104 49.522L201.951 56.0233L203.012 56.1872L170.104 49.522ZM211.403 119.929L210.676 120.661L234.435 107.612L211.403 119.929ZM211.677 73.4305L211.29 74.2978L215.082 106.97L211.677 73.4305ZM170.104 49.522L203.012 56.1872L204.018 56.3875L170.104 49.522ZM212.068 119.16L211.403 119.929L234.435 107.612L212.068 119.16ZM212.003 72.5268L211.677 73.4305L215.082 106.97L212.003 72.5268ZM212.47 41.288L170.104 49.522L204.018 56.3875L212.47 41.288ZM212.668 118.354L212.068 119.16L234.435 107.612L212.668 118.354ZM212.003 72.5268L215.082 106.97L215.193 108.159L212.003 72.5268ZM212.47 41.288L204.018 56.3875L204.967 56.6242L212.47 41.288ZM213.206 117.51L212.668 118.354L234.435 107.612L213.206 117.51ZM212.271 71.5867L212.003 72.5268L215.193 108.159L212.271 71.5867ZM212.47 41.288L204.967 56.6242L205.861 56.8973L212.47 41.288ZM213.68 116.629L213.206 117.51L234.435 107.612L213.68 116.629ZM212.479 70.6101L212.271 71.5867L215.193 108.159L212.479 70.6101ZM212.47 41.288L205.861 56.8973L206.7 57.2069L212.47 41.288ZM214.092 115.71L213.68 116.629L234.435 107.612L214.092 115.71ZM212.627 69.5972L212.479 70.6101L215.193 108.159L212.627 69.5972ZM212.47 41.288L206.7 57.2069L207.483 57.5528L212.47 41.288ZM214.439 114.754L214.092 115.71L234.435 107.612L214.439 114.754ZM212.716 68.5478L212.627 69.5972L215.193 108.159L212.716 68.5478ZM212.47 41.288L207.483 57.5528L208.21 57.9352L212.47 41.288ZM214.724 113.761L214.439 114.754L234.435 107.612L214.724 113.761ZM212.746 67.462L212.716 68.5478L215.193 108.159L212.746 67.462ZM212.47 41.288L208.21 57.9352L208.882 58.354L212.47 41.288ZM214.945 112.73L214.724 113.761L234.435 107.612L214.945 112.73ZM212.719 66.3973L212.746 67.462L215.193 108.159L212.719 66.3973ZM212.47 41.288L208.882 58.354L209.499 58.8073L212.47 41.288ZM215.104 111.662L214.945 112.73L234.435 107.612L215.104 111.662ZM212.47 41.288L209.499 58.8073L210.063 59.3162L212.47 41.288ZM215.198 110.557L215.104 111.662L234.435 107.612L215.198 110.557ZM212.47 41.288L210.063 59.3162L210.573 59.8806L212.47 41.288ZM215.198 110.557L234.435 107.612L216.058 88.852L215.198 110.557ZM212.47 41.288L210.573 59.8806L211.029 60.5007L212.47 41.288ZM215.23 109.414L215.198 110.557L216.058 88.852L215.23 109.414ZM212.47 41.288L211.029 60.5007L211.431 61.1763L212.47 41.288ZM215.193 108.159L215.23 109.414L216.058 88.852L215.193 108.159ZM212.47 41.288L211.431 61.1763L211.78 61.9075L212.47 41.288ZM215.193 108.159L216.058 88.852L212.47 41.288L215.193 108.159ZM212.47 41.288L211.78 61.9075L212.075 62.6943L212.47 41.288ZM212.719 66.3973L215.193 108.159L212.47 41.288L212.719 66.3973ZM212.47 41.288L212.075 62.6943L212.317 63.5367L212.47 41.288ZM212.639 65.3882L212.719 66.3973L212.47 41.288L212.639 65.3882ZM212.47 41.288L212.317 63.5367L212.505 64.4346L212.47 41.288ZM212.505 64.4346L212.639 65.3882L212.47 41.288L212.505 64.4346Z" fill="#0C4E96"/>
<path d="M80.9234 120.612H69.3314V138H51.2534V120.612H5.71336L4.74736 119.094L40.2134 41.814H69.3314V107.226H80.9234V120.612ZM29.3114 107.226H52.0814L52.7024 51.681L37.1774 90.114L29.3114 107.226ZM124.577 140.484C112.571 140.484 103.716 135.999 98.0116 127.029C92.3536 118.059 89.5246 105.754 89.5246 90.114C89.5246 73.186 92.5376 60.513 98.5636 52.095C104.59 43.677 113.261 39.468 124.577 39.468C135.893 39.468 144.564 43.677 150.59 52.095C156.616 60.513 159.629 73.186 159.629 90.114C159.629 105.754 156.777 118.059 151.073 127.029C145.415 135.999 136.583 140.484 124.577 140.484ZM124.715 125.718C135.111 125.718 140.309 113.804 140.309 89.976C140.309 65.964 135.111 53.958 124.715 53.958C114.135 53.958 108.845 65.964 108.845 89.976C108.845 100.924 110.087 109.618 112.571 116.058C115.055 122.498 119.103 125.718 124.715 125.718ZM198.693 140.07C193.265 140.07 188.136 139.403 183.306 138.069C178.476 136.735 174.175 134.734 170.403 132.066L176.199 116.334C178.775 118.818 181.926 120.773 185.652 122.199C189.424 123.625 193.173 124.338 196.899 124.338C202.879 124.338 207.387 122.935 210.423 120.129C213.459 117.277 214.977 113.528 214.977 108.882C214.977 103.73 213.206 100.165 209.664 98.187C206.168 96.209 201.499 95.22 195.657 95.22H188.343V81.558H195.795C201.269 81.558 205.409 80.224 208.215 77.556C211.067 74.888 212.493 71.346 212.493 66.93C212.493 62.56 211.205 59.524 208.629 57.822C206.053 56.074 202.143 55.2 196.899 55.2C195.013 55.2 192.782 55.545 190.206 56.235C187.676 56.879 185.192 57.845 182.754 59.133C180.316 60.375 178.315 61.87 176.751 63.618L169.851 48.99C172.979 46.23 177.188 43.953 182.478 42.159C187.814 40.365 193.863 39.468 200.625 39.468C206.973 39.468 212.493 40.434 217.185 42.366C221.877 44.298 225.488 47.127 228.018 50.853C230.548 54.533 231.813 58.972 231.813 64.17C231.813 67.712 231.169 71.185 229.881 74.589C228.639 77.993 226.799 80.937 224.361 83.421C221.923 85.859 219.071 87.492 215.805 88.32C219.577 88.32 222.866 89.378 225.672 91.494C228.524 93.61 230.686 96.393 232.158 99.843C233.676 103.293 234.435 106.996 234.435 110.952C234.435 116.84 232.848 121.992 229.674 126.408C226.5 130.824 222.199 134.205 216.771 136.551C211.343 138.897 205.317 140.07 198.693 140.07Z" fill="#E9F4FF"/>
<path d="M80.9234 120.612V121.612H81.9234V120.612H80.9234ZM69.3314 120.612V119.612H68.3314V120.612H69.3314ZM69.3314 138V139H70.3314V138H69.3314ZM51.2534 138H50.2534V139H51.2534V138ZM51.2534 120.612H52.2534V119.612H51.2534V120.612ZM5.71336 120.612L4.8697 121.149L5.16441 121.612H5.71336V120.612ZM4.74736 119.094L3.8385 118.677L3.61145 119.172L3.9037 119.631L4.74736 119.094ZM40.2134 41.814V40.814H39.572L39.3045 41.3969L40.2134 41.814ZM69.3314 41.814H70.3314V40.814H69.3314V41.814ZM69.3314 107.226H68.3314V108.226H69.3314V107.226ZM80.9234 107.226H81.9234V106.226H80.9234V107.226ZM29.3114 107.226L28.4028 106.808L27.7511 108.226H29.3114V107.226ZM52.0814 107.226V108.226H53.0702L53.0813 107.237L52.0814 107.226ZM52.7024 51.681L53.7023 51.6922L51.7752 51.3064L52.7024 51.681ZM37.1774 90.114L38.086 90.5317L38.0958 90.5103L38.1046 90.4885L37.1774 90.114ZM80.9234 119.612H69.3314V121.612H80.9234V119.612ZM68.3314 120.612V138H70.3314V120.612H68.3314ZM69.3314 137H51.2534V139H69.3314V137ZM52.2534 138V120.612H50.2534V138H52.2534ZM51.2534 119.612H5.71336V121.612H51.2534V119.612ZM6.55702 120.075L5.59102 118.557L3.9037 119.631L4.8697 121.149L6.55702 120.075ZM5.65622 119.511L41.1222 42.2311L39.3045 41.3969L3.8385 118.677L5.65622 119.511ZM40.2134 42.814H69.3314V40.814H40.2134V42.814ZM68.3314 41.814V107.226H70.3314V41.814H68.3314ZM69.3314 108.226H80.9234V106.226H69.3314V108.226ZM79.9234 107.226V120.612H81.9234V107.226H79.9234ZM29.3114 108.226H52.0814V106.226H29.3114V108.226ZM53.0813 107.237L53.7023 51.6922L51.7024 51.6698L51.0814 107.215L53.0813 107.237ZM51.7752 51.3064L36.2502 89.7395L38.1046 90.4885L53.6296 52.0555L51.7752 51.3064ZM36.2688 89.6963L28.4028 106.808L30.22 107.644L38.086 90.5317L36.2688 89.6963ZM98.0116 127.029L97.1658 127.563L97.1678 127.566L98.0116 127.029ZM98.5636 52.095L99.3768 52.6771H99.3768L98.5636 52.095ZM150.59 52.095L149.777 52.6771L150.59 52.095ZM151.073 127.029L150.229 126.492L150.227 126.495L151.073 127.029ZM124.577 139.484C112.86 139.484 104.35 135.132 98.8555 126.492L97.1678 127.566C103.082 136.866 112.281 141.484 124.577 141.484V139.484ZM98.8574 126.495C93.3372 117.744 90.5246 105.649 90.5246 90.114H88.5246C88.5246 105.859 91.37 118.374 97.1658 127.562L98.8574 126.495ZM90.5246 90.114C90.5246 73.2737 93.5276 60.848 99.3768 52.6771L97.7505 51.5129C91.5477 60.178 88.5246 73.0983 88.5246 90.114H90.5246ZM99.3768 52.6771C105.196 44.5486 113.548 40.468 124.577 40.468V38.468C112.973 38.468 103.984 42.8054 97.7505 51.5129L99.3768 52.6771ZM124.577 40.468C135.605 40.468 143.958 44.5486 149.777 52.6771L151.403 51.5129C145.17 42.8054 136.18 38.468 124.577 38.468V40.468ZM149.777 52.6771C155.626 60.848 158.629 73.2737 158.629 90.114H160.629C160.629 73.0983 157.606 60.178 151.403 51.5129L149.777 52.6771ZM158.629 90.114C158.629 105.648 155.793 117.742 150.229 126.492L151.916 127.566C157.76 118.376 160.629 105.86 160.629 90.114H158.629ZM150.227 126.495C144.779 135.133 136.293 139.484 124.577 139.484V141.484C136.872 141.484 146.05 136.865 151.918 127.562L150.227 126.495ZM124.715 126.718C127.519 126.718 130.01 125.909 132.144 124.279C134.265 122.658 135.981 120.268 137.327 117.182C140.009 111.034 141.309 101.932 141.309 89.976H139.309C139.309 101.848 138.009 110.617 135.494 116.383C134.241 119.254 132.707 121.332 130.93 122.689C129.166 124.037 127.108 124.718 124.715 124.718V126.718ZM141.309 89.976C141.309 77.9285 140.009 68.7585 137.328 62.5652C135.982 59.4575 134.268 57.0495 132.147 55.4168C130.013 53.7735 127.521 52.958 124.715 52.958V54.958C127.106 54.958 129.163 55.6433 130.927 57.0015C132.705 58.3702 134.239 60.4645 135.492 63.3598C138.009 69.1725 139.309 78.0115 139.309 89.976H141.309ZM124.715 52.958C121.867 52.958 119.337 53.7709 117.168 55.4116C115.012 57.0427 113.267 59.45 111.897 62.5593C109.167 68.7549 107.845 77.9275 107.845 89.976H109.845C109.845 78.0125 111.167 69.1761 113.727 63.3657C115.002 60.472 116.563 58.377 118.375 57.0066C120.174 55.6459 122.273 54.958 124.715 54.958V52.958ZM107.845 89.976C107.845 100.983 109.091 109.816 111.638 116.418L113.504 115.698C111.082 109.42 109.845 100.865 109.845 89.976H107.845ZM111.638 116.418C112.923 119.75 114.645 122.334 116.847 124.086C119.063 125.849 121.703 126.718 124.715 126.718V124.718C122.114 124.718 119.924 123.977 118.092 122.52C116.246 121.052 114.702 118.806 113.504 115.698L111.638 116.418ZM183.306 138.069L183.573 137.105L183.306 138.069ZM170.403 132.066L169.465 131.72L169.2 132.44L169.826 132.882L170.403 132.066ZM176.199 116.334L176.894 115.614L175.791 114.551L175.261 115.988L176.199 116.334ZM185.652 122.199L185.295 123.133L185.299 123.134L185.652 122.199ZM210.423 120.129L211.102 120.863L211.108 120.858L210.423 120.129ZM209.664 98.187L209.172 99.0574L209.177 99.0601L209.664 98.187ZM188.343 95.22H187.343V96.22H188.343V95.22ZM188.343 81.558V80.558H187.343V81.558H188.343ZM208.215 77.556L207.532 76.8257L207.526 76.8313L208.215 77.556ZM208.629 57.822L208.068 58.6495L208.078 58.6563L208.629 57.822ZM190.206 56.235L190.453 57.2042L190.465 57.2009L190.206 56.235ZM182.754 59.133L183.208 60.024L183.215 60.0207L183.222 60.0172L182.754 59.133ZM176.751 63.618L175.847 64.0446L176.491 65.4092L177.497 64.2848L176.751 63.618ZM169.851 48.99L169.19 48.2402L168.627 48.7372L168.947 49.4166L169.851 48.99ZM182.478 42.159L182.16 41.2111L182.157 41.212L182.478 42.159ZM217.185 42.366L216.805 43.2907L217.185 42.366ZM228.018 50.853L227.191 51.4148L227.194 51.4195L228.018 50.853ZM229.881 74.589L228.946 74.2351L228.942 74.2462L229.881 74.589ZM224.361 83.421L225.069 84.1281L225.075 84.1215L224.361 83.421ZM215.805 88.32L215.56 87.3507L215.805 89.32V88.32ZM225.672 91.494L225.07 92.2924L225.077 92.2971L225.672 91.494ZM232.158 99.843L231.239 100.235L231.243 100.246L232.158 99.843ZM229.674 126.408L228.862 125.824L229.674 126.408ZM216.771 136.551L217.168 137.469L216.771 136.551ZM198.693 139.07C193.348 139.07 188.309 138.413 183.573 137.105L183.04 139.033C187.964 140.393 193.183 141.07 198.693 141.07V139.07ZM183.573 137.105C178.845 135.799 174.651 133.845 170.981 131.25L169.826 132.882C173.7 135.623 178.108 137.671 183.04 139.033L183.573 137.105ZM171.342 132.412L177.138 116.68L175.261 115.988L169.465 131.72L171.342 132.412ZM175.505 117.054C178.189 119.641 181.458 121.664 185.295 123.133L186.01 121.265C182.395 119.882 179.362 117.995 176.894 115.614L175.505 117.054ZM185.299 123.134C189.174 124.6 193.043 125.338 196.899 125.338V123.338C193.304 123.338 189.674 122.65 186.006 121.264L185.299 123.134ZM196.899 125.338C203.02 125.338 207.813 123.903 211.102 120.863L209.745 119.395C206.962 121.967 202.739 123.338 196.899 123.338V125.338ZM211.108 120.858C214.37 117.794 215.977 113.769 215.977 108.882H213.977C213.977 113.287 212.549 116.76 209.739 119.4L211.108 120.858ZM215.977 108.882C215.977 103.482 214.099 99.518 210.152 97.3139L209.177 99.0601C212.314 100.812 213.977 103.978 213.977 108.882H215.977ZM210.157 97.3167C206.458 95.2237 201.599 94.22 195.657 94.22V96.22C201.4 96.22 205.879 97.1943 209.172 99.0574L210.157 97.3167ZM195.657 94.22H188.343V96.22H195.657V94.22ZM189.343 95.22V81.558H187.343V95.22H189.343ZM188.343 82.558H195.795V80.558H188.343V82.558ZM195.795 82.558C201.419 82.558 205.848 81.1873 208.904 78.2807L207.526 76.8313C204.971 79.2607 201.119 80.558 195.795 80.558V82.558ZM208.899 78.2863C211.98 75.4036 213.493 71.5829 213.493 66.93H211.493C211.493 71.1091 210.155 74.3724 207.532 76.8257L208.899 78.2863ZM213.493 66.93C213.493 62.3756 212.143 58.9451 209.181 56.9877L208.078 58.6563C210.268 60.1029 211.493 62.7444 211.493 66.93H213.493ZM209.191 56.9945C206.371 55.0807 202.221 54.2 196.899 54.2V56.2C202.066 56.2 205.736 57.0673 208.068 58.6495L209.191 56.9945ZM196.899 54.2C194.898 54.2 192.576 54.565 189.948 55.269L190.465 57.2009C192.989 56.525 195.129 56.2 196.899 56.2V54.2ZM189.96 55.2659C187.349 55.9305 184.791 56.926 182.287 58.2488L183.222 60.0172C185.594 58.764 188.004 57.8275 190.453 57.2041L189.96 55.2659ZM182.3 58.242C179.77 59.5309 177.665 61.0971 176.006 62.9512L177.497 64.2848C178.966 62.6429 180.862 61.2191 183.208 60.024L182.3 58.242ZM177.656 63.1914L170.756 48.5634L168.947 49.4166L175.847 64.0446L177.656 63.1914ZM170.513 49.7398C173.514 47.0917 177.595 44.8711 182.8 43.106L182.157 41.212C176.782 43.0349 172.445 45.3683 169.19 48.2402L170.513 49.7398ZM182.797 43.1069C188.012 41.3535 193.951 40.468 200.625 40.468V38.468C193.776 38.468 187.617 39.3765 182.16 41.2111L182.797 43.1069ZM200.625 40.468C206.874 40.468 212.26 41.4192 216.805 43.2907L217.566 41.4413C212.727 39.4488 207.072 38.468 200.625 38.468V40.468ZM216.805 43.2907C221.339 45.1578 224.785 47.8709 227.191 51.4147L228.846 50.2912C226.192 46.3831 222.416 43.4382 217.566 41.4413L216.805 43.2907ZM227.194 51.4195C229.592 54.9068 230.813 59.1402 230.813 64.17H232.813C232.813 58.8038 231.505 54.1592 228.842 50.2865L227.194 51.4195ZM230.813 64.17C230.813 67.5877 230.193 70.941 228.946 74.2351L230.817 74.9429C232.146 71.429 232.813 67.8363 232.813 64.17H230.813ZM228.942 74.2462C227.747 77.5219 225.982 80.3425 223.648 82.7205L225.075 84.1215C227.617 81.5315 229.532 78.4641 230.821 74.9318L228.942 74.2462ZM223.654 82.7139C221.341 85.0276 218.647 86.568 215.56 87.3507L216.051 89.2893C219.496 88.416 222.506 86.6904 225.069 84.1281L223.654 82.7139ZM215.805 89.32C219.377 89.32 222.451 90.3171 225.07 92.2924L226.275 90.6956C223.282 88.4389 219.778 87.32 215.805 87.32V89.32ZM225.077 92.2971C227.778 94.3014 229.832 96.9391 231.239 100.235L233.078 99.4506C231.541 95.8469 229.271 92.9186 226.268 90.6909L225.077 92.2971ZM231.243 100.246C232.703 103.563 233.435 107.128 233.435 110.952H235.435C235.435 106.864 234.65 103.023 233.074 99.4403L231.243 100.246ZM233.435 110.952C233.435 116.649 231.904 121.593 228.862 125.824L230.486 126.992C233.793 122.391 235.435 117.031 235.435 110.952H233.435ZM228.862 125.824C225.803 130.081 221.652 133.352 216.375 135.633L217.168 137.469C222.747 135.058 227.198 131.567 230.486 126.992L228.862 125.824ZM216.375 135.633C211.086 137.919 205.197 139.07 198.693 139.07V141.07C205.437 141.07 211.601 139.875 217.168 137.469L216.375 135.633Z" fill="#0C4E96"/>
</svg>
