<svg width="471" height="471" viewBox="0 0 471 471" fill="none" xmlns="http://www.w3.org/2000/svg">
<path d="M235.5 470C365.011 470 470 365.011 470 235.5C470 105.989 365.011 1 235.5 1C105.989 1 1 105.989 1 235.5C1 365.011 105.989 470 235.5 470Z" stroke="white" stroke-opacity="0.2" stroke-width="2" stroke-miterlimit="10"/>
<path d="M235.5 442.53C349.84 442.53 442.53 349.839 442.53 235.5C442.53 121.161 349.84 28.4703 235.5 28.4703C121.161 28.4703 28.4707 121.161 28.4707 235.5C28.4707 349.839 121.161 442.53 235.5 442.53Z" stroke="white" stroke-opacity="0.2" stroke-width="2" stroke-miterlimit="10"/>
<path d="M235.499 415.095C334.687 415.095 415.094 334.687 415.094 235.5C415.094 136.313 334.687 55.9054 235.499 55.9054C136.312 55.9054 55.9048 136.313 55.9048 235.5C55.9048 334.687 136.312 415.095 235.499 415.095Z" stroke="white" stroke-opacity="0.2" stroke-width="2" stroke-miterlimit="10"/>
<path d="M235.501 387.659C319.536 387.659 387.66 319.535 387.66 235.5C387.66 151.465 319.536 83.3406 235.501 83.3406C151.465 83.3406 83.3413 151.465 83.3413 235.5C83.3413 319.535 151.465 387.659 235.501 387.659Z" stroke="white" stroke-opacity="0.2" stroke-width="2" stroke-miterlimit="10"/>
<path d="M235.5 360.224C304.384 360.224 360.225 304.383 360.225 235.5C360.225 166.617 304.384 110.776 235.5 110.776C166.617 110.776 110.776 166.617 110.776 235.5C110.776 304.383 166.617 360.224 235.5 360.224Z" stroke="white" stroke-opacity="0.2" stroke-width="2" stroke-miterlimit="10"/>
<path d="M235.5 332.754C289.212 332.754 332.754 289.212 332.754 235.5C332.754 181.788 289.212 138.246 235.5 138.246C181.788 138.246 138.246 181.788 138.246 235.5C138.246 289.212 181.788 332.754 235.5 332.754Z" stroke="white" stroke-opacity="0.2" stroke-width="2" stroke-miterlimit="10"/>
<path d="M235.5 305.319C274.059 305.319 305.318 274.06 305.318 235.5C305.318 196.94 274.059 165.681 235.5 165.681C196.94 165.681 165.681 196.94 165.681 235.5C165.681 274.06 196.94 305.319 235.5 305.319Z" stroke="white" stroke-opacity="0.2" stroke-width="2" stroke-miterlimit="10"/>
<path d="M235.5 277.884C258.908 277.884 277.884 258.908 277.884 235.5C277.884 212.092 258.908 193.116 235.5 193.116C212.093 193.116 193.117 212.092 193.117 235.5C193.117 258.908 212.093 277.884 235.5 277.884Z" stroke="white" stroke-opacity="0.2" stroke-width="2" stroke-miterlimit="10"/>
<path d="M235.499 250.449C243.755 250.449 250.448 243.756 250.448 235.5C250.448 227.244 243.755 220.551 235.499 220.551C227.244 220.551 220.551 227.244 220.551 235.5C220.551 243.756 227.244 250.449 235.499 250.449Z" stroke="white" stroke-opacity="0.2" stroke-width="2" stroke-miterlimit="10"/>
</svg>
