<svg width="131" height="165" viewBox="0 0 131 165" fill="none" xmlns="http://www.w3.org/2000/svg">
<g clip-path="url(#clip0_174_10872)">
<path d="M16.9914 6.49606C16.9914 10.0777 14.0771 12.9921 10.4957 12.9921C6.91429 12.9921 4 10.0777 4 6.49606C4 2.91445 6.91429 0 10.4957 0C14.0771 0 16.9914 2.91445 16.9914 6.49606Z" fill="#EA6F2C" fill-opacity="0.2"/>
<path d="M54.9827 6.49606C54.9827 10.0777 52.0684 12.9921 48.4869 12.9921C44.9055 12.9921 41.9912 10.0777 41.9912 6.49606C41.9912 2.91445 44.9055 0 48.4869 0C52.1035 0 54.9827 2.91445 54.9827 6.49606Z" fill="#EA6F2C" fill-opacity="0.2"/>
<path d="M93.009 6.49606C93.009 10.0777 90.0947 12.9921 86.5133 12.9921C82.9319 12.9921 80.0176 10.0777 80.0176 6.49606C80.0176 2.91445 82.9319 0 86.5133 0C90.0947 0 93.009 2.91445 93.009 6.49606Z" fill="#EA6F2C" fill-opacity="0.2"/>
<path d="M131 6.49606C131 10.0777 128.086 12.9921 124.505 12.9921C120.923 12.9921 118.009 10.0777 118.009 6.49606C118.009 2.91445 120.923 0 124.505 0C128.086 0 131 2.91445 131 6.49606Z" fill="#EA6F2C" fill-opacity="0.2"/>
<path d="M16.9914 44.4892C16.9914 48.0708 14.0771 50.9853 10.4957 50.9853C6.91429 50.9853 4 48.0708 4 44.4892C4 40.9076 6.91429 37.9932 10.4957 37.9932C14.0771 37.9932 16.9914 40.9076 16.9914 44.4892Z" fill="#EA6F2C" fill-opacity="0.2"/>
<path d="M54.9827 44.4892C54.9827 48.0708 52.0684 50.9853 48.4869 50.9853C44.9055 50.9853 41.9912 48.0708 41.9912 44.4892C41.9912 40.9076 44.9055 37.9932 48.4869 37.9932C52.1035 37.9932 54.9827 40.9076 54.9827 44.4892Z" fill="#EA6F2C" fill-opacity="0.2"/>
<path d="M93.009 44.4892C93.009 48.0708 90.0947 50.9853 86.5133 50.9853C82.9319 50.9853 80.0176 48.0708 80.0176 44.4892C80.0176 40.9076 82.9319 37.9932 86.5133 37.9932C90.0947 37.9932 93.009 40.9076 93.009 44.4892Z" fill="#EA6F2C" fill-opacity="0.2"/>
<path d="M131 44.4892C131 48.0708 128.086 50.9853 124.505 50.9853C120.923 50.9853 118.009 48.0708 118.009 44.4892C118.009 40.9076 120.923 37.9932 124.505 37.9932C128.086 37.9932 131 40.9076 131 44.4892Z" fill="#EA6F2C" fill-opacity="0.2"/>
<path d="M16.9914 82.5175C16.9914 86.0992 14.0771 89.0136 10.4957 89.0136C6.91429 89.0136 4 86.0992 4 82.5175C4 78.9359 6.91429 76.0215 10.4957 76.0215C14.0771 76.0215 16.9914 78.9008 16.9914 82.5175Z" fill="#EA6F2C" fill-opacity="0.2"/>
<path d="M54.9827 82.5176C54.9827 86.0992 52.0684 89.0137 48.4869 89.0137C44.9055 89.0137 41.9912 86.0992 41.9912 82.5176C41.9912 78.936 44.9055 76.0216 48.4869 76.0216C52.1035 75.9864 54.9827 78.9009 54.9827 82.5176Z" fill="#EA6F2C" fill-opacity="0.2"/>
<path d="M93.009 82.5176C93.009 86.0992 90.0947 89.0137 86.5133 89.0137C82.9319 89.0137 80.0176 86.0992 80.0176 82.5176C80.0176 78.936 82.9319 76.0216 86.5133 76.0216C90.0947 75.9864 93.009 78.9009 93.009 82.5176Z" fill="#EA6F2C" fill-opacity="0.2"/>
<path d="M131 82.5175C131 86.0992 128.086 89.0136 124.505 89.0136C120.923 89.0136 118.009 86.0992 118.009 82.5175C118.009 78.9359 120.923 76.0215 124.505 76.0215C128.086 76.0215 131 78.9008 131 82.5175Z" fill="#EA6F2C" fill-opacity="0.2"/>
<path d="M16.9914 120.511C16.9914 124.092 14.0771 127.007 10.4957 127.007C6.91429 127.007 4 124.092 4 120.511C4 116.929 6.91429 114.015 10.4957 114.015C14.0771 114.015 16.9914 116.894 16.9914 120.511Z" fill="#EA6F2C" fill-opacity="0.2"/>
<path d="M54.9827 120.511C54.9827 124.092 52.0684 127.007 48.4869 127.007C44.9055 127.007 41.9912 124.092 41.9912 120.511C41.9912 116.929 44.9055 114.015 48.4869 114.015C52.1035 114.015 54.9827 116.894 54.9827 120.511Z" fill="#EA6F2C" fill-opacity="0.2"/>
<path d="M93.009 120.511C93.009 124.092 90.0947 127.007 86.5133 127.007C82.9319 127.007 80.0176 124.092 80.0176 120.511C80.0176 116.929 82.9319 114.015 86.5133 114.015C90.0947 114.015 93.009 116.894 93.009 120.511Z" fill="#EA6F2C" fill-opacity="0.2"/>
<path d="M131 120.511C131 124.092 128.086 127.007 124.505 127.007C120.923 127.007 118.009 124.092 118.009 120.511C118.009 116.929 120.923 114.015 124.505 114.015C128.086 114.015 131 116.894 131 120.511Z" fill="#EA6F2C" fill-opacity="0.2"/>
<path d="M16.9914 158.504C16.9914 162.085 14.0771 165 10.4957 165C6.91429 165 4 162.085 4 158.504C4 154.922 6.91429 152.008 10.4957 152.008C14.0771 152.008 16.9914 154.922 16.9914 158.504Z" fill="#EA6F2C" fill-opacity="0.2"/>
<path d="M54.9827 158.504C54.9827 162.085 52.0684 165 48.4869 165C44.9055 165 41.9912 162.085 41.9912 158.504C41.9912 154.922 44.9055 152.008 48.4869 152.008C52.1035 152.008 54.9827 154.922 54.9827 158.504Z" fill="#EA6F2C" fill-opacity="0.2"/>
<path d="M93.009 158.504C93.009 162.085 90.0947 165 86.5133 165C82.9319 165 80.0176 162.085 80.0176 158.504C80.0176 154.922 82.9319 152.008 86.5133 152.008C90.0947 152.008 93.009 154.922 93.009 158.504Z" fill="#EA6F2C" fill-opacity="0.2"/>
<path d="M131 158.504C131 162.085 128.086 165 124.505 165C120.923 165 118.009 162.085 118.009 158.504C118.009 154.922 120.923 152.008 124.505 152.008C128.086 152.008 131 154.922 131 158.504Z" fill="#EA6F2C" fill-opacity="0.2"/>
</g>
<defs>
<clipPath id="clip0_174_10872">
<rect width="279" height="165" fill="white" transform="translate(-148)"/>
</clipPath>
</defs>
</svg>
