<svg width="1343" height="611" viewBox="0 0 1343 611" fill="none" xmlns="http://www.w3.org/2000/svg">
<g clip-path="url(#clip0_174_11713)">
<path d="M1310.76 81.8676V592.939H32.2441V200.898V98.9536H73.5987V150.887H126.272L147.108 175.131H168.255V49.4956H216.9V81.8676H258.184V144.357H313.647V65.9488H357.416V98.9349H380.175L399.873 76.0176H422.294V0H484.959V112.819H549.021V140.007H573.857V98.9536H668.513V144.357H704.715V81.8676H759.938V175.131H763.169V49.4956H811.833V81.8676H853.103V144.357H908.547V65.9488H952.312V98.9349H975.109L994.806 76.0176H1017.21V0H1079.86V112.819H1143.95V140.007H1168.79V98.9536H1218.62V144.357H1299.61V81.8676H1310.76Z" fill="url(#paint0_linear_174_11713)"/>
<path d="M32.2441 412.549V156.976H80.3926V203.668H135.724L152.608 220.548H336.2L364.764 191.996H422.425V144.043H472.848V208.698H565.708L601.488 172.923H716.31V233.209H767.328L792.164 208.379H854.993L872.777 226.164H950.558V159.343H1005.89V181.398H1049.72V134.64H1089.96V205.309H1202.77L1213.32 215.856H1310.76V412.549H32.2441Z" fill="url(#paint1_linear_174_11713)"/>
<path d="M1343 424.268H0V611H1343V424.268Z" fill="white"/>
<path d="M1240.26 493.231C1240.26 510.71 985.616 524.886 671.495 524.886C357.374 524.886 102.729 510.715 102.729 493.231C102.729 475.746 357.374 461.576 671.495 461.576C985.616 461.576 1240.26 475.746 1240.26 493.231Z" fill="url(#paint2_linear_174_11713)"/>
<path d="M476.172 471.757C476.172 471.757 484.007 485.032 487.313 487.202C491.805 490.146 488.991 493.123 486.858 493.128C484.725 493.132 473.837 493.91 471.437 491.187C469.036 488.463 467.845 480.307 465.613 478.17C463.382 476.037 461.337 468.162 466.701 465.495C472.586 462.56 476.172 471.757 476.172 471.757Z" fill="#E55353"/>
<path d="M473.237 464.796C473.237 464.796 481.756 481.465 483.304 483.762C484.851 486.059 480.392 486.054 477.63 484.967C474.869 483.874 467.7 472.817 466.921 470.693C466.143 468.57 466.71 465.495 466.71 465.495L473.237 464.796Z" fill="#3B3B40"/>
<path d="M463.691 474.284L465.764 490.221L466.861 490.268L466.519 478.802L463.691 474.284Z" fill="#E55353"/>
<path d="M409.006 458.81C409.006 458.81 410.882 474.11 413.048 477.42C415.988 481.91 412.218 483.518 410.263 482.67C408.308 481.821 398.011 478.184 396.9 474.734C395.789 471.279 397.955 463.324 396.764 460.479C395.573 457.634 396.844 449.599 402.827 449.29C409.386 448.952 409.006 458.81 409.006 458.81Z" fill="#E55353"/>
<path d="M409.091 451.259C409.091 451.259 410.24 469.943 410.742 472.666C411.243 475.39 407.155 473.604 405.059 471.504C402.963 469.399 400.811 456.401 400.942 454.141C401.078 451.882 402.827 449.29 402.827 449.29L409.091 451.259Z" fill="#3B3B40"/>
<path d="M396.553 456.143L392.085 471.584L393.07 472.067L397.336 461.417L396.553 456.143Z" fill="#E55353"/>
<path d="M474.915 322.853C474.662 321.616 465.2 303.288 463.494 297.766C461.787 292.244 460.319 287.181 459.461 284.997C459.405 284.852 459.311 284.603 459.194 284.266C458.613 282.644 457.352 279.025 456.053 275.641C455.959 275.406 455.87 275.167 455.776 274.933L455.645 273.639C454.731 271.295 455.635 269.945 455.654 268.08C455.659 267.517 455.584 266.912 455.354 266.219C455.345 266.195 455.34 266.167 455.331 266.144C454.252 262.998 453.446 260.251 453.286 258.709C452.761 253.586 449.99 230.781 449.99 230.781C449.99 230.781 458.96 235.422 459.954 239.008C461.468 244.445 463.011 252.531 463.391 255.02C463.775 257.509 467.671 278.214 468.483 282.423C469.294 286.633 470.227 290.2 471.399 292.984C472.571 295.769 480.359 320.599 480.842 322.821C481.325 325.052 475.169 324.091 474.915 322.853Z" fill="#EEA886"/>
<path d="M474.799 320.256C474.799 320.256 474.639 323.158 474.025 326.191C473.725 327.667 474.963 336.846 475.211 338.017C475.418 339.002 475.98 338.308 476.21 337.6C476.341 337.192 476.421 333.939 476.731 332.163C476.988 330.672 477.326 330.077 477.649 330.494C477.973 330.911 479.389 336.705 479.262 339.302C479.136 341.899 480.646 347.585 481.827 346.53C483.009 345.48 484.383 334.521 483.478 330.63C482.573 326.739 480.355 322.033 480.355 322.033L474.799 320.256Z" fill="#EEA886"/>
<path d="M441.706 342.649C442.095 344.533 444.594 352.417 447.388 361.178C449.939 369.166 452.738 377.88 454.412 383.44C455.04 385.516 455.509 387.152 455.753 388.146C457.361 394.732 455.552 405.058 454.965 413.688C454.379 422.323 466.912 470.684 466.912 470.684C469.107 471.706 473.233 464.787 473.233 464.787C471.624 461.716 471.85 407.163 472.726 403.797C473.603 400.432 474.189 391.071 473.312 387.41C473.134 386.66 473.045 385.666 473.026 384.475C472.951 379.858 473.903 372.227 474.485 363.855C475.216 353.322 471.118 327.133 470.537 324.789C470.48 324.574 470.396 324.269 470.288 323.899C469.21 320.228 465.74 309.799 465.74 309.799C458.702 307.703 453.399 307.328 449.442 308.134C444.205 309.199 441.321 312.344 439.882 316.333C436.44 325.863 441.199 340.206 441.706 342.649Z" fill="#3B3B40"/>
<path d="M402.076 450.579L409.203 453.087C410.413 447.237 439.361 406.291 441.124 401.758C442.892 397.221 444.772 388.446 444.772 385.225C444.772 384.649 444.814 383.683 444.894 382.422C445.208 377.543 446.099 368.341 447.379 361.178C447.618 359.842 447.871 358.577 448.134 357.424C449.549 351.25 449.798 330.147 449.812 317.734C449.821 312.213 449.784 308.411 449.784 308.411C449.784 308.411 449.662 308.313 449.432 308.139C446.764 306.119 429.646 293.809 423.677 305.317C422.102 308.359 421.07 311.622 420.447 315.025C418.534 325.455 420.409 337.197 421.956 347.899C423.279 357.053 425.811 369.991 426.537 379.591C426.94 384.874 426.795 389.144 425.6 391.221C422.233 397.075 418.942 402.026 412.138 422.679C409.93 429.396 402.076 450.579 402.076 450.579Z" fill="#3B3B40"/>
<path d="M454 201.892C454 201.892 457.723 177.817 437.777 178.257C417.831 178.703 418.098 190.604 418.455 202.421C418.811 214.239 426.454 213.348 417.831 229.787C409.213 246.222 425.296 246.222 425.296 246.222L437.777 229.075L454 201.892Z" fill="#3C4145"/>
<path d="M439.957 180.568C439.957 180.568 453.465 182.701 454 201.892C454.534 221.082 450.356 225.17 438.536 221.171C426.716 217.173 422.984 197.096 422.716 193.984C422.454 190.871 421.741 178.257 439.957 180.568Z" fill="#EEA886"/>
<path d="M416.237 247.314C416.185 253.923 423.781 269.715 424.953 274.595C426.125 279.47 427.977 281.031 426.416 287.275C424.854 293.519 420.016 314.636 420.213 316.488C420.41 318.339 463.747 325.174 470.288 323.908C470.288 323.908 462.299 294.1 461.712 290.683C461.126 287.27 462.425 274.469 462.716 270.859C463.007 267.25 466.664 259.483 466.542 255.864C466.415 252.179 464.605 248.997 462.074 245.059C461.291 243.84 460.465 242.598 459.64 241.389C456.958 237.451 454.276 233.879 452.959 232.647C451.979 231.732 451.064 231.029 450.267 230.5C450.263 230.495 450.258 230.495 450.258 230.495C448.603 229.393 447.492 229.037 447.492 229.037L435.882 227.186C435.882 227.186 428.648 229.801 424.484 230.776C424.484 230.781 416.358 231.967 416.237 247.314Z" fill="#F54242"/>
<path d="M450.258 230.5L456.986 241.103L463.199 250.89C463.185 250.839 462.772 249.358 462.069 245.064C461.933 244.248 461.792 243.334 461.637 242.308C461.59 242.003 461.525 241.703 461.44 241.403C458.782 235.276 450.563 230.654 450.263 230.504L450.258 230.5Z" fill="#F54242"/>
<path d="M416.63 241.74C416.63 241.74 418.496 229.164 427.714 231.236C436.571 233.228 428.272 249.719 427.621 251.669C426.969 253.623 420.409 269.57 419.842 271.656C418.042 278.266 419.73 278.42 422.435 279.977C430.425 284.575 446.849 284.275 448.743 285.541C450.638 286.806 450.525 290.739 447.341 290.88C443.201 291.058 419.537 288.831 416.236 288.508C413.034 288.194 406.662 287.927 408.336 276.555C409.466 268.891 416.63 241.74 416.63 241.74Z" fill="#EEA886"/>
<path d="M430.941 212.528C432.113 214.74 433.346 228.461 433.346 228.461C433.346 228.461 449.869 234.704 448.176 231.17C447.412 229.567 447.182 227.486 447.168 225.695C447.154 224.284 447.271 223.047 447.351 222.362C447.393 222.001 447.426 221.795 447.426 221.795C447.426 221.795 429.768 210.315 430.941 212.528Z" fill="#EEA886"/>
<path d="M445.471 194.34C445.471 194.34 438.541 205.623 432.23 210.067C425.919 214.51 429.121 218.064 429.121 218.064C429.121 218.064 412.659 183.413 428.31 181.013C443.961 178.613 453.559 178.435 454.005 201.892C454 201.892 446.892 194.162 445.471 194.34Z" fill="#3C4145"/>
<path d="M437.932 220.947C440.468 224.687 447.168 225.69 447.168 225.69C447.154 224.279 447.272 223.042 447.351 222.357C443.047 223.192 437.932 220.947 437.932 220.947Z" fill="#A77860"/>
<path d="M461.417 241.333C461.417 241.333 461.778 242.073 462.069 245.064L459.635 241.394C459.635 241.394 455.289 235.164 453.798 233.542C452.307 231.92 450.263 230.504 450.263 230.504C450.263 230.504 458.82 234.615 461.417 241.333Z" fill="#F54242"/>
<path d="M458.791 254.786L432.755 252.63C431.644 252.536 430.673 253.365 430.589 254.476L427.358 297.597C427.278 298.68 428.071 299.627 429.149 299.739L454.145 302.313C455.251 302.425 456.236 301.619 456.344 300.517L460.615 256.98C460.728 255.864 459.902 254.875 458.791 254.786Z" fill="#2F4563"/>
<path d="M434.213 283.788C434.213 283.788 439.145 284.613 439.605 284.538C440.064 284.463 442.015 281.27 444.275 280.698C446.535 280.127 449.357 279.686 450.056 279.25C450.75 278.814 450.942 281.031 448.771 281.936C446.6 282.841 446.056 284.055 450.122 284.866C452.367 285.316 460.774 284.378 460.076 285.798C459.668 286.633 451.57 287.228 451.57 287.228C451.57 287.228 460.305 287.186 460.606 287.716C461.192 288.756 452.428 289.122 452.063 289.089C452.063 289.089 459.574 289.52 459.64 290.195C459.719 291.034 452.114 290.678 452.185 290.814C452.185 290.814 458.153 291.227 458.092 291.733C458.013 292.399 452.761 292.483 451.744 292.361C450.726 292.244 440.435 291.072 438.709 290.725C436.97 290.378 434.067 290.177 434.067 290.177L434.213 283.788Z" fill="#EEA886"/>
<path d="M424.793 281.111C424.793 281.111 429.679 282.826 434.213 283.787C438.747 284.748 434.058 290.181 434.058 290.181C434.058 290.181 426.2 289.455 422.425 289.089C420.597 288.906 424.793 281.111 424.793 281.111Z" fill="#EEA886"/>
<path d="M428.54 250.623C428.54 250.623 417.934 246.465 414.797 246.222C414.797 246.222 416.93 229.196 427.344 231.001C437.762 232.806 428.54 250.623 428.54 250.623Z" fill="#F54242"/>
<path d="M421.966 347.899C423.288 357.053 425.82 369.991 426.547 379.591C426.547 379.591 434.016 381.082 444.903 382.422C447.852 382.783 451.05 383.135 454.417 383.444C460.249 383.979 466.593 384.382 473.031 384.485C472.956 379.868 473.908 372.236 474.489 363.864C475.22 353.332 471.123 327.142 470.541 324.799C470.485 324.583 470.4 324.278 470.293 323.908C465.027 321.011 457.474 319.056 449.831 317.734C446.474 317.153 443.098 316.699 439.891 316.338C429.866 315.213 421.497 315.039 420.466 315.02C418.543 325.455 420.419 337.202 421.966 347.899Z" fill="#F54242"/>
<path d="M447.492 229.042C447.492 229.042 455.275 241.009 452.64 242.054C450.005 243.1 435.742 240.658 429.675 229.29C429.679 229.295 438.747 224.645 447.492 229.042Z" fill="#EEA886"/>
<path d="M301.833 336.302L298.93 331.272C298.086 329.809 298.588 327.934 300.051 327.091L316.494 317.598C317.957 316.755 319.833 317.256 320.677 318.719L323.579 323.748C324.423 325.211 323.921 327.086 322.458 327.93L306.015 337.422C304.552 338.266 302.681 337.764 301.833 336.302Z" fill="#525252"/>
<path d="M304.505 334.019C304.505 334.019 303.356 333.372 302.99 332.842C302.99 332.842 302.4 331.83 301.935 331.136C301.785 330.916 301.654 330.728 301.556 330.616C301.143 330.147 300.093 329.238 299.422 327.827C298.747 326.42 297.401 319.6 297.401 319.6L300.88 317.823L303.9 315.695C303.9 315.695 311.89 320.95 312.673 322.188C312.748 322.309 312.818 322.431 312.874 322.553C313.432 323.669 313.381 324.728 313.61 325.347C313.69 325.577 314.356 327.888 313.948 328.483C313.385 329.308 312.658 329.65 311.974 329.636C311.974 329.636 310.797 331.202 309.517 331.516C309.517 331.516 308.481 332.992 306.779 332.931C306.779 332.936 305.56 334.319 304.505 334.019Z" fill="#EEA886"/>
<path d="M239.289 350.777L223.512 347.256C221.908 346.9 220.896 345.306 221.257 343.703L223.479 333.756C223.835 332.153 225.43 331.141 227.033 331.502L242.811 335.022C244.414 335.378 245.427 336.972 245.066 338.575L242.844 348.522C242.487 350.12 240.893 351.133 239.289 350.777ZM226.592 333.447C226.067 333.33 225.542 333.663 225.425 334.192L223.202 344.139C223.085 344.664 223.418 345.189 223.943 345.306L239.721 348.827C240.251 348.944 240.771 348.611 240.888 348.086L243.111 338.139C243.228 337.614 242.895 337.089 242.37 336.972L226.592 333.447Z" fill="#0E1E2B"/>
<path d="M228.139 337.258C228.139 337.258 227.722 336.053 227.797 335.439C227.797 335.439 228.022 334.328 228.13 333.531C228.163 333.278 228.186 333.058 228.191 332.913C228.196 332.308 228.022 330.981 228.435 329.528C228.847 328.08 232.251 322.286 232.251 322.286L235.904 323.233L239.449 323.636C239.449 323.636 241.849 332.556 241.619 333.949C241.596 334.085 241.568 334.22 241.53 334.342C241.221 335.505 240.499 336.241 240.269 336.831C240.18 337.047 239.177 339.142 238.501 339.311C237.564 339.545 236.823 339.33 236.335 338.88C236.335 338.88 234.483 339.26 233.358 338.664C233.358 338.664 231.661 339.067 230.47 337.928C230.479 337.933 228.707 338.149 228.139 337.258Z" fill="#EEA886"/>
<path d="M266.029 255.582C265.326 256.487 262.54 261.672 259.596 267.198C259.108 268.112 258.616 269.031 258.133 269.945C257.744 270.681 257.35 271.412 256.975 272.125C256.558 272.908 256.145 273.676 255.751 274.412C254.105 277.492 252.718 280.056 252.024 281.209C250.036 284.514 246.805 296.547 246.017 298.928C245.23 301.309 241.343 324.873 241.343 324.873C241.343 324.873 228.913 324.916 229.293 323.978C229.672 323.041 234.403 297.606 235.351 293.776C236.602 288.742 241.404 275.214 241.882 274.211C242.36 273.208 252.478 252.109 253.848 248.486C255.296 244.646 256.051 241.173 262.09 233.992C268.129 226.815 275.031 230.57 275.031 230.57C280.648 234.601 267.464 253.726 266.029 255.582Z" fill="#5B94E2"/>
<path d="M261.953 351.35L202.76 338.144L193.295 380.546L252.488 393.751L261.953 351.35Z" fill="#665955"/>
<path d="M261.952 351.351L202.759 338.145L197.273 362.722L256.466 375.928L261.952 351.351Z" fill="#877671"/>
<path d="M269.283 225.981C270.048 221.922 269.283 216.053 269.283 216.053C269.283 216.053 284.123 222.911 281.554 224.767C280.883 225.25 280.424 226.182 280.105 227.298C279.2 230.462 279.472 235.239 279.472 235.239L284.376 240.962C288.723 246.925 268.913 227.954 269.283 225.981Z" fill="#EEA886"/>
<path d="M220.104 449.28C220.104 449.28 221.473 454.779 222.71 461.576C223.948 468.373 229.701 473.36 230.536 474.56C231.371 475.76 235.117 480.579 231.839 481.165C228.562 481.746 215.119 472.774 211.439 467.618C211.439 467.618 209.244 462.738 208.944 462.448C208.644 462.162 206.769 463.615 206.769 463.615L203.332 461.243C203.332 461.243 201.878 460.151 201.344 459.532C200.814 458.909 202.061 455.44 202.254 455.112C202.474 454.732 208.485 446.463 212.367 444.677C216.249 442.887 220.104 449.28 220.104 449.28Z" fill="#34395C"/>
<path d="M332.407 464.365C332.407 464.365 337.129 467.22 342.657 471.059C348.185 474.898 355.518 474.429 356.911 474.691C358.303 474.954 364.164 475.732 362.349 478.352C360.535 480.977 345.25 483.917 339.201 482.862C339.201 482.862 334.348 480.992 333.945 480.996C333.542 481.001 333.279 483.274 333.279 483.274L329.317 483.973C329.317 483.973 327.578 484.207 326.79 484.142C326.003 484.076 324.526 480.898 324.352 480.481C324.193 480.087 322.599 470.304 323.991 466.441C325.388 462.579 332.407 464.365 332.407 464.365Z" fill="#3C4169"/>
<path d="M224.455 440.594C224.455 440.594 220.164 448.521 219.892 449.927C219.621 451.329 213.258 451.371 212.011 445.385C212.011 445.385 216.99 435.382 216.831 435.115C216.676 434.847 224.455 440.594 224.455 440.594Z" fill="#EEA886"/>
<path d="M269.1 353.974C269.1 353.974 268.617 355.614 267.858 358.221C267.361 359.908 266.742 362.008 266.062 364.324C262.949 374.903 258.448 390.072 257.622 392.21C256.328 395.543 250.369 405.297 249.478 405.86C248.582 406.418 225.176 446.66 224.454 448.559C224.454 448.559 214.847 444.204 213.089 441.012C213.089 441.012 229.11 396.663 235.581 388.877C241.817 381.377 241.47 336.597 247.134 323.078C252.798 309.555 272.547 342.236 269.1 353.974Z" fill="#34395C"/>
<path d="M329.355 455.435C329.355 455.435 331.924 463.798 332.712 464.951C333.5 466.099 329.219 470.44 324.249 467.168C324.249 467.168 320.713 456.907 320.418 456.832C320.123 456.757 329.355 455.435 329.355 455.435Z" fill="#EEA886"/>
<path d="M286.219 323.411C286.219 323.411 306.249 369.639 308.556 376.558C310.862 383.477 309.756 389.393 311.017 392.271C312.278 395.149 330.682 459.588 330.682 459.588C330.682 459.588 320.948 464.918 316.545 462.771C316.545 462.771 299.881 420.363 296.36 413.421C293.055 406.901 291.217 393.804 286.969 385.375C283.996 379.478 247.518 334.469 247.194 317.847C246.875 301.23 286.219 323.411 286.219 323.411Z" fill="#393D63"/>
<path d="M269.424 226.496C269.424 226.496 275.149 228.821 277.1 234.057C279.05 239.298 278.225 246.235 278.309 248.631C278.394 251.026 282.295 274.492 282.792 275.19C283.289 275.889 291.152 290.378 294.387 297.728C297.622 305.078 304.594 314.505 304.594 314.505L299.221 317.655C299.221 317.655 274.732 288.859 273.292 280.979C271.853 273.1 262.349 249.367 262.349 249.367C262.349 249.367 257.655 231.803 269.424 226.496Z" fill="#EEA886"/>
<path d="M280.137 183.113C285.07 183.015 295.929 185.799 297.246 198.901C297.246 198.901 296.754 202.407 295.821 205.149C294.888 207.892 297.139 216.113 296.477 216.498C295.821 216.882 293.134 217.318 293.134 217.318C293.134 217.318 290.007 226.145 286.884 225.981C283.757 225.817 271.988 223.037 266.723 211.801C261.457 200.565 260.215 183.516 280.137 183.113Z" fill="#EEA886"/>
<path d="M297.247 198.901C297.247 198.901 289.093 204.128 281.127 205.004C273.156 205.881 267.853 213.929 267.853 213.929C267.853 213.929 256.192 198.423 266.282 186.437C276.373 174.451 299.399 183.737 297.247 198.901Z" fill="#3B3B40"/>
<path d="M291.653 272.031C289.201 274.609 291.213 280.581 290.884 283.979C290.795 284.884 290.514 287.861 290.115 291.808C289.707 295.886 289.182 300.995 288.638 305.926C288.423 307.895 288.202 309.836 287.987 311.669C287.302 317.481 286.646 322.22 286.224 323.406C285.019 326.805 258.129 326.969 247.49 315.456C247.49 315.456 245.615 311.669 257.829 289.619C260.276 285.198 257.876 263.256 255.902 257.448C253.928 251.636 253.225 231.892 269.283 225.981C269.283 225.981 278.928 234.315 282.22 238.042C285.511 241.768 296.258 255.254 297.242 259.309C298.232 263.368 294.317 269.223 291.653 272.031Z" fill="#5B94E2"/>
<path d="M281.554 224.771C280.883 225.254 280.424 226.187 280.105 227.303C274.352 223.853 271.52 218.682 271.431 218.518C274.572 222.39 281.554 224.771 281.554 224.771Z" fill="#A77860"/>
<path d="M290.884 283.979C290.795 284.884 290.514 287.861 290.115 291.808C287.658 294.151 270.948 261.854 278.82 252.662C278.82 252.662 284.39 274.337 285 275.434C285.609 276.536 290.884 283.979 290.884 283.979Z" fill="#3E6499"/>
<path d="M269.555 227.303C269.555 227.303 275.932 230.265 277.971 235.74C280.011 241.215 279.148 248.467 279.237 250.97C279.327 253.473 283.406 277.998 283.926 278.73C284.447 279.461 291.686 290.65 295.071 298.328C298.452 306.006 306.066 316.558 306.066 316.558L296.909 321.691C296.909 321.691 275.027 294.048 272.955 285.934C270.741 277.272 262.569 251.739 262.569 251.739C262.569 251.739 255.517 229.89 269.555 227.303Z" fill="#5B94E2"/>
<path d="M258.129 269.95C257.74 270.686 257.346 271.417 256.971 272.129C256.554 272.912 256.141 273.681 255.747 274.417C255.199 267.836 254.945 251.795 254.945 251.795C254.945 251.795 255.635 256.539 256.366 259.065C257.041 261.4 257.988 268.829 258.129 269.95Z" fill="#3E6499"/>
<path d="M277.901 180.976C277.901 180.976 257.21 179.377 258.129 204.545C259.048 229.717 254.823 236.331 245.671 247.736C236.518 259.14 244.546 273.362 253.417 266.04C262.288 258.718 272.457 242.19 272.65 224.5C272.842 206.818 277.901 180.976 277.901 180.976Z" fill="#3B3B40"/>
<path d="M277.835 204.545C277.835 203.007 276.189 200.654 273.61 202.684C271.032 204.714 274.215 212.115 276.297 211.454C278.384 210.798 277.835 206.134 277.835 204.545Z" fill="#EEA886"/>
<path d="M267.858 358.221C267.361 359.908 266.742 362.008 266.062 364.324C263.703 359.421 258.307 343.839 258.143 343.352C259.493 345.592 267.661 357.93 267.858 358.221Z" fill="#2B2D4A"/>
<path d="M1001.22 477.317C1001.22 477.317 994.07 487.362 995.05 488.956C996.03 490.549 1003.55 490.774 1008.13 488.956C1012.71 487.137 1012.82 475.362 1014.89 470.304C1015.76 468.185 1013.9 461.937 1011.3 461.482C1008.69 461.027 1005.85 462.359 1005.85 462.359C1005.85 462.359 1008.55 469.484 1001.22 477.317Z" fill="#363A5E"/>
<path d="M1005.8 462.274C1005.8 462.274 1004.3 466.554 1003.75 470.637C1003.29 474.026 998.651 481.216 998.872 482.126C999.088 483.035 1004.98 483.86 1007.37 481.516C1009.77 479.173 1011.32 472.348 1011.84 468.269C1012.33 464.468 1012.95 462.593 1012.95 462.593C1012.95 462.593 1008.09 459.776 1005.8 462.274Z" fill="#EEA886"/>
<path d="M1063.48 477.481C1063.48 477.481 1056.59 487.362 1057.57 488.951C1058.55 490.545 1066.07 490.77 1070.65 488.951C1075.23 487.132 1075.34 475.357 1077.41 470.299C1078.28 468.181 1076.42 461.932 1073.82 461.477C1071.21 461.023 1068.15 462.452 1068.15 462.452C1068.15 462.452 1070.81 469.648 1063.48 477.481Z" fill="#363A5E"/>
<path d="M1068.14 462.452C1068.14 462.452 1067.6 467.116 1066.73 470.412C1065.85 473.712 1061.17 481.216 1061.39 482.126C1061.6 483.035 1067.49 483.86 1069.89 481.516C1072.29 479.173 1074.14 472.38 1074.36 468.269C1074.57 464.159 1073.81 461.477 1073.81 461.477C1073.81 461.477 1070.43 459.954 1068.14 462.452Z" fill="#EEA886"/>
<path d="M1033.68 298.909C1033.68 298.909 1027.55 328.698 1026.14 336.198C1024.72 343.698 1020.78 380.022 1020.35 386.2C1019.93 392.378 1013.95 415.647 1014.23 417.855C1014.51 420.063 1005.36 464.374 1005.36 464.374C1005.36 464.374 1008.49 466.999 1011.78 464.613C1013.47 463.385 1031.86 423.129 1031.86 412.099C1031.86 396.855 1042.66 376.952 1044.06 373.539C1057.01 341.852 1054.46 332.167 1056.15 330.109C1057.84 328.052 1057.99 331.38 1058.97 335.941C1059.96 340.502 1062.07 379.91 1063.34 384.911C1064.61 389.913 1063.62 406.825 1064.33 415.352C1065.03 423.883 1068.13 462.462 1068.13 462.462C1068.13 462.462 1070.52 466.38 1073.89 462.565C1074.61 461.744 1079.69 419.585 1079.83 409.441C1079.97 399.293 1080.12 385.3 1080.39 380.913C1083.01 338.866 1089.42 332.861 1079.32 303.1C1060.4 247.37 1033.68 298.909 1033.68 298.909Z" fill="#EEA886"/>
<path d="M1074.9 290.584C1074.9 290.584 1092.39 316.112 1084.86 370.427C1084.86 370.427 1043.39 376.31 1021.17 363.62C1021.17 363.62 1030.36 307.623 1033.68 298.914C1037.01 290.195 1074.9 290.584 1074.9 290.584Z" fill="#3F446E"/>
<path d="M1015.09 469.418V479.937H1013.78V471.809L1015.09 469.418Z" fill="#363A5E"/>
<path d="M1077.6 469.418V479.937H1076.29V471.809L1077.6 469.418Z" fill="#363A5E"/>
<path d="M1054.18 177.376C1054.18 177.376 1042.46 189.17 1046.45 204.353C1050.44 219.54 1056.85 219.624 1063.91 213.09C1070.98 206.556 1075.13 199.684 1076.07 192.052C1077 184.416 1064.87 166.857 1054.18 177.376Z" fill="#EEA886"/>
<path d="M1051.88 228.024C1051.88 228.024 1053.62 224.054 1054.84 219.578C1055.05 218.79 1055.25 217.984 1055.42 217.182C1056.01 214.37 1056.26 211.599 1055.61 209.696C1053.75 204.184 1067.33 207.999 1067.33 207.999C1067.33 207.999 1064.7 222.592 1067.33 227.514C1069.96 232.435 1051.88 228.024 1051.88 228.024Z" fill="#EEA886"/>
<path d="M1086.3 234.976C1084.16 230.711 1082.56 229.337 1078.43 228.034C1076.12 227.303 1065.79 224.617 1065.79 224.617L1053.39 224.162C1053.39 224.162 1044.86 225.582 1038.24 227.875C1031.62 230.167 1022.95 242.701 1022.95 242.701C1022.95 242.701 1034.92 270.784 1037.21 278.842C1039.5 286.9 1037.98 299.373 1037.98 299.373C1052.32 307.178 1075.31 298.609 1075.31 298.609C1073.57 292.314 1073.5 284.959 1074.41 279.747C1074.52 279.133 1074.64 278.547 1074.78 277.998C1074.9 277.497 1075.07 276.775 1075.27 275.973C1075.28 275.936 1075.29 275.903 1075.29 275.866C1084.42 276.798 1092.97 277.178 1093.19 275.35C1094.19 267.105 1089.24 240.836 1086.3 234.976ZM1079.98 266.997C1079.61 266.94 1078.83 266.936 1078 266.861C1079.02 264.034 1080.15 261.531 1080.15 261.531C1080.79 263.336 1083.25 267.484 1079.98 266.997Z" fill="#EDDAD3"/>
<path d="M1057.99 185.86C1057.99 185.86 1063.59 196.042 1067.07 199.689C1070.55 203.335 1070.14 206.232 1070.14 206.232C1070.14 206.232 1083.7 189.507 1074.03 179.41C1064.36 169.313 1051.88 173.387 1048.23 182.209C1044.59 191.031 1045.92 201.807 1045.92 201.807C1045.92 201.807 1046.03 191.457 1057.99 185.86Z" fill="#E8734D"/>
<path d="M1061.69 175.201C1061.69 175.201 1060.34 167.748 1072.03 164.785C1083.71 161.823 1088.97 175.285 1087.53 183.502C1086.09 191.72 1076.09 212.551 1081.51 215.26C1086.93 217.97 1089.05 212.129 1089.05 212.129C1089.05 212.129 1087.36 222.376 1079.82 220.004C1072.28 217.632 1073.3 200.982 1074.43 194.345C1075.57 187.707 1061.69 175.201 1061.69 175.201Z" fill="#E8734D"/>
<path d="M1065.46 211.618C1065.41 211.726 1062.46 218.528 1054.84 219.582C1055.05 218.795 1055.25 217.988 1055.42 217.187C1055.42 217.187 1059.59 218.026 1065.46 211.618Z" fill="#A77860"/>
<path d="M1079.98 261.634C1079.98 261.634 1079.42 262.811 1077.89 267.447C1076.33 254.43 1077.14 247.651 1077.14 247.651C1077.31 254.608 1079.98 261.634 1079.98 261.634Z" fill="#CFBEB8"/>
<path d="M1063.51 173.64C1063.51 173.64 1071.81 175.234 1075.95 181.988C1075.95 181.988 1075.11 175.871 1070.98 174.109C1066.85 172.342 1063.51 173.64 1063.51 173.64Z" fill="#EDDAD3"/>
<path d="M1075.26 275.969C1075.06 276.77 1074.89 277.492 1074.77 277.994C1074.63 278.542 1074.51 279.128 1074.4 279.742C1069.26 276.948 1065.57 274.764 1065.57 274.764C1066.96 275.073 1075.26 275.969 1075.26 275.969Z" fill="#CFBEB8"/>
<path d="M1066.49 224.8L1051.89 236.696L1053.39 224.162C1053.39 224.162 1061.9 222.324 1066.49 224.8Z" fill="#EEA886"/>
<path d="M1056.1 234.676L1051.88 236.696L1066.22 222.484L1056.1 234.676Z" fill="#D6C5BE"/>
<path d="M1076.12 274.937C1074.11 283.262 1081.54 302.003 1081.54 302.003L1066.81 306.611C1064.69 307.272 1062.46 305.973 1061.99 303.803C1060.01 294.634 1055.38 272.064 1054.84 259.515C1054.13 243.503 1065.79 224.617 1065.79 224.617C1086.51 228.17 1080.83 259.515 1080.83 259.515C1080.83 259.515 1080.08 261.489 1079.07 264.578C1078.82 265.351 1078.55 266.2 1078.28 267.1C1077.57 269.415 1076.8 272.106 1076.12 274.937Z" fill="#494F80"/>
<path d="M1051.92 224.846L1052.17 224.162C1052.17 224.162 1041.56 225.775 1036.17 228.47C1030.77 231.165 1020.44 245.078 1020.44 245.078L1033.95 262.904C1033.97 276.601 1031.74 300.958 1031.74 300.958L1037.92 304.516C1039.58 305.472 1041.66 304.3 1041.69 302.383C1041.87 293.12 1042.28 271.126 1042.5 260.476C1042.78 246.775 1052.56 224.617 1052.56 224.617C1052.35 224.692 1052.13 224.767 1051.92 224.846Z" fill="#494F80"/>
<path d="M1032.68 289.08C1032.68 289.08 1042.86 289.473 1044.45 289.08C1046.03 288.686 1056.6 284.101 1057.23 279.578C1057.87 275.055 1032.68 283.633 1032.68 283.633V289.08Z" fill="#EEA886"/>
<path d="M1064.27 274.937L1022.95 270.104L1041.62 285.287L1064.27 274.937Z" fill="#6A77BF"/>
<path d="M1041.62 285.287L1064.27 277.572V274.937L1040.85 282.451L1041.62 285.287Z" fill="#323657"/>
<path d="M1052.27 267.353C1052.27 267.353 1048.85 267.353 1046.94 266.964C1045.45 266.664 1041.77 267.076 1040.84 267.911C1039.9 268.74 1036.92 274.534 1036.35 274.886C1035.79 275.237 1036.64 276.058 1037.63 275.645C1037.63 275.645 1038.54 278.181 1040.78 277.23C1043.03 276.283 1044.55 274.211 1045.73 273.845C1046.91 273.48 1053.75 271.642 1053.75 271.642C1053.75 271.642 1054.03 266.734 1052.27 267.353Z" fill="#EEA886"/>
<path d="M1054.17 221.846L1046.3 234.301L1042.5 236.697L1051.35 224.293L1054.17 221.846Z" fill="#FAE6DE"/>
<path d="M1046.3 234.301L1051.88 236.697L1053.39 224.162L1054.17 221.846L1046.3 234.301Z" fill="#D6C5BE"/>
<path d="M1033.92 283.253C1033.92 283.253 1033.5 288.512 1033.92 289.614C1033.92 289.614 1008.43 287.069 1006.06 283.506C1003.68 279.944 1003.77 275.617 1003.77 275.617L1033.92 283.253Z" fill="#494F80"/>
<path d="M1041.62 285.287L1029.56 240.493L983.741 235.661L996.302 276.892L1041.62 285.287Z" fill="#252740"/>
<path d="M1066.23 222.484L1056.1 234.676L1061.64 239.617L1067.62 225.02L1066.23 222.484Z" fill="#FAE6DE"/>
<path d="M1079.41 263.547L1079.08 264.578C1078.82 265.351 1078.56 266.2 1078.28 267.1C1076.32 267.714 1059.4 266.472 1059.4 266.472C1059.4 266.472 1073.56 263.148 1079.41 263.547Z" fill="#3D426B"/>
<path d="M1078.44 266.767C1075.71 266.561 1071.25 266.27 1067.59 266.256C1061.9 266.233 1052.17 266.866 1052.17 266.866L1053.33 272.941C1053.33 272.941 1070.56 275.739 1079.97 276.395C1079.97 276.395 1092.39 277.82 1093.32 275.969C1094.24 274.117 1093.01 262.225 1090.99 251.509C1088.97 240.793 1086.89 234.62 1084.43 231.311C1081.96 228.001 1068.91 225.423 1068.91 225.423L1079.98 261.634C1079.98 261.634 1081.56 264.864 1081.48 266.256C1081.46 266.683 1081.16 266.88 1080.76 266.955C1080.49 266.931 1079.87 266.88 1079.03 266.814L1078.44 266.767Z" fill="#494F80"/>
<path d="M986.16 305.115C986.16 305.115 988.246 309.869 990.244 309.273C992.241 308.678 995.204 308.851 996.137 308.955C997.38 309.091 1001.43 308.144 1001.19 309.653C1000.95 311.167 994.585 311.523 993.249 311.851C991.917 312.18 996.705 315.569 997.038 316.867C997.37 318.17 990.684 325.712 987.698 323.012C984.711 320.312 983.473 315.456 982.845 315.086C982.217 314.716 979.474 310.844 979.474 310.844L986.16 305.115Z" fill="#EEA886"/>
<path d="M996.504 316.075C996.504 316.075 1005.05 324.948 1005.08 326.022C1005.11 327.095 1004.56 327.531 1003.72 326.734C1002.88 325.938 995.191 318.4 995.191 318.4C995.191 318.4 1003.38 330.616 1003.6 331.478C1003.73 331.984 1002.72 332.889 1002.22 332.505C1001.73 332.12 992.87 320.491 992.87 320.491C992.87 320.491 1000.49 331.909 1000.45 332.697C1000.42 333.386 999.275 334 998.646 333.194C998.018 332.388 990.296 322.202 990.296 322.202C990.296 322.202 995.28 330.869 994.839 331.534C994.567 331.942 993.723 332.763 992.514 330.48C991.304 328.202 987.839 323.139 987.839 323.139L996.504 316.075Z" fill="#EEA886"/>
<path d="M880.265 471.874C880.265 471.874 876.988 474.213 875.173 475.849C873.359 477.485 870.888 479.266 869.378 483.448C867.849 487.676 870.26 490.713 874.353 490.966C878.446 491.215 884.724 488.126 885.338 484.376C885.943 480.663 890.754 481.099 891.382 478.46C892.01 475.821 891.171 472.568 891.171 472.568L880.265 471.874Z" fill="#353A3D"/>
<path d="M880.813 468.804L880.27 471.874C880.27 471.874 881.957 474.996 891.176 472.568L890.702 469.544L880.813 468.804Z" fill="#81807E"/>
<path d="M891.171 472.568C891.171 472.568 889.093 472.84 887.617 473.074C886.14 473.309 883.209 471.415 880.265 471.874L881.17 475.605C881.17 475.605 890.964 473.773 891.171 472.568Z" fill="#353A3D"/>
<path d="M939.155 471.26C939.155 471.26 942.432 473.599 944.247 475.235C946.061 476.871 948.532 478.652 950.042 482.834C951.571 487.062 949.161 490.099 945.067 490.352C940.97 490.601 934.696 487.512 934.082 483.762C933.477 480.049 928.666 480.485 928.038 477.846C927.41 475.207 928.249 471.954 928.249 471.954L939.155 471.26Z" fill="#353A3D"/>
<path d="M938.611 468.19L939.155 471.26C939.155 471.26 937.467 474.382 928.249 471.954L928.723 468.93L938.611 468.19Z" fill="#81807E"/>
<path d="M943.024 398.35C943.024 405.096 942.058 468.748 942.058 468.748C941.383 470.998 928.775 471.734 926.524 470.609C924.273 469.484 924.667 406.366 924.255 399.564C923.837 392.763 918.37 342.714 916.396 342.939C914.422 343.164 903.273 390.311 901.697 395.482C900.122 400.657 893.923 470.252 893.923 470.252C886.229 472.929 878.366 470.576 878.366 470.576C878.366 470.576 881.306 400.089 881.311 391.717C881.311 388.614 882.23 386.261 883.107 369.747C883.777 357.161 887.279 331.366 889.629 313.614C889.713 312.981 889.793 312.376 889.868 311.795C890.327 308.341 890.669 305.805 890.838 304.586C890.909 304.061 890.951 303.78 890.951 303.78C891.584 303.489 892.245 303.222 892.934 302.973C909.41 297.058 941.186 303.32 941.186 303.32C941.186 303.32 941.204 303.475 941.242 303.77C941.284 304.126 941.35 304.684 941.434 305.411C941.617 306.976 941.889 309.306 942.203 312.011C942.203 312.03 942.208 312.048 942.208 312.067C942.217 312.147 942.227 312.231 942.236 312.316C943.342 321.939 943.896 327.227 944.763 337.502C944.955 339.752 943.024 391.605 943.024 398.35Z" fill="#292C47"/>
<path d="M926.365 212.612C926.365 212.612 953.343 218.34 955.594 225.835C957.845 233.331 962.21 250.937 968.286 270.086C971.92 281.542 990.389 307.633 990.389 307.633C990.389 307.633 979.821 315.419 979.821 314.369C979.821 313.319 954.938 280.122 954.638 276.072C954.338 272.022 946.798 251.321 946.798 251.321C946.798 251.321 943.225 291.123 943.225 297.268C943.225 303.414 944.777 322.309 944.777 322.309C944.777 322.309 933.927 331.319 914.511 330.306C914.511 330.306 887.082 330.423 887.462 319.637C887.795 310.131 890.139 253.192 889.539 252.892C888.939 252.592 878.169 266.082 879.22 268.679C880.27 271.276 908.149 280.59 908.149 280.59C908.149 280.59 908.965 283.59 904.632 290.392C904.632 290.392 862.992 278.228 862.842 275.678C862.692 273.128 880.162 223.632 885.868 221.04C894.083 217.309 915.843 212.331 915.843 212.331L926.365 212.612Z" fill="#F54242"/>
<path d="M928.249 471.954C928.249 471.954 930.326 472.226 931.803 472.46C933.285 472.695 936.21 470.801 939.155 471.26L938.25 474.996C938.25 474.996 928.455 473.159 928.249 471.954Z" fill="#353A3D"/>
<path d="M927.321 213.249C927.19 219.84 912.059 226.773 912.059 226.773C912.059 226.773 908.383 214.459 909.654 213.817C910.155 213.564 910.315 213.409 910.376 212.293C910.432 211.229 910.366 210.053 910.306 209.303C910.268 208.839 910.23 208.539 910.23 208.539C910.23 208.539 912.054 206.617 914.371 204.324C918.422 200.317 924.226 194.387 924.236 196.426C924.236 196.534 924.39 196.59 924.358 196.74C923.387 201.334 927.321 213.249 927.321 213.249Z" fill="#EEA886"/>
<path d="M921.653 202.145C921.625 202.182 921.086 202.993 920.162 204.156C918.202 206.617 914.521 210.667 910.381 212.293C910.437 211.229 910.372 210.053 910.311 209.303C909.889 209.293 909.462 209.242 909.045 209.148C910.18 207.165 911.821 205.089 911.821 205.089L914.381 204.324L921.653 202.145Z" fill="#A77860"/>
<path d="M924.105 197.317C923.003 199.717 921.953 201.456 921.657 202.145C921.465 202.595 920.935 203.326 920.166 204.156C918.061 206.42 914.155 209.41 910.31 209.303C909.888 209.293 909.462 209.242 909.045 209.148C907.493 208.81 905.659 208.088 904.651 206.115C896.69 190.534 902.452 177.788 902.452 177.788C902.452 177.788 924.222 171.634 927.626 178.187C930.013 182.785 926.698 191.673 924.105 197.317Z" fill="#EEA886"/>
<path d="M902.452 177.793C902.452 177.793 900.431 177.68 899.929 173.851C899.437 170.063 904.327 167.457 904.327 167.457C904.327 167.457 908.135 165.394 912.65 164.762C915.885 164.312 923.814 163.805 925.67 165.929C925.67 165.929 930.19 164.879 931.419 172.379C933.374 184.276 924.761 195.831 924.761 195.831C924.761 195.831 924.836 188.059 923.12 187.027C921.404 185.996 919.927 188.448 919.927 188.448L916.42 189.076C916.42 189.076 921.39 179.466 914.999 179.045C908.608 178.623 906.109 178.459 902.452 177.793Z" fill="#223247"/>
<path d="M920.026 185.354C920.359 181.928 926.552 180.624 926.14 184.21C925.727 187.801 922.675 191.246 921.264 191.129C919.852 191.007 919.773 187.965 920.026 185.354Z" fill="#EEA886"/>
<path d="M922.018 256.15L911.881 308.35L878.366 301.844L887.2 249.39L922.018 256.15Z" fill="#616161"/>
<path d="M919.505 258.695L910.498 305.05L880.738 299.275L888.578 252.686L919.505 258.695Z" fill="#E0CEC7"/>
<path d="M910.071 258.057L910.704 254.804L898.668 252.465L897.566 255.629L910.071 258.057Z" fill="#616161"/>
<path d="M915.454 280.168C915.454 280.168 918.014 280.098 918.802 279.986C919.585 279.873 919.069 281.542 918.16 281.856C917.25 282.165 915.454 280.168 915.454 280.168Z" fill="#C98462"/>
<path d="M916.954 292.403C916.954 292.403 915.834 292.675 915.29 292.553C915.29 292.553 914.31 292.258 913.602 292.094C913.377 292.042 913.18 292 913.049 291.986C912.505 291.93 911.295 291.976 910.029 291.48C908.763 290.983 904.459 288.78 904.459 288.78L905.687 284.781L906.616 281.612C906.616 281.612 913.883 279.681 915.121 280.005C915.243 280.037 915.36 280.075 915.468 280.117C916.486 280.492 917.086 281.205 917.597 281.462C917.784 281.561 919.585 282.639 919.679 283.258C919.81 284.115 919.552 284.767 919.107 285.165C919.107 285.165 919.289 286.862 918.661 287.823C918.661 287.823 918.881 289.384 917.756 290.355C917.756 290.359 917.798 291.967 916.954 292.403Z" fill="#EEA886"/>
<path d="M908.144 280.59C908.144 280.59 906.794 287.889 902.912 292.586C902.912 292.586 874.048 280.853 870.405 279.423C866.762 277.993 883.636 233.157 883.636 233.157L896.052 237.381L889.38 249.99C889.38 249.99 886.079 257.054 879.21 268.675C879.215 268.679 883.444 272.692 908.144 280.59Z" fill="#F54242"/>
<path d="M925.371 241.295C925.371 241.295 924.611 255.259 931.593 255.259C938.579 255.259 937.941 242.692 938.068 241.295H925.371Z" fill="#F54242"/>
<path d="M926.613 241.295H937.041V239.176L926.613 241.295Z" fill="white"/>
<path d="M709.216 292.145C709.216 292.145 706.041 294.189 704.218 293.045C702.666 292.075 699.955 291.939 699.121 291.897C698.005 291.841 694.648 290.388 694.563 291.794C694.479 293.2 699.984 294.452 701.085 294.944C702.187 295.436 697.334 297.808 696.791 298.938C696.247 300.067 700.626 307.881 703.767 305.87C706.909 303.859 708.939 299.636 709.563 299.392C710.186 299.148 711.907 298.019 711.907 298.019L709.216 292.145Z" fill="#EEA886"/>
<path d="M804.064 467.848C804.064 467.848 796.961 478.231 794.485 480.434C794.485 480.434 789.529 483.007 789.375 485.06C789.084 488.942 788.737 492.565 795.254 492.748C801.772 492.931 805.991 491.393 807.187 487.446C808.383 483.499 811.229 480.106 811.229 480.106V488.365H812.696C812.696 488.365 813.062 480.377 813.156 478.91C813.25 477.443 814.211 471.795 811.111 469.296C808.012 466.788 804.064 467.848 804.064 467.848Z" fill="#162D40"/>
<path d="M793.538 480.963C793.538 480.963 797.064 481.957 801.256 480.903C805.447 479.848 809.47 469.817 810.694 468.982L811.782 464.932H803.61C803.61 464.932 803.328 467.899 802.006 470.463C800.688 473.028 793.538 480.963 793.538 480.963Z" fill="#EEA886"/>
<path d="M757.96 463.966C757.96 463.966 756.895 466.484 754.884 469.104C753.411 471.026 748.826 478.924 746.805 479.477C744.784 480.026 738.543 481.127 737.99 484.615C737.437 488.102 737.165 490.582 743.317 490.859C749.468 491.135 753.51 491.501 756.445 487.188C759.385 482.876 764.064 479.754 764.064 479.754V491.009H766.451C766.451 491.009 767.553 479.295 768.195 478.47C768.837 477.645 770.492 468.649 764.796 463.966C759.104 459.288 757.96 463.966 757.96 463.966Z" fill="#162D40"/>
<path d="M746.806 479.482C746.806 479.482 752.315 480.86 754.425 479.482C756.535 478.104 763.713 465.973 766.095 465.246C766.095 465.246 763.793 460.573 757.96 463.966C757.96 463.966 748.362 477.462 746.806 479.482Z" fill="#EEA886"/>
<path d="M807.192 295.403C807.192 295.403 814.961 305.5 817.066 317.477C819.171 329.453 815.824 369.658 815.913 375.579C816.006 381.499 821.398 400.385 820.297 411.537C819.195 422.688 813.165 468.776 813.165 468.776L799.708 468.537C799.708 468.537 802.404 418.31 801.715 413.627C801.026 408.944 798.836 389.032 798.56 387.105C798.283 385.179 783.228 334.206 783.228 325.572C783.228 316.928 788.46 281.312 807.192 295.403Z" fill="#1D3B54"/>
<path d="M768.171 299.35C768.171 299.35 755.409 348.044 753.894 354.789C752.38 361.535 749.351 370.347 749.487 371.585C749.623 372.822 751.095 393.611 751.095 393.611L754.719 464.379H768.171C768.171 464.379 772.485 419.36 773.174 410.271C773.864 401.182 768.218 387.143 769.592 383.285C770.971 379.432 791.765 334.961 791.765 334.961C791.765 334.961 807.514 285.217 768.171 299.35Z" fill="#1D3B54"/>
<path d="M772.119 226.473C772.119 226.473 765.325 226.75 761.471 230.879C757.617 235.009 755.685 241.801 754.677 244.004C753.669 246.208 740.906 266.584 740.17 267.044C739.434 267.503 726.47 277.966 720.59 283.562C714.715 289.159 703.261 295.403 703.261 295.403L707.574 301.459C707.574 301.459 742.369 282.92 746.777 276.128C751.184 269.336 769.269 250.886 769.269 250.886C769.269 250.886 783.686 233.997 772.119 226.473Z" fill="#EEA886"/>
<path d="M772.12 226.473C772.12 226.473 765.326 226.75 761.472 230.879C757.618 235.009 755.686 241.801 754.678 244.004C753.67 246.208 740.907 266.584 740.171 267.044C739.435 267.503 728.81 274.797 722.935 280.398C717.06 285.995 706.342 292.581 706.342 292.581L712.606 300.564C712.606 300.564 742.422 284.022 747.288 277.548C752.488 270.634 769.279 250.886 769.279 250.886C769.279 250.886 783.687 233.997 772.12 226.473Z" fill="#285173"/>
<path d="M781.023 222.892C781.023 222.892 774.412 226.014 772.12 226.473C769.822 226.932 760.918 238.496 759.357 242.72C757.796 246.943 759.357 253.276 762.569 260.711C765.78 268.145 762.752 270.625 764.219 278.059C765.687 285.494 766.971 301.234 766.699 305.364C766.423 309.494 803.834 310.272 812.372 302.748C812.372 302.748 803.792 289.9 802.69 288.062C801.588 286.225 802.507 276.222 803.515 273.653C804.523 271.084 815.908 251.898 815.908 251.898C815.908 251.898 816.742 232.44 811.777 228.582C807.463 225.231 795.699 224.035 793.589 223.304C791.484 222.568 785.342 222.249 781.023 222.892Z" fill="#EDDAD3"/>
<path d="M778.914 237.625L774.896 232.923L778.384 220.543C778.384 220.543 779.556 227.434 778.914 237.625Z" fill="#D6C5BE"/>
<path d="M697.41 298.295C697.41 298.295 688.201 305.092 687.966 306.058C687.732 307.023 688.131 307.502 689.017 306.902C689.903 306.302 698.103 300.592 698.103 300.592C698.103 300.592 688.553 310.464 688.187 311.214C687.971 311.655 688.689 312.62 689.195 312.344C689.701 312.067 699.726 302.823 699.726 302.823C699.726 302.823 690.827 312.058 690.709 312.775C690.606 313.403 691.488 314.13 692.191 313.488C692.899 312.85 701.643 304.745 701.643 304.745C701.643 304.745 695.59 311.875 695.848 312.541C696.008 312.948 696.584 313.816 698.089 311.927C699.594 310.038 703.613 305.955 703.613 305.955L697.41 298.295Z" fill="#EEA886"/>
<path d="M789.369 175.988C785.44 174.605 771.008 171.216 767.609 189.662C764.214 208.112 774.403 221.237 783.766 217.749C793.13 214.262 798.916 201.503 799.464 191.776C800.017 182.049 794.325 177.732 789.369 175.988Z" fill="#EEA886"/>
<path d="M767.609 189.667C767.609 189.667 766.901 173.879 782.604 173.331C798.302 172.782 802.526 185.701 801.242 195.118C799.957 204.535 793.458 209.504 793.458 209.504C793.458 209.504 794.021 201.882 790.978 199.904C787.93 197.926 775.721 193.979 770.394 184.801C770.39 184.801 767.923 187.698 767.609 189.667Z" fill="#252E3B"/>
<path d="M787.184 187.993C789.252 194.279 795.385 197.912 800.88 196.103C806.375 194.293 809.156 187.735 807.088 181.445C805.02 175.159 798.887 171.526 793.392 173.335C787.892 175.145 785.117 181.707 787.184 187.993Z" fill="#252E3B"/>
<path d="M804.092 226.473C804.092 226.473 812.424 224.087 817.197 233.265C821.97 242.443 820.779 247.398 821.881 251.533C822.983 255.662 827.39 283.291 827.667 284.481C827.943 285.676 832.168 299.716 831.614 304.033C831.066 308.345 827.118 341.022 827.301 342.124C827.484 343.225 819.682 341.069 819.682 341.069C819.682 341.069 820.005 307.703 819.729 304.952C819.452 302.195 819.175 287.744 817.112 284.022C815.044 280.305 809.953 257.589 808.851 255.245C807.739 252.906 797.068 229.454 804.092 226.473Z" fill="#EEA886"/>
<path d="M777.873 215.265C777.873 215.265 779.191 227.387 778.914 231.334C778.914 231.334 785.783 238.215 793.594 223.3C793.594 223.3 790.308 217.154 792.783 208.778C795.254 200.406 777.873 215.265 777.873 215.265Z" fill="#EEA886"/>
<path d="M810.389 361.146V349.905C810.389 348.096 811.861 346.624 813.671 346.624H831.497C833.307 346.624 834.779 348.096 834.779 349.905V361.146C834.779 362.955 833.307 364.427 831.497 364.427H813.671C811.861 364.427 810.389 362.955 810.389 361.146ZM813.671 348.827C813.075 348.827 812.592 349.31 812.592 349.905V361.146C812.592 361.741 813.075 362.224 813.671 362.224H831.497C832.093 362.224 832.576 361.741 832.576 361.146V349.905C832.576 349.31 832.093 348.827 831.497 348.827H813.671Z" fill="#0E1E2B"/>
<path d="M828.918 352.553C828.918 352.553 829.655 351.358 829.72 350.674C829.72 350.674 829.748 349.427 829.819 348.541C829.842 348.26 829.87 348.016 829.903 347.861C830.044 347.21 830.55 345.822 830.452 344.158C830.353 342.499 828.084 335.449 828.084 335.449L823.925 335.594L820.01 335.172C820.01 335.172 815.284 344.195 815.195 345.752C815.185 345.906 815.185 346.056 815.195 346.197C815.251 347.524 815.846 348.485 815.954 349.178C815.996 349.431 816.573 351.93 817.262 352.272C818.214 352.75 819.067 352.694 819.696 352.328C819.696 352.328 821.599 353.181 822.954 352.811C822.954 352.811 824.684 353.655 826.241 352.713C826.241 352.717 828.093 353.374 828.918 352.553Z" fill="#EEA886"/>
<path d="M778.913 231.339V237.625L786.818 231.718L778.913 231.339Z" fill="#EEA886"/>
<path d="M778.913 237.625L782.195 233.561L793.251 222.545L796.829 225.99L778.913 237.625Z" fill="#D6C5BE"/>
<path d="M794.785 223.6C794.785 223.6 785.506 237.676 785.065 243.873C784.62 250.07 788.512 296.416 791.63 311.313C794.748 326.21 817.263 309.634 817.263 309.634C817.263 309.634 802.132 285.151 807.942 265.548C813.751 245.945 817.019 232.928 817.019 232.928C817.019 232.928 813.062 226.618 806.783 225.653C800.501 224.678 794.785 223.6 794.785 223.6Z" fill="#285173"/>
<path d="M757.955 244.45C757.955 244.45 759.451 258.508 762.297 265.483C762.297 265.483 763.492 280.352 763.305 285.583C763.122 290.814 761.88 310.595 761.88 310.595L768.327 314.369C769.625 315.128 771.234 314.074 771.051 312.583C769.227 297.527 763.286 240.419 776.114 225.067L770.966 226.586C770.971 226.581 760.374 236.462 757.955 244.45Z" fill="#285173"/>
<path d="M789.393 196.567C789.965 195.118 791.873 194.71 792.975 195.54C794.077 196.365 794.719 198.845 792.975 202.056C791.231 205.271 785.079 207.507 789.393 196.567Z" fill="#EEA886"/>
<path d="M774.895 232.923L769.836 234.32L778.383 220.543L774.895 232.923Z" fill="#FAE6DE"/>
<path d="M782.195 233.561L786.818 239.622L796.299 223.881L793.251 222.545L782.195 233.561Z" fill="#FAE6DE"/>
<path d="M804.092 226.473C804.092 226.473 812.424 224.087 817.197 233.265C821.97 242.443 821.947 246.362 822.585 250.843C823.185 255.076 829.008 280.215 829.285 281.406C829.562 282.601 831.475 298.314 831.611 304.033C831.714 308.378 830.691 336.892 830.874 337.994C831.057 339.095 817.69 336.067 817.69 336.067C817.69 336.067 819.167 309.77 818.895 307.019C818.618 304.267 818.032 290.537 816.686 286.506C815.106 281.767 808.866 257.889 807.764 255.55C806.662 253.201 797.069 229.454 804.092 226.473Z" fill="#285173"/>
<path d="M778.145 217.937L778.388 220.323C778.388 220.323 783.832 221.387 790.978 212.678C790.973 212.678 785.909 218.851 778.145 217.937Z" fill="#A77860"/>
<path d="M789.145 407.511H856.029V359.6H789.145V407.511Z" fill="#54281A"/>
<path d="M789.145 387.372H856.029V359.603H789.145V387.372Z" fill="#873F2B"/>
<path d="M758.859 263.266C758.859 263.266 756.403 253.848 759.821 245.05C759.821 245.05 757.293 253.122 760.829 260.912L758.859 263.266Z" fill="#1D3B54"/>
<path d="M809.835 262.215C809.835 262.215 805.418 246.873 805.146 246.043C805.146 246.043 805.869 259.829 807.617 266.706C807.622 266.706 808.621 263.931 809.835 262.215Z" fill="#1D3B54"/>
<path d="M530.379 503.243H660.65C669.967 503.243 677.525 495.692 677.525 486.373V139.491C677.525 130.172 669.971 122.621 660.65 122.621H530.379C521.062 122.621 513.504 130.172 513.504 139.491V486.373C513.504 495.692 521.057 503.243 530.379 503.243Z" fill="#587AA3"/>
<path d="M525.418 506.164H682.228C692.44 506.164 700.72 497.885 700.72 487.676V137.701C700.72 127.491 692.44 119.213 682.228 119.213H525.418C515.206 119.213 506.926 127.491 506.926 137.701V487.676C506.926 497.885 515.206 506.164 525.418 506.164Z" fill="url(#paint3_linear_174_11713)"/>
<path d="M615.915 252.344L623.009 263.523L629.555 273.84C629.54 273.784 629.104 272.223 628.364 267.7C628.223 266.842 628.073 265.876 627.909 264.794C627.862 264.475 627.792 264.156 627.702 263.842C624.899 257.383 616.234 252.512 615.92 252.353C615.92 252.343 615.915 252.344 615.915 252.344Z" fill="#EDDAD3"/>
<path d="M627.675 263.762C627.675 263.762 628.054 264.545 628.364 267.695L625.799 263.823C625.799 263.823 621.218 257.256 619.647 255.55C618.077 253.843 615.92 252.348 615.92 252.348C615.92 252.348 624.936 256.679 627.675 263.762Z" fill="#FFCA55"/>
<path opacity="0.73" d="M684.558 139.496V486.378C684.558 495.692 677.009 503.239 667.683 503.239H537.412C528.095 503.239 520.537 495.692 520.537 486.378V139.496C520.537 130.177 528.095 122.626 537.412 122.626H667.683C677.009 122.626 684.558 130.173 684.558 139.496Z" fill="#6BB0FF"/>
<path d="M580.211 468.869C580.211 468.869 582.925 476.374 587.474 479.552C592.022 482.73 596.72 487.277 595.482 490.456C594.244 493.634 579.048 491.951 572.695 482.721C568.681 476.89 564.602 475.591 564.611 472.826C564.621 470.065 569.281 464.543 569.525 463.76C569.825 462.794 580.211 468.869 580.211 468.869Z" fill="#353A3D"/>
<path d="M581.336 466.151C581.336 466.151 580.333 468.855 580.211 468.869C580.094 468.884 568.48 465.776 569.526 463.765C570.355 462.166 571.95 460.451 571.95 460.451L581.336 466.151Z" fill="#81807E"/>
<path d="M551.863 340.052C551.863 340.052 555.22 332.083 557.823 331.586C560.425 331.089 558.287 333.161 558.287 333.161C558.287 333.161 554.981 338.636 553.87 340.933C553.814 341.041 551.863 340.052 551.863 340.052Z" fill="#434343"/>
<path d="M568.325 325.272C568.325 325.272 567.631 329.13 567.49 333.039C567.35 336.944 567.969 338.43 566.811 340.286C565.939 341.688 563.81 342.217 563.552 341.58C563.289 340.938 565.174 334.952 562.717 334.113C560.256 333.274 560.856 341.692 559.585 340.642C558.315 339.588 553.79 334.525 555.201 331.67C556.613 328.816 559.618 327.456 561.053 322.956C562.352 318.873 564.208 317.631 564.208 317.631L568.325 325.272Z" fill="#EEA886"/>
<path d="M563.045 333.944C563.045 333.944 566.013 335.931 561.906 346.895L558.432 344.969C558.432 344.969 560.659 338.894 560.734 335.181C560.739 335.186 561.69 333.095 563.045 333.944Z" fill="#545554"/>
<path d="M571.504 353.102L545.627 334.75L533.15 370.202L555.703 397.502L571.504 353.102Z" fill="#545554"/>
<path d="M697.879 406.282V475.882C690.752 454.263 675.185 407.519 671.434 399.869C668.171 393.175 638.557 354.55 636.381 357.306C634.206 360.063 622.072 392.444 620.459 400.413C618.864 408.382 582.555 467.538 582.555 467.538C582.555 467.538 581.917 467.407 580.942 467.144C578.41 466.394 573.571 464.651 571.114 461.407C570.833 461.032 570.571 460.657 570.364 460.244C570.364 460.244 597.034 402.363 599.547 391.413C600.428 387.588 601.422 368.894 604.93 349.394C606.505 340.638 608.605 331.731 611.4 323.931C612.507 320.875 615.732 319.6 620.046 319.469C620.777 319.431 621.546 319.45 622.334 319.487C623.647 319.562 625.035 319.712 626.479 319.919C629.742 320.406 633.287 321.25 636.794 322.244C639.757 323.106 642.721 324.062 645.478 325.037C648.685 326.181 651.648 327.344 654.105 328.337C654.911 328.656 655.661 328.975 656.355 329.256C657.124 329.575 657.8 329.875 658.381 330.119C659.919 330.794 660.819 331.206 660.819 331.206C660.819 331.206 665.489 339.513 671.284 350.069C679.255 364.581 689.364 383.294 692.459 390.494C694.334 394.844 696.228 400.488 697.879 406.282Z" fill="#353A3D"/>
<path d="M686.926 284.2L697.879 296.444V316.713C690.039 309.269 680.812 299.762 677.38 296.744C676.779 296.219 676.348 295.881 676.142 295.806C675.654 295.619 674.773 294.4 673.704 292.562C673.404 292.056 673.066 291.475 672.728 290.875C672.222 289.956 671.697 288.962 671.153 287.912C670.797 287.219 670.422 286.506 670.047 285.775C669.671 285.044 669.315 284.294 668.94 283.562C668.209 282.081 667.477 280.6 666.821 279.212C666.314 278.162 665.845 277.169 665.414 276.269C665.133 275.65 664.851 275.087 664.608 274.562C664.364 274.037 664.139 273.569 663.951 273.137C663.482 272.125 663.182 271.469 663.107 271.319C663.145 271.787 663.464 275.369 663.013 280C662.826 282.025 662.47 284.256 661.888 286.525C661.194 289.244 660.857 292.844 660.725 296.631V296.744C660.725 296.837 660.707 296.912 660.707 297.006V297.119C660.519 304.019 660.988 311.462 661.194 315.419C661.494 321.644 659.412 324.4 659.412 324.4C659.412 324.4 659.131 324.363 658.625 324.288L657.274 324.1L655.737 323.894L653.655 323.594L645.571 322.469L642.627 322.056L641.952 321.963L636.832 321.231L626.498 319.788L622.372 319.206L620.14 318.888L614.701 318.119L612.263 317.763C612.244 317.763 612.225 317.763 612.225 317.763C612.225 317.763 610.125 302.931 609.975 294.925C609.825 287.444 605.755 272.125 605.211 270.119C605.192 270.062 605.173 270.006 605.173 269.969C605.173 269.95 605.173 269.95 605.173 269.95C605.173 269.931 605.173 269.931 605.155 269.931C605.155 269.912 605.155 269.894 605.155 269.894C605.155 269.894 593.358 282.287 591.07 287.687C590.507 289.019 589.007 292.187 587 296.237C586.962 296.331 586.925 296.425 586.887 296.5C581.448 307.506 572.521 324.7 569.07 328.731C568.658 329.256 568.301 329.556 568.057 329.594C567.945 329.613 567.851 329.631 567.72 329.631C565.563 329.65 561.943 326.65 560.162 325.038C559.505 324.456 559.111 324.063 559.111 324.063C559.111 324.063 559.261 323.706 559.561 323.069C562.075 317.313 574.809 288.362 578.016 281.556C578.316 280.919 578.541 280.469 578.654 280.262C578.71 280.187 578.766 280.056 578.842 279.906C581.242 275.275 597.559 239.818 600.053 238.037C600.335 237.831 600.785 237.587 601.366 237.268C601.554 237.193 601.779 237.081 602.004 236.95C602.023 236.95 602.06 236.931 602.098 236.912C602.51 236.725 602.942 236.518 603.429 236.293C603.579 236.218 603.748 236.143 603.917 236.068C604.254 235.918 604.592 235.768 604.948 235.6C606.918 234.737 609.243 233.762 611.494 232.843C612.131 232.581 612.75 232.337 613.332 232.112C614.213 231.756 615.076 231.437 615.864 231.137C615.976 231.1 616.07 231.062 616.164 231.025C618.808 230.012 620.815 229.318 621.228 229.3H621.565C621.734 229.3 621.959 229.318 622.222 229.337C625.485 229.525 635.219 230.425 638.351 230.725C638.988 230.781 639.345 230.818 639.345 230.818C639.345 230.818 640.845 231.512 643.096 232.525L643.114 232.543L643.302 232.618C644.615 233.218 646.153 233.931 647.784 234.681C651.198 236.256 655.061 238.056 658.118 239.5C661.044 240.906 665.47 243.287 665.808 243.55L686.926 284.2Z" fill="#DECBC4"/>
<path d="M659.422 324.405C659.422 324.405 660.51 325.703 660.824 331.206C660.824 331.206 616.136 325.994 611.41 323.941C611.41 323.941 611.227 317.875 612.225 317.767C613.327 317.655 659.422 324.405 659.422 324.405Z" fill="#495055"/>
<path d="M621.312 227.776C621.453 234.789 635.032 238.623 635.032 238.623C635.032 238.623 640.714 231.503 639.355 230.823C638.82 230.556 638.605 229.492 638.539 228.301C638.478 227.167 638.548 225.915 638.619 225.123C638.661 224.626 638.698 224.307 638.698 224.307C638.698 224.307 636.757 222.259 634.291 219.821C629.977 215.556 624.046 210.095 624.037 212.27C624.037 212.387 624.051 212.523 624.088 212.682C625.124 217.571 621.312 227.776 621.312 227.776Z" fill="#EEA886"/>
<path d="M622.438 318.845C622.438 318.845 621.463 324.995 621.378 326.598L619.311 326.186C619.311 326.186 619.878 319.68 620.215 318.588L622.438 318.845Z" fill="#5D676C"/>
<path d="M655.695 323.688C655.695 323.688 656.478 329.275 656.497 331.389L654.307 331.103C654.307 331.103 653.857 324.123 653.608 323.392L655.695 323.688Z" fill="#353A3D"/>
<path d="M626.54 217.506C626.568 217.548 627.145 218.41 628.125 219.643C630.211 222.263 634.126 226.571 638.534 228.301C638.473 227.167 638.543 225.915 638.613 225.123C639.064 225.113 639.514 225.057 639.964 224.959C638.754 222.849 637.01 220.637 637.01 220.637L634.286 219.821L626.54 217.506Z" fill="#A77860"/>
<path d="M623.933 212.364C625.11 214.918 626.221 216.77 626.54 217.506C626.746 217.984 627.309 218.762 628.125 219.643C630.361 222.053 634.52 225.231 638.613 225.123C639.064 225.114 639.514 225.057 639.964 224.959C641.614 224.598 643.565 223.829 644.638 221.729C653.111 205.145 646.978 191.588 646.978 191.588C646.978 191.588 623.811 185.04 620.187 192.01C617.645 196.899 621.176 206.359 623.933 212.364Z" fill="#EEA886"/>
<path d="M646.978 191.588C646.978 191.588 649.13 191.471 649.66 187.393C650.185 183.366 649.121 182.246 649.121 182.246C649.121 182.246 639.556 178.243 636.124 177.723C632.692 177.202 624.247 176.701 622.264 178.965C622.264 178.965 617.453 177.849 616.145 185.827C614.068 198.488 623.23 210.784 623.23 210.784C623.23 210.784 623.15 202.51 624.974 201.413C626.798 200.317 628.374 202.923 628.374 202.923L632.106 203.588C632.106 203.588 626.437 191.349 633.236 190.895C640.044 190.454 643.082 192.296 646.978 191.588Z" fill="#E2D2CA"/>
<path d="M628.275 199.632C627.919 195.99 621.326 194.598 621.767 198.418C622.208 202.239 625.457 205.909 626.953 205.778C628.458 205.651 628.547 202.412 628.275 199.632Z" fill="#EEA886"/>
<path d="M591.08 287.687C588.492 292.956 572.33 328.173 569.493 328.694C566.661 329.214 559.107 322.689 559.107 322.689C559.107 322.689 577.145 282.939 578.659 280.267C580.174 277.595 597.48 239.875 600.049 238.037C601.536 236.973 607.94 234.24 613.337 232.117C614.322 231.728 615.278 231.357 616.165 231.02C617.309 232.295 635.712 253.084 633.982 271.515C633.461 277.051 632.767 286.084 631.234 295.59C629.649 305.472 627.085 316.642 625.429 325.07C622.433 340.319 615.832 354.845 615.832 354.845L598.601 346.225C595.886 344.866 594.615 341.702 595.637 338.847C599.515 327.995 607.256 306.072 607.261 296.551C607.261 296.551 606.646 275.05 605.165 269.926C605.165 269.926 594.048 281.645 591.08 287.687Z" fill="#3C4145"/>
<path d="M697.879 296.031V317.406C690.208 309.925 680.83 299.894 677.38 296.743C676.779 296.218 676.348 295.881 676.142 295.806C675.654 295.618 674.773 294.4 673.704 292.562C673.385 292.056 673.066 291.475 672.728 290.875C672.222 289.956 671.697 288.962 671.153 287.912C670.797 287.218 670.422 286.506 670.046 285.775C669.671 285.043 669.315 284.293 668.94 283.562C668.208 282.081 667.477 280.6 666.821 279.212C666.314 278.162 665.827 277.168 665.414 276.268C665.133 275.65 664.851 275.087 664.608 274.562C664.364 274.037 664.139 273.568 663.951 273.137C663.482 272.125 663.182 271.468 663.107 271.318C663.782 274.131 663.539 277.018 663.013 280C662.094 285.231 660.275 290.743 660.725 296.631V296.743C662.151 314.612 669.671 339.906 671.903 347.069C672.222 348.119 671.997 349.225 671.284 350.069C671.209 350.2 671.097 350.313 670.984 350.425L665.62 355.375C665.62 355.375 660.969 341.05 658.568 330.944C658.512 330.662 658.437 330.381 658.381 330.119C657.837 327.756 657.443 325.675 657.274 324.1V324.081C656.843 320.069 655.98 315.381 655.043 310.394C654.124 305.406 653.167 300.1 652.586 294.868C651.085 281.593 649.547 268.431 648.441 260.706C648.084 258.193 647.728 255.868 647.391 253.731C645.009 238.749 643.189 232.712 643.189 232.712L643.302 232.618C644.615 233.218 646.153 233.931 647.784 234.681C651.198 236.256 655.061 238.056 658.118 239.499C661.044 240.906 665.47 243.287 665.808 243.549L686.926 284.2L697.879 296.031Z" fill="#3C4145"/>
<path d="M619.934 248.424L626.54 252.151L623.718 255.029L631.234 295.595C632.767 286.084 633.466 277.056 633.981 271.52C635.712 253.089 617.308 232.299 616.164 231.024C615.283 231.357 614.326 231.728 613.337 232.121L619.934 248.424Z" fill="#51565C"/>
<path d="M643.096 232.529C643.096 232.529 645.562 240.587 648.441 260.706C649.543 268.436 651.09 281.589 652.581 294.864L654.119 256.872L650.973 253.464L653.772 249.967L647.784 234.686C646.148 233.931 644.61 233.223 643.307 232.628L643.096 232.529Z" fill="#51565C"/>
<path d="M613.342 232.117C607.945 234.245 599.913 237.006 598.427 238.075C595.858 239.917 580.179 277.6 578.664 280.272L613.342 232.117Z" fill="#3C4145"/>
<path d="M555.703 397.502L551.863 396.893L530.149 369.71L543.175 334.066L545.627 334.75L555.703 397.502Z" fill="#545554"/>
<path d="M615.836 231.104L621.312 227.781C621.312 227.781 621.467 230.785 635.032 238.628L631.177 249.475L615.836 231.104Z" fill="#F5E2D9"/>
<path d="M638.642 229.29C638.642 229.29 638.426 232.534 635.031 238.623L642.552 248.42L643.101 232.529L638.642 229.29Z" fill="#F5E2D9"/>
<path d="M635.013 238.623C635.013 238.623 633.555 244.45 634.08 246.081C634.08 246.081 637.282 247.248 639.589 245.79C639.584 245.79 637.953 241.712 635.013 238.623Z" fill="#464157"/>
<path d="M642.543 322.661C643.358 318.55 642.58 306.231 642.547 305.706L641.849 305.748C641.858 305.875 642.65 318.498 641.853 322.52L642.543 322.661Z" fill="#AD9F99"/>
<path d="M636.837 320.767C636.837 320.767 643.41 321.55 645.586 322.094L645.3 329.462L636.687 328.544L636.837 320.767Z" fill="#69737A"/>
<path d="M638.276 245.265C638.276 245.265 644.751 263.472 645.567 284.219C646.382 304.961 644.188 310.323 644.188 310.323L636.086 317.613L633.376 308.139C633.376 308.139 640.69 285.095 636.771 258.437C636.063 253.609 635.008 244.454 635.008 244.454L638.276 245.265Z" fill="#464157"/>
<path opacity="0.98" d="M697.878 139.487V486.363C697.878 495.682 690.32 503.238 680.999 503.238H537.412C528.09 503.238 520.532 495.682 520.532 486.363V139.487C520.532 130.168 528.09 122.612 537.412 122.612H680.999C690.32 122.612 697.878 130.168 697.878 139.487Z" fill="#A3CDFF"/>
<path d="M712.699 315.086C712.699 315.086 715.335 318.92 716.713 319.052C718.091 319.183 720.033 320.411 721.242 320.763C722.452 321.114 726.119 320.908 727.192 321.714C727.628 322.042 729.49 325.127 730.456 325.699C731.422 326.271 733.527 327.189 732.988 328.01C732.448 328.83 730.324 328.521 730.324 328.521C730.324 328.521 731.173 329.097 730.92 329.955C730.428 331.633 729.349 331.844 729.349 331.844C729.349 331.844 729.818 332.992 729.433 333.644C728.594 335.078 727.544 335.256 727.544 335.256C727.544 335.256 727.544 336.194 726.77 337.024C725.781 338.088 724.393 337.736 724.393 337.736C724.393 337.736 723.455 339.344 722.429 339.189C721.402 339.035 720.745 338.378 719.99 338.046C719.236 337.713 713.689 332.744 711.326 327.724C708.963 322.703 705.155 319.769 705.155 319.769L712.699 315.086Z" fill="#EEA886"/>
<path d="M729.978 327.906C729.978 327.906 725.157 323.739 723.001 324.114C720.844 324.489 722.499 326.088 722.499 326.088C722.499 326.088 720.891 324.48 719.447 325.633C718.003 326.786 720.037 328.558 720.037 328.558C720.037 328.558 718.485 327.667 717.491 329.313C716.502 330.958 718.532 332.041 718.532 332.041C718.532 332.041 715.625 332.003 716.465 334.216C717.89 337.956 722.419 339.194 722.419 339.194C722.419 339.194 723.54 339.386 724.384 337.741C724.384 337.741 727.099 338.406 727.535 335.261C727.535 335.261 730.582 334.174 729.34 331.853C729.345 331.849 732.523 330.503 729.978 327.906Z" fill="#DB9C7C"/>
<path d="M715.194 488.154C715.194 488.154 721.758 493.428 727.6 493.798C733.443 494.168 740.171 495.687 740.794 499.231C741.423 502.775 723.052 507.275 716.019 504.757C705.526 500.998 704.813 502.77 703.308 500.276C701.803 497.782 702.97 490.254 702.759 489.415C702.506 488.374 715.194 488.154 715.194 488.154Z" fill="#353A3D"/>
<path d="M714.082 485.295C714.082 485.295 715.292 488.074 715.193 488.154C715.095 488.234 702.768 491.801 702.764 489.415C702.764 487.479 702.862 485.356 702.862 485.356L714.082 485.295Z" fill="#81807E"/>
<path d="M716.652 485.182C716.802 485.914 715.977 486.382 714.664 486.663C711.514 487.376 705.493 487.095 702.811 486.926C701.986 486.87 701.48 486.832 701.48 486.832C701.48 486.832 676.348 409.882 671.434 399.869C668.171 393.176 638.557 354.55 636.381 357.307C636.381 357.307 631.149 345.325 628.748 327.081C628.448 324.869 628.204 322.563 627.998 320.181C630.83 320.669 633.812 321.4 636.794 322.244C639.757 323.106 642.721 324.063 645.478 325.038C648.685 326.181 651.648 327.344 654.105 328.338C654.911 328.656 655.661 328.975 656.355 329.256C657.124 329.575 657.8 329.875 658.381 330.119C659.919 330.794 660.819 331.206 660.819 331.206C660.819 331.206 665.489 339.513 671.284 350.069C679.255 364.582 689.364 383.294 692.459 390.494C697.429 402.026 702.53 422.744 703.205 430.844C704.068 441.049 716.052 482.201 716.652 485.182Z" fill="#353A3D"/>
<path d="M717.496 318.381C717.496 318.381 717.271 318.644 716.896 319.094C715.602 320.613 712.47 324.213 710.482 326.106C710.407 326.163 710.35 326.219 710.294 326.275C710.069 326.481 709.619 326.388 708.963 326.05C703.28 323.106 682.893 301.581 677.379 296.744C677.004 296.425 676.685 296.163 676.46 295.994C676.423 295.956 676.385 295.938 676.329 295.919C676.254 295.863 676.198 295.825 676.141 295.806C675.654 295.619 674.772 294.4 673.703 292.563C673.403 292.056 673.066 291.475 672.728 290.875C672.484 290.406 672.222 289.938 671.959 289.45C671.697 288.944 671.434 288.438 671.153 287.913C670.796 287.219 670.421 286.506 670.046 285.775C668.752 283.225 667.439 280.544 666.314 278.181C666.051 277.6 665.77 277.037 665.526 276.494C665.095 275.594 664.72 274.787 664.382 274.075C664.232 273.756 664.101 273.456 663.97 273.175C663.876 272.95 663.782 272.762 663.688 272.575C663.613 272.387 663.538 272.219 663.463 272.087C663.294 271.712 663.182 271.45 663.126 271.337C663.126 271.319 663.107 271.319 663.107 271.319C663.144 271.787 663.463 275.369 663.013 280C663.013 280.019 663.013 280.019 663.013 280.019C662.826 282.044 662.469 284.256 661.888 286.525C661.194 289.244 660.856 292.844 660.725 296.631V296.744C660.725 296.838 660.706 296.913 660.706 297.006V297.119C660.519 304.019 660.988 311.463 661.194 315.419C661.494 321.644 659.412 324.4 659.412 324.4C659.412 324.4 659.131 324.363 658.624 324.288C658.287 324.231 657.818 324.175 657.274 324.1L655.736 323.894L653.654 323.594L645.571 322.469L642.626 322.056L641.951 321.963L636.831 321.231L627.979 319.994V319.863C627.829 318.063 627.716 316.206 627.641 314.313V314.294C627.529 311.519 627.51 308.65 627.585 305.706C627.791 298.169 628.504 291.531 629.311 285.231C630.511 276.194 631.917 267.869 632.405 258.606C632.611 254.594 632.649 250.431 632.424 245.95V245.931C632.274 243.231 632.049 240.4 631.692 237.437C631.655 237.137 631.617 236.837 631.561 236.537C631.299 234.437 630.98 232.262 630.586 230.012C633.737 230.293 636.831 230.575 638.35 230.725H638.369C638.988 230.781 639.344 230.818 639.344 230.818C639.344 230.818 640.845 231.512 643.095 232.525L643.114 232.543L643.302 232.618C644.614 233.218 646.152 233.931 647.784 234.681C651.197 236.256 655.061 238.056 658.118 239.5C661.044 240.906 665.47 243.287 665.808 243.55L686.926 284.2L716.765 317.556L717.496 318.381Z" fill="#DECBC4"/>
<path d="M660.818 331.206C660.818 331.206 659.993 331.113 658.568 330.944C657.968 330.869 657.255 330.775 656.448 330.681C655.792 330.606 655.042 330.513 654.254 330.419C651.741 330.1 648.665 329.725 645.308 329.294C642.551 328.956 639.625 328.581 636.681 328.169C633.999 327.813 631.317 327.456 628.747 327.081C628.447 324.869 628.204 322.563 627.997 320.181C627.997 320.125 627.997 320.05 627.979 319.994V319.863C630.829 320.275 633.849 320.688 636.831 321.119C638.575 321.381 640.301 321.625 641.97 321.869C642.195 321.906 642.42 321.925 642.645 321.963C643.639 322.113 644.633 322.244 645.571 322.394C648.609 322.825 651.403 323.238 653.654 323.556C654.404 323.669 655.098 323.763 655.736 323.856C656.317 323.95 656.824 324.025 657.274 324.081V324.1C657.818 324.175 658.286 324.231 658.624 324.288C659.13 324.363 659.412 324.4 659.412 324.4C659.412 324.4 660.5 325.694 660.818 331.206Z" fill="#495055"/>
<path d="M635.031 238.618H635.012L634.994 238.6C634.75 238.543 633.437 238.15 631.693 237.437C631.655 237.137 631.618 236.837 631.561 236.537C631.299 234.437 630.98 232.262 630.586 230.012C630.286 228.268 629.949 226.487 629.555 224.65C629.255 223.206 628.973 221.8 628.767 220.431V220.412C628.523 220.15 628.317 219.887 628.129 219.643C628.317 219.85 628.523 220.056 628.729 220.262C628.598 219.512 628.486 218.781 628.392 218.068V218.05C628.186 216.625 628.036 215.256 627.904 213.925C629.855 215.537 632.255 217.806 634.281 219.812C636.757 222.25 638.688 224.312 638.688 224.312C638.688 224.312 638.651 224.631 638.613 225.118C638.557 225.906 638.482 227.162 638.538 228.306C638.557 228.643 638.576 228.981 638.632 229.281C638.745 230.031 638.97 230.631 639.345 230.818C640.714 231.517 635.031 238.618 635.031 238.618Z" fill="#EEA886"/>
<path d="M655.694 323.688C655.694 323.688 656.477 329.275 656.496 331.389L654.306 331.103C654.306 331.103 653.856 324.124 653.607 323.392L655.694 323.688Z" fill="#353A3D"/>
<path d="M638.613 225.118C638.557 225.906 638.482 227.162 638.538 228.306C634.543 226.731 630.961 223.056 628.767 220.431V220.412C628.523 220.15 628.316 219.887 628.129 219.643C628.316 219.85 628.523 220.056 628.729 220.262C628.598 219.512 628.485 218.781 628.391 218.068L634.281 219.812L637.019 220.637C637.019 220.637 638.763 222.85 639.963 224.95C639.513 225.062 639.063 225.1 638.613 225.118Z" fill="#A77860"/>
<path d="M644.633 221.725C643.564 223.825 641.613 224.593 639.963 224.95C639.513 225.062 639.063 225.1 638.612 225.118C634.861 225.212 631.054 222.55 628.729 220.262C628.597 219.512 628.485 218.781 628.391 218.068V218.05C628.185 216.625 628.035 215.256 627.903 213.925C627.622 210.85 627.528 208.037 627.622 205.431C627.641 204.306 627.697 203.218 627.791 202.187C627.866 201.081 627.978 200.012 628.147 198.999C628.71 194.931 629.685 191.574 630.81 188.837C638.35 189.156 646.977 191.593 646.977 191.593C646.977 191.593 653.11 205.149 644.633 221.725Z" fill="#EEA886"/>
<path d="M649.659 187.393C649.134 191.462 646.977 191.593 646.977 191.593C643.076 192.287 640.038 190.449 633.23 190.899C626.441 191.349 632.105 203.593 632.105 203.593L628.372 202.937C628.372 202.937 628.372 202.937 628.354 202.918C628.316 202.843 628.11 202.525 627.791 202.187C627.866 201.081 627.979 200.012 628.147 199C628.71 194.931 629.685 191.574 630.811 188.837C633.83 181.449 637.956 178.487 638.294 178.243C638.313 178.243 638.313 178.243 638.313 178.243C642.514 179.481 649.115 182.237 649.115 182.237C649.115 182.237 650.184 183.362 649.659 187.393Z" fill="#E2D2CA"/>
<path d="M628.354 202.923C628.279 204.029 628.053 204.967 627.622 205.435C627.641 204.31 627.697 203.223 627.791 202.192C627.866 201.085 627.978 200.017 628.147 199.004C628.222 199.21 628.26 199.417 628.279 199.642C628.391 200.743 628.429 201.906 628.354 202.923Z" fill="#EEA886"/>
<path d="M633.98 271.506C633.455 277.056 632.761 286.075 631.242 295.6C630.267 301.656 628.917 308.181 627.641 314.294C627.529 311.519 627.51 308.65 627.585 305.706C627.791 298.169 628.504 291.531 629.311 285.231C630.511 276.194 631.917 267.869 632.405 258.606C633.699 262.843 634.374 267.25 633.98 271.506Z" fill="#3C4145"/>
<path d="M661.245 296.856C660.528 287.594 664.944 279.016 663.106 271.286L663.116 271.305C663.51 272.163 673.923 294.995 676.141 295.806C678.406 296.641 706.613 328.249 708.976 326.041C711.499 323.683 717.27 316.966 717.27 316.966L686.916 284.205L665.807 243.555C665.465 243.283 661.039 240.906 658.113 239.509C655.065 238.056 651.206 236.265 647.779 234.686C646.143 233.931 644.605 233.223 643.301 232.628L643.193 232.712C643.193 232.712 645.561 240.592 648.435 260.711C649.537 268.441 651.084 281.594 652.575 294.869V294.874C653.748 305.341 656.425 316.08 657.278 324.091C658.16 332.388 665.624 355.375 665.624 355.375L670.993 350.425C671.916 349.572 672.263 348.269 671.893 347.074C669.671 339.893 662.623 314.706 661.245 296.856Z" fill="#3C4145"/>
<path d="M633.98 271.506C633.455 277.056 632.761 286.075 631.242 295.6L629.311 285.231C630.511 276.194 631.917 267.869 632.405 258.606C633.699 262.843 634.374 267.25 633.98 271.506Z" fill="#51565C"/>
<path d="M643.096 232.529C643.096 232.529 645.562 240.587 648.441 260.706C649.543 268.436 651.09 281.589 652.581 294.864L654.119 256.872L650.973 253.464L653.772 249.967L647.784 234.686C646.148 233.931 644.61 233.223 643.307 232.628L643.096 232.529Z" fill="#51565C"/>
<path d="M635.031 238.618V238.637L634.975 238.75V238.806L632.424 245.931C632.274 243.231 632.049 240.4 631.693 237.437C631.655 237.137 631.618 236.837 631.562 236.537C632.593 237.193 633.737 237.868 634.994 238.6L635.012 238.618H635.031Z" fill="#F5E2D9"/>
<path d="M638.641 229.29C638.641 229.29 638.425 232.534 635.03 238.623L642.551 248.42L643.1 232.529L638.641 229.29Z" fill="#F5E2D9"/>
<path d="M635.012 238.623C635.012 238.623 633.554 244.45 634.079 246.081C634.079 246.081 637.281 247.248 639.588 245.79C639.583 245.79 637.952 241.712 635.012 238.623Z" fill="#464157"/>
<path d="M642.542 322.661C643.357 318.55 642.579 306.231 642.546 305.706L641.848 305.748C641.857 305.875 642.649 318.499 641.852 322.52L642.542 322.661Z" fill="#AD9F99"/>
<path d="M636.836 320.767C636.836 320.767 643.409 321.55 645.585 322.094L645.299 329.463L636.686 328.544L636.836 320.767Z" fill="#69737A"/>
<path d="M638.276 245.265C638.276 245.265 644.751 263.472 645.567 284.219C646.382 304.961 644.188 310.323 644.188 310.323L636.086 317.613L633.376 308.139C633.376 308.139 640.69 285.095 636.771 258.437C636.063 253.609 635.008 244.454 635.008 244.454L638.276 245.265Z" fill="#464157"/>
</g>
<defs>
<linearGradient id="paint0_linear_174_11713" x1="671.5" y1="48.9465" x2="671.5" y2="226.804" gradientUnits="userSpaceOnUse">
<stop stop-color="#EDEDED"/>
<stop offset="1" stop-color="white"/>
</linearGradient>
<linearGradient id="paint1_linear_174_11713" x1="671.5" y1="125.196" x2="671.5" y2="273.947" gradientUnits="userSpaceOnUse">
<stop stop-color="#D4D4D4"/>
<stop offset="1" stop-color="white"/>
</linearGradient>
<linearGradient id="paint2_linear_174_11713" x1="102.732" y1="493.228" x2="1240.26" y2="493.228" gradientUnits="userSpaceOnUse">
<stop stop-color="#FF9F55"/>
<stop offset="1" stop-color="#FFD255"/>
</linearGradient>
<linearGradient id="paint3_linear_174_11713" x1="506.927" y1="312.69" x2="700.72" y2="312.69" gradientUnits="userSpaceOnUse">
<stop stop-color="#FF9F55"/>
<stop offset="1" stop-color="#FFD255"/>
</linearGradient>
<clipPath id="clip0_174_11713">
<rect width="1343" height="611" fill="white"/>
</clipPath>
</defs>
</svg>
