<svg width="108" height="266" viewBox="0 0 108 266" fill="none" xmlns="http://www.w3.org/2000/svg">
<path d="M133 265C205.902 265 265 205.902 265 133C265 60.0984 205.902 1 133 1C60.0984 1 1 60.0984 1 133C1 205.902 60.0984 265 133 265Z" stroke="#383D55" stroke-opacity="0.1" stroke-width="2" stroke-miterlimit="10"/>
<path d="M133 249.537C197.362 249.537 249.537 197.362 249.537 133C249.537 68.6385 197.362 16.4631 133 16.4631C68.6388 16.4631 16.4634 68.6385 16.4634 133C16.4634 197.362 68.6388 249.537 133 249.537Z" stroke="#383D55" stroke-opacity="0.1" stroke-width="2" stroke-miterlimit="10"/>
<path d="M133 234.094C188.832 234.094 234.093 188.833 234.093 133C234.093 77.1675 188.832 31.9062 133 31.9062C77.167 31.9062 31.9058 77.1675 31.9058 133C31.9058 188.833 77.167 234.094 133 234.094Z" stroke="#383D55" stroke-opacity="0.1" stroke-width="2" stroke-miterlimit="10"/>
<path d="M133 218.651C180.304 218.651 218.651 180.304 218.651 133C218.651 85.6966 180.304 47.3496 133 47.3496C85.6966 47.3496 47.3496 85.6966 47.3496 133C47.3496 180.304 85.6966 218.651 133 218.651Z" stroke="#383D55" stroke-opacity="0.1" stroke-width="2" stroke-miterlimit="10"/>
<path d="M133 203.207C171.774 203.207 203.207 171.774 203.207 133C203.207 94.2256 171.774 62.7927 133 62.7927C94.2254 62.7927 62.7925 94.2256 62.7925 133C62.7925 171.774 94.2254 203.207 133 203.207Z" stroke="#383D55" stroke-opacity="0.1" stroke-width="2" stroke-miterlimit="10"/>
<path d="M133 187.744C163.235 187.744 187.744 163.235 187.744 133C187.744 102.766 163.235 78.2559 133 78.2559C102.766 78.2559 78.2559 102.766 78.2559 133C78.2559 163.235 102.766 187.744 133 187.744Z" stroke="#383D55" stroke-opacity="0.1" stroke-width="2" stroke-miterlimit="10"/>
<path d="M133 172.301C154.705 172.301 172.301 154.705 172.301 133C172.301 111.295 154.705 93.699 133 93.699C111.294 93.699 93.6987 111.295 93.6987 133C93.6987 154.705 111.294 172.301 133 172.301Z" stroke="#383D55" stroke-opacity="0.1" stroke-width="2" stroke-miterlimit="10"/>
</svg>
