<svg width="116" height="35" viewBox="0 0 116 35" fill="none" xmlns="http://www.w3.org/2000/svg">
<path d="M3.24 6.48C5.0294 6.48 6.48 5.0294 6.48 3.24C6.48 1.4506 5.0294 0 3.24 0C1.4506 0 0 1.4506 0 3.24C0 5.0294 1.4506 6.48 3.24 6.48Z" fill="#383D55" fill-opacity="0.1"/>
<path d="M23.9202 6.48C25.7096 6.48 27.1602 5.0294 27.1602 3.24C27.1602 1.4506 25.7096 0 23.9202 0C22.1308 0 20.6802 1.4506 20.6802 3.24C20.6802 5.0294 22.1308 6.48 23.9202 6.48Z" fill="#383D55" fill-opacity="0.1"/>
<path d="M44.5901 6.48C46.3795 6.48 47.8301 5.0294 47.8301 3.24C47.8301 1.4506 46.3795 0 44.5901 0C42.8007 0 41.3501 1.4506 41.3501 3.24C41.3501 5.0294 42.8007 6.48 44.5901 6.48Z" fill="#383D55" fill-opacity="0.1"/>
<path d="M65.26 6.48C67.0494 6.48 68.5 5.0294 68.5 3.24C68.5 1.4506 67.0494 0 65.26 0C63.4706 0 62.02 1.4506 62.02 3.24C62.02 5.0294 63.4706 6.48 65.26 6.48Z" fill="#383D55" fill-opacity="0.1"/>
<path d="M85.9299 6.48C87.7193 6.48 89.1699 5.0294 89.1699 3.24C89.1699 1.4506 87.7193 0 85.9299 0C84.1405 0 82.6899 1.4506 82.6899 3.24C82.6899 5.0294 84.1405 6.48 85.9299 6.48Z" fill="#383D55" fill-opacity="0.1"/>
<path d="M106.61 6.48C108.4 6.48 109.85 5.0294 109.85 3.24C109.85 1.4506 108.4 0 106.61 0C104.821 0 103.37 1.4506 103.37 3.24C103.37 5.0294 104.821 6.48 106.61 6.48Z" fill="#383D55" fill-opacity="0.1"/>
<path d="M3.24 20.3301C5.0294 20.3301 6.48 18.8795 6.48 17.0901C6.48 15.3007 5.0294 13.8501 3.24 13.8501C1.4506 13.8501 0 15.3007 0 17.0901C0 18.8795 1.4506 20.3301 3.24 20.3301Z" fill="#383D55" fill-opacity="0.1"/>
<path d="M23.9202 20.3301C25.7096 20.3301 27.1602 18.8795 27.1602 17.0901C27.1602 15.3007 25.7096 13.8501 23.9202 13.8501C22.1308 13.8501 20.6802 15.3007 20.6802 17.0901C20.6802 18.8795 22.1308 20.3301 23.9202 20.3301Z" fill="#383D55" fill-opacity="0.1"/>
<path d="M44.5901 20.3301C46.3795 20.3301 47.8301 18.8795 47.8301 17.0901C47.8301 15.3007 46.3795 13.8501 44.5901 13.8501C42.8007 13.8501 41.3501 15.3007 41.3501 17.0901C41.3501 18.8795 42.8007 20.3301 44.5901 20.3301Z" fill="#383D55" fill-opacity="0.1"/>
<path d="M65.26 20.3301C67.0494 20.3301 68.5 18.8795 68.5 17.0901C68.5 15.3007 67.0494 13.8501 65.26 13.8501C63.4706 13.8501 62.02 15.3007 62.02 17.0901C62.02 18.8795 63.4706 20.3301 65.26 20.3301Z" fill="#383D55" fill-opacity="0.1"/>
<path d="M85.9299 20.3301C87.7193 20.3301 89.1699 18.8795 89.1699 17.0901C89.1699 15.3007 87.7193 13.8501 85.9299 13.8501C84.1405 13.8501 82.6899 15.3007 82.6899 17.0901C82.6899 18.8795 84.1405 20.3301 85.9299 20.3301Z" fill="#383D55" fill-opacity="0.1"/>
<path d="M106.61 20.3301C108.4 20.3301 109.85 18.8795 109.85 17.0901C109.85 15.3007 108.4 13.8501 106.61 13.8501C104.821 13.8501 103.37 15.3007 103.37 17.0901C103.37 18.8795 104.821 20.3301 106.61 20.3301Z" fill="#383D55" fill-opacity="0.1"/>
<path d="M3.24 34.1699C5.0294 34.1699 6.48 32.7193 6.48 30.9299C6.48 29.1405 5.0294 27.6899 3.24 27.6899C1.4506 27.6899 0 29.1405 0 30.9299C0 32.7193 1.4506 34.1699 3.24 34.1699Z" fill="#383D55" fill-opacity="0.1"/>
<path d="M23.9202 34.1699C25.7096 34.1699 27.1602 32.7193 27.1602 30.9299C27.1602 29.1405 25.7096 27.6899 23.9202 27.6899C22.1308 27.6899 20.6802 29.1405 20.6802 30.9299C20.6802 32.7193 22.1308 34.1699 23.9202 34.1699Z" fill="#383D55" fill-opacity="0.1"/>
<path d="M44.5901 34.1699C46.3795 34.1699 47.8301 32.7193 47.8301 30.9299C47.8301 29.1405 46.3795 27.6899 44.5901 27.6899C42.8007 27.6899 41.3501 29.1405 41.3501 30.9299C41.3501 32.7193 42.8007 34.1699 44.5901 34.1699Z" fill="#383D55" fill-opacity="0.1"/>
<path d="M65.26 34.1699C67.0494 34.1699 68.5 32.7193 68.5 30.9299C68.5 29.1405 67.0494 27.6899 65.26 27.6899C63.4706 27.6899 62.02 29.1405 62.02 30.9299C62.02 32.7193 63.4706 34.1699 65.26 34.1699Z" fill="#383D55" fill-opacity="0.1"/>
<path d="M85.9299 34.1699C87.7193 34.1699 89.1699 32.7193 89.1699 30.9299C89.1699 29.1405 87.7193 27.6899 85.9299 27.6899C84.1405 27.6899 82.6899 29.1405 82.6899 30.9299C82.6899 32.7193 84.1405 34.1699 85.9299 34.1699Z" fill="#383D55" fill-opacity="0.1"/>
<path d="M106.61 34.1699C108.4 34.1699 109.85 32.7193 109.85 30.9299C109.85 29.1405 108.4 27.6899 106.61 27.6899C104.821 27.6899 103.37 29.1405 103.37 30.9299C103.37 32.7193 104.821 34.1699 106.61 34.1699Z" fill="#383D55" fill-opacity="0.1"/>
</svg>
