<svg width="147" height="266" viewBox="0 0 147 266" fill="none" xmlns="http://www.w3.org/2000/svg">
<path d="M14 265C86.9016 265 146 205.902 146 133C146 60.0984 86.9016 1 14 1C-58.9016 1 -118 60.0984 -118 133C-118 205.902 -58.9016 265 14 265Z" stroke="#383D55" stroke-opacity="0.1" stroke-width="2" stroke-miterlimit="10"/>
<path d="M14.0004 249.537C78.3619 249.537 130.537 197.362 130.537 133C130.537 68.6384 78.3619 16.463 14.0004 16.463C-50.3612 16.463 -102.537 68.6384 -102.537 133C-102.537 197.362 -50.3612 249.537 14.0004 249.537Z" stroke="#383D55" stroke-opacity="0.1" stroke-width="2" stroke-miterlimit="10"/>
<path d="M13.9995 234.094C69.832 234.094 115.093 188.833 115.093 133C115.093 77.1675 69.832 31.9062 13.9995 31.9062C-41.833 31.9062 -87.0942 77.1675 -87.0942 133C-87.0942 188.833 -41.833 234.094 13.9995 234.094Z" stroke="#383D55" stroke-opacity="0.1" stroke-width="2" stroke-miterlimit="10"/>
<path d="M14.0001 218.651C61.3036 218.651 99.6507 180.303 99.6507 133C99.6507 85.6965 61.3036 47.3495 14.0001 47.3495C-33.3034 47.3495 -71.6504 85.6965 -71.6504 133C-71.6504 180.303 -33.3034 218.651 14.0001 218.651Z" stroke="#383D55" stroke-opacity="0.1" stroke-width="2" stroke-miterlimit="10"/>
<path d="M13.9998 203.207C52.7742 203.207 84.2071 171.774 84.2071 133C84.2071 94.2256 52.7742 62.7927 13.9998 62.7927C-24.7746 62.7927 -56.2075 94.2256 -56.2075 133C-56.2075 171.774 -24.7746 203.207 13.9998 203.207Z" stroke="#383D55" stroke-opacity="0.1" stroke-width="2" stroke-miterlimit="10"/>
<path d="M14.0001 187.744C44.2345 187.744 68.7444 163.234 68.7444 133C68.7444 102.766 44.2345 78.2557 14.0001 78.2557C-16.2343 78.2557 -40.7441 102.766 -40.7441 133C-40.7441 163.234 -16.2343 187.744 14.0001 187.744Z" stroke="#383D55" stroke-opacity="0.1" stroke-width="2" stroke-miterlimit="10"/>
<path d="M13.9998 172.301C35.7051 172.301 53.3008 154.705 53.3008 133C53.3008 111.295 35.7051 93.699 13.9998 93.699C-7.7056 93.699 -25.3013 111.295 -25.3013 133C-25.3013 154.705 -7.7056 172.301 13.9998 172.301Z" stroke="#383D55" stroke-opacity="0.1" stroke-width="2" stroke-miterlimit="10"/>
<path d="M14.0004 156.858C27.1767 156.858 37.8582 146.176 37.8582 133C37.8582 119.824 27.1767 109.142 14.0004 109.142C0.824081 109.142 -9.85742 119.824 -9.85742 133C-9.85742 146.176 0.824081 156.858 14.0004 156.858Z" stroke="#383D55" stroke-opacity="0.1" stroke-width="2" stroke-miterlimit="10"/>
<path d="M14 141.415C18.6473 141.415 22.4146 137.647 22.4146 133C22.4146 128.353 18.6473 124.585 14 124.585C9.35278 124.585 5.58545 128.353 5.58545 133C5.58545 137.647 9.35278 141.415 14 141.415Z" stroke="#383D55" stroke-opacity="0.1" stroke-width="2" stroke-miterlimit="10"/>
</svg>
