<svg width="379" height="353" viewBox="0 0 379 353" fill="none" xmlns="http://www.w3.org/2000/svg">
<path d="M233.279 31.4552V104.006L231.928 105.09L191.109 79.9502L189.758 8.48225L191.109 7.39892L233.279 31.4552Z" fill="#183561"/>
<path d="M189.758 8.48225V81.0335L231.928 105.09V32.5386L189.758 8.48225Z" fill="#183561"/>
<path d="M189.758 8.48225V18.4807L231.928 42.5371V32.5386L189.758 8.48225Z" fill="#3C6A9E"/>
<path d="M194.136 28.8552L194.155 32.1817L217.073 45.4557L216.933 42.0336L194.136 28.8552Z" fill="#FEC400"/>
<path d="M205.602 56.5821L205.627 59.9086L228.538 73.1826L228.398 69.7669L205.602 56.5821Z" fill="#FEC400"/>
<path d="M219.705 43.6841V46.9086L228.315 51.8983V48.6802L219.705 43.6841Z" fill="#77B8E0"/>
<path d="M197.839 45.3601V48.5846L206.455 53.5807V50.3562L197.839 45.3601Z" fill="#77B8E0"/>
<path d="M195.054 51.1272V54.3517L203.664 59.3414V56.1169L195.054 51.1272Z" fill="white"/>
<path d="M208.297 43.6841L228.296 55.2311V58.564L208.259 46.9086L208.297 43.6841Z" fill="white"/>
<path d="M208.297 50.7066L228.296 62.2473V65.5865L208.259 53.9311L208.297 50.7066Z" fill="white"/>
<path d="M194.136 57.9267L194.155 61.2532L217.073 74.5272L216.933 71.1051L194.136 57.9267Z" fill="#FEC400"/>
<path d="M205.602 79.8419L205.627 83.1683L228.538 96.4423L228.398 93.0203L205.602 79.8419Z" fill="#FEC400"/>
<path d="M219.705 72.7556V75.9801L228.315 80.9698V77.7453L219.705 72.7556Z" fill="#77B8E0"/>
<path d="M197.839 68.6198V71.8443L206.455 76.834V73.6095L197.839 68.6198Z" fill="#77B8E0"/>
<path d="M195.054 74.3806V77.6051L203.664 82.6012V79.3767L195.054 74.3806Z" fill="white"/>
<path d="M208.297 73.96L228.296 85.507V88.8462L208.259 77.1845L208.297 73.96Z" fill="white"/>
<path d="M308.947 91.2869V125.775L306.863 126.967L250.665 91.2869L248.581 58.5767L250.665 57.3914L308.947 91.2869Z" fill="#183561"/>
<path d="M306.863 92.4722V126.967L248.581 92.4722V58.5767L306.863 92.4722Z" fill="#A9D1EA"/>
<path d="M290.886 91.5482L289.159 90.5413V87.5016L290.886 88.5085L294.595 90.6815L301.452 94.6962V97.7359L294.595 93.7212L290.886 91.5482Z" fill="#FEC400"/>
<path d="M291.262 99.2462V96.2065L294.595 98.1629L301.452 102.171V105.211L294.595 101.196L291.262 99.2462Z" fill="white"/>
<path d="M294.595 110.309L301.452 114.324V117.363L294.595 113.349L290.886 111.176L285.653 108.117V105.077L290.886 108.136L294.595 110.309Z" fill="#FEC400"/>
<path d="M280.746 96.1301L285.029 98.6345L290.886 102.063L294.295 104.064V107.104L290.886 105.103L285.029 101.674L280.746 99.1634V96.1301Z" fill="white"/>
<path d="M295.232 104.612L301.452 108.251V111.284L295.232 107.645V104.612Z" fill="white"/>
<path d="M290.325 98.6982L285.029 95.6011L277.98 91.4717L274.577 89.4771V86.4438L277.98 88.432L285.029 92.5614L290.325 95.6648V98.6982Z" fill="#77B8E0"/>
<path d="M270.39 83.9904L273.532 85.832V88.8654L270.39 87.0301L253.438 77.4012V74.3615L270.39 83.9904Z" fill="white"/>
<path d="M279.809 95.582V98.6153L277.98 97.5448L273.596 94.9766L270.39 93.1031L264.654 89.8467V86.807L270.39 90.0698L273.596 91.9433L277.98 94.5114L279.809 95.582Z" fill="white"/>
<path d="M263.609 89.2541L253.438 83.4742V80.4345L263.609 86.2144V89.2541Z" fill="white"/>
<path d="M267.79 97.6977L253.438 89.5472V86.5139L267.79 94.6644V97.6977Z" fill="#77B8E0"/>
<path d="M273.596 98.0163L277.98 100.584L284.717 104.529V107.569L277.98 103.624L273.596 101.056L270.39 99.1825L268.835 98.2967V95.257L270.39 96.1428L273.596 98.0163Z" fill="white"/>
<path opacity="0.22" d="M26.8047 239.933L31.0109 242.361L220.896 351.866C222.318 352.682 223.917 353.064 225.504 352.994C226.868 352.943 228.2 352.567 229.417 351.866L368.35 271.534L370.523 270.279L374.742 267.844C377.578 266.207 379 263.339 379 260.471C379 260.376 379 260.267 378.987 260.172C378.898 257.406 377.476 254.679 374.73 253.105L357.803 243.355L180.74 141.343C178.108 139.833 174.87 139.833 172.238 141.343L26.8047 225.18C21.1263 228.462 21.1263 236.663 26.8047 239.933Z" fill="#15325C"/>
<path d="M21.1642 193.394C21.1451 193.05 21.1451 192.699 21.1642 192.355V174.009L32.0367 181.662L170.823 101.655C173.455 100.138 176.693 100.138 179.325 101.655L342.437 195.618L365.227 208.745L369.115 210.982L373.321 213.404C376.233 215.08 377.655 218.037 377.578 220.968C377.521 223.765 376.1 226.55 373.334 228.143L228.009 312.178C226.779 312.879 225.44 313.261 224.076 313.306C222.502 313.376 220.909 312.994 219.488 312.178L25.396 200.244C22.7957 198.747 21.4064 196.217 21.1834 193.598L21.1706 193.604V193.394H21.1642Z" fill="#D6EDFF"/>
<path d="M224.07 293.717V313.306C225.434 313.255 226.779 312.879 228.003 312.178L373.328 228.156C376.093 226.557 377.515 223.772 377.572 220.981L377.872 221.223L377.578 201.181V200.869L377.566 200.882C377.476 198.116 376.055 195.389 373.308 193.815L356.382 184.065L342.425 195.624L224.077 293.71L224.07 293.717Z" fill="#BBE0FD"/>
<path d="M118.169 221.261L118.22 253.882L101.815 244.304L101.975 214.793L118.169 221.261Z" fill="white"/>
<path d="M124.555 230.011V257.432L129.175 260.095V234.338L124.555 230.011Z" fill="white"/>
<path d="M25.3898 180.643L29.596 183.07L219.488 292.576C220.909 293.392 222.509 293.774 224.096 293.704C225.46 293.653 226.791 293.277 228.009 292.576L366.942 212.244L369.115 210.989L373.334 208.554C376.17 206.916 377.591 204.049 377.591 201.181C377.591 201.086 377.591 200.977 377.578 200.882C377.489 198.116 376.068 195.389 373.321 193.815L356.394 184.065L179.325 82.0531C176.693 80.5428 173.455 80.5428 170.823 82.0531L25.3898 165.89C19.7177 169.172 19.7177 177.373 25.3898 180.643Z" fill="white"/>
<path d="M171.193 101.046C173.112 99.1269 173.112 96.016 171.193 94.0973C169.274 92.1786 166.163 92.1786 164.244 94.0973C162.325 96.016 162.325 99.1269 164.244 101.046C166.163 102.964 169.274 102.964 171.193 101.046Z" fill="#D6EFFB"/>
<path d="M166.407 2.22442L162.506 96.5315L64.1826 160.435L60.2823 158.332C59.2945 157.803 58.4978 157.02 57.9434 156.096C57.3889 155.172 57.083 154.095 57.083 152.973V62.088C57.083 61.2532 57.3061 60.4439 57.7076 59.7429C58.1091 59.0419 58.6954 58.4429 59.4156 58.0223L156.987 0.892564C157.981 0.306291 159.097 0.0131546 160.212 0.000409577C161.327 -0.0123355 162.449 0.261683 163.456 0.822466L166.407 2.22442Z" fill="#A9D1EA"/>
<path d="M167.439 4.70971V99.6286L62.0156 159.715V65.1723C62.0156 64.3502 62.2323 63.56 62.6211 62.8654C63.0226 62.1581 63.6089 61.5527 64.3354 61.1257L164.036 2.75335C164.788 2.31364 165.642 2.36462 166.305 2.7406C166.967 3.12933 167.439 3.83668 167.439 4.70971Z" fill="#D6EFFB"/>
<path d="M165.259 12.7455V92.0006L152.781 99.1124L149.034 101.254L123.408 115.853L109.221 123.94L86.9344 136.64L65.2915 148.977V71.2708L86.4756 58.8699L97.9471 52.1532L116.04 41.5621L137.817 28.8106L151.373 20.8768L161.27 15.0842L165.259 12.7455Z" fill="#183561"/>
<path opacity="0.33" d="M65.4764 183.262L140.57 226.901C142.017 227.742 143.801 227.742 145.248 226.901L247.937 167.279C249.467 166.394 250.238 164.851 250.257 163.303C250.276 161.729 249.505 160.142 247.956 159.237L214.536 139.648C213.523 139.055 212.318 138.864 211.171 139.119L77.3303 168.802C76.8842 168.898 76.4636 169.064 76.0621 169.287L65.5465 175.169C62.3918 176.934 62.3536 181.452 65.4764 183.262Z" fill="#15325C"/>
<path d="M65.2085 170.287L143.374 215.169C144.215 215.653 145.133 215.934 146.064 216.016C147.408 216.138 148.779 215.851 149.983 215.15L246.255 159.288C246.968 158.874 247.542 158.288 247.944 157.606C248.377 156.867 248.6 156.006 248.574 155.121L248.441 150.673L166.349 106.734L62.0156 159.715V164.775C62.0156 165.82 62.2705 166.833 62.7422 167.732C63.2966 168.777 64.1379 169.675 65.2085 170.287Z" fill="#A9D1EA"/>
<path d="M62.0156 159.715L143.119 209.421C144.056 209.994 145.095 210.332 146.153 210.428C147.574 210.555 149.027 210.249 150.308 209.51L246.86 153.483C247.861 152.903 248.447 151.96 248.613 150.953C248.842 149.576 248.281 148.085 246.93 147.257L166.356 97.9908L62.0156 159.715Z" fill="#D6EFFB"/>
<path d="M72.2129 159.728L167.535 103.337L231.317 142.331L135.995 198.721L72.2129 159.728Z" fill="#77B8E0"/>
<path d="M63.4758 163.922C66.1546 163.488 67.9737 160.964 67.5389 158.286C67.1042 155.607 64.5802 153.788 61.9015 154.223C59.2228 154.658 57.4037 157.181 57.8384 159.86C58.2732 162.538 60.7971 164.357 63.4758 163.922Z" fill="#A9D1EA"/>
<g opacity="0.71">
<path d="M121.929 149.022L134.872 141.362L144.598 147.117L131.654 154.776L121.929 149.022Z" fill="#D6EDFF"/>
<path d="M159.39 138.367L146.446 146.027L136.721 140.273L149.664 132.613L159.39 138.367Z" fill="#D6EDFF"/>
<path d="M120.087 147.932L110.789 142.426L123.732 134.773L133.031 140.273L120.087 147.932Z" fill="#D6EDFF"/>
<path d="M105.295 156.682L95.9971 151.176L108.941 143.516L118.245 149.022L105.295 156.682Z" fill="#D6EDFF"/>
<path d="M197.316 143.306L184.372 150.966L174.647 145.211L187.591 137.551L197.316 143.306Z" fill="#D6EDFF"/>
<path d="M170.957 145.211L158.013 152.871L148.288 147.117L161.232 139.457L170.957 145.211Z" fill="#D6EDFF"/>
<path d="M185.749 136.462L172.799 144.122L163.073 138.367L176.023 130.707L185.749 136.462Z" fill="#D6EDFF"/>
<path d="M90.3567 165.514L81.2241 159.919L94.1551 152.266L103.453 157.772L90.3567 165.514Z" fill="#D6EDFF"/>
<path d="M189.433 136.462L202.007 129.025L211.573 134.875L199.158 142.216L189.433 136.462Z" fill="#D6EDFF"/>
<path d="M213.382 135.984L222.611 141.617L210.381 148.856L201 143.306L213.382 135.984Z" fill="#D6EDFF"/>
<path d="M177.865 129.618L190.63 122.066L200.196 127.916L187.591 135.372L177.865 129.618Z" fill="#D6EDFF"/>
<path d="M159.855 153.961L172.799 146.301L182.524 152.055L169.58 159.715L159.855 153.961Z" fill="#D6EDFF"/>
<path d="M134.873 139.183L125.574 133.677L138.518 126.024L147.823 131.523L134.873 139.183Z" fill="#D6EDFF"/>
<path d="M149.665 130.433L140.36 124.934L153.31 117.274L162.608 122.774L149.665 130.433Z" fill="#D6EDFF"/>
<path d="M166.298 122.774L179.248 115.114L188.814 120.957L176.024 128.528L166.298 122.774Z" fill="#D6EDFF"/>
<path d="M116.869 165.705L126.594 171.46L113.089 179.445L103.53 173.595L116.869 165.705Z" fill="#D6EDFF"/>
<path d="M114.899 180.553L128.436 172.549L138.161 178.304L124.453 186.41L114.899 180.553Z" fill="#D6EDFF"/>
<path d="M130.278 171.46L143.222 163.8L152.947 169.554L140.003 177.208L130.278 171.46Z" fill="#D6EDFF"/>
<path d="M164.45 121.684L155.152 116.184L168.293 108.41L177.438 114.005L164.45 121.684Z" fill="#D6EDFF"/>
<path d="M140.003 179.394L149.384 184.938L135.472 193.165L126.263 187.519L140.003 179.394Z" fill="#D6EDFF"/>
<path d="M141.851 178.304L154.795 170.644L164.17 176.188L151.226 183.848L141.851 178.304Z" fill="#D6EDFF"/>
<path d="M105.295 158.861L115.02 164.616L101.72 172.479L92.1665 166.629L105.295 158.861Z" fill="#D6EDFF"/>
<path d="M133.496 155.866L146.446 148.206L156.171 153.961L143.221 161.621L133.496 155.866Z" fill="#D6EDFF"/>
<path d="M107.144 157.772L120.087 150.112L129.813 155.866L116.869 163.52L107.144 157.772Z" fill="#D6EDFF"/>
<path d="M118.71 164.616L131.654 156.956L141.379 162.71L128.436 170.364L118.71 164.616Z" fill="#D6EDFF"/>
<path d="M145.069 162.71L158.013 155.05L167.738 160.805L168.35 160.442L154.795 168.465L145.069 162.71Z" fill="#D6EDFF"/>
<path d="M174.175 129.618L161.232 137.277L151.506 131.523L164.45 123.863L174.175 129.618Z" fill="#D6EDFF"/>
<path d="M186.214 152.055L199.158 144.396L208.539 149.946L195.589 157.606L186.214 152.055Z" fill="#D6EDFF"/>
<path d="M156.637 169.554L184.372 153.145L193.747 158.696L166.011 175.098L156.637 169.554Z" fill="#D6EDFF"/>
</g>
<path d="M120.667 68.7218L118.277 70.1174L113.147 73.1188L103.664 78.6693V82.8752L113.147 77.3247L118.277 74.3169L120.667 72.9213V68.7218Z" fill="white"/>
<path d="M94.8114 62.9035L92.4279 64.299L87.2976 67.3069L77.8145 72.8574V77.0568L87.2976 71.5064L92.4279 68.4985L94.8114 67.103V62.9035Z" fill="white"/>
<path d="M94.8114 70.009L92.4279 71.411L87.2976 74.4125L77.8145 79.9629V84.1624L87.2976 78.612L92.4279 75.6105L94.8114 74.2149V70.009Z" fill="#FEC400"/>
<path d="M146.618 63.8659L142.189 66.4595L136.122 70.009L126.377 75.7188L119.048 80.0075V84.207L126.377 79.9183L136.122 74.2085L142.189 70.659L146.618 68.0654L148.403 67.0203V62.8208L146.618 63.8659Z" fill="#F02098"/>
<path d="M117.754 80.7595L113.147 83.4615L103.664 89.0119V93.2114L113.147 87.661L117.754 84.9654V80.7595Z" fill="white"/>
<path d="M125.51 93.0266L118.277 97.258L113.147 100.266L103.664 105.816V110.016L113.147 104.465L118.277 101.457L125.51 97.2261V93.0266Z" fill="#FEC400"/>
<path d="M146.618 80.6703L142.189 83.2639L136.122 86.8134L126.804 92.2683V96.4678L136.122 91.0129L142.189 87.4634L146.618 84.8698L148.403 83.8247V79.6252L146.618 80.6703Z" fill="white"/>
<path d="M132.298 80.6512L126.377 84.1178L118.277 88.859L113.555 91.6247V95.8242L118.277 93.0585L126.377 88.3173L132.298 84.8507V80.6512Z" fill="white"/>
<path d="M112.261 92.383L103.664 97.4109V101.617L112.261 96.5825V92.383Z" fill="white"/>
<path d="M146.618 72.2713L142.189 74.8585L136.121 78.4144L133.591 79.8928V84.0923L136.121 82.6139L142.189 79.058L146.618 76.4708L148.402 75.4257V71.2262L146.618 72.2713Z" fill="white"/>
<path d="M50.793 104.223V151.641L52.1313 152.712L92.5812 127.802L93.9195 81.4541L92.5812 80.3835L50.793 104.223Z" fill="#183561"/>
<path d="M93.9196 81.4541V128.872L52.1313 152.712V105.3L93.9196 81.4541Z" fill="#A9D1EA"/>
<path d="M93.9196 81.4541V91.3698L52.1313 115.209V105.3L93.9196 81.4541Z" fill="#3C6A9E"/>
<path d="M91.0262 100.208L91.007 103.503L68.2998 116.662L68.44 113.272L91.0262 100.208Z" fill="#FEC400"/>
<path d="M79.6629 127.687L79.6438 130.988L56.9365 144.141L57.0767 140.751L79.6629 127.687Z" fill="#FEC400"/>
<path d="M65.6869 114.904V118.103L57.1533 123.048V119.855L65.6869 114.904Z" fill="#77B8E0"/>
<path d="M87.3553 116.567V119.759L78.8218 124.711V121.518L87.3553 116.567Z" fill="#77B8E0"/>
<path d="M90.1146 122.277V125.476L81.5811 130.421V127.228L90.1146 122.277Z" fill="white"/>
<path d="M76.9926 114.904L57.1724 126.342V129.656L77.0308 118.103L76.9926 114.904Z" fill="white"/>
<path d="M76.9926 121.862L57.1724 133.301V136.615L77.0308 125.061L76.9926 121.862Z" fill="white"/>
<path d="M273.334 117.72C275.233 117.529 276.903 118.491 277.413 123.602C277.923 128.713 277.763 137.602 277.763 137.602L274.303 153.598L270.485 153.088L272.11 136.882L270.313 124.156C270.307 124.15 269.529 118.103 273.334 117.72Z" fill="#FFD561"/>
<path d="M264.801 196.223C265.151 195.006 270.536 194.662 270.536 194.662L275.578 196.918C275.406 199.696 274.883 200.391 273.666 200.391C265.674 199.524 264.807 197.957 264.807 197.957C264.807 197.957 264.457 197.441 264.801 196.223Z" fill="#052754"/>
<path d="M264.284 154.177L267.413 177.284L270.02 196.051C270.02 196.051 271.237 197.441 276.1 196.746L274.889 175.723L275.456 150.526L264.284 154.177Z" fill="#15325C"/>
<path d="M252.985 201.959C253.335 200.742 258.721 200.397 258.721 200.397L263.762 202.653C263.59 205.432 263.067 206.126 261.85 206.126C253.858 205.26 252.991 203.692 252.991 203.692C252.991 203.692 252.641 203.176 252.985 201.959Z" fill="#052754"/>
<path d="M257.854 156.956L256.987 178.501L257.854 202.303C257.854 202.303 259.071 203.692 263.934 202.997L264.979 182.497L270.626 151.023L257.854 156.956Z" fill="#15325C"/>
<path d="M257.07 127.196V158.606C257.07 158.606 271.664 162.602 276.533 151.31L275.839 141.235L276.533 120.04C276.533 120.04 276.317 118.593 275.087 117.382C274.468 116.771 273.678 116.401 272.856 116.293C272.034 116.184 271.173 116.331 270.402 116.752L259.848 122.519C259.154 122.895 258.568 123.417 258.115 124.029C257.446 124.928 257.07 126.036 257.07 127.196Z" fill="#FEC400"/>
<path d="M259.332 105.447C259.332 105.447 258.115 118.823 263.328 117.612C268.541 116.395 269.931 110.143 269.931 110.143L266.279 105.453H259.332V105.447Z" fill="#F9BEAE"/>
<path d="M264.629 114.566L264.106 120.123C264.106 120.123 268.102 121.34 269.842 119.428V114.566H264.629Z" fill="#F4CAAB"/>
<path d="M262.455 110.487C260.199 109.965 261.066 107.881 261.066 107.881C261.066 107.881 258.115 106.664 258.115 104.23C258.115 101.795 260.371 100.234 260.371 100.234L261.589 101.101C261.589 101.101 268.363 100.578 270.447 104.574C272.531 108.569 269.752 115.694 269.752 115.694H266.808L264.195 111.526L262.455 110.487Z" fill="#052754"/>
<path d="M261.27 111.297C261.27 112.38 262.15 113.259 263.233 113.259C264.316 113.259 265.196 112.38 265.196 111.297C265.196 110.213 264.316 109.334 263.233 109.334C262.15 109.334 261.27 110.213 261.27 111.297Z" fill="#F9BEAE"/>
<path d="M239.544 119.479C239.27 117.465 241.048 117.816 241.877 121.932L239.703 123.156C231.52 123.194 233.26 118.842 239.544 119.479Z" fill="#F9BEAE"/>
<path d="M263.666 122.595C260.327 120.154 256.579 125.597 256.579 125.597L250.506 133.352L242.055 121.359L238.391 123.36C238.391 123.36 242.737 132.09 245.936 138.335C247.517 141.42 251.647 142.051 254.081 139.584C257.414 136.201 261.448 132.007 262.71 130.287C265.986 125.807 265.336 123.819 263.666 122.595Z" fill="#FFD561"/>
<path opacity="0.33" d="M260.276 212.378C269.983 212.378 277.853 207.796 277.853 202.143C277.853 196.491 269.983 191.909 260.276 191.909C250.568 191.909 242.699 196.491 242.699 202.143C242.699 207.796 250.568 212.378 260.276 212.378Z" fill="#15325C"/>
<path opacity="0.33" d="M237.677 211.333L269.995 230.157L215.473 261.905L183.442 242.8L237.677 211.333Z" fill="#15325C"/>
<path d="M239.021 198.969L238.036 200.674L268.669 218.371L269.654 216.666L239.021 198.969Z" fill="#77B8E0"/>
<path d="M268.866 231.304C269.484 231.304 269.988 230.801 269.988 230.183V194.496C269.988 193.878 269.484 193.375 268.866 193.375C268.248 193.375 267.745 193.878 267.745 194.496V230.183C267.745 230.801 268.248 231.304 268.866 231.304Z" fill="#77B8E0"/>
<path d="M270.319 222.873V230.132C270.319 230.935 269.669 231.585 268.866 231.585C268.063 231.585 267.413 230.935 267.413 230.132V222.873H270.319Z" fill="#1C427E"/>
<path d="M184.564 243.947C185.182 243.947 185.685 243.444 185.685 242.826V207.14C185.685 206.521 185.182 206.018 184.564 206.018C183.945 206.018 183.442 206.521 183.442 207.14V242.826C183.442 243.444 183.945 243.947 184.564 243.947Z" fill="#77B8E0"/>
<path d="M186.016 235.516V242.775C186.016 243.578 185.366 244.228 184.563 244.228C183.76 244.228 183.11 243.578 183.11 242.775V235.516H186.016Z" fill="#1C427E"/>
<path d="M215.473 262.211C216.091 262.211 216.594 261.708 216.594 261.089V225.403C216.594 224.785 216.091 224.282 215.473 224.282C214.855 224.282 214.351 224.785 214.351 225.403V261.089C214.351 261.708 214.855 262.211 215.473 262.211Z" fill="#77B8E0"/>
<path d="M237.677 177.354L269.995 193.088V196.179L215.473 227.933L183.442 208.822V205.731L237.677 177.354Z" fill="#A9D1EA"/>
<path d="M237.677 174.264L269.995 193.088L215.473 224.842L183.442 205.731L237.677 174.264Z" fill="#BBE0FD"/>
<path d="M216.926 253.78V261.038C216.926 261.841 216.276 262.491 215.473 262.491C214.67 262.491 214.02 261.841 214.02 261.038V253.78H216.926Z" fill="#1C427E"/>
<path d="M185.065 231.002L184.08 232.707L214.712 250.404L215.698 248.699L185.065 231.002Z" fill="#77B8E0"/>
<path opacity="0.33" d="M272.518 258.075L255.26 268.176L237.562 257.158L254.992 247.65L272.518 258.075Z" fill="#15325C"/>
<path d="M254.699 268.736C254.387 268.736 254.138 268.482 254.138 268.176V248.211C254.138 247.898 254.387 247.65 254.699 247.65C255.011 247.65 255.26 247.898 255.26 248.211V268.176C255.26 268.482 255.005 268.736 254.699 268.736Z" fill="#77B8E0"/>
<path d="M253.973 264.945V268.577C253.973 268.979 254.298 269.304 254.699 269.304C255.101 269.304 255.426 268.979 255.426 268.577V264.945H253.973Z" fill="#1C427E"/>
<path d="M273.079 258.642C272.767 258.642 272.519 258.394 272.519 258.082V238.116C272.519 237.804 272.767 237.556 273.079 237.556C273.392 237.556 273.64 237.811 273.64 238.116V258.082C273.64 258.387 273.392 258.642 273.079 258.642Z" fill="#77B8E0"/>
<path d="M272.353 254.851V258.483C272.353 258.885 272.678 259.21 273.079 259.21C273.481 259.21 273.806 258.885 273.806 258.483V254.851H272.353Z" fill="#1C427E"/>
<path d="M237.53 258.853C237.218 258.853 236.969 258.604 236.969 258.292V238.327C236.969 238.014 237.218 237.766 237.53 237.766C237.842 237.766 238.091 238.014 238.091 238.327V258.292C238.097 258.598 237.842 258.853 237.53 258.853Z" fill="#77B8E0"/>
<path d="M255.757 248.58C255.681 248.994 255.413 249.313 255.069 249.466C254.725 249.625 254.311 249.625 253.947 249.409L236.893 239.378V237.664L255.757 248.58Z" fill="#A9D1EA"/>
<path d="M259.351 230.1L254.431 227.602L236.963 237.74L254.431 248.032L259.351 230.1Z" fill="#BBE0FD"/>
<path d="M236.804 255.061V258.693C236.804 259.095 237.129 259.42 237.53 259.42C237.932 259.42 238.257 259.095 238.257 258.693V255.061H236.804Z" fill="#1C427E"/>
<path d="M254.272 247.879L260.199 223.549L278.446 212.008L279.93 213.021L272.366 237.428L255.757 248.733L254.272 247.879Z" fill="#A9D1EA"/>
<path d="M255.833 248.81L261.76 224.486L280.007 212.945L273.927 238.365L255.833 248.81Z" fill="#BBE0FD"/>
<path d="M234.152 206.541C234.152 207.318 233.521 207.949 232.744 207.949C231.966 207.949 231.335 207.318 231.335 206.541C231.335 205.763 231.966 205.132 232.744 205.132C233.521 205.132 234.152 205.763 234.152 206.541Z" fill="#052754"/>
<path d="M227.008 191.074L215.976 197.562L204.505 202.539V204.272L221.381 213.792L232.636 207.299L243.89 200.805V199.078L227.008 191.074Z" fill="#052754"/>
<path d="M233.35 206.101L242.081 195.491L242.705 199.238L233.35 206.101Z" fill="#3C6A9E"/>
<path d="M242.08 195.491L240.468 197.453L233.407 206.031L233.349 206.101L217.295 196.784L217.308 196.771L217.461 196.625L227.524 186.97L242.08 195.491Z" fill="white"/>
<path d="M233.35 206.101L232.891 206.158L221.91 207.554L209.208 200.499L205.066 198.199L217.028 196.803L217.309 196.771L217.328 196.765L217.544 196.74L233.35 206.101Z" fill="white"/>
<path d="M233.407 206.031L233.349 206.101L232.89 206.158L217.149 196.873L217.028 196.803L217.308 196.771L217.461 196.625L217.512 196.657L233.407 206.031Z" fill="#183561"/>
<path d="M205.066 198.199V202.296L221.91 211.715V207.554L205.066 198.199Z" fill="#77B8E0"/>
<path d="M221.91 207.554V211.715L233.349 206.101L221.91 207.554Z" fill="#3C6A9E"/>
<path opacity="0.33" d="M300.458 199.136L329.659 182.038C330.475 181.56 331.476 181.554 332.298 182.025L362.385 199.155C364.157 200.162 364.163 202.711 362.398 203.73L332.782 220.828C331.966 221.299 330.96 221.299 330.144 220.828L300.471 203.698C298.718 202.685 298.712 200.162 300.458 199.136Z" fill="#15325C"/>
<path d="M354.897 188.035L331.699 201.43L331.457 214.965L354.654 201.774L354.897 188.035Z" fill="#A9D1EA"/>
<path d="M308.501 188.035L331.374 174.646L354.897 188.035L331.699 201.43L308.501 188.035Z" fill="#BBE0FD"/>
<path d="M318.545 188.035L331.278 180.585L344.369 188.035L331.457 195.491L318.545 188.035Z" fill="#15325C"/>
<path d="M308.501 201.774V188.035L331.699 201.43L331.457 214.965L308.501 201.774Z" fill="#77B8E0"/>
<path d="M334.031 167.706H327.646V187.181H334.031V167.706Z" fill="#15325C"/>
<path d="M330.838 177.284L342.017 165.47L343.291 167.706L331.482 180.477" fill="#15325C"/>
<path d="M354.151 164.036C354.151 165.036 353.998 165.998 353.718 166.91C352.494 170.886 348.785 173.773 344.406 173.773C339.028 173.773 334.668 169.414 334.668 164.036C334.668 160.951 336.102 158.205 338.339 156.421C340.003 155.089 342.112 154.292 344.406 154.292C349.792 154.299 354.151 158.657 354.151 164.036Z" fill="#77B8E0"/>
<path opacity="0.24" d="M353.718 166.91C353.195 168.605 352.22 170.109 350.933 171.269C349.205 172.83 346.917 173.773 344.406 173.773C339.028 173.773 334.668 169.414 334.668 164.036C334.668 163.711 334.688 163.392 334.719 163.073C334.987 160.384 336.345 158.014 338.346 156.421C338.123 166.706 346.586 167.636 353.718 166.91Z" fill="#77B8E0"/>
<path opacity="0.24" d="M350.933 171.269C349.205 172.83 346.917 173.773 344.406 173.773C339.028 173.773 334.668 169.414 334.668 164.036C334.668 163.711 334.688 163.392 334.719 163.073C336.542 169.873 344.037 172.097 350.933 171.269Z" fill="#77B8E0"/>
<path d="M346.491 154.458C346.491 156.045 346.255 157.58 345.802 159.027C343.852 165.348 337.964 169.943 330.998 169.943C322.445 169.943 315.511 163.01 315.511 154.458C315.511 149.557 317.793 145.186 321.349 142.356C323.994 140.241 327.346 138.973 330.998 138.973C339.55 138.973 346.491 145.906 346.491 154.458Z" fill="#77B8E0"/>
<path opacity="0.24" d="M345.802 159.027C344.968 161.723 343.419 164.112 341.373 165.96C338.626 168.439 334.987 169.943 330.998 169.943C322.445 169.943 315.511 163.01 315.511 154.458C315.511 153.942 315.537 153.432 315.588 152.928C316.008 148.652 318.169 144.886 321.349 142.35C321.005 158.702 334.458 160.187 345.802 159.027Z" fill="#77B8E0"/>
<path opacity="0.24" d="M341.373 165.954C338.626 168.433 334.987 169.937 330.998 169.937C322.445 169.937 315.511 163.003 315.511 154.451C315.511 153.935 315.537 153.425 315.588 152.922C318.481 163.743 330.405 167.279 341.373 165.954Z" fill="#77B8E0"/>
<path d="M-0.000488281 245.885V258.789L0.0696155 258.738C0.260808 259.879 0.923607 260.949 2.06439 261.606L45.4395 286.643C46.0832 287.013 46.8033 287.198 47.5235 287.191C48.2309 287.185 48.9383 287.007 49.5692 286.643L92.989 261.504C94.3655 260.713 95.0411 259.318 95.0411 257.929V245.878L85.934 250.307L49.6266 229.412C48.352 228.679 46.7842 228.679 45.5096 229.418L17.4681 245.585L10.19 249.778L-0.000488281 245.885Z" fill="#BBE0FD"/>
<path d="M-0.000488281 245.885V258.789L0.0696155 258.738C0.260808 259.879 0.923607 260.949 2.06439 261.606L45.4395 286.643C46.0832 287.013 46.8033 287.198 47.5235 287.191V271.661L17.4745 245.591L10.1964 249.785L-0.000488281 245.885Z" fill="#D6EDFF"/>
<path d="M49.633 217.266L92.9763 242.214C95.7294 243.801 95.7358 247.764 92.9826 249.358L49.5629 274.491C48.2883 275.23 46.7142 275.23 45.4332 274.491L2.06444 249.46C-0.688728 247.873 -0.682354 243.903 2.06444 242.316L45.516 217.266C46.7906 216.533 48.3584 216.533 49.633 217.266Z" fill="white"/>
<path d="M49.6335 216.877L92.9767 241.825C95.7299 243.412 95.7363 247.376 92.9831 248.969L49.5634 274.102C48.2888 274.841 46.7146 274.841 45.4337 274.102L2.06493 249.071C-0.688239 247.484 -0.681866 243.514 2.06493 241.927L45.5165 216.877C46.7911 216.144 48.3589 216.144 49.6335 216.877Z" fill="white"/>
<path opacity="0.33" d="M17.3853 246.426L46.5867 229.329C47.4025 228.851 48.4031 228.844 49.2252 229.316L79.3124 246.445C81.0842 247.452 81.0905 250.001 79.3252 251.021L49.7095 268.118C48.8938 268.59 47.8868 268.59 47.0711 268.118L17.3981 250.989C15.6519 249.976 15.6391 247.452 17.3853 246.426Z" fill="#15325C"/>
<path d="M71.8303 235.332L48.6323 248.72L48.3901 262.256L71.5881 249.071L71.8303 235.332Z" fill="#A9D1EA"/>
<path d="M25.4346 235.332L48.3075 221.937L71.8305 235.332L48.6325 248.72L25.4346 235.332Z" fill="#BBE0FD"/>
<path d="M35.4785 235.332L48.2119 227.876L61.3022 235.332L48.3904 242.781L35.4785 235.332Z" fill="#15325C"/>
<path d="M25.4346 249.071V235.332L48.6325 248.72L48.3904 262.256L25.4346 249.071Z" fill="#77B8E0"/>
<path d="M50.9649 214.997H44.5791V234.471H50.9649V214.997Z" fill="#15325C"/>
<path d="M47.772 224.575L58.9503 212.766L60.2249 214.997L48.4093 227.774" fill="#15325C"/>
<path d="M71.085 211.326C71.085 212.327 70.9321 213.289 70.6516 214.2C69.428 218.177 65.7189 221.064 61.3406 221.064C55.9617 221.064 51.6025 216.705 51.6025 211.326C51.6025 208.242 53.0365 205.495 55.2734 203.711C56.9368 202.379 59.0463 201.583 61.3406 201.583C66.7195 201.589 71.085 205.948 71.085 211.326Z" fill="#77B8E0"/>
<path opacity="0.24" d="M70.6516 214.2C70.129 215.895 69.154 217.399 67.8666 218.559C66.1395 220.12 63.8516 221.064 61.3406 221.064C55.9617 221.064 51.6025 216.705 51.6025 211.326C51.6025 211.001 51.6217 210.683 51.6535 210.364C51.9212 207.675 53.2787 205.304 55.2798 203.711C55.0567 213.996 63.5202 214.927 70.6516 214.2Z" fill="#77B8E0"/>
<path opacity="0.24" d="M67.8666 218.559C66.1395 220.12 63.8516 221.063 61.3406 221.063C55.9617 221.063 51.6025 216.705 51.6025 211.326C51.6025 211.001 51.6217 210.683 51.6535 210.364C53.4762 217.17 60.9709 219.388 67.8666 218.559Z" fill="#77B8E0"/>
<path d="M63.418 201.748C63.418 203.335 63.1822 204.871 62.7297 206.317C60.7795 212.639 54.8908 217.234 47.925 217.234C39.3724 217.234 32.4385 210.3 32.4385 201.748C32.4385 196.848 34.72 192.476 38.2762 189.647C40.921 187.531 44.2733 186.263 47.925 186.263C56.4841 186.263 63.418 193.196 63.418 201.748Z" fill="#77B8E0"/>
<path opacity="0.24" d="M62.736 206.317C61.9011 209.013 60.3525 211.403 58.3067 213.251C55.5599 215.73 51.9209 217.234 47.9314 217.234C39.3787 217.234 32.4448 210.3 32.4448 201.748C32.4448 201.232 32.4703 200.722 32.5213 200.219C32.9419 195.943 35.1024 192.177 38.2826 189.641C37.932 205.992 51.392 207.477 62.736 206.317Z" fill="#77B8E0"/>
<path opacity="0.24" d="M58.3067 213.251C55.5599 215.73 51.9209 217.234 47.9314 217.234C39.3787 217.234 32.4448 210.3 32.4448 201.748C32.4448 201.232 32.4703 200.722 32.5213 200.219C35.4147 211.033 47.3387 214.57 58.3067 213.251Z" fill="#77B8E0"/>
<path d="M106.933 318.066L107.092 317.958C107.175 318.085 107.284 318.2 107.424 318.289L158.128 347.558C158.268 347.641 158.421 347.686 158.574 347.692C158.765 347.698 158.956 347.654 159.122 347.558L172.021 339.956C172.385 339.739 172.537 339.35 172.486 338.981L172.499 338.974V330.314L165.935 334.743L158.568 330.486L121.438 309.055C121.139 308.877 120.756 308.877 120.45 309.055L115.824 311.732L106.952 308.928L106.933 318.066Z" fill="#D6EDFF"/>
<path d="M158.574 330.486V347.686C158.765 347.692 158.957 347.647 159.122 347.552L172.021 339.949C172.385 339.733 172.538 339.344 172.487 338.974L172.499 338.968V330.308L165.935 334.737L158.574 330.486Z" fill="#BBE0FD"/>
<path d="M172.021 331.232L159.129 338.834C158.823 339.013 158.44 339.019 158.134 338.841L107.437 309.572C106.78 309.189 106.78 308.24 107.437 307.864L120.47 300.338C120.775 300.159 121.151 300.159 121.457 300.338L172.021 329.53C172.665 329.906 172.671 330.85 172.021 331.232Z" fill="white"/>
<path d="M172.022 330.971L159.129 338.573C158.823 338.751 158.441 338.758 158.135 338.579L107.437 309.31C106.781 308.928 106.781 307.978 107.437 307.602L120.47 300.077C120.776 299.898 121.152 299.898 121.458 300.077L172.022 329.269C172.666 329.645 172.672 330.588 172.022 330.971Z" fill="white"/>
<path d="M126.9 296.992L127.059 296.884C127.142 297.011 127.25 297.126 127.391 297.215L178.095 326.484C178.235 326.567 178.388 326.612 178.541 326.618C178.732 326.624 178.923 326.58 179.089 326.484L191.988 318.882C192.351 318.665 192.504 318.276 192.46 317.907L192.472 317.901V309.24L185.908 313.669L178.541 309.412L141.418 287.975C141.118 287.797 140.736 287.797 140.43 287.975L135.803 290.652L126.932 287.848L126.9 296.992Z" fill="#D6EDFF"/>
<path d="M178.541 309.406V326.605C178.732 326.612 178.923 326.567 179.089 326.472L191.988 318.869C192.351 318.652 192.504 318.264 192.46 317.894L192.473 317.888V309.228L185.908 313.656L178.541 309.406Z" fill="#BBE0FD"/>
<path d="M191.988 310.158L179.095 317.76C178.789 317.939 178.407 317.945 178.101 317.767L127.403 288.498C126.747 288.115 126.747 287.166 127.403 286.79L140.436 279.264C140.742 279.085 141.118 279.085 141.424 279.264L191.988 308.456C192.638 308.832 192.638 309.776 191.988 310.158Z" fill="white"/>
<path d="M191.988 309.897L179.095 317.499C178.79 317.677 178.407 317.684 178.101 317.505L127.397 288.23C126.741 287.848 126.741 286.898 127.397 286.522L140.43 278.996C140.736 278.818 141.112 278.818 141.418 278.996L191.982 308.189C192.638 308.571 192.638 309.514 191.988 309.897Z" fill="white"/>
</svg>
