<svg width="427" height="401" viewBox="0 0 427 401" fill="none" xmlns="http://www.w3.org/2000/svg">
<g clip-path="url(#clip0_174_4350)">
<path opacity="0.22" d="M45.4329 293.338L250.998 174.844C253.332 173.496 256.208 173.496 258.542 174.831L376.564 242.391C381.616 245.282 381.641 252.543 376.608 255.471L332.927 280.888C327.926 283.797 327.919 291.014 332.915 293.936L357.843 308.49C362.914 311.449 362.819 318.799 357.672 321.626L214.899 400.062C212.578 401.34 209.759 401.309 207.463 399.98L45.4266 306.418C40.3868 303.508 40.3931 296.247 45.4329 293.338Z" fill="#15325C"/>
<path d="M426.999 258.538L426.81 258.412C426.715 258.557 426.589 258.695 426.425 258.796L367.518 292.746C367.354 292.84 367.178 292.891 367.001 292.897C366.781 292.91 366.553 292.853 366.364 292.74L351.377 283.923C350.955 283.671 350.778 283.224 350.835 282.796L350.822 282.79V272.745L358.448 277.877L367.008 272.94L410.145 248.078C410.499 247.876 410.934 247.876 411.293 248.078L416.674 251.182L426.98 247.927L426.999 258.538Z" fill="#D6EDFF"/>
<path d="M366.995 272.94V292.897C366.774 292.91 366.547 292.853 366.358 292.74L351.371 283.923C350.948 283.671 350.772 283.224 350.829 282.796L350.816 282.789V272.745L358.442 277.877L366.995 272.94Z" fill="#BBE0FD"/>
<path d="M351.371 273.816L366.352 282.632C366.705 282.84 367.153 282.846 367.506 282.638L426.413 248.682C427.176 248.241 427.176 247.139 426.413 246.699L411.268 237.97C410.915 237.769 410.473 237.769 410.12 237.97L351.371 271.832C350.62 272.273 350.614 273.368 351.371 273.816Z" fill="white"/>
<path d="M351.371 273.507L366.352 282.323C366.705 282.531 367.153 282.538 367.506 282.33L426.413 248.374C427.176 247.933 427.176 246.831 426.413 246.39L411.268 237.662C410.915 237.46 410.473 237.46 410.12 237.662L351.371 271.523C350.62 271.97 350.614 273.066 351.371 273.507Z" fill="white"/>
<path d="M403.794 234.085L403.604 233.959C403.51 234.104 403.384 234.242 403.22 234.343L344.313 268.293C344.149 268.387 343.972 268.438 343.796 268.444C343.575 268.456 343.348 268.4 343.159 268.286L328.172 259.47C327.749 259.218 327.573 258.771 327.629 258.343L327.617 258.336V248.292L335.243 253.424L343.802 248.487L386.94 223.624C387.293 223.423 387.728 223.423 388.088 223.624L393.468 226.729L403.775 223.473L403.794 234.085Z" fill="#D6EDFF"/>
<path d="M343.796 248.493V268.45C343.575 268.463 343.348 268.406 343.159 268.293L328.172 259.476C327.749 259.224 327.573 258.777 327.629 258.349L327.617 258.343V248.298L335.243 253.431L343.796 248.493Z" fill="#BBE0FD"/>
<path d="M328.172 249.362L343.152 258.179C343.506 258.387 343.953 258.393 344.307 258.185L403.213 224.229C403.977 223.788 403.977 222.686 403.213 222.245L388.069 213.517C387.716 213.315 387.274 213.315 386.921 213.517L328.172 247.379C327.421 247.819 327.415 248.915 328.172 249.362Z" fill="white"/>
<path d="M328.172 249.06L343.152 257.877C343.506 258.084 343.953 258.091 344.307 257.883L403.213 223.927C403.977 223.486 403.977 222.384 403.213 221.943L388.069 213.215C387.716 213.013 387.274 213.013 386.921 213.215L328.172 247.076C327.421 247.517 327.415 248.613 328.172 249.06Z" fill="white"/>
<path d="M380.361 180.978V206.155L380.336 206.136C380.153 208.46 378.916 210.708 376.608 212.05L332.928 237.466C327.919 240.382 327.913 247.586 332.909 250.521L346.659 258.55L351.642 247.687L361.533 249.488V270.698C361.589 271.252 361.596 271.813 361.533 272.38V272.43L361.526 272.424C361.287 274.722 360 276.939 357.666 278.205L346.356 284.421L344.18 285.604L341.556 287.053L338.491 288.747L214.9 356.659C213.045 357.679 210.85 357.862 208.876 357.213C208.39 357.05 207.917 356.842 207.463 356.577L123.256 307.954L120.197 306.185L117.567 304.667L115.403 303.408L45.433 263.009C43.4209 261.85 42.235 259.992 41.8187 257.996V257.99C41.6232 256.995 41.598 255.962 41.7935 254.967V254.942C41.7935 254.936 41.7998 254.936 41.7998 254.923L41.6484 232.302L54.5223 244.69L147.25 191.23L250.985 131.429C253.319 130.094 256.208 130.094 258.542 131.429L363.526 191.526L370.944 182.029L380.361 180.978Z" fill="#D6EDFF"/>
<path d="M208.882 191.224V357.213C208.396 357.05 207.923 356.842 207.469 356.577L123.263 307.954L120.203 306.185L117.573 304.667L115.41 303.408L45.433 263.009C43.4209 261.85 42.235 259.993 41.8187 257.996V257.99C41.6232 256.995 41.598 255.962 41.7935 254.967V254.942C41.7935 254.936 41.7998 254.936 41.7998 254.923L41.6484 232.302L54.5223 244.69L147.25 191.23H208.882V191.224Z" fill="#BBE0FD"/>
<path d="M45.4329 227.012L250.998 108.519C253.332 107.171 256.208 107.171 258.542 108.506L376.564 176.066C381.616 178.956 381.641 186.217 376.608 189.146L332.927 214.562C327.926 217.472 327.919 224.689 332.915 227.611L357.843 242.164C362.914 245.124 362.819 252.473 357.672 255.301L214.899 333.736C212.578 335.015 209.759 334.983 207.463 333.654L45.4266 240.092C40.3868 237.183 40.3931 229.922 45.4329 227.012Z" fill="white"/>
<path d="M307.729 282.462L308.038 305.209L330.152 293.054L329.843 270.314L307.729 282.462Z" fill="white"/>
<path d="M291.922 291.417V314.334L298.589 310.669V287.758L291.922 291.417Z" fill="white"/>
<path opacity="0.33" d="M178.385 169.655L131.576 196.3C130.504 196.91 130.498 198.447 131.57 199.064L168.905 220.652C169.719 221.124 170.715 221.124 171.529 220.652L218.495 193.579C219.397 193.063 219.397 191.759 218.495 191.243L180.997 169.661C180.189 169.195 179.193 169.195 178.385 169.655Z" fill="#15325C"/>
<path d="M186.951 162.299L161.569 177.029L158.996 175.814C159.242 175.398 159.589 175.045 160.017 174.794L182.775 161.569C183.52 161.134 184.422 161.096 185.197 161.462L186.951 162.299Z" fill="#A34B73"/>
<path d="M211.879 190.789V186.727L208.996 188.522L180.019 171.846C179.344 171.462 178.518 171.456 177.843 171.84L140.943 192.842L138.061 191.148V195.638L138.155 195.569C138.237 195.89 138.445 196.192 138.773 196.381L169.927 214.399C170.601 214.789 171.44 214.789 172.115 214.399L211.311 191.803C211.702 191.576 211.891 191.18 211.879 190.789Z" fill="#183561"/>
<path d="M177.824 167.432L138.761 189.668C137.865 190.178 137.865 191.463 138.755 191.973L169.908 209.99C170.583 210.381 171.422 210.381 172.097 209.99L211.292 187.395C212.043 186.96 212.043 185.877 211.292 185.443L180 167.432C179.325 167.054 178.499 167.048 177.824 167.432Z" fill="#D6EFFB"/>
<path d="M188.541 159.887L185.475 182.842L164.609 199.826L161.494 198.075C161.084 197.88 160.756 197.578 160.522 197.219C160.289 196.86 160.163 196.425 160.163 195.972L160.207 174.831C160.207 174.321 160.346 173.836 160.592 173.408C160.838 172.992 161.184 172.64 161.613 172.388L184.371 159.163C185.115 158.729 186.018 158.691 186.793 159.056L188.541 159.887Z" fill="#183561"/>
<path d="M191.108 158.924L191.038 184.498L164.471 199.82L164.49 174.384L191.108 158.924Z" fill="#3C6A9E"/>
<path d="M235.135 0.736801L241.297 4.04929L232.082 127.172L104.51 209.959L99.4517 207.238C98.1712 206.552 97.1368 205.538 96.4177 204.341C95.6987 203.139 95.3013 201.747 95.3013 200.298V82.554C95.3013 81.4708 95.5914 80.4254 96.1086 79.5186C96.6322 78.6118 97.3891 77.8372 98.3226 77.2893L229.092 0.843858C229.899 0.371545 230.782 0.100753 231.684 0.0188849C232.864 -0.0755777 234.062 0.15743 235.135 0.736801Z" fill="#A9D1EA"/>
<path d="M241.297 4.04929V132.128L104.51 209.959V84.0087L241.297 4.04929Z" fill="#D6EFFB"/>
<path d="M238.465 19.5726V122.247L222.273 131.46L217.41 134.225L184.169 153.143L165.757 163.615L136.85 180.071L108.762 196.054V95.3883L136.25 79.3234L151.136 70.6202L174.613 56.8979L202.859 40.3859L220.451 30.1021L233.293 22.5954L238.465 19.5726Z" fill="#183561"/>
<path opacity="0.33" d="M307.142 217.195L257.432 188.277C256.454 187.71 255.243 187.703 254.265 188.27L147.143 249.778C145.03 250.987 145.03 254.029 147.137 255.244L193.92 282.223C196.986 283.992 200.764 283.992 203.83 282.223L307.136 222.648C308.359 221.943 308.87 220.627 308.675 219.405C308.53 218.53 308.025 217.705 307.142 217.195Z" fill="#15325C"/>
<path d="M308.441 209.235L255.848 181.519L148.127 240.055C146.683 240.842 145.762 242.328 145.705 243.972L145.648 245.691C145.617 246.547 145.825 247.379 146.222 248.103C146.626 248.84 147.231 249.469 147.988 249.91L195.497 277.304C197.585 278.507 200.159 278.507 202.246 277.304L306.524 217.17C307.142 216.811 307.64 216.307 307.987 215.709C308.347 215.091 308.536 214.373 308.523 213.637L308.441 209.235Z" fill="#A9D1EA"/>
<path d="M307.142 207.956L257.432 179.038C256.454 178.471 255.243 178.465 254.265 179.032L147.143 240.54C145.03 241.749 145.03 244.79 147.137 246.006L193.92 272.984C196.986 274.754 200.764 274.754 203.83 272.984L307.136 213.41C308.359 212.705 308.87 211.388 308.675 210.167C308.53 209.291 308.025 208.466 307.142 207.956Z" fill="#D6EFFB"/>
<path d="M299.27 212.963L251.906 185.411L155.942 240.514L203.716 268.066L299.27 212.963Z" fill="#77B8E0"/>
<path d="M267.84 214.197L256.908 220.476L248.639 215.727L259.57 209.455L267.84 214.197Z" fill="#D6EDFF"/>
<path d="M277.868 219.959L266.937 226.232L258.668 221.483L269.599 215.211L277.868 219.959Z" fill="#D6EDFF"/>
<path d="M255.154 221.483L244.223 227.756L235.954 223.007L246.885 216.735L255.154 221.483Z" fill="#D6EDFF"/>
<path d="M245.126 215.727L234.201 222L225.932 217.251L236.856 210.979L245.126 215.727Z" fill="#D6EDFF"/>
<path d="M207.923 250.622L218.854 244.343L227.124 249.092L216.193 255.37L207.923 250.622Z" fill="#D6EDFF"/>
<path d="M220.608 243.336L256.908 222.491L265.177 227.239L228.877 248.084L220.608 243.336Z" fill="#D6EDFF"/>
<path d="M261.33 208.441L272.129 202.238L280.348 207.018L269.599 213.189L261.33 208.441Z" fill="#D6EDFF"/>
<path d="M197.9 244.866L208.825 238.587L217.094 243.336L206.17 249.614L197.9 244.866Z" fill="#D6EDFF"/>
<path d="M251.301 202.685L262.169 196.444L270.381 201.224L259.57 207.434L251.301 202.685Z" fill="#D6EDFF"/>
<path d="M232.441 223.014L221.516 229.286L213.247 224.538L224.172 218.265L232.441 223.014Z" fill="#D6EDFF"/>
<path d="M242.47 228.769L231.539 235.042L223.27 230.293L234.201 224.021L242.47 228.769Z" fill="#D6EDFF"/>
<path d="M200.556 231.824L211.487 225.545L219.757 230.293L208.825 236.572L200.556 231.824Z" fill="#D6EDFF"/>
<path d="M210.585 237.58L221.51 231.307L229.779 236.056L218.854 242.328L210.585 237.58Z" fill="#D6EDFF"/>
<path d="M185.209 252.146L196.141 245.874L204.41 250.622L193.479 256.894L185.209 252.146Z" fill="#D6EDFF"/>
<path d="M195.239 257.908L206.17 251.629L214.433 256.378L203.508 262.65L195.239 257.908Z" fill="#D6EDFF"/>
<path d="M175.187 246.39L186.112 240.118L194.381 244.866L183.456 251.138L175.187 246.39Z" fill="#D6EDFF"/>
<path d="M165.158 240.634L176.083 234.355L184.352 239.104L173.427 245.382L165.158 240.634Z" fill="#D6EDFF"/>
<path d="M279.622 218.945L271.353 214.197L282.094 208.032L290.307 212.812L279.622 218.945Z" fill="#D6EDFF"/>
<path d="M249.541 201.678L241.271 196.929L252.203 190.651L252.871 191.035L260.421 195.431L249.541 201.678Z" fill="#D6EDFF"/>
<path d="M177.842 233.348L188.773 227.075L197.043 231.824L186.112 238.096L177.842 233.348Z" fill="#D6EDFF"/>
<path d="M209.727 224.538L198.796 230.81L190.527 226.062L201.458 219.789L209.727 224.538Z" fill="#D6EDFF"/>
<path d="M187.872 239.104L198.796 232.831L207.066 237.58L196.141 243.852L187.872 239.104Z" fill="#D6EDFF"/>
<path d="M222.412 217.251L211.487 223.53L203.218 218.782L214.143 212.503L222.412 217.251Z" fill="#D6EDFF"/>
<path d="M247.787 202.685L236.856 208.958L228.587 204.209L239.518 197.937L247.787 202.685Z" fill="#D6EDFF"/>
<path d="M235.096 209.971L224.172 216.244L215.902 211.495L226.827 205.223L235.096 209.971Z" fill="#D6EDFF"/>
<path d="M257.81 208.441L246.885 214.72L238.616 209.971L249.541 203.693L257.81 208.441Z" fill="#D6EDFF"/>
<path d="M281.47 177.659C281.578 178.15 281.937 178.748 282.511 179.416C285.829 183.201 296.192 189.076 304.291 190.934C307.754 191.74 310.801 191.803 312.712 190.663C319.221 186.765 317.922 175.064 304.897 169.863C291.891 164.661 280.171 171.16 281.47 177.659Z" fill="#183561"/>
<path opacity="0.33" d="M282.511 179.416C285.829 183.201 296.192 189.076 304.291 190.934C299.025 178.66 288.175 178.515 282.511 179.416Z" fill="#15325C"/>
<path opacity="0.33" d="M296.375 171.047L284.801 170.839C291.506 168.131 296.375 171.047 296.375 171.047Z" fill="#15325C"/>
<path d="M207.539 85.0667L207.501 90.5644L169.567 112.505L169.8 106.856L207.539 85.0667Z" fill="#FEC400"/>
<path d="M188.553 130.906L188.521 136.404L150.587 158.344L150.814 152.696L188.553 130.906Z" fill="white"/>
<path d="M165.208 109.577V114.911L150.947 123.167V117.833L165.208 109.577Z" fill="#F02098"/>
<path d="M201.402 112.354V117.682L187.146 125.938V120.61L201.402 112.354Z" fill="#F02098"/>
<path d="M206.019 121.882V127.21L191.764 135.466V130.138L206.019 121.882Z" fill="white"/>
<path d="M222.538 112.354V117.682L208.277 125.938V120.61L222.538 112.354Z" fill="white"/>
<path d="M184.094 109.577L150.985 128.664V134.181L184.157 114.911L184.094 109.577Z" fill="white"/>
<path d="M184.094 121.189L150.985 140.271V145.794L184.157 126.517L184.094 121.189Z" fill="white"/>
<path opacity="0.33" d="M259.898 160.971C272.829 160.971 283.312 154.878 283.312 147.362C283.312 139.846 272.829 133.753 259.898 133.753C246.967 133.753 236.484 139.846 236.484 147.362C236.484 154.878 246.967 160.971 259.898 160.971Z" fill="#15325C"/>
<path d="M236.484 133.979C236.484 141.499 246.968 147.588 259.898 147.588C263.184 147.588 266.319 147.192 269.158 146.48C269.707 146.341 270.236 146.197 270.766 146.033C271.315 145.863 271.851 145.687 272.375 145.498C274.16 144.843 275.774 144.055 277.194 143.155C280.997 140.737 283.318 137.512 283.318 133.973V133.967H283.325V127.865H280.833C279.862 126.744 278.632 125.711 277.194 124.798C275.781 123.897 274.16 123.11 272.375 122.455C271.851 122.266 271.315 122.083 270.766 121.92C270.243 121.762 269.707 121.611 269.158 121.473C266.319 120.761 263.191 120.364 259.898 120.364C250.746 120.364 242.824 123.419 238.97 127.865H236.484V133.809C236.484 133.872 236.484 133.923 236.484 133.979Z" fill="#E8A302"/>
<path d="M259.926 142.67C272.857 142.645 283.328 136.531 283.313 129.015C283.298 121.499 272.803 115.427 259.872 115.452C246.941 115.478 236.47 121.592 236.485 129.108C236.5 136.624 246.995 142.696 259.926 142.67Z" fill="#FEC400"/>
<path d="M259.898 140.573C270.837 140.573 279.704 135.419 279.704 129.061C279.704 122.703 270.837 117.549 259.898 117.549C248.96 117.549 240.092 122.703 240.092 129.061C240.092 135.419 248.96 140.573 259.898 140.573Z" fill="#FFD561"/>
<path d="M255.805 137.569C255.029 137.569 254.348 137.009 254.222 136.215C254.083 135.34 254.682 134.521 255.559 134.382L261.873 133.381L259.69 120.849C259.539 119.98 260.126 119.149 260.996 118.998C261.866 118.847 262.699 119.432 262.85 120.301L265.594 136.039L256.063 137.55C255.969 137.563 255.887 137.569 255.805 137.569Z" fill="white"/>
<path opacity="0.33" d="M208.081 319.277C221.012 319.277 231.495 313.184 231.495 305.668C231.495 298.152 221.012 292.059 208.081 292.059C195.15 292.059 184.667 298.152 184.667 305.668C184.667 313.184 195.15 319.277 208.081 319.277Z" fill="#15325C"/>
<path d="M184.667 292.28C184.667 299.799 195.15 305.889 208.081 305.889C211.367 305.889 214.502 305.492 217.34 304.78C217.889 304.642 218.419 304.497 218.949 304.333C219.498 304.163 220.034 303.987 220.557 303.798C222.342 303.143 223.957 302.356 225.376 301.455C229.18 299.037 231.501 295.813 231.501 292.274V292.267H231.507V286.165H229.016C228.044 285.044 226.814 284.011 225.376 283.098C223.963 282.198 222.342 281.41 220.557 280.755C220.034 280.567 219.498 280.384 218.949 280.22C218.425 280.063 217.889 279.912 217.34 279.773C214.502 279.061 211.373 278.665 208.081 278.665C198.929 278.665 191.006 281.719 187.152 286.165H184.667V292.11C184.673 292.173 184.667 292.229 184.667 292.28Z" fill="#E8A302"/>
<path d="M208.108 300.971C221.04 300.945 231.51 294.832 231.495 287.316C231.48 279.8 220.986 273.728 208.054 273.753C195.123 273.779 184.653 279.892 184.668 287.408C184.683 294.924 195.177 300.997 208.108 300.971Z" fill="#FEC400"/>
<path d="M208.081 298.873C219.02 298.873 227.887 293.719 227.887 287.362C227.887 281.004 219.02 275.85 208.081 275.85C197.143 275.85 188.275 281.004 188.275 287.362C188.275 293.719 197.143 298.873 208.081 298.873Z" fill="#FFD561"/>
<path d="M203.987 295.876C203.212 295.876 202.53 295.315 202.404 294.522C202.265 293.646 202.865 292.828 203.741 292.689L210.055 291.688L207.873 279.156C207.722 278.281 208.308 277.456 209.179 277.304C210.049 277.153 210.882 277.739 211.033 278.608L213.777 294.345L204.246 295.857C204.151 295.869 204.069 295.876 203.987 295.876Z" fill="white"/>
<path d="M54.3774 187.344V224.714L56.6356 226.005L117.624 187.344L119.882 151.902L117.624 150.611L54.3774 187.344Z" fill="#183561"/>
<path d="M56.6357 188.629V226.005L119.882 188.629V151.902L56.6357 188.629Z" fill="#A9D1EA"/>
<path d="M73.9814 187.628L75.8548 186.532V183.239L73.9814 184.334L69.9508 186.69L62.5142 191.041V194.328L69.9508 189.983L73.9814 187.628Z" fill="#FEC400"/>
<path d="M73.5714 195.966V192.679L69.9508 194.794L62.5142 199.14V202.433L69.9508 198.082L73.5714 195.966Z" fill="white"/>
<path d="M69.9508 207.956L62.5142 212.308V215.595L69.9508 211.25L73.9814 208.895L79.6582 205.576V202.282L73.9814 205.601L69.9508 207.956Z" fill="#FEC400"/>
<path d="M84.9818 192.59L80.3331 195.305L73.9813 199.02L70.2725 201.186V204.48L73.9813 202.314L80.3331 198.598L84.9818 195.878V192.59Z" fill="white"/>
<path d="M69.257 201.778L62.5142 205.721V209.014L69.257 205.072V201.778Z" fill="white"/>
<path d="M74.5869 195.374L80.3331 192.017L87.978 187.546L91.6742 185.386V182.092L87.978 184.252L80.3331 188.724L74.5869 192.087V195.374Z" fill="#77B8E0"/>
<path d="M96.2157 179.441L92.8096 181.431V184.725L96.2157 182.728L114.615 172.293V169L96.2157 179.441Z" fill="white"/>
<path d="M85.9976 191.998V195.286L87.9781 194.127L92.7404 191.343L96.2159 189.316L102.442 185.783V182.489L96.2159 186.022L92.7404 188.05L87.9781 190.833L85.9976 191.998Z" fill="white"/>
<path d="M103.577 185.14L114.615 178.874V175.587L103.577 181.847V185.14Z" fill="white"/>
<path d="M99.0415 194.291L114.615 185.462V182.168L99.0415 191.003V194.291Z" fill="#77B8E0"/>
<path d="M92.7403 194.637L87.978 197.421L80.6738 201.69V204.984L87.978 200.708L92.7403 197.924L96.2158 195.897L97.9062 194.933V191.646L96.2158 192.603L92.7403 194.637Z" fill="white"/>
<path opacity="0.33" d="M77.3182 244.834L106.081 228.02C106.882 227.554 107.872 227.548 108.68 228.007L138.313 244.853C140.054 245.842 140.066 248.355 138.325 249.356L109.159 266.17C108.358 266.636 107.368 266.636 106.56 266.17L77.3371 249.325C75.6088 248.323 75.6025 245.836 77.3182 244.834Z" fill="#15325C"/>
<path d="M130.946 233.915L108.093 247.089L107.854 260.396L130.706 247.429L130.946 233.915Z" fill="#A9D1EA"/>
<path d="M85.2471 233.915L107.778 220.746L130.946 233.915L108.093 247.089L85.2471 233.915Z" fill="#BBE0FD"/>
<path d="M95.1372 233.915L107.677 226.584L120.576 233.915L107.853 241.245L95.1372 233.915Z" fill="#15325C"/>
<path d="M85.2471 247.429V233.915L108.093 247.089L107.854 260.396L85.2471 247.429Z" fill="#77B8E0"/>
<path d="M118.753 228.171C117.63 229.89 116.059 231.566 113.864 232.964C108.774 237.044 99.6155 236.049 97.042 231.137C97.042 231.137 92.7843 227.592 93.4592 221.483C94.5631 224.506 97.1807 226.332 97.5024 226.546C93.3079 222.969 95.9823 212.503 95.9823 212.503C95.9823 212.503 97.0104 217.245 101.255 220.791C101.255 220.791 99.9498 213.775 101.609 207.081C102.422 203.749 103.993 200.481 106.806 198.227C105.639 208.907 111.095 215.677 111.095 215.677C114.647 211.426 113.789 205.16 113.789 205.16C113.789 205.16 118.91 214.965 116.558 222.447C119.768 221.25 121.629 218.366 121.629 218.366C121.629 218.366 121.919 223.41 118.753 228.171Z" fill="#77B8E0"/>
<path opacity="0.33" d="M118.753 228.171C117.63 229.89 116.059 231.566 113.864 232.964C112.634 233.946 111.158 234.639 109.588 235.048C104.712 236.339 98.9973 234.847 97.042 231.137C97.042 231.137 92.7843 227.592 93.4592 221.483C94.5631 224.506 97.1807 226.332 97.5024 226.546C93.3079 222.969 95.9823 212.503 95.9823 212.503C95.9823 212.503 96.4112 214.468 97.843 216.804C98.6252 218.108 99.7353 219.537 101.255 220.797C101.255 220.797 99.9498 213.781 101.609 207.087C101.596 222.094 109.317 228.385 118.753 228.171Z" fill="#77B8E0"/>
<path opacity="0.33" d="M109.594 235.048C104.718 236.339 99.0037 234.847 97.0483 231.137C97.0483 231.137 92.7907 227.592 93.4656 221.483C94.5694 224.506 97.1871 226.332 97.5088 226.546C93.3142 222.969 95.9886 212.503 95.9886 212.503C95.9886 212.503 96.4176 214.468 97.8494 216.804C99.2749 227.541 105.318 232.699 109.594 235.048Z" fill="#77B8E0"/>
<path d="M104.151 223.53C104.731 224.424 105.545 225.293 106.687 226.017C109.33 228.133 114.079 227.617 115.416 225.073C115.416 225.073 117.624 223.234 117.277 220.066C116.703 221.634 115.347 222.585 115.177 222.692C117.353 220.835 115.965 215.406 115.965 215.406C115.965 215.406 115.429 217.868 113.228 219.707C113.228 219.707 113.909 216.067 113.045 212.597C112.622 210.872 111.808 209.172 110.351 208C110.957 213.542 108.125 217.056 108.125 217.056C106.283 214.852 106.731 211.602 106.731 211.602C106.731 211.602 104.075 216.691 105.293 220.57C103.627 219.947 102.662 218.454 102.662 218.454C102.662 218.454 102.511 221.061 104.151 223.53Z" fill="#77B8E0"/>
<path opacity="0.33" d="M104.151 223.53C104.731 224.424 105.545 225.293 106.687 226.017C107.324 226.528 108.093 226.887 108.907 227.101C111.436 227.768 114.401 227 115.416 225.073C115.416 225.073 117.624 223.234 117.277 220.066C116.703 221.634 115.347 222.585 115.177 222.692C117.353 220.835 115.965 215.406 115.965 215.406C115.965 215.406 115.744 216.426 115 217.635C114.59 218.316 114.016 219.052 113.228 219.707C113.228 219.707 113.909 216.067 113.045 212.597C113.057 220.375 109.052 223.643 104.151 223.53Z" fill="#77B8E0"/>
<path opacity="0.33" d="M108.907 227.101C111.436 227.768 114.401 227 115.416 225.073C115.416 225.073 117.624 223.234 117.277 220.066C116.703 221.634 115.347 222.585 115.177 222.692C117.353 220.835 115.965 215.406 115.965 215.406C115.965 215.406 115.744 216.426 115 217.636C114.262 223.203 111.121 225.879 108.907 227.101Z" fill="#77B8E0"/>
<path d="M87.7701 170.518H85.4805V155.038L132.876 127.342L134.03 129.313L87.7701 156.348V170.518Z" fill="#183561"/>
<path d="M224.992 108.179L224.26 106.894L256.41 88.6563V68.4161H257.892V89.5128L224.992 108.179Z" fill="#183561"/>
<path d="M313.721 66.0419C314.516 62.4398 316.358 59.7822 319.057 58.9257C321.971 58.0063 325.277 59.3855 328.159 62.3075C329.509 57.5151 332.177 54.02 335.937 52.8298C344.086 50.2604 354.273 59.5051 358.694 73.473C358.959 74.3168 359.199 75.1607 359.413 75.9983C363.772 77.3208 368.2 82.5162 370.42 89.5316C371.417 92.6867 371.839 95.7976 371.745 98.5937L372.212 98.8582C375.662 100.836 377.788 104.501 377.788 108.468C377.788 116.982 368.572 122.31 361.173 118.078L306.057 86.5151C302.607 84.5377 300.481 80.8726 300.481 76.9051C300.475 69.663 307.168 64.7257 313.721 66.0419Z" fill="white"/>
<path d="M46.8777 143.451C46.2974 140.812 44.9475 138.866 42.9733 138.243C40.8413 137.569 38.4255 138.577 36.3124 140.718C35.3221 137.21 33.3731 134.653 30.623 133.784C24.6623 131.901 17.2004 138.671 13.9709 148.892C13.7753 149.509 13.5987 150.126 13.4473 150.743C10.262 151.713 7.01988 155.517 5.39252 160.649C4.66084 162.961 4.35176 165.234 4.42115 167.281L4.08054 167.476C1.55749 168.918 -0.000488281 171.601 -0.000488281 174.51C-0.000488281 180.738 6.74235 184.643 12.1606 181.545L52.4978 158.445C55.0208 157.003 56.5788 154.32 56.5788 151.411C56.5725 146.102 51.6778 142.487 46.8777 143.451Z" fill="white"/>
<path d="M135.746 97.1453L138.71 95.4135V90.2055L135.746 91.9373L129.375 95.6591L117.605 102.542V107.75L129.375 100.867L135.746 97.1453Z" fill="#FEC400"/>
<path d="M135.096 110.339V105.131L129.375 108.481L117.605 115.358V120.566L129.375 113.689L135.096 110.339Z" fill="white"/>
<path d="M129.375 129.307L117.605 136.19V141.398L129.375 134.515L135.746 130.793L144.728 125.541V120.333L135.746 125.585L129.375 129.307Z" fill="#FEC400"/>
<path d="M153.154 104.992L145.8 109.293L135.745 115.169L129.879 118.595V123.803L135.745 120.377L145.8 114.501L153.154 110.2V104.992Z" fill="white"/>
<path d="M128.277 119.533L117.605 125.774V130.982L128.277 124.741V119.533Z" fill="white"/>
<path d="M231.117 35.8895V89.349L232.631 90.5581L278.31 62.465L279.824 10.2146L278.31 9.00543L231.117 35.8895Z" fill="#183561"/>
<path d="M279.824 10.2145V63.6741L232.63 90.5581V37.0986L279.824 10.2145Z" fill="#A9D1EA"/>
<path d="M279.824 10.2145V21.3926L232.63 48.2704V37.0986L279.824 10.2145Z" fill="#3C6A9E"/>
<path d="M276.55 31.3553L276.532 35.0771L250.891 49.9077L251.042 46.0852L276.55 31.3553Z" fill="#FEC400"/>
<path d="M263.721 62.339L263.696 66.0608L238.055 80.8914L238.213 77.0689L263.721 62.339Z" fill="#FEC400"/>
<path d="M247.939 47.924V51.5325L238.301 57.1121V53.5099L247.939 47.924Z" fill="#77B8E0"/>
<path d="M272.407 49.8007V53.4028L262.769 58.9824V55.3802L272.407 49.8007Z" fill="#77B8E0"/>
<path d="M275.529 56.243V59.8452L265.891 65.4248V61.8226L275.529 56.243Z" fill="white"/>
<path d="M260.706 47.924L238.326 60.8276V64.5557L260.75 51.5325L260.706 47.924Z" fill="white"/>
<path d="M260.706 55.7707L238.326 68.6743V72.4024L260.75 59.3792L260.706 55.7707Z" fill="white"/>
<path opacity="0.33" d="M293.348 282.506C308.125 282.506 320.105 275.539 320.105 266.945C320.105 258.351 308.125 251.384 293.348 251.384C278.57 251.384 266.591 258.351 266.591 266.945C266.591 275.539 278.57 282.506 293.348 282.506Z" fill="#15325C"/>
<path d="M276.941 266.221L283.457 268.658V272.512C283.457 273.394 282.984 274.212 282.214 274.653L281.842 274.867C281.079 275.302 280.133 275.302 279.376 274.855C277.124 273.538 272.469 270.799 271.245 269.88C269.612 268.658 270.022 264.187 276.941 266.221Z" fill="#183561"/>
<path d="M307.81 265.811L313.746 262.197L316.786 264.571C317.486 265.119 317.833 265.994 317.707 266.863L317.644 267.285C317.518 268.154 316.931 268.891 316.111 269.218C313.689 270.176 308.649 272.147 307.18 272.544C305.218 273.079 301.944 269.999 307.81 265.811Z" fill="#183561"/>
<path d="M301.244 200.783V236.345L315.594 262.153C315.594 262.153 312.768 267.846 308.574 266.214C307.066 264.18 290.559 241.32 289.846 237.051C289.134 232.781 283.432 212.868 283.432 212.868V200.777H301.244V200.783Z" fill="#15325C"/>
<path d="M277.736 200.783C277.736 200.783 272.747 222.119 273.459 234.922C274.172 247.725 274.904 264.59 275.717 267.436C278.159 271.498 284.044 269.061 284.044 269.061L283.943 234.922L295.542 200.783H277.736Z" fill="#15325C"/>
<path d="M288.043 154.805C290.471 153.955 292.963 154.679 295.259 161.204C297.555 167.728 300.172 179.403 300.172 179.403L300.721 201.426L295.555 201.967L292.527 180.254L286.125 164.176C286.125 164.182 283.18 156.512 288.043 154.805Z" fill="#EC69B9"/>
<path d="M272.513 214.455C272.513 214.455 270.463 215.236 270.142 216.691C269.814 218.146 271.744 217.787 271.744 217.787C271.8 222.359 273.339 222.069 273.339 222.069C276.254 222.724 276.582 221.269 276.582 221.269C277.484 219.707 276.519 214.512 276.519 214.512L272.513 214.455Z" fill="#F9BEAE"/>
<path d="M269.75 172.369L278.726 208.857C278.726 208.857 297.933 212.144 302.916 197.735L298.797 184.775L292.969 156.827C292.969 156.827 292.224 155.001 290.231 153.804C289.222 153.199 288.074 152.973 286.958 153.092C285.841 153.212 284.762 153.678 283.892 154.472L271.895 165.373C271.107 166.09 270.507 166.953 270.104 167.898C269.523 169.283 269.385 170.851 269.75 172.369Z" fill="#F02098"/>
<path d="M271.63 166.802C274.166 166.33 276.512 167.432 277.786 174.227C279.054 181.022 279.855 192.962 279.855 192.962L277.023 214.808L271.832 214.556L272.166 192.634L268.3 175.77C268.3 175.77 266.565 167.747 271.63 166.802Z" fill="#EC69B9"/>
<path d="M265.796 143.199C265.796 143.199 268.458 161.09 274.898 157.841C281.338 154.597 281.174 145.97 281.174 145.97L274.904 140.989L265.796 143.199Z" fill="#F9BEAE"/>
<path d="M275.636 153.445L276.721 160.882C276.721 160.882 282.341 161.204 284.012 158.156L282.467 151.789L275.636 153.445Z" fill="#F9BEAE"/>
<path d="M271.498 148.797C268.369 148.835 268.849 145.831 268.849 145.831C268.849 145.831 264.591 145.176 263.815 141.996C263.039 138.816 265.505 136.051 265.505 136.051L267.373 136.801C267.373 136.801 276.083 133.967 280.089 138.533C284.094 143.098 282.713 153.3 282.713 153.3L278.852 154.239L274.103 149.616L271.498 148.797Z" fill="#052754"/>
<path d="M270.198 150.233C270.545 151.65 271.977 152.526 273.396 152.179C274.816 151.833 275.692 150.403 275.345 148.986C274.998 147.569 273.567 146.694 272.147 147.04C270.728 147.387 269.851 148.816 270.198 150.233Z" fill="#F9BEAE"/>
</g>
<defs>
<clipPath id="clip0_174_4350">
<rect width="427" height="401" fill="white" transform="translate(-0.000488281)"/>
</clipPath>
</defs>
</svg>
