<svg width="428" height="344" viewBox="0 0 428 344" fill="none" xmlns="http://www.w3.org/2000/svg">
<g clip-path="url(#clip0_174_4521)">
<path opacity="0.22" d="M336.825 207.135L295.827 231.036C291.131 233.777 291.124 240.56 295.821 243.301L319.217 256.995C323.974 259.783 323.887 266.687 319.057 269.347L185.055 343.122C182.878 344.322 180.238 344.295 178.081 343.042L25.9891 255.051C21.2655 252.316 21.2655 245.48 25.9958 242.752L218.931 131.316C221.122 130.056 223.822 130.042 226.013 131.302L292.899 169.668L295.961 171.424L299.801 173.629L302.869 175.392L336.772 194.836C341.522 197.55 341.542 204.38 336.825 207.135Z" fill="#15325C"/>
<path d="M340.349 137.087V160.76L340.329 160.747C340.162 162.932 338.996 165.05 336.825 166.31L303.774 185.586L295.834 190.211C291.131 192.952 291.124 199.728 295.821 202.497L308.725 210.044L313.408 199.836L322.695 201.531V221.478C322.748 221.994 322.755 222.524 322.695 223.06V223.107L322.688 223.1C322.467 225.265 321.254 227.343 319.063 228.536L308.45 234.38L306.414 235.5L303.948 236.86L301.067 238.456L285.603 246.974L282.521 248.67L278.675 250.788L275.593 252.484L257.356 262.518L185.055 302.297C183.307 303.262 181.25 303.43 179.407 302.82C178.945 302.659 178.509 302.465 178.081 302.217L99.04 256.492L96.1656 254.83L93.9077 253.53L93.6933 253.409L91.6699 252.223L90.8324 251.74L86.9865 249.515L83.9045 247.739L25.9959 214.226C24.0997 213.14 22.9875 211.391 22.5989 209.514V209.507C22.4113 208.569 22.3912 207.597 22.5788 206.666V206.645C22.5788 206.639 22.5855 206.639 22.5855 206.632L22.4515 186.819V186.357C22.4448 186.35 22.4448 186.337 22.4515 186.323L22.4448 185.352L22.5319 185.439L34.5317 197.001L121.566 146.732L218.924 90.4841C221.115 89.2307 223.829 89.2307 226.013 90.4841L324.551 147L331.512 138.065L340.189 137.1L340.349 137.087Z" fill="#D6EDFF"/>
<path d="M179.407 146.718V302.82C178.945 302.659 178.509 302.465 178.081 302.217L99.04 256.492L96.1656 254.83L93.9077 253.529L93.6933 253.409L91.6699 252.222L90.8324 251.74L86.9865 249.515L83.9045 247.738L25.9959 214.226C24.0997 213.14 22.9875 211.391 22.5989 209.514V209.507C22.4113 208.569 22.3912 207.597 22.5788 206.665V206.645C22.5788 206.639 22.5855 206.639 22.5855 206.632L22.4515 186.819V186.357L22.4448 185.358L22.5319 185.445L34.5317 197.007L121.566 146.738H179.407V146.718Z" fill="#BBE0FD"/>
<path d="M336.826 144.754L295.828 168.656C291.131 171.397 291.124 178.18 295.821 180.921L319.218 194.614C323.975 197.403 323.888 204.306 319.057 206.967L185.056 280.742C182.878 281.941 180.238 281.915 178.081 280.661L25.9896 192.677C21.266 189.943 21.266 183.106 25.9963 180.378L218.931 68.9421C221.122 67.6821 223.822 67.6687 226.013 68.9287L292.9 107.294L295.962 109.05L299.801 111.255L302.87 113.018L336.772 132.462C341.522 135.176 341.542 142.006 336.826 144.754Z" fill="white"/>
<path d="M272.176 232.524L272.464 253.911L293.221 242.484L292.933 221.096L272.176 232.524Z" fill="white"/>
<path d="M257.342 240.942V262.491L263.593 259.052V237.504L257.342 240.942Z" fill="white"/>
<path d="M315.07 177.288V192.63L315.15 192.57C315.378 193.924 316.169 195.197 317.522 195.982L369.059 225.748C369.823 226.19 370.68 226.411 371.531 226.404C372.369 226.398 373.206 226.183 373.957 225.748L425.554 195.868C427.189 194.923 427.993 193.267 427.993 191.618V177.288L417.172 182.55L374.037 157.704C372.523 156.832 370.66 156.832 369.146 157.71L335.82 176.933L327.17 181.92L315.07 177.288Z" fill="#BBE0FD"/>
<path d="M315.07 177.288V192.63L315.15 192.57C315.378 193.924 316.169 195.197 317.522 195.982L369.059 225.748C369.823 226.19 370.68 226.411 371.531 226.404V207.932L335.827 176.94L327.177 181.926L315.07 177.288Z" fill="#D6EDFF"/>
<path d="M374.044 143.266L425.547 172.925C428.817 174.808 428.824 179.527 425.561 181.417L373.97 211.297C372.456 212.175 370.58 212.175 369.066 211.297L317.529 181.531C314.259 179.641 314.259 174.922 317.529 173.039L369.16 143.26C370.667 142.395 372.53 142.395 374.044 143.266Z" fill="white"/>
<path d="M374.044 142.804L425.547 172.463C428.817 174.346 428.824 179.065 425.561 180.955L373.97 210.834C372.456 211.712 370.58 211.712 369.066 210.834L317.529 181.069C314.259 179.178 314.259 174.46 317.529 172.576L369.16 142.797C370.667 141.933 372.53 141.933 374.044 142.804Z" fill="white"/>
<path d="M302.876 113.011L226.937 157.931L221.845 149.325L292.899 107.294L295.961 109.05L299.807 111.248L302.876 113.011Z" fill="#77B8E0"/>
<path d="M242.395 12.8286C243.138 9.43716 244.874 6.93712 247.406 6.13952C250.14 5.27489 253.242 6.56848 255.949 9.31651C257.215 4.81242 259.721 1.52148 263.245 0.408866C270.897 -2.01074 280.458 6.68242 284.605 19.8261C284.853 20.6237 285.081 21.4146 285.282 22.2055C289.369 23.4454 293.529 28.3383 295.613 34.9335C296.551 37.9027 296.947 40.8317 296.859 43.4591L297.295 43.7071C300.531 45.5637 302.528 49.0088 302.528 52.7421C302.528 60.7449 293.878 65.7584 286.937 61.7771L235.205 32.0984C231.969 30.2418 229.973 26.7967 229.973 23.0634C229.959 16.2335 236.244 11.5887 242.395 12.8286Z" fill="white"/>
<path d="M33.3926 95.2696C32.9772 93.3862 32.0191 91.9988 30.6121 91.5564C29.0912 91.0738 27.3693 91.7977 25.8685 93.3192C25.1649 90.8191 23.778 88.9894 21.8149 88.3727C17.5671 87.0322 12.2539 91.858 9.9491 99.1571C9.8084 99.5994 9.6878 100.042 9.5739 100.477C7.30258 101.168 4.99106 103.882 3.83865 107.549C3.31604 109.197 3.10164 110.826 3.14854 112.281L2.90734 112.421C1.11172 113.454 -0.000488281 115.37 -0.000488281 117.442C-0.000488281 121.885 4.80346 124.674 8.66269 122.462L37.3926 105.974C39.1882 104.941 40.3004 103.024 40.3004 100.953C40.3004 97.1664 36.8097 94.586 33.3926 95.2696Z" fill="white"/>
<path d="M179.95 228.375L89.4253 176.625L178.811 122.502L179.802 123.098L269.335 176.605L179.95 228.375ZM97.0165 176.531L179.936 223.931L261.744 176.551L178.824 126.999L97.0165 176.531Z" fill="#77B8E0"/>
<path d="M285.59 225.05V246.954L282.508 248.643L278.662 250.761L275.58 252.457V230.828L275.419 230.734L188.787 180.68L193.792 172.007L285.59 225.05Z" fill="#77B8E0"/>
<path d="M180.707 182.221L179.407 182.972L94.2492 232.175L93.9142 232.37V253.529L93.6998 253.402L91.6697 252.216L90.8322 251.733L86.9863 249.508L83.9043 247.732V226.592L84.2594 226.391L175.702 173.548L179.407 179.963L180.707 182.221Z" fill="#77B8E0"/>
<path d="M299.807 111.248L228.023 153.722L226.06 150.398L295.961 109.05L299.807 111.248Z" fill="#F1249A"/>
<path d="M282.508 226.827V248.643L278.662 250.761V229.045L278.575 228.998L192.988 179.554L194.918 176.223L282.508 226.827Z" fill="#FFD561"/>
<path d="M176.499 181.095L91.1739 230.386L90.8322 230.587V251.733L86.9863 249.508V228.368L87.328 228.167L174.576 177.764L176.499 181.095Z" fill="#F1249A"/>
<path opacity="0.39" d="M285.589 224.856L275.58 231.016V252.578L285.589 247.189V224.856Z" fill="#77B8E0"/>
<path opacity="0.39" d="M83.9043 226.398L93.9142 232.557V253.349L83.9043 247.96V226.398Z" fill="#77B8E0"/>
<path opacity="0.33" d="M327.854 173.776L368.443 150.002C369.575 149.339 370.968 149.332 372.107 149.982L413.929 173.803C416.388 175.204 416.402 178.749 413.949 180.17L372.784 203.944C371.652 204.601 370.252 204.601 369.119 203.944L327.874 180.123C325.442 178.709 325.428 175.197 327.854 173.776Z" fill="#15325C"/>
<path d="M403.537 158.334L371.29 176.96L370.955 195.781L403.202 177.442L403.537 158.334Z" fill="#A9D1EA"/>
<path d="M339.042 158.334L370.841 139.714L403.537 158.334L371.29 176.96L339.042 158.334Z" fill="#BBE0FD"/>
<path d="M353.005 158.334L370.7 147.972L388.904 158.334L370.955 168.702L353.005 158.334Z" fill="#15325C"/>
<path d="M339.042 177.442V158.334L371.29 176.96L370.955 195.781L339.042 177.442Z" fill="#77B8E0"/>
<path d="M374.533 130.062H365.655V157.147H374.533V130.062Z" fill="#15325C"/>
<path d="M370.098 143.387L385.635 126.952L387.411 130.062L370.982 147.824" fill="#15325C"/>
<path d="M402.499 124.955C402.499 126.342 402.292 127.683 401.903 128.95C400.201 134.479 395.049 138.494 388.965 138.494C381.488 138.494 375.424 132.428 375.424 124.948C375.424 120.665 377.414 116.838 380.53 114.365C382.841 112.515 385.769 111.409 388.965 111.409C396.436 111.409 402.499 117.475 402.499 124.955Z" fill="#77B8E0"/>
<path opacity="0.24" d="M401.903 128.95C401.173 131.309 399.819 133.393 398.03 135.009C395.632 137.174 392.449 138.494 388.958 138.494C381.481 138.494 375.417 132.428 375.417 124.948C375.417 124.492 375.438 124.05 375.484 123.614C375.853 119.874 377.742 116.584 380.523 114.365C380.221 128.668 391.987 129.962 401.903 128.95Z" fill="#77B8E0"/>
<path opacity="0.24" d="M398.03 135.015C395.632 137.18 392.449 138.501 388.958 138.501C381.481 138.501 375.417 132.435 375.417 124.955C375.417 124.499 375.438 124.057 375.484 123.621C378.017 133.078 388.442 136.168 398.03 135.015Z" fill="#77B8E0"/>
<path d="M391.846 111.637C391.846 113.849 391.518 115.98 390.895 117.991C388.181 126.785 379.994 133.172 370.319 133.172C358.433 133.172 348.792 123.527 348.792 111.637C348.792 104.821 351.961 98.7415 356.912 94.8004C360.59 91.858 365.247 90.0952 370.325 90.0952C382.205 90.0952 391.846 99.7401 391.846 111.637Z" fill="#77B8E0"/>
<path opacity="0.24" d="M390.895 117.991C389.736 121.738 387.585 125.062 384.737 127.629C380.918 131.074 375.866 133.172 370.319 133.172C358.433 133.172 348.792 123.527 348.792 111.637C348.792 110.92 348.825 110.21 348.899 109.512C349.482 103.567 352.483 98.326 356.912 94.8071C356.416 117.535 375.123 119.6 390.895 117.991Z" fill="#77B8E0"/>
<path opacity="0.24" d="M384.737 127.629C380.918 131.074 375.866 133.172 370.319 133.172C358.433 133.172 348.792 123.527 348.792 111.637C348.792 110.92 348.825 110.21 348.899 109.512C352.919 124.546 369.495 129.466 384.737 127.629Z" fill="#77B8E0"/>
<path opacity="0.33" d="M68.5414 200.988C82.414 200.988 93.6599 194.438 93.6599 186.357C93.6599 178.276 82.414 171.725 68.5414 171.725C54.6688 171.725 43.4229 178.276 43.4229 186.357C43.4229 194.438 54.6688 200.988 68.5414 200.988Z" fill="#15325C"/>
<path d="M111.415 61.2142C111.415 61.2142 111.301 58.9085 112.56 57.9768C113.82 57.0452 114.296 59.0559 114.296 59.0559C118.725 57.1658 119.1 58.7744 119.1 58.7744C120.962 61.3013 119.703 62.2396 119.703 62.2396C118.577 63.7745 113.157 65.048 113.157 65.048L111.415 61.2142Z" fill="#F9BEAE"/>
<path d="M111.194 59.9138L93.5256 71.536C93.5256 71.536 77.9144 70.1888 71.335 71.5829L73.7403 78.9088L74.5577 81.4088C74.5577 81.4088 94.5909 81.0804 96.889 79.3042C99.0531 77.6152 112.929 66.3616 114.47 65.0949C114.483 65.0748 114.497 65.0614 114.517 65.0614C114.544 65.0479 114.557 65.0278 114.57 65.0144C114.604 64.9943 114.617 64.9809 114.617 64.9809L111.194 59.9138Z" fill="#23477C"/>
<path d="M84.2261 184.735C84.7219 183.113 78.9062 178.803 78.9062 178.803L71.5897 177.684C69.7673 180.941 69.8477 182.107 71.2145 182.992C80.8492 187.825 82.9664 186.692 82.9664 186.692C82.9664 186.692 83.7303 186.357 84.2261 184.735Z" fill="#15325C"/>
<path d="M70.1694 192.322C70.6652 190.7 64.8496 186.39 64.8496 186.39L57.5331 185.271C55.7107 188.528 55.7911 189.695 57.1579 190.579C66.7926 195.412 68.9098 194.279 68.9098 194.279C68.9098 194.279 69.6736 193.944 70.1694 192.322Z" fill="#15325C"/>
<path d="M79.1673 114.667L80.3599 145.244L79.0869 179.018C79.0869 179.018 77.3582 180.988 70.4572 179.996L69.01 150.901L61.0503 106.222L79.1673 114.667Z" fill="#F1249A"/>
<path d="M69.0905 120.357L65.1308 186.397C65.1308 186.397 63.4022 188.368 56.5011 187.382L53.0171 120.35H69.0905V120.357Z" fill="#F1249A"/>
<path d="M51.4897 86.5697V122.743C51.4897 122.743 70.2432 131.135 79.898 117.435L79.094 76.4087C79.094 76.4087 78.7858 74.3577 77.0438 72.6352C76.1661 71.7638 75.0472 71.2477 73.8747 71.0936C72.7021 70.9394 71.4827 71.1539 70.3973 71.7437L55.4227 79.9275C54.4378 80.4637 53.607 81.201 52.9638 82.0723C52.0258 83.3525 51.4897 84.9209 51.4897 86.5697Z" fill="#15325C"/>
<path d="M79.7439 96.3755C79.7439 96.3755 79.63 94.0699 80.8896 93.1382C82.1559 92.2066 82.6249 94.2173 82.6249 94.2173C87.0537 92.3272 87.4289 93.9358 87.4289 93.9358C89.2915 96.4627 88.0319 97.401 88.0319 97.401C86.9063 98.9359 81.4859 100.209 81.4859 100.209L79.7439 96.3755Z" fill="#F9BEAE"/>
<path d="M54.6654 81.1809C60.079 80.8927 60.2934 89.5456 60.2934 89.5456L61.4056 102.408L79.2546 95.2964L81.8408 100.115C81.8408 100.115 70.8259 106.59 62.8462 111.148C58.9065 113.4 53.9217 111.134 53.0239 106.691C51.791 100.591 50.3639 93.1047 50.2098 90.3097C49.8212 83.0375 51.9585 81.3283 54.6654 81.1809Z" fill="#23477C"/>
<path d="M69.2579 77.9972C69.2579 77.9972 63.5829 79.7197 61.124 77.0052V62.635L62.263 63.7878L68.5209 70.1016L69.0837 76.1406L69.2579 77.9972Z" fill="#F9BEAE"/>
<path d="M69.0838 76.1406C64.8427 74.4917 62.3369 70.8925 62.2632 63.7811L68.521 70.0949L69.0838 76.1406Z" fill="#F9BEAE"/>
<path d="M72.3805 55.5571C72.3805 55.5571 79.0739 73.4059 71.4894 73.7008C63.9049 73.9958 59.6504 65.9594 59.6504 65.9594L62.8731 58.1644L72.3805 55.5571Z" fill="#F9BEAE"/>
<path d="M73.8006 52.588C70.1826 48.6201 66.3166 52.588 66.3166 52.588C57.821 53.0571 49.0305 63.0238 61.1241 70.5842V68.7209L62.3703 67.0989C64.99 66.5426 63.8845 61.9246 63.8845 61.9246C73.5661 62.5077 77.4186 56.5559 73.8006 52.588Z" fill="#052754"/>
<path d="M62.9532 65.6512C64.032 66.6901 64.2866 68.1781 63.5227 68.9757C62.7589 69.7733 61.2581 69.5789 60.1794 68.54C59.1007 67.5011 58.8461 66.0132 59.6099 65.2156C60.3804 64.418 61.8745 64.619 62.9532 65.6512Z" fill="#F9BEAE"/>
<path opacity="0.33" d="M211.594 260.835L211.407 260.942L181.015 278.503L180.821 278.389L150.436 260.835L159.696 255.406L180.586 243.174L202.207 255.486L211.407 260.728L211.594 260.835Z" fill="#15325C"/>
<path d="M181.015 257.886L180.821 268.543L180.694 275.728L150.436 258.335V250.989L159.696 245.567L181.015 257.886Z" fill="#183561"/>
<path d="M211.406 250.882V251.103L211.279 258.335L180.693 275.728L180.821 268.543L181.015 257.886L202.207 245.641L211.406 250.882Z" fill="#23477C"/>
<path d="M211.594 250.989L211.407 251.103L181.015 268.657L180.821 268.543L150.436 250.989L159.696 245.567L180.586 233.328L202.207 245.641L211.407 250.882L211.594 250.989Z" fill="#3C6A9E"/>
<path d="M160.111 250.962L180.62 238.945L201.819 251.023L181.015 263.04L160.111 250.962Z" fill="#FFD561"/>
<path d="M162.872 250.956L180.633 240.553L199.025 251.029L181.015 261.432L162.872 250.956Z" fill="#5B95D3"/>
<path d="M176.841 250.982L180.874 248.623L185.055 251.003L180.961 253.362L176.841 250.982Z" fill="#BBE0FD"/>
<path d="M180.633 241.941L197.812 251.726L199.025 251.029L180.633 240.553L162.872 250.956L164.071 251.646L180.633 241.941Z" fill="#183561"/>
<path opacity="0.33" d="M259.339 156.135L263.252 158.508L266.629 156.577C267.265 156.785 267.948 156.946 268.659 157.067V159.339H273.396V157.147C274.307 157.026 275.171 156.839 275.968 156.577L279.526 158.615L283.439 156.242L279.875 154.225C280.551 153.454 280.933 152.583 280.933 151.658C280.933 150.706 280.524 149.808 279.808 149.024L283.225 147.067L279.312 144.801L275.915 146.725C275.205 146.497 274.448 146.323 273.644 146.209V143.977H268.9V146.209C268.109 146.329 267.352 146.497 266.649 146.725L263.439 144.902L259.526 147.167L262.763 149.017C262.046 149.801 261.637 150.699 261.637 151.651C261.637 152.576 262.019 153.447 262.702 154.218L259.339 156.135ZM268.203 151.651C268.203 150.652 269.59 149.841 271.305 149.841C273.02 149.841 274.407 150.652 274.407 151.651C274.407 152.65 273.02 153.461 271.305 153.461C269.59 153.461 268.203 152.65 268.203 151.651Z" fill="#15325C"/>
<path d="M259.339 152.449L262.716 150.532C262.039 149.761 261.65 148.89 261.65 147.965C261.65 147.489 261.704 144.922 261.704 144.922C261.704 144.922 262.414 145.726 262.776 145.331L259.54 143.481L263.453 141.215L266.662 143.038C268.036 142.603 269.617 142.348 271.292 142.348C272.973 142.348 274.548 142.596 275.922 143.038L279.318 141.115L283.231 143.38L279.814 145.337C280.169 145.726 280.967 144.721 280.967 144.721C280.967 144.721 280.94 147.489 280.94 147.971C280.94 148.896 280.558 149.768 279.881 150.538L283.446 152.556L279.533 154.929L275.975 152.891C274.588 153.34 273 153.595 271.298 153.595C269.603 153.595 268.015 153.34 266.629 152.891L263.252 154.821L259.339 152.449Z" fill="#E8A302"/>
<path d="M273.349 152.449H268.612V155.539H273.349V152.449Z" fill="#FEC400"/>
<path d="M263.252 151.624V154.821L259.339 152.449V149.252L263.252 151.624Z" fill="#FEC400"/>
<path d="M259.546 140.284V143.481L261.912 144.821L263.252 141.933L259.546 140.284Z" fill="#FEC400"/>
<path d="M279.533 151.725V154.922L283.452 152.549V149.352L279.533 151.725Z" fill="#FEC400"/>
<path d="M283.245 140.183V143.374L280.726 144.821L279.64 142.14L283.245 140.183Z" fill="#FEC400"/>
<path d="M259.339 149.252L263.252 151.624L266.629 149.694C267.265 149.902 267.948 150.063 268.659 150.183V152.455H273.396V150.264C274.307 150.143 275.171 149.955 275.968 149.694L279.526 151.732L283.439 149.359L279.875 147.341C280.551 146.571 280.933 145.699 280.933 144.774C280.933 143.823 280.524 142.924 279.808 142.14L283.225 140.183L279.312 137.918L275.915 139.841C275.205 139.613 274.448 139.439 273.644 139.325V137.093H268.9V139.325C268.109 139.446 267.352 139.613 266.649 139.841L263.439 138.018L259.526 140.284L262.763 142.134C262.046 142.918 261.637 143.816 261.637 144.768C261.637 145.693 262.019 146.564 262.702 147.335L259.339 149.252ZM268.203 144.768C268.203 143.769 269.59 142.958 271.305 142.958C273.02 142.958 274.407 143.769 274.407 144.768C274.407 145.766 273.02 146.577 271.305 146.577C269.59 146.577 268.203 145.766 268.203 144.768Z" fill="#FFD561"/>
<path opacity="0.33" d="M282.917 154.862L289.422 158.803L295.037 155.592C296.096 155.934 297.228 156.209 298.414 156.403V160.177H306.293V156.537C307.807 156.343 309.248 156.021 310.568 155.592L316.484 158.977L322.99 155.036L317.073 151.678C318.199 150.398 318.836 148.95 318.836 147.415C318.836 145.833 318.159 144.345 316.966 143.038L322.648 139.788L316.142 136.021L310.501 139.225C309.321 138.849 308.055 138.554 306.722 138.36V134.654H298.843V138.367C297.523 138.561 296.27 138.849 295.104 139.225L289.764 136.195L283.258 139.962L288.632 143.038C287.439 144.345 286.762 145.833 286.762 147.422C286.762 148.957 287.399 150.411 288.524 151.685L282.917 154.862ZM297.65 147.415C297.65 145.76 299.955 144.412 302.802 144.412C305.65 144.412 307.955 145.76 307.955 147.415C307.955 149.071 305.65 150.418 302.802 150.418C299.955 150.418 297.65 149.071 297.65 147.415Z" fill="#15325C"/>
<path d="M282.917 148.736L288.531 145.552C287.406 144.272 286.769 142.824 286.769 141.289C286.769 140.498 286.863 136.229 286.863 136.229C286.863 136.229 288.042 137.562 288.638 136.906L283.265 133.829L289.771 130.062L295.111 133.092C297.395 132.361 300.015 131.946 302.802 131.946C305.59 131.946 308.216 132.361 310.501 133.092L316.142 129.888L322.648 133.655L316.966 136.906C317.556 137.556 318.876 135.88 318.876 135.88C318.876 135.88 318.829 140.485 318.829 141.282C318.829 142.817 318.192 144.265 317.067 145.545L322.983 148.903L316.477 152.844L310.561 149.459C308.263 150.203 305.61 150.626 302.796 150.626C299.982 150.626 297.335 150.203 295.037 149.459L289.422 152.67L282.917 148.736Z" fill="#E8A302"/>
<path d="M306.213 148.736H298.333V153.876H306.213V148.736Z" fill="#FEC400"/>
<path d="M289.429 147.368V152.677L282.917 148.736V143.427L289.429 147.368Z" fill="#FEC400"/>
<path d="M283.258 128.521V133.829L287.198 136.061L289.429 131.262L283.258 128.521Z" fill="#FEC400"/>
<path d="M316.484 147.536V152.851L322.99 148.91V143.595L316.484 147.536Z" fill="#FEC400"/>
<path d="M322.648 128.347V133.662L318.461 136.061L316.658 131.604L322.648 128.347Z" fill="#FEC400"/>
<path d="M282.917 143.427L289.422 147.368L295.037 144.158C296.096 144.5 297.228 144.774 298.414 144.969V148.742H306.293V145.103C307.807 144.908 309.248 144.587 310.568 144.158L316.484 147.543L322.99 143.601L317.073 140.244C318.199 138.963 318.836 137.516 318.836 135.981C318.836 134.399 318.159 132.911 316.966 131.604L322.648 128.353L316.142 124.586L310.501 127.79C309.321 127.415 308.055 127.12 306.722 126.926V123.219H298.843V126.932C297.523 127.127 296.27 127.415 295.104 127.79L289.764 124.761L283.258 128.528L288.632 131.604C287.439 132.911 286.762 134.399 286.762 135.987C286.762 137.522 287.399 138.977 288.524 140.25L282.917 143.427ZM297.65 135.981C297.65 134.325 299.955 132.978 302.802 132.978C305.65 132.978 307.955 134.325 307.955 135.981C307.955 137.636 305.65 138.983 302.802 138.983C299.955 138.977 297.65 137.636 297.65 135.981Z" fill="#FFD561"/>
<path opacity="0.33" d="M234.522 114.774L240.137 118.172L244.981 115.404C245.892 115.699 246.87 115.933 247.895 116.101V119.352H254.689V116.208C255.996 116.041 257.235 115.759 258.374 115.391L263.48 118.313L269.094 114.915L263.989 112.019C264.96 110.92 265.51 109.667 265.51 108.346C265.51 106.979 264.927 105.699 263.902 104.573L268.799 101.771L263.185 98.5203L258.321 101.282C257.309 100.96 256.21 100.705 255.064 100.538V97.3407H248.27V100.545C247.131 100.712 246.053 100.96 245.048 101.282L240.445 98.6678L234.83 101.919L239.467 104.573C238.435 105.699 237.852 106.986 237.852 108.353C237.852 109.68 238.401 110.927 239.373 112.033L234.522 114.774ZM247.219 108.353C247.219 106.925 249.208 105.766 251.661 105.766C254.113 105.766 256.103 106.925 256.103 108.353C256.103 109.781 254.113 110.94 251.661 110.94C249.208 110.94 247.219 109.781 247.219 108.353Z" fill="#15325C"/>
<path d="M234.522 110.571L239.359 107.823C238.388 106.718 237.839 105.471 237.839 104.144C237.839 103.46 237.919 99.7804 237.919 99.7804C237.919 99.7804 238.937 100.927 239.453 100.364L234.817 97.7093L240.431 94.4586L245.034 97.0726C247.004 96.4426 249.262 96.0873 251.667 96.0873C254.073 96.0873 256.337 96.4426 258.307 97.0726L263.171 94.3112L268.786 97.5619L263.888 100.364C264.398 100.92 265.537 99.4788 265.537 99.4788C265.537 99.4788 265.496 103.447 265.496 104.137C265.496 105.464 264.947 106.711 263.975 107.81L269.081 110.706L263.466 114.104L258.361 111.181C256.378 111.825 254.093 112.187 251.661 112.187C249.235 112.187 246.951 111.825 244.967 111.181L240.123 113.95L234.522 110.571Z" fill="#E8A302"/>
<path d="M254.609 110.572H247.815V115.002H254.609V110.572Z" fill="#FEC400"/>
<path d="M240.13 109.392V113.97L234.522 110.571V105.994L240.13 109.392Z" fill="#FEC400"/>
<path d="M234.817 93.1383V97.7161L238.214 99.6397L240.13 95.5043L234.817 93.1383Z" fill="#FEC400"/>
<path d="M263.466 109.539V114.117L269.081 110.719V106.141L263.466 109.539Z" fill="#FEC400"/>
<path d="M268.786 92.9908V97.5687L265.175 99.6397L263.614 95.7992L268.786 92.9908Z" fill="#FEC400"/>
<path d="M234.522 105.994L240.137 109.392L244.981 106.624C245.892 106.919 246.87 107.153 247.895 107.321V110.571H254.689V107.428C255.996 107.26 257.235 106.979 258.374 106.61L263.48 109.533L269.094 106.134L263.989 103.239C264.96 102.14 265.51 100.886 265.51 99.566C265.51 98.1986 264.927 96.9185 263.902 95.7924L268.799 92.9908L263.185 89.7401L258.321 92.5015C257.309 92.1798 256.21 91.9251 255.064 91.7575V88.5604H248.27V91.7642C247.131 91.9318 246.053 92.1798 245.048 92.5015L240.445 89.8875L234.83 93.1382L239.467 95.7924C238.435 96.9185 237.852 98.2053 237.852 99.5727C237.852 100.9 238.401 102.146 239.373 103.252L234.522 105.994ZM247.219 99.566C247.219 98.1383 249.208 96.9788 251.661 96.9788C254.113 96.9788 256.103 98.1383 256.103 99.566C256.103 100.994 254.113 102.153 251.661 102.153C249.208 102.16 247.219 101 247.219 99.566Z" fill="#FFD561"/>
<path d="M118.604 67.6686L179.782 102.636L240.157 67.6686L178.985 31.1064L118.604 67.6686Z" fill="#5B95D3"/>
<path opacity="0.33" d="M120.534 183.656L176.037 217.255C177.511 218.147 179.353 218.16 180.834 217.289L238.039 183.649C239.574 182.744 240.344 181.189 240.351 179.627C240.358 178.066 239.594 176.497 238.066 175.586L181.37 141.705C179.883 140.813 178.027 140.82 176.539 141.718L120.527 175.633C117.519 177.456 117.519 181.833 120.534 183.656Z" fill="#15325C"/>
<path d="M178.985 102.636V210.727L240.156 174.165V66.871L178.985 102.636Z" fill="#23477C"/>
<path d="M186.134 198.12V106.744L233.007 79.3376V170.11L186.134 198.12ZM187.722 107.656V195.318L231.42 169.205V82.1058L187.722 107.656Z" fill="#052754"/>
<path d="M118.604 66.871V174.165L178.985 210.727V102.636L118.604 66.871Z" fill="#3C6A9E"/>
<path d="M125.063 169.781V83.1112C125.063 81.9115 125.639 80.9061 126.483 80.2827C127.555 79.4918 129.056 79.3109 130.363 80.0817L170.798 104.036C171.87 104.667 172.52 105.819 172.52 107.059V194.259C172.52 197 169.525 198.683 167.186 197.268L126.751 172.784C125.706 172.147 125.063 171.008 125.063 169.781Z" fill="#23477C"/>
<path d="M132.219 170.405C131.167 169.768 130.523 168.629 130.523 167.395V80.7251C130.523 80.5642 130.537 80.4101 130.557 80.2559L130.269 80.0884C128.962 79.3109 127.455 79.4985 126.383 80.2894C125.539 80.9128 124.962 81.9114 124.962 83.1179V169.788C124.962 171.021 125.606 172.161 126.658 172.798L167.092 197.282C169.297 198.616 172.077 197.201 172.399 194.742L132.219 170.405Z" fill="#052754"/>
<path d="M172.627 111.067L132.902 87.5349V101.047L172.627 124.58V111.067Z" fill="#5B95D3"/>
<path d="M172.627 127.757L132.902 104.224V117.736L172.627 141.269V127.757Z" fill="#5B95D3"/>
<path d="M172.627 144.446L132.902 120.913V134.426L172.627 157.958V144.446Z" fill="#5B95D3"/>
<path d="M172.627 161.135L132.902 137.609V151.115L172.627 174.647V161.135Z" fill="#5B95D3"/>
<path d="M172.627 177.824L132.902 154.299V167.811L172.627 191.337V177.824Z" fill="#5B95D3"/>
<path d="M139.723 93.8955V102.77L165.813 118.219V109.345L139.723 93.8955Z" fill="#D6EFFB"/>
<path d="M139.723 119.459L165.813 134.908V126.034L139.723 110.585V119.459Z" fill="#D6EFFB"/>
<path d="M139.723 136.148L165.813 151.597V142.723L139.723 127.274V136.148Z" fill="#D6EFFB"/>
<path d="M139.723 152.837L165.813 168.287V159.419L139.723 143.963V152.837Z" fill="#D6EFFB"/>
<path d="M139.723 169.527L165.813 184.976V176.109L139.723 160.653V169.527Z" fill="#D6EFFB"/>
</g>
<defs>
<clipPath id="clip0_174_4521">
<rect width="428" height="344" fill="white" transform="translate(-0.000488281)"/>
</clipPath>
</defs>
</svg>
