<svg width="620" height="461" viewBox="0 0 620 461" fill="none" xmlns="http://www.w3.org/2000/svg">
<path opacity="0.22" d="M524.285 279.67L469.923 311.336C463.695 314.968 463.687 323.954 469.914 327.586L500.938 345.728C507.245 349.422 507.13 358.568 500.725 362.093L323.042 459.834C320.155 461.423 316.654 461.388 313.793 459.727L112.124 343.152C105.86 339.529 105.86 330.472 112.133 326.858L367.96 179.221C370.865 177.552 374.445 177.534 377.351 179.203L466.041 230.032L470.101 232.358L475.191 235.28L479.26 237.615L524.214 263.376C530.513 266.972 530.54 276.021 524.285 279.67Z" fill="#15325C"/>
<path d="M329.299 384.976L329.194 419.392L0 229.18L0.105157 194.764L329.299 384.976Z" fill="#77B1FF"/>
<path d="M656.312 194.764L329.299 384.976L0.10498 194.764L327.117 4.552L656.312 194.764Z" fill="#A1C4F8"/>
<path d="M556.255 181.555L456.435 239.6L249.854 120.221L349.648 62.1763L556.255 181.555Z" fill="#9C98D8"/>
<path d="M22.9512 190.764L92.2234 229.338L194.094 170.451L125.926 132.377L22.9512 190.764Z" fill="#9C98D8"/>
<path d="M50.0537 132.772L50.2377 192.212L91.4593 216.103L91.3016 156.664L50.0537 132.772Z" fill="#B2C5D8"/>
<path d="M91.3022 156.663L91.46 216.103L140.752 187.738L140.568 128.298L91.3022 156.663Z" fill="#D2D2D8"/>
<path d="M50.0537 132.772L91.3016 156.663L140.568 128.299L99.3461 104.381L50.0537 132.772Z" fill="white"/>
<path d="M91.3022 156.663L91.3285 173.503L140.568 145.717V128.298L91.3022 156.663Z" fill="#EBEBED"/>
<path d="M91.3022 186.291L91.3285 203.131L140.568 175.345V157.9L91.3022 186.291Z" fill="#EBEBED"/>
<path d="M123.505 146.139V148.033L108.521 156.664V154.769L123.505 146.139Z" fill="white"/>
<path d="M123.505 161.873V163.768L108.521 172.398V170.53L123.505 161.873Z" fill="white"/>
<path d="M123.505 177.634V179.502L108.521 188.133V186.265L123.505 177.634Z" fill="white"/>
<path d="M123.505 191.528V193.396L108.521 202.026V200.132L123.505 191.528Z" fill="white"/>
<g opacity="0.1">
<path d="M93.9054 131.22C97.1127 133.062 97.1127 136.035 93.958 137.877C90.777 139.719 85.6243 139.719 82.417 137.877C79.2097 136.035 79.2097 133.062 82.3644 131.22C85.5454 129.378 90.7244 129.351 93.9054 131.22Z" fill="black"/>
</g>
<path d="M92.5381 130.536C94.983 131.93 94.983 134.219 92.5644 135.614C90.1721 137.008 86.2287 137.008 83.8101 135.614C81.3915 134.219 81.3652 131.956 83.7838 130.562C86.1761 129.167 90.0932 129.167 92.5381 130.536Z" fill="#FF8183"/>
<path d="M79.998 123.326L81.9697 133.404H94.3257L96.3237 123.089L79.998 123.326Z" fill="#FF8183"/>
<path d="M93.9049 119.748C97.1122 121.59 97.1122 124.563 93.9575 126.405C90.7765 128.247 85.6238 128.247 82.4165 126.405C79.2092 124.563 79.2092 121.59 82.3639 119.748C85.5449 117.906 90.7239 117.906 93.9049 119.748Z" fill="#FFA4A9"/>
<path d="M92.1433 120.642C94.4831 121.984 94.4831 124.168 92.1696 125.509C89.8562 126.851 86.0705 126.851 83.7308 125.509C81.391 124.168 81.391 121.984 83.7045 120.642C86.0179 119.3 89.8036 119.3 92.1433 120.642Z" fill="#7BB83F"/>
<path d="M82.0753 123.694C82.0753 123.694 76.055 116.116 81.9701 102.46C81.9701 102.46 87.1754 108.985 84.1784 125.746C84.2047 125.746 83.048 125.325 82.0753 123.694Z" fill="#7BB83F"/>
<path d="M82.0488 102.539C82.154 107.802 82.4695 116.932 83.1793 125.063C83.7576 125.589 84.2045 125.747 84.2045 125.747C86.9649 110.117 82.6535 103.408 82.0488 102.539Z" fill="#608F33"/>
<path d="M85.0457 122.774C85.0457 122.774 80.2085 114.38 88.1215 101.75C88.1215 101.75 92.2752 108.986 86.8334 125.115C86.8071 125.115 85.7292 124.51 85.0457 122.774Z" fill="#7BB83F"/>
<path d="M88.0956 101.75C87.4121 106.96 85.9399 116.038 85.4404 124.194C85.9136 124.773 86.3343 125.01 86.3343 125.01C92.486 111.985 88.5688 102.671 88.0956 101.75Z" fill="#608F33"/>
<path d="M85.3346 126.088C85.3346 126.088 78.1313 123.536 76.3174 111.958C76.3174 111.958 82.5479 114.142 87.5955 126.562C87.6218 126.562 86.6754 126.772 85.3346 126.088Z" fill="#7BB83F"/>
<path d="M76.4229 111.984C78.71 115.458 82.7586 121.404 86.6757 126.535C87.254 126.64 87.6221 126.561 87.6221 126.561C82.89 114.984 77.1852 112.3 76.4229 111.984Z" fill="#608F33"/>
<path d="M88.5427 124.958C88.5427 124.958 84.6781 120.563 87.8328 112.144C87.8328 112.144 91.1716 115.933 89.8834 126.142C89.8834 126.142 89.1736 125.905 88.5427 124.958Z" fill="#7BB83F"/>
<path d="M87.8848 112.196C88.1214 115.353 88.5683 120.879 89.2518 125.746C89.6199 126.036 89.8827 126.141 89.8827 126.141C91.0921 116.616 88.2791 112.695 87.8848 112.196Z" fill="#608F33"/>
<path d="M90.2502 122.142C90.2502 122.142 86.5434 115.459 92.9317 105.618C92.9317 105.618 96.1127 111.38 91.6172 124.037C91.6435 124.01 90.8022 123.51 90.2502 122.142Z" fill="#7BB83F"/>
<path d="M92.9851 105.697C92.3805 109.801 91.4078 116.932 90.9346 123.352C91.3026 123.826 91.6181 124.01 91.6181 124.01C95.8244 112.222 93.3532 106.407 92.9851 105.697Z" fill="#608F33"/>
<path d="M91.1974 123.379C91.1974 123.379 90.3298 117.748 97.3228 112.459C97.3228 112.459 98.0852 117.3 91.6706 125.036C91.6969 125.063 91.2237 124.484 91.1974 123.379Z" fill="#7BB83F"/>
<path d="M97.3485 112.538C95.8763 115.275 93.3788 120.011 91.3809 124.405C91.5123 124.826 91.6963 125.063 91.6963 125.063C97.664 117.853 97.4011 113.143 97.3485 112.538Z" fill="#608F33"/>
<path d="M363.87 22.0496C363.87 22.0496 284.555 53.9664 291.732 128.536L364.054 86.7516L363.87 22.0496Z" fill="#FFC729"/>
<path d="M377.751 31.1529L363.871 22.0488C363.871 22.0488 325.068 38.2309 306.902 68.2796C306.902 68.2796 288.657 89.6978 291.707 128.535L305.587 137.613L377.751 31.1529Z" fill="#FFC729"/>
<path d="M377.752 31.1533C377.752 31.1533 298.437 63.0702 305.614 137.639L377.936 95.8553L377.752 31.1533Z" fill="#FF9D26"/>
<path d="M501.758 89.1989L516.48 80.6211L516.27 151.112L501.548 159.69L501.758 89.1989Z" fill="#FFCBAD"/>
<path d="M362.241 8.57782L376.963 0L516.48 80.621L501.758 89.1988L362.241 8.57782Z" fill="#FFFAF5"/>
<path d="M501.76 89.1988L501.549 159.69L362.032 79.0686L362.243 8.57788L501.76 89.1988Z" fill="#FBE8D3"/>
<path d="M515.324 145.928L515.245 170.53L439.243 214.735L439.322 190.159L515.324 145.928Z" fill="#A2336E"/>
<path d="M439.322 190.159L439.243 214.735L302.933 135.956L302.986 111.38L439.322 190.159Z" fill="#FF9D26"/>
<path d="M515.298 154.48L439.322 190.159L302.985 111.38L361.19 63.7288L515.298 154.48Z" fill="#FFC729"/>
<path d="M512.038 133.429L512.011 148.611L436.298 192.658L436.351 177.449L512.038 133.429Z" fill="#FFCBAD"/>
<path d="M436.351 177.45L436.298 192.658L300.514 114.195L300.54 98.9863L436.351 177.45Z" fill="#FBE8D3"/>
<path d="M506.437 145.822L436.35 177.45L300.54 98.9862L362.03 62.5173L506.437 145.822Z" fill="#FFFAF5"/>
<path d="M525.732 117.353L511.851 108.275C511.851 108.275 473.048 124.457 454.882 154.506C454.882 154.506 436.664 175.924 439.713 214.787L453.594 223.865L525.732 117.353Z" fill="#FFC729"/>
<path d="M525.732 117.353C525.732 117.353 446.418 149.27 453.568 223.839L525.916 182.055L525.732 117.353Z" fill="#FF9D26"/>
<path d="M287.762 205.315C304.929 215.235 305.008 231.312 287.972 241.258C270.911 251.177 243.175 251.177 225.982 241.258C208.815 231.338 208.71 215.261 225.772 205.315C242.86 195.395 270.595 195.395 287.762 205.315Z" fill="#9C98D8"/>
<path d="M234.185 201.289C234.185 201.289 227.376 206.314 229.9 208.998C232.397 211.708 235.473 213.392 237.892 218.734C240.31 224.075 250.379 230.653 252.246 227.259C254.086 223.891 252.982 219.576 248.697 211.945C244.385 204.341 234.185 201.289 234.185 201.289Z" fill="#6E4827"/>
<path d="M237.365 211.288C240.178 213.366 247.171 214.892 249.984 213.13C249.984 213.13 269.359 187.607 272.961 176.898C277.562 163.294 284.739 117.511 281.926 106.38C280.322 100.013 276.431 115.669 258.16 113.511C243.28 111.748 258.502 164.215 255.531 167.109C250.615 171.898 232.134 202.157 232.134 202.157C231.766 204.499 234.342 209.051 237.365 211.288Z" fill="#0B141A"/>
<path d="M258.187 113.537C243.307 111.774 258.528 164.241 255.558 167.135C250.642 171.924 232.16 202.183 232.16 202.183C231.766 204.499 234.342 209.051 237.365 211.287C237.523 211.419 237.707 211.524 237.865 211.629C240.336 208.446 245.988 200.052 258.371 178.002C277.641 143.717 274.565 112.353 274.565 112.353L270.963 111.774C267.782 113.248 263.628 114.195 258.187 113.537Z" fill="#0B141A"/>
<path d="M264.39 227.864C264.39 227.864 260.841 235.548 264.337 236.705C267.834 237.837 271.33 237.863 276.036 241.363C280.742 244.862 292.73 245.73 292.73 241.889C292.73 238.047 289.654 234.811 282.214 230.206C274.8 225.601 264.39 227.864 264.39 227.864Z" fill="#6E4827"/>
<path d="M270.673 233.048C266.913 233.154 262.865 233.39 259.868 232.101C259.868 232.101 256.844 184.318 256.292 174.556C255.767 165.294 224.666 125.405 240.124 111.328C251.797 100.724 273.722 108.196 273.722 108.196C273.722 108.196 263.417 122.668 262.917 128.378C261.971 139.64 274.248 162.295 275.063 171.899C276.482 188.844 281.215 228.049 281.215 228.049C278.139 230.575 274.721 232.943 270.673 233.048Z" fill="#1D2A36"/>
<path d="M275.038 171.898C274.223 162.294 261.946 139.639 262.892 128.377C263.208 124.667 267.677 117.247 270.779 112.511L257.74 111.853C257.74 111.853 251.062 134.192 256.872 146.796C262.393 158.742 276.51 204.657 272.409 232.864C275.695 232.232 278.587 230.206 281.19 228.048C281.19 228.022 276.458 188.843 275.038 171.898Z" fill="#263744"/>
<path d="M304.088 100.539C304.088 100.539 310.791 106.723 311.974 112.959C313.184 119.195 310.187 120.274 310.187 120.274C310.187 120.274 310.187 120.274 307.637 115.985C305.087 111.669 300.328 107.407 298.646 106.96C296.963 106.512 304.088 100.539 304.088 100.539Z" fill="#E6A376"/>
<path d="M305.401 108.512C305.401 108.512 306.269 112.932 305.138 116.142C304.034 119.326 303.903 118.747 303.482 118.431C303.035 118.116 303.771 115.248 302.194 109.459C300.59 103.67 305.401 108.512 305.401 108.512Z" fill="#E6A376"/>
<path d="M271.594 36.1268C260.395 41.205 277.614 79.279 283.897 87.9357C283.897 87.9357 288.235 87.4095 293.966 80.0946C293.966 80.0946 284.502 30.2591 271.594 36.1268Z" fill="#0B141A"/>
<path d="M283.897 87.9355L299.539 109.354C299.539 109.354 304.481 109.012 307.452 103.091L293.282 78.8052L283.897 87.9355Z" fill="#0B141A"/>
<path d="M250.852 40.5731C248.907 41.3624 246.83 42.757 243.465 44.7304C238.996 47.3617 234.29 51.2822 233.633 52.0189C232.739 53.0451 229.584 55.5448 236.314 69.9639C236.314 69.9639 247.119 86.0934 241.625 101.591C238.549 110.222 238.549 110.222 238.549 110.222C238.549 110.222 247.592 125.562 268.072 117.142C272.225 115.432 279.77 112.327 279.876 107.801C279.876 107.801 277.483 91.7768 280.217 75.8579C282.583 62.1229 281.059 39.5206 271.936 37.1262C271.936 37.1262 266.573 34.1002 250.852 40.5731Z" fill="#EAEAEA"/>
<path d="M233.633 52.0193C232.739 53.0455 229.584 55.5452 236.314 69.9643C236.314 69.9643 247.119 86.0938 241.625 101.592C238.549 110.222 238.549 110.222 238.549 110.222C238.549 110.222 242.098 116.221 249.748 118.668C256.531 99.592 250.642 69.7012 249.511 58.7027C248.723 50.9142 243.938 47.6252 240.994 46.3096C237.392 48.704 234.185 51.3878 233.633 52.0193Z" fill="#D8D8D8"/>
<path d="M244.306 44.231C240.126 46.2571 229.663 51.4406 232.029 58.2292C234.868 66.3333 243.701 87.4095 241.44 95.119C239.179 102.855 235.683 121.352 235.683 121.352C235.683 121.352 244.201 133.851 263.471 125.668C263.471 125.668 274.013 91.7511 261.262 50.8354L252.666 39.3895C252.666 39.3632 246.488 43.1785 244.306 44.231Z" fill="#0C2937"/>
<path d="M244.306 44.231C240.126 46.2571 229.663 51.4406 232.029 58.2292C234.868 66.3334 243.307 87.3043 241.44 95.119C238.338 108.17 234.815 120.958 234.815 120.958C234.815 120.958 244.174 133.851 263.471 125.668C263.471 125.668 274.013 91.7511 261.262 50.8354L252.666 39.3895C252.666 39.3632 246.488 43.1785 244.306 44.231Z" fill="#0B141A"/>
<path d="M270.99 48.1776C270.99 48.1776 277.01 107.775 273.304 119.405C273.304 119.405 279.245 118.379 283.688 113.116C283.688 113.116 281.979 83.3835 282.926 74.6478C283.898 65.9121 284.424 33.7321 268.94 33.9163C253.482 34.1005 270.99 48.1776 270.99 48.1776Z" fill="#1D2A36"/>
<path d="M260.579 49.9141C260.579 49.9141 270.753 72.4638 267.072 104.275L255.899 66.1225L258.712 62.3335C258.712 62.3335 249.143 45.099 244.306 44.2043L253.165 39.0471C253.165 39.0471 259.501 47.2039 260.579 49.9141Z" fill="#263744"/>
<path d="M274.46 99.5655L279.008 64.4122L275.775 59.597L271.437 34.4425C271.437 34.4425 267.993 32.5743 265.916 32.7059C263.787 32.89 276.537 76.9369 274.46 99.5655Z" fill="#263744"/>
<path d="M247.382 27.4697C247.382 27.4697 253.691 34.6267 250.3 40.5206C248.407 43.8097 254.795 50.1246 263.97 48.2565C263.97 48.2565 267.966 46.6777 267.335 45.2305C265.916 41.9678 266.994 39.8628 268.124 37.0474C269.202 34.2846 247.382 27.4697 247.382 27.4697Z" fill="#E6A376"/>
<path d="M250.299 40.5209C250.063 40.9155 249.958 41.3629 249.984 41.8102C252.981 37.8107 259.58 36.6003 259.58 36.6003L249.458 28.1278C249.09 27.9962 248.775 27.8909 248.485 27.812L248.354 28.7329C249.958 31.0221 252.823 36.1267 250.299 40.5209Z" fill="#DD9569"/>
<path d="M244.831 23.3126C244.831 23.3126 248.538 33.4428 256.346 37.1792C263.313 40.4682 271.094 42.2048 271.41 34.4427C271.646 28.2593 272.488 12.4719 266.73 10.1301C259.29 7.10417 256.109 2.55214 248.564 6.57793C248.591 6.55162 240.099 11.9983 244.831 23.3126Z" fill="#EFB185"/>
<path d="M244.831 23.3124C244.831 23.3124 246.908 32.1533 256.372 37.3106C258.396 38.4157 260.894 39.1787 262.839 39.705C259.159 37.6789 258.712 36.9685 255.689 34.3109C252.665 31.6534 259.29 31.9165 253.822 24.8122C251.956 22.3915 258.475 20.2075 260.132 19.9444C269.885 18.3131 269.753 15.2871 269.622 12.8664C269.254 11.8665 268.781 13.0506 268.307 12.2086L267.151 10.5772C267.019 10.4194 266.888 10.2615 266.756 10.1562C265.495 8.94587 264.285 7.946 263.076 7.104C258.922 7.76181 247.039 9.68261 246.803 9.78786C246.619 9.78786 244.989 12.8664 243.438 15.7871C243.254 17.9447 243.622 20.418 244.831 23.3124Z" fill="#E6A376"/>
<path d="M250.72 33.337C250.747 32.5476 245.489 27.2851 247.04 25.1538C248.749 22.7857 253.297 29.8901 253.586 30.2847C253.901 30.6531 253.796 28.1271 252.902 26.3379C251.903 24.3119 251.693 21.7859 253.007 20.2071C254.19 18.8126 257.95 18.9178 260.184 18.8389C258.213 17.918 254.506 18.0232 252.771 15.1552C250.457 11.3136 247.776 9.76114 245.357 9.36646C234.263 18.5495 250.72 33.337 250.72 33.337Z" fill="#704827"/>
<path d="M260.185 18.8395C260.185 18.8395 253.139 18.4185 249.721 12.8403C249.012 11.6563 247.224 9.73548 245.042 9.81442C245.042 9.81442 246.146 2.89428 256.688 3.92046C260.868 4.31514 266.363 7.68312 267.335 8.47249C273.487 13.4981 265.758 18.4712 260.185 18.8395Z" fill="#714B29"/>
<path d="M251.088 38.468C251.088 38.468 251.193 46.4143 266.02 47.1774L264.075 53.6239C264.075 53.6239 251.877 55.7026 247.171 42.5201L251.088 38.468Z" fill="#F9F8F8"/>
<path d="M266.021 47.1514C266.021 47.1514 266.678 45.6516 266.415 42.573C266.362 41.8889 266.389 41.0732 266.651 40.4944L266.835 39.8629L268.334 39.5471C268.334 39.5471 273.592 45.4148 272.041 50.6509L266.021 47.1514Z" fill="#F9F8F8"/>
<path d="M265.758 52.6502C265.758 52.6502 267.256 58.36 266.809 67.0694L272.908 104.696L270.569 66.1221L267.914 52.0977L265.758 52.6502Z" fill="#C66C02"/>
<path d="M265.599 46.7043L264.653 50.7828L265.757 52.6509L267.913 52.1247L268.386 48.7567L265.599 46.7043Z" fill="#C66C02"/>
<path d="M239.364 48.1509C239.364 48.1509 248.092 46.7301 245.252 60.7545C242.387 74.8053 235.262 89.3034 235.262 89.3034C235.262 89.3034 229.4 117.379 229.794 122.457C229.794 122.457 229.794 124.536 231.319 126.956C231.845 127.825 232.449 129.088 232.16 132.271C232.055 133.35 232.16 135.297 232.975 136.534C233.764 137.771 232.502 138.692 231.819 138.271C230.977 137.771 229.426 135.981 229.4 133.061C229.4 133.061 226.482 135.955 227.928 142.586C228.191 143.796 226.403 143.48 223.459 139.481C222.959 138.797 220.987 134.403 222.433 129.088C223.511 125.036 223.327 123.167 223.301 119.484C223.275 115.8 221.645 96.092 225.246 79.9099C227.06 71.5163 231.976 47.8089 239.364 48.1509Z" fill="#E6A376"/>
<path d="M241.257 47.3088C229.163 45.0459 221.408 86.0931 221.618 96.7759C221.618 96.7759 225.457 98.8283 234.342 96.1445C234.342 96.1708 255.19 49.94 241.257 47.3088Z" fill="#1D2A36"/>
<path d="M221.592 96.8023L222.118 123.351C222.118 123.351 226.35 125.93 232.186 122.773L234.526 94.7236L221.592 96.8023Z" fill="#1D2A36"/>
<path d="M415.74 89.7514C415.74 89.7514 414.557 81.0684 402.412 87.8569C390.266 94.6455 378.856 105.591 378.856 105.591C378.856 105.591 354.591 119.3 349.78 120.405C349.78 120.405 347.861 121.01 345.206 120.274C344.233 120.011 342.919 119.826 340.053 121.01C339.081 121.405 337.267 121.879 335.9 121.484C334.533 121.089 334.033 122.563 334.612 123.089C335.321 123.747 337.398 124.668 340.106 123.852C340.106 123.852 339.081 125.115 332.798 127.062C330.142 127.878 329.906 130.378 334.427 132.009C335.216 132.298 341.263 132.193 345.758 129.325C349.202 127.115 350.963 126.773 354.381 125.694C357.799 124.642 376.464 120.458 390.397 112.354C397.627 108.17 418.159 96.6189 415.74 89.7514Z" fill="#E6A376"/>
<path d="M415.951 87.7249C421.498 98.4866 385.771 117.747 375.833 120.668C375.833 120.668 372.836 117.642 372.784 108.459C372.784 108.433 409.589 75.3055 415.951 87.7249Z" fill="#1D2A36"/>
<path d="M375.832 120.668L351.173 127.904C351.173 127.904 347.598 124.668 348.833 118.221L374.071 107.88L375.832 120.668Z" fill="#29252D"/>
<path d="M355.615 258.834C340.131 267.78 340.052 282.305 355.431 291.251C370.81 300.197 395.838 300.197 411.322 291.251C426.807 282.305 426.886 267.807 411.506 258.86C396.127 249.888 371.1 249.888 355.615 258.834Z" fill="#9C98D8"/>
<path d="M396.706 257.282C396.706 257.282 392.263 257.94 393.341 260.519C394.419 263.071 399.519 266.991 400.202 268.597C400.886 270.228 405.04 275.99 406.38 275.464C407.721 274.938 411.218 275.727 410.823 269.149C410.429 262.545 402.621 257.019 396.706 257.282Z" fill="#111114"/>
<path d="M409.141 151.375C409.141 151.375 418.92 162.557 415.003 181.713C411.086 200.842 412.427 227.68 412.427 227.68C412.427 227.68 415.766 261.965 413.11 268.201C413.11 268.201 405.118 273.28 397.389 266.833L391.711 203.289L389.397 156.611C389.397 156.611 404.566 155.637 409.141 151.375Z" fill="#1E1B21"/>
<path d="M391.711 203.289L389.897 166.689H404.619C404.619 166.689 406.749 190.843 404.619 198.606C402.937 204.736 402.306 250.283 402.122 269.465C400.571 268.965 398.994 268.149 397.39 266.833L391.711 203.289Z" fill="#0E0C0F"/>
<path d="M388.978 281.147C388.978 281.147 391.133 287.488 385.744 288.962C380.355 290.435 381.985 287.067 370.286 290.041C358.587 293.014 357.509 286.962 357.509 285.594C357.483 282.436 365.58 281.831 368.13 281.147C370.68 280.463 375.807 277.937 375.807 277.937L389.425 279.253L388.978 281.147Z" fill="#111114"/>
<path d="M399.072 153.217C399.072 153.217 406.485 159.321 395.917 193.843L390.239 281.437C390.239 281.437 382.326 286.752 371.573 279.016C371.573 279.016 369.418 209.973 370.653 196.132C371.889 182.266 371.915 165.715 374.807 161.795C374.912 161.611 393.262 158.085 399.072 153.217Z" fill="#221F26"/>
<path d="M390.239 281.41C390.239 281.41 387.058 284.068 381.616 283.331C382.746 268.886 385.033 237.232 385.007 220.603C384.954 198.606 389.397 171.741 389.397 171.741H401.017C403.83 179.029 398.756 184.555 395.917 193.817L390.239 281.41Z" fill="#2E2B33"/>
<path d="M412.558 84.6995C412.558 84.6995 420.786 85.252 417.106 100.355C413.452 115.459 411.848 131.799 412.558 137.245C413.268 142.692 416.58 157.006 418 160.663C418 160.663 419.498 172.03 392.972 181.424C392.972 181.424 370.731 183.555 373.255 168.294C375.753 153.006 375.306 128.667 374.281 122.958C373.282 117.248 368.97 105.986 382.483 97.0663C395.996 88.1464 403.488 84.8573 412.558 84.6995Z" fill="#29252D"/>
<path d="M374.282 122.958C375.281 128.694 375.754 153.006 373.257 168.294C371.522 178.898 381.643 181.687 388.005 181.476C389.53 174.635 387.716 161.084 391.291 146.086C395.708 127.562 391.344 116.064 387.505 106.697C385.008 100.619 381.327 100.75 378.646 100.092C369.892 108.407 373.388 117.879 374.282 122.958Z" fill="#1E1B21"/>
<path d="M404.961 77.8847C404.961 77.8847 403.751 85.3311 406.065 90.1199C408.168 94.4614 390.764 97.5663 390.528 93.6195C390.501 93.1985 394.077 86.9098 390.239 79.095C388.241 74.9903 404.961 77.8847 404.961 77.8847Z" fill="#EFB185"/>
<path d="M405.986 90.3566C404.277 86.7781 404.487 81.7788 404.698 79.437L391.842 85.252V85.2783C392.289 85.4099 400.702 87.9885 402.279 94.3298C404.908 93.3562 406.748 91.9354 405.986 90.3566Z" fill="#DD9569"/>
<path d="M387.662 57.2029C387.662 57.2029 384.691 63.8599 384.981 69.7275C385.27 76.0425 384.323 77.2792 384.586 80.0946C384.691 81.3049 384.718 83.0942 385.796 84.2782C387.636 86.2253 391.527 87.12 396.916 85.357C403.436 83.252 410.586 74.5164 408.194 66.3069C405.749 58.0712 397.599 51.0195 387.662 57.2029Z" fill="#EFB185"/>
<path d="M407.51 75.0694C405.249 67.6494 399.229 58.6242 399.308 58.1506C399.334 57.8612 397.283 56.414 394.944 54.8616C392.683 54.8879 390.212 55.5983 387.662 57.2034C387.662 57.2034 386.873 58.9926 386.137 61.5186C387.583 63.3341 390.632 65.4654 391.027 66.9652C391.973 70.4911 391.132 75.7799 390.001 78.069C388.871 80.3582 392.867 83.963 391.894 85.989C391.841 86.0943 391.841 86.1732 391.841 86.2785C393.314 86.2259 394.996 85.9627 396.863 85.3575C401.043 84.0156 405.486 79.9635 407.51 75.0694Z" fill="#E6A376"/>
<path d="M385.874 54.3347C385.874 54.3347 384.691 60.0971 390.186 63.1756C393.498 65.0175 392.946 70.5431 392.736 71.5693C392.525 72.5954 391.342 77.2264 391.71 77.8316C392.447 79.0156 395.26 75.5424 396.495 75.8582C399.65 76.6212 398.283 79.6208 395.233 82.6731C392 85.9095 400.07 87.6724 403.935 85.0412C406.012 83.6466 406.774 82.8046 409.613 77.5948C413.767 70.0168 414.346 60.7023 405.591 55.3346C396.837 49.9405 391.342 56.8344 385.874 54.3347Z" fill="#221101"/>
<path d="M403.961 85.0413C406.038 83.6468 406.801 82.8048 409.64 77.5949C413.794 70.017 414.372 60.7024 405.618 55.3347C396.837 49.967 391.343 56.8608 385.874 54.3612C385.874 54.3612 385.664 55.3347 385.822 56.703C388.661 57.3081 396.364 59.2289 398.23 62.7285C400.518 67.0437 403.331 65.807 402.884 71.0432C402.463 76.0951 403.462 82.7521 395.049 85.2255C398.046 87.5673 402.463 86.0675 403.961 85.0413Z" fill="#341C09"/>
<path d="M391.106 90.8042L384.507 95.4088C384.507 95.4088 402.542 101.303 408.036 92.7513C408.825 91.5409 408.115 87.3573 405.092 86.4626C405.118 86.4626 404.198 93.567 391.106 90.8042Z" fill="#DEF0F9"/>
<path d="M361.557 183.897C363.187 188.264 363.765 188.396 364.764 187.843C369.549 185.16 371.862 175.477 371.599 174.556C370.837 171.977 371.363 170.109 371.363 170.109C371.389 169.925 371.441 169.74 371.494 169.504L365.579 168.451C365.079 170.293 364.527 171.872 363.16 174.214C360.61 178.687 361.267 183.133 361.557 183.897Z" fill="#E6A376"/>
<path d="M379.906 100.092C391.053 101.934 384.086 139.929 380.589 149.296L372.834 173.135C372.834 173.135 368.391 174.056 364.316 169.425L370.705 145.165C370.468 142.271 367.471 98.0396 379.906 100.092Z" fill="#2E2B33"/>
<g clip-path="url(#clip0_174_3283)">
<path d="M656.311 194.245L656.206 228.741L329.627 419.392L329.732 384.896L656.311 194.245Z" fill="#77B1FF"/>
</g>
<defs>
<clipPath id="clip0_174_3283">
<rect width="326.684" height="225.147" fill="white" transform="translate(329.627 194.245)"/>
</clipPath>
</defs>
</svg>
