<svg width="437" height="335" viewBox="0 0 437 335" fill="none" xmlns="http://www.w3.org/2000/svg">
<path d="M-0.000488281 176.603V190.146L0.0695851 190.095C0.27025 191.291 0.964614 192.416 2.16223 193.104L47.6399 219.377C48.3151 219.766 49.07 219.964 49.8217 219.954C50.5607 219.948 51.3028 219.76 51.9653 219.377L97.4971 192.999C98.94 192.167 99.6471 190.704 99.6471 189.251V176.603L90.1012 181.25L52.0386 159.318C50.7008 158.55 49.0573 158.55 47.7195 159.325L18.3142 176.294L10.6825 180.693L-0.000488281 176.603Z" fill="#BBE0FD"/>
<path d="M-0.000488281 176.603V190.146L0.0695851 190.095C0.27025 191.291 0.964614 192.416 2.16223 193.104L47.6399 219.377C48.3151 219.766 49.07 219.964 49.8217 219.954V203.648L18.3142 176.294L10.6825 180.693L-0.000488281 176.603Z" fill="#D6EDFF"/>
<path d="M52.0418 146.576L97.4875 172.759C100.373 174.423 100.38 178.586 97.4971 180.256L51.9717 206.631C50.6339 207.406 48.9808 207.409 47.6431 206.634L2.16223 180.358C-0.723518 178.691 -0.720333 174.525 2.16542 172.861L47.7227 146.579C49.0573 145.807 50.704 145.804 52.0418 146.576Z" fill="white"/>
<path d="M52.0418 146.167L97.4875 172.351C100.373 174.015 100.38 178.178 97.4971 179.848L51.9717 206.223C50.6339 206.998 48.9808 207.001 47.6431 206.226L2.16223 179.953C-0.723518 178.286 -0.720333 174.12 2.16542 172.457L47.7227 146.174C49.0573 145.399 50.704 145.399 52.0418 146.167Z" fill="white"/>
<path opacity="0.33" d="M13.8008 183.373L18.4861 186.21L22.5281 183.896C23.2894 184.142 24.1048 184.339 24.9584 184.479V187.195H30.628V184.572C31.7205 184.432 32.7525 184.199 33.7048 183.893L37.9634 186.331L42.6487 183.494L38.387 181.078C39.1992 180.157 39.6547 179.115 39.6547 178.009C39.6547 176.871 39.1674 175.797 38.3105 174.857L42.4003 172.517L37.7149 169.805L33.6539 172.109C32.8066 171.838 31.8956 171.628 30.9369 171.488V168.817H25.2673V171.491C24.3182 171.631 23.4168 171.838 22.5759 172.106L18.7346 169.926L14.0492 172.638L17.9192 174.854C17.0592 175.794 16.5719 176.868 16.5719 178.009C16.5719 179.115 17.0305 180.161 17.8427 181.078L13.8008 183.373ZM24.401 178.009C24.401 176.814 26.0604 175.848 28.1117 175.848C30.1597 175.848 31.8224 176.817 31.8224 178.009C31.8224 179.204 30.1629 180.17 28.1117 180.17C26.0636 180.17 24.401 179.204 24.401 178.009Z" fill="#15325C"/>
<path d="M13.8008 170.806L17.8396 168.514C17.0273 167.593 16.5687 166.551 16.5687 165.445C16.5687 164.874 16.6356 161.802 16.6356 161.802C16.6356 161.802 17.486 162.761 17.916 162.289L14.046 160.074L18.7314 157.362L22.5727 159.542C24.2162 159.016 26.105 158.72 28.1117 158.72C30.1183 158.72 32.0071 159.019 33.6539 159.545L37.7149 157.241L42.4003 159.953L38.3105 162.293C38.7374 162.758 39.6865 161.556 39.6865 161.556C39.6865 161.556 39.6547 164.871 39.6547 165.445C39.6547 166.551 39.196 167.593 38.387 168.514L42.6487 170.93L37.9634 173.767L33.7048 171.329C32.0485 171.864 30.1438 172.17 28.1149 172.17C26.0891 172.17 24.1844 171.864 22.5281 171.332L18.4861 173.646L13.8008 170.806Z" fill="#E8A302"/>
<path d="M30.5641 170.806H24.8945V174.506H30.5641V170.806Z" fill="#FEC400"/>
<path d="M18.4861 169.818V173.642L13.8008 170.806V166.981L18.4861 169.818Z" fill="#FEC400"/>
<path d="M14.0493 156.249V160.074L16.8841 161.678L18.4862 158.226L14.0493 156.249Z" fill="#FEC400"/>
<path d="M37.96 169.942V173.767L42.6453 170.93V167.105L37.96 169.942Z" fill="#FEC400"/>
<path d="M42.4004 156.128V159.95L39.384 161.677L38.0845 158.471L42.4004 156.128Z" fill="#FEC400"/>
<path d="M13.8008 166.981L18.4861 169.818L22.5281 167.504C23.2894 167.749 24.1048 167.947 24.9584 168.087V170.803H30.628V168.18C31.7205 168.039 32.7525 167.807 33.7048 167.501L37.9634 169.939L42.6487 167.102L38.387 164.686C39.1992 163.765 39.6547 162.723 39.6547 161.617C39.6547 160.479 39.1674 159.405 38.3105 158.465L42.4003 156.125L37.7149 153.413L33.6539 155.717C32.8066 155.446 31.8956 155.236 30.9369 155.096V152.425H25.2673V155.099C24.3182 155.239 23.4168 155.446 22.5759 155.714L18.7346 153.534L14.0492 156.246L17.9192 158.462C17.0592 159.402 16.5719 160.476 16.5719 161.617C16.5719 162.723 17.0305 163.768 17.8427 164.686L13.8008 166.981ZM24.401 161.62C24.401 160.425 26.0604 159.459 28.1117 159.459C30.1597 159.459 31.8224 160.428 31.8224 161.62C31.8224 162.815 30.1629 163.781 28.1117 163.781C26.0636 163.781 24.401 162.812 24.401 161.62Z" fill="#FFD561"/>
<path opacity="0.33" d="M43.9644 180.875L50.6787 184.942L56.4693 181.627C57.5618 181.981 58.7275 182.261 59.9538 182.465V186.36H68.0823V182.602C69.6463 182.398 71.1274 182.067 72.4906 181.627L78.5934 185.12L85.3077 181.053L79.2017 177.588C80.3643 176.269 81.0204 174.774 81.0204 173.19C81.0204 171.558 80.3229 170.022 79.0934 168.673L84.9541 165.317L78.2398 161.429L72.4173 164.731C71.2038 164.342 69.8979 164.042 68.5219 163.841V160.013H60.3934V163.848C59.0333 164.049 57.7401 164.348 56.5362 164.731L51.029 161.607L44.3147 165.496L49.8601 168.67C48.6306 170.018 47.9299 171.558 47.9299 173.19C47.9299 174.774 48.586 176.272 49.7518 177.592L43.9644 180.875ZM59.1607 173.19C59.1607 171.478 61.54 170.092 64.4767 170.092C67.4135 170.092 69.7928 171.478 69.7928 173.19C69.7928 174.901 67.4135 176.288 64.4767 176.288C61.54 176.288 59.1607 174.901 59.1607 173.19Z" fill="#15325C"/>
<path d="M43.9644 167.692L49.755 164.405C48.5924 163.086 47.9331 161.591 47.9331 160.004C47.9331 159.188 48.0286 154.783 48.0286 154.783C48.0286 154.783 49.2485 156.157 49.8633 155.481L44.3179 152.306L51.0322 148.418L56.5393 151.541C58.8964 150.789 61.6006 150.362 64.4767 150.362C67.3561 150.362 70.0603 150.789 72.4173 151.545L78.2398 148.243L84.9541 152.131L79.0934 155.487C79.7018 156.157 81.0682 154.429 81.0682 154.429C81.0682 154.429 81.0204 159.181 81.0204 160.004C81.0204 161.588 80.3643 163.083 79.2017 164.402L85.3077 167.867L78.5934 171.934L72.4906 168.441C70.1177 169.209 67.3848 169.645 64.4767 169.645C61.5719 169.645 58.8422 169.209 56.4693 168.444L50.6787 171.759L43.9644 167.692Z" fill="#E8A302"/>
<path d="M67.9962 167.692H59.8677V172.995H67.9962V167.692Z" fill="#FEC400"/>
<path d="M50.6787 166.276V171.759L43.9644 167.692V162.213L50.6787 166.276Z" fill="#FEC400"/>
<path d="M44.3179 146.831V152.31L48.3821 154.608L50.6786 149.658L44.3179 146.831Z" fill="#FEC400"/>
<path d="M78.5933 166.455V171.934L85.3076 167.87V162.388L78.5933 166.455Z" fill="#FEC400"/>
<path d="M84.9544 146.652V152.134L80.6321 154.608L78.772 150.011L84.9544 146.652Z" fill="#FEC400"/>
<path d="M43.9644 162.213L50.6787 166.28L56.4693 162.965C57.5618 163.319 58.7275 163.599 59.9538 163.803V167.698H68.0823V163.94C69.6463 163.736 71.1274 163.405 72.4906 162.965L78.5934 166.458L85.3077 162.391L79.2017 158.927C80.3643 157.607 81.0204 156.112 81.0204 154.528C81.0204 152.896 80.3229 151.36 79.0934 150.012L84.9541 146.655L78.2398 142.767L72.4173 146.069C71.2038 145.68 69.8979 145.38 68.5219 145.18V141.352H60.3934V145.186C59.0333 145.387 57.7401 145.686 56.5362 146.069L51.029 142.945L44.3147 146.834L49.8601 150.008C48.6306 151.357 47.9299 152.896 47.9299 154.528C47.9299 156.112 48.586 157.61 49.7518 158.93L43.9644 162.213ZM59.1607 154.525C59.1607 152.813 61.54 151.427 64.4767 151.427C67.4135 151.427 69.7928 152.813 69.7928 154.525C69.7928 156.236 67.4135 157.623 64.4767 157.623C61.54 157.623 59.1607 156.236 59.1607 154.525Z" fill="#FFD561"/>
<path opacity="0.22" d="M257.905 148.985L59.0649 264.551L137.761 310.015C194.498 342.794 264.431 342.673 321.053 309.7L427.941 247.451L257.905 148.985Z" fill="#15325C"/>
<path d="M427.941 210.734L321.053 272.982C264.428 305.958 194.498 306.079 137.761 273.298L59.0649 227.834L257.901 112.267L427.941 210.734Z" fill="#D6EDFF"/>
<path d="M427.941 195.699V210.733L415.031 203.218L427.941 195.699Z" fill="#D6EDFF"/>
<path d="M72.226 220.184L59.0649 227.834V212.799L72.226 220.184Z" fill="#D6EDFF"/>
<path d="M309.393 262.333L309.648 279.092L427.941 210.733V195.699L237.042 272.924L309.393 262.333Z" fill="#BBE0FD"/>
<path d="M257.905 97.2327L59.0649 212.799L137.761 258.263C194.498 291.041 264.431 290.92 321.053 257.947L427.941 195.699L257.905 97.2327Z" fill="white"/>
<path d="M139.796 259.42V274.455L124.154 265.438V250.403L139.796 259.42Z" fill="white"/>
<path d="M144.271 261.852V276.883L150.135 279.828V264.794L144.271 261.852Z" fill="white"/>
<path d="M331.924 204.654L291.481 229.033L293.669 232.667L334.112 208.288L331.924 204.654Z" fill="#5B95D3"/>
<path d="M290.701 165.83L288.52 169.468L326.673 192.375L328.854 188.737L290.701 165.83Z" fill="#5B95D3"/>
<path d="M121.354 73.3181C120.672 70.2232 119.092 67.9379 116.777 67.2048C114.28 66.4144 111.445 67.6 108.976 70.1085C107.82 65.9904 105.533 62.9848 102.31 61.968C95.3247 59.7592 86.5878 67.702 82.8006 79.7087C82.5713 80.4354 82.3675 81.1589 82.1827 81.8793C78.4465 83.014 74.6498 87.4826 72.7483 93.5098C71.8915 96.2223 71.5316 98.8964 71.6112 101.3L71.213 101.529C68.2572 103.225 66.4321 106.374 66.4321 109.784C66.4321 117.099 74.3345 121.679 80.6761 118.04L127.931 90.9185C130.887 89.2229 132.712 86.0706 132.712 82.6634C132.715 76.4289 126.976 72.1866 121.354 73.3181Z" fill="white"/>
<path d="M430.89 124.538L430.381 124.245C430.483 121.172 430.024 117.752 428.928 114.285C426.495 106.578 421.641 100.863 416.863 99.4094C416.63 98.4882 416.366 97.5607 416.073 96.6332C411.228 81.2798 400.058 71.1218 391.124 73.9458C387.002 75.2494 384.078 79.0901 382.597 84.3588C379.437 81.1492 375.813 79.6384 372.621 80.6456C369.662 81.5794 367.639 84.5022 366.767 88.4609C359.578 87.0138 352.239 92.4419 352.239 100.413C352.239 104.774 354.571 108.802 358.352 110.973L418.784 145.657C426.893 150.311 436.999 144.453 436.999 135.098C437.003 130.738 434.671 126.709 430.89 124.538Z" fill="white"/>
<path opacity="0.33" d="M376.561 210.348L376.345 210.472L342.302 230.144L342.088 230.02L308.045 210.348L318.419 204.27L341.824 190.558L366.041 204.356L376.351 210.227L376.561 210.348Z" fill="#15325C"/>
<path d="M342.302 206.194L342.088 218.141L341.942 226.192L308.045 206.704V198.472L318.419 192.39L342.302 206.194Z" fill="#183561"/>
<path d="M376.351 198.351L376.345 198.596L376.201 206.705L341.942 226.192L342.088 218.141L342.302 206.195L366.041 192.476L376.351 198.351Z" fill="#23477C"/>
<path d="M376.561 198.472L376.345 198.596L342.302 218.265L342.088 218.141L308.045 198.472L318.419 192.39L341.824 178.678L366.041 192.476L376.351 198.351L376.561 198.472Z" fill="#3C6A9E"/>
<path d="M318.884 198.437L341.862 184.973L365.607 198.503L342.302 211.97L318.884 198.437Z" fill="#FFD561"/>
<path d="M321.98 198.427L341.872 186.774L362.477 198.513L342.302 210.172L321.98 198.427Z" fill="#5B95D3"/>
<path d="M337.629 198.462L342.149 195.813L346.828 198.481L342.244 201.13L337.629 198.462Z" fill="#BBE0FD"/>
<path d="M341.872 188.333L361.12 199.297L362.477 198.513L341.872 186.774L321.98 198.427L323.318 199.202L341.872 188.333Z" fill="#183561"/>
<path d="M200.648 40.2783L268.027 78.8067L334.53 40.2783L267.151 0L200.648 40.2783Z" fill="#5B95D3"/>
<path opacity="0.33" d="M202.773 168.068L263.906 205.082C265.527 206.064 267.556 206.077 269.193 205.117L332.195 168.065C333.887 167.07 334.734 165.352 334.74 163.631C334.747 161.91 333.909 160.185 332.227 159.178L269.782 121.851C268.142 120.873 266.097 120.876 264.463 121.867L202.773 159.232C199.454 161.24 199.454 166.057 202.773 168.068Z" fill="#15325C"/>
<path d="M267.151 78.8067V197.895L334.53 157.613V39.405L267.151 78.8067Z" fill="#23477C"/>
<path d="M275.028 184.004V83.3294L326.657 53.1391V153.145L275.028 184.004ZM276.777 84.3335V180.919L324.905 152.15V56.1893L276.777 84.3335Z" fill="#052754"/>
<path d="M200.648 39.405V157.613L267.151 197.895V78.8067L200.648 39.405Z" fill="#3C6A9E"/>
<path d="M207.761 152.781V57.2955C207.761 55.9695 208.398 54.8667 209.328 54.1814C210.506 53.3113 212.163 53.1073 213.605 53.9615L258.144 80.3494C259.322 81.0474 260.042 82.3128 260.042 83.6833V179.756C260.042 182.774 256.745 184.632 254.165 183.071L209.627 156.096C208.468 155.395 207.761 154.136 207.761 152.781Z" fill="#23477C"/>
<path d="M215.641 153.47C214.482 152.769 213.774 151.51 213.774 150.155V54.6661C213.774 54.4876 213.787 54.3155 213.81 54.1466L213.494 53.9585C212.051 53.1043 210.398 53.3083 209.217 54.1785C208.283 54.8669 207.649 55.9698 207.649 57.2925V152.779C207.649 154.133 208.357 155.392 209.516 156.093L254.054 183.068C256.484 184.54 259.545 182.975 259.896 180.269L215.641 153.47Z" fill="#052754"/>
<path d="M260.153 88.0945L216.399 62.1688V77.0568L260.153 102.979V88.0945Z" fill="#5B95D3"/>
<path d="M260.153 106.482L216.399 80.5598V95.4446L260.153 121.367V106.482Z" fill="#5B95D3"/>
<path d="M260.153 124.87L216.399 98.9475V113.832L260.153 139.755V124.87Z" fill="#5B95D3"/>
<path d="M260.153 143.258L216.399 117.335V132.22L260.153 158.146V143.258Z" fill="#5B95D3"/>
<path d="M260.153 161.649L216.399 135.723V150.611L260.153 176.534V161.649Z" fill="#5B95D3"/>
<path d="M223.91 69.1746V78.9501L252.643 95.9736V86.1981L223.91 69.1746Z" fill="#D6EFFB"/>
<path d="M223.91 97.3379L252.643 114.361V104.589L223.91 87.5623V97.3379Z" fill="#D6EFFB"/>
<path d="M223.91 115.729L252.643 132.752V122.977L223.91 105.953V115.729Z" fill="#D6EFFB"/>
<path d="M223.91 134.116L252.643 151.14V141.364L223.91 124.341V134.116Z" fill="#D6EFFB"/>
<path d="M223.91 152.504L252.643 169.528V159.752L223.91 142.729V152.504Z" fill="#D6EFFB"/>
<path d="M251.627 256.143L251.146 255.863L199.078 225.318L200.046 223.667L251.633 253.931L286.163 233.998L287.119 235.652L251.627 256.143Z" fill="#5B95D3"/>
<path opacity="0.33" d="M323.994 240.044L323.78 240.168L289.734 259.837L289.521 259.713L255.481 240.044L265.852 233.963L289.256 220.251L313.476 234.049L323.783 239.923L323.994 240.044Z" fill="#15325C"/>
<path d="M289.734 236.736L289.521 248.685L289.377 256.733L255.481 237.246V229.013L265.852 222.935L289.734 236.736Z" fill="#183561"/>
<path d="M323.783 228.892L323.78 229.137L323.637 237.246L289.377 256.733L289.521 248.685L289.734 236.736L313.476 223.021L323.783 228.892Z" fill="#23477C"/>
<path d="M323.994 229.013L323.78 229.137L289.734 248.809L289.521 248.685L255.481 229.013L265.852 222.934L289.256 209.222L313.476 223.02L323.783 228.891L323.994 229.013Z" fill="#3C6A9E"/>
<path d="M266.317 228.981L289.295 215.518L313.043 229.048L289.737 242.514L266.317 228.981Z" fill="#FFD561"/>
<path d="M269.413 228.971L289.308 217.315L309.912 229.057L289.738 240.713L269.413 228.971Z" fill="#5B95D3"/>
<path d="M285.064 229.006L289.581 226.358L294.263 229.025L289.68 231.674L285.064 229.006Z" fill="#BBE0FD"/>
<path d="M289.308 218.874L308.555 229.841L309.912 229.057L289.308 217.315L269.413 228.971L270.754 229.743L289.308 218.874Z" fill="#183561"/>
<path opacity="0.33" d="M146.361 204.98C159.227 204.98 169.657 198.903 169.657 191.405C169.657 183.908 159.227 177.831 146.361 177.831C133.495 177.831 123.064 183.908 123.064 191.405C123.064 198.903 133.495 204.98 146.361 204.98Z" fill="#15325C"/>
<path d="M148.437 135.293L144.551 160.775L137.165 188.075C137.165 188.075 136.072 190.022 132.728 186.857L135.99 160.715L134.805 125.412L148.437 135.293Z" fill="#F4CAAB"/>
<path d="M137.235 187.727C137.235 187.727 142.312 191.224 142.739 192.744C143.166 194.265 142.898 195.651 141.513 195.383C140.127 195.116 132.916 193.366 130.559 192.55C128.199 191.734 132.897 185.93 132.897 185.93C132.897 185.93 133.368 189.139 137.235 187.727Z" fill="#052754"/>
<path d="M157.254 130.378L158.26 156.138L156.174 184.342C156.174 184.342 155.467 186.462 151.588 183.988L149.823 157.502L141.997 123.263L157.254 130.378Z" fill="#F4CAAB"/>
<path d="M156.178 183.988C156.178 183.988 161.825 186.462 162.529 187.874C163.236 189.286 163.236 190.698 161.822 190.698C160.407 190.698 152.999 190.344 150.527 189.99C148.055 189.636 151.572 183.048 151.572 183.048C151.572 183.048 152.648 186.105 156.178 183.988Z" fill="#052754"/>
<path d="M159.124 156.15C158.738 164.641 157.582 180.855 157.582 180.855C157.582 180.855 151.794 182.398 150.253 180.855L150.052 168.326L149.867 156.925L142.924 131.41L148.221 130.279L157.197 128.36C157.193 128.36 159.509 147.659 159.124 156.15Z" fill="#F1249A"/>
<path d="M151.024 156.15L150.052 168.326L149.867 156.925L142.924 131.41L148.221 130.279C148.065 145.301 151.024 156.15 151.024 156.15Z" fill="#BC1D87"/>
<path d="M134.435 131.063C134.821 133.38 135.951 159.574 135.951 159.574L132.508 181.627C134.824 184.715 139.452 183.169 139.452 183.169L145.625 160.396L149.482 141.097V131.834C149.479 131.834 134.05 128.746 134.435 131.063Z" fill="#F1249A"/>
<path d="M182.656 114.76C182.656 114.76 184.073 113.431 185.36 113.737C186.647 114.043 185.611 115.439 185.611 115.439C189.236 117.259 188.408 118.377 188.408 118.377C187.796 120.953 186.51 120.65 186.51 120.65C184.911 120.765 181.143 117.969 181.143 117.969L182.656 114.76Z" fill="#F9BEAE"/>
<path d="M183.372 113.909L166.29 108.87C166.29 108.87 158.662 98.0933 154.187 94.6223L150.788 100.159L149.625 102.046C149.625 102.046 160.738 114.757 163.131 115.263C165.395 115.738 180.174 118.534 181.831 118.836C181.85 118.833 181.866 118.84 181.878 118.849C181.901 118.859 181.92 118.856 181.936 118.859C181.968 118.865 181.983 118.871 181.983 118.871L183.372 113.909Z" fill="#FFD561"/>
<path d="M149.368 92.9011L140.057 82.9025C136.363 91.6262 143.268 98.2622 134.19 105.153C125.113 112.044 156.617 121.405 149.368 92.9011Z" fill="#052754"/>
<path d="M133.942 106.702L134.346 108.675C135.939 116.411 135.799 124.401 133.942 132.073C133.942 132.073 150.247 136.382 157.939 129.954L157.878 129.597C156.744 122.792 156.34 115.885 156.668 108.994L157.187 98.144C157.187 98.144 156.929 96.4133 155.461 94.9631C154.719 94.23 153.779 93.7933 152.792 93.6626C151.807 93.532 150.779 93.7105 149.864 94.2109L137.254 101.108C136.426 101.561 135.726 102.182 135.184 102.915C134.394 103.993 133.942 105.316 133.942 106.702Z" fill="#FEC400"/>
<path d="M149.954 99.4795C149.954 99.4795 145.179 100.936 143.103 98.6508V86.5421L145.205 88.6648L149.33 92.8339L149.798 97.7934L149.954 99.4795Z" fill="#F9BEAE"/>
<path d="M149.797 97.7937C147.549 96.1873 145.252 93.3888 145.208 88.6652L149.332 92.8342L149.797 97.7937Z" fill="#F9BEAE"/>
<path d="M157.235 98.1698L155.824 112.296C162.528 109.118 157.235 98.1698 157.235 98.1698Z" fill="#FEC400"/>
<path d="M156.792 134.83C156.792 134.83 158.671 134.34 159.655 135.223C160.64 136.105 159.066 136.838 159.066 136.838C161.382 140.169 160.12 140.756 160.12 140.756C158.356 142.729 157.368 141.846 157.368 141.846C155.91 141.183 153.932 136.928 153.932 136.928L156.792 134.83Z" fill="#F9BEAE"/>
<path d="M157.827 134.425L145.22 121.839C145.22 121.839 143.94 111.078 142.006 105.198C141.669 104.165 140.997 103.279 140.095 102.673C138.586 101.657 136.792 101.816 135.502 102.715C134.435 103.457 133.709 104.707 133.77 106.211L133.817 107.413C133.83 107.728 133.872 108.041 133.942 108.35C134.56 111.04 137.722 124.522 139.395 125.95C141.156 127.448 152.81 136.966 154.123 138.024C154.142 138.034 154.155 138.043 154.158 138.056C154.171 138.072 154.19 138.081 154.202 138.091C154.225 138.113 154.237 138.123 154.237 138.123L157.827 134.425Z" fill="#FFD561"/>
<path d="M152.585 80.5755C152.585 80.5755 158.226 95.6133 151.833 95.8619C145.444 96.1137 141.86 89.3438 141.86 89.3438L144.577 82.7779L152.585 80.5755Z" fill="#F9BEAE"/>
<path d="M142.379 80.6424C135.143 85.6911 142.838 90.8546 142.838 90.8546L144.3 90.367C145.867 89.3598 145.823 87.4346 145.823 87.4346C150.839 89.6148 151.979 85.0951 154.419 86.9629C155.983 80.5436 149.616 75.5969 142.379 80.6424Z" fill="#052754"/>
<path d="M144.647 89.0827C145.558 89.956 145.771 91.2118 145.128 91.8812C144.484 92.5537 143.223 92.3879 142.312 91.5146C141.401 90.6413 141.188 89.3855 141.831 88.7161C142.478 88.0436 143.736 88.2093 144.647 89.0827Z" fill="#F9BEAE"/>
<path d="M154.661 83.0106C151.543 79.3388 145.644 84.3556 145.644 84.3556L144.465 88.2155C145.644 90.147 145.153 90.147 145.596 90.9183C146.039 91.6897 146.431 88.6011 146.431 88.6011C153.116 90.147 157.779 86.6856 154.661 83.0106Z" fill="#052754"/>
<path opacity="0.33" d="M242.788 221.092L242.386 221.325L178.667 258.142L178.266 257.909L114.557 221.092L133.967 209.714L177.772 184.052L223.097 209.876L242.393 220.866L242.788 221.092Z" fill="#15325C"/>
<path d="M178.667 214.903L178.266 237.265L177.995 252.331L114.557 215.859V200.451L133.967 189.073L178.667 214.903Z" fill="#183561"/>
<path d="M242.393 200.225L242.387 200.684L242.116 215.859L177.996 252.331L178.266 237.265L178.668 214.903L223.097 189.232L242.393 200.225Z" fill="#23477C"/>
<path d="M242.788 200.451L242.386 200.684L178.667 237.497L178.266 237.265L114.557 200.451L133.967 189.072L177.772 163.408L223.097 189.232L242.393 200.225L242.788 200.451Z" fill="#3C6A9E"/>
<path d="M134.836 200.384L177.842 175.192L222.288 200.512L178.667 225.714L134.836 200.384Z" fill="#FFD561"/>
<path d="M140.633 200.368L177.861 178.558L216.43 200.531L178.667 222.348L140.633 200.368Z" fill="#5B95D3"/>
<path d="M169.921 200.432L178.381 195.479L187.14 200.47L178.562 205.427L169.921 200.432Z" fill="#BBE0FD"/>
<path d="M177.861 181.474L213.889 201.997L216.43 200.531L177.861 178.558L140.633 200.368L143.137 201.815L177.861 181.474Z" fill="#183561"/>
</svg>
