<svg width="155" height="231" viewBox="0 0 155 231" fill="none" xmlns="http://www.w3.org/2000/svg">
<mask id="mask0_174_11604" style="mask-type:luminance" maskUnits="userSpaceOnUse" x="-76" y="0" width="231" height="231">
<path d="M39.5 231C103.289 231 155 179.289 155 115.5C155 51.7111 103.289 0 39.5 0C-24.2889 0 -76 51.7111 -76 115.5C-76 179.289 -24.2889 231 39.5 231Z" fill="white"/>
</mask>
<g mask="url(#mask0_174_11604)">
<path d="M8.1273 -79.4292L-392.754 321.429" stroke="#EA6F2C" stroke-opacity="0.3" stroke-width="2" stroke-miterlimit="10" stroke-linecap="round" stroke-linejoin="round"/>
<path d="M24.3295 -79.4292L-376.529 321.429" stroke="#EA6F2C" stroke-opacity="0.3" stroke-width="2" stroke-miterlimit="10" stroke-linecap="round" stroke-linejoin="round"/>
<path d="M40.5546 -79.4292L-360.304 321.429" stroke="#EA6F2C" stroke-opacity="0.3" stroke-width="2" stroke-miterlimit="10" stroke-linecap="round" stroke-linejoin="round"/>
<path d="M56.7796 -79.4292L-344.102 321.429" stroke="#EA6F2C" stroke-opacity="0.3" stroke-width="2" stroke-miterlimit="10" stroke-linecap="round" stroke-linejoin="round"/>
<path d="M72.9818 -79.4292L-327.876 321.429" stroke="#EA6F2C" stroke-opacity="0.3" stroke-width="2" stroke-miterlimit="10" stroke-linecap="round" stroke-linejoin="round"/>
<path d="M89.2065 -79.4292L-311.652 321.429" stroke="#EA6F2C" stroke-opacity="0.3" stroke-width="2" stroke-miterlimit="10" stroke-linecap="round" stroke-linejoin="round"/>
<path d="M105.432 -79.4292L-295.45 321.429" stroke="#EA6F2C" stroke-opacity="0.3" stroke-width="2" stroke-miterlimit="10" stroke-linecap="round" stroke-linejoin="round"/>
<path d="M121.634 -79.4292L-279.225 321.429" stroke="#EA6F2C" stroke-opacity="0.3" stroke-width="2" stroke-miterlimit="10" stroke-linecap="round" stroke-linejoin="round"/>
<path d="M137.859 -79.4292L-263 321.429" stroke="#EA6F2C" stroke-opacity="0.3" stroke-width="2" stroke-miterlimit="10" stroke-linecap="round" stroke-linejoin="round"/>
<path d="M154.083 -79.4292L-246.798 321.429" stroke="#EA6F2C" stroke-opacity="0.3" stroke-width="2" stroke-miterlimit="10" stroke-linecap="round" stroke-linejoin="round"/>
<path d="M170.286 -79.4292L-230.572 321.429" stroke="#EA6F2C" stroke-opacity="0.3" stroke-width="2" stroke-miterlimit="10" stroke-linecap="round" stroke-linejoin="round"/>
<path d="M186.511 -79.4292L-214.348 321.429" stroke="#EA6F2C" stroke-opacity="0.3" stroke-width="2" stroke-miterlimit="10" stroke-linecap="round" stroke-linejoin="round"/>
<path d="M202.736 -79.4292L-198.146 321.429" stroke="#EA6F2C" stroke-opacity="0.3" stroke-width="2" stroke-miterlimit="10" stroke-linecap="round" stroke-linejoin="round"/>
<path d="M218.937 -79.4292L-181.921 321.429" stroke="#EA6F2C" stroke-opacity="0.3" stroke-width="2" stroke-miterlimit="10" stroke-linecap="round" stroke-linejoin="round"/>
<path d="M235.163 -79.4292L-165.695 321.429" stroke="#EA6F2C" stroke-opacity="0.3" stroke-width="2" stroke-miterlimit="10" stroke-linecap="round" stroke-linejoin="round"/>
<path d="M251.388 -79.4292L-149.493 321.429" stroke="#EA6F2C" stroke-opacity="0.3" stroke-width="2" stroke-miterlimit="10" stroke-linecap="round" stroke-linejoin="round"/>
<path d="M267.59 -79.4292L-133.269 321.429" stroke="#EA6F2C" stroke-opacity="0.3" stroke-width="2" stroke-miterlimit="10" stroke-linecap="round" stroke-linejoin="round"/>
<path d="M283.815 -79.4292L-117.043 321.429" stroke="#EA6F2C" stroke-opacity="0.3" stroke-width="2" stroke-miterlimit="10" stroke-linecap="round" stroke-linejoin="round"/>
<path d="M300.039 -79.4292L-100.842 321.429" stroke="#EA6F2C" stroke-opacity="0.3" stroke-width="2" stroke-miterlimit="10" stroke-linecap="round" stroke-linejoin="round"/>
<path d="M316.242 -79.4292L-84.6162 321.429" stroke="#EA6F2C" stroke-opacity="0.3" stroke-width="2" stroke-miterlimit="10" stroke-linecap="round" stroke-linejoin="round"/>
<path d="M332.467 -79.4292L-68.3916 321.429" stroke="#EA6F2C" stroke-opacity="0.3" stroke-width="2" stroke-miterlimit="10" stroke-linecap="round" stroke-linejoin="round"/>
<path d="M348.692 -79.4292L-52.166 321.429" stroke="#EA6F2C" stroke-opacity="0.3" stroke-width="2" stroke-miterlimit="10" stroke-linecap="round" stroke-linejoin="round"/>
<path d="M364.916 -79.4292L-35.9648 321.429" stroke="#EA6F2C" stroke-opacity="0.3" stroke-width="2" stroke-miterlimit="10" stroke-linecap="round" stroke-linejoin="round"/>
<path d="M381.119 -79.4292L-19.7393 321.429" stroke="#EA6F2C" stroke-opacity="0.3" stroke-width="2" stroke-miterlimit="10" stroke-linecap="round" stroke-linejoin="round"/>
<path d="M397.344 -79.4292L-3.51465 321.429" stroke="#EA6F2C" stroke-opacity="0.3" stroke-width="2" stroke-miterlimit="10" stroke-linecap="round" stroke-linejoin="round"/>
<path d="M413.569 -79.4292L12.6875 321.429" stroke="#EA6F2C" stroke-opacity="0.3" stroke-width="2" stroke-miterlimit="10" stroke-linecap="round" stroke-linejoin="round"/>
<path d="M429.771 -79.4292L28.9131 321.429" stroke="#EA6F2C" stroke-opacity="0.3" stroke-width="2" stroke-miterlimit="10" stroke-linecap="round" stroke-linejoin="round"/>
<path d="M445.996 -79.4292L45.1377 321.429" stroke="#EA6F2C" stroke-opacity="0.3" stroke-width="2" stroke-miterlimit="10" stroke-linecap="round" stroke-linejoin="round"/>
<path d="M462.221 -79.4292L61.3398 321.429" stroke="#EA6F2C" stroke-opacity="0.3" stroke-width="2" stroke-miterlimit="10" stroke-linecap="round" stroke-linejoin="round"/>
<path d="M478.423 -79.4292L77.5645 321.429" stroke="#EA6F2C" stroke-opacity="0.3" stroke-width="2" stroke-miterlimit="10" stroke-linecap="round" stroke-linejoin="round"/>
</g>
</svg>
